M48
; DRILL file {KiCad 5.99.0-unknown-6252493~100~ubuntu18.04.1} date Wed Feb 26 18:10:25 2020
; FORMAT={-:-/ absolute / metric / decimal}
; #@! TF.CreationDate,2020-02-26T18:10:25+08:00
; #@! TF.GenerationSoftware,Kicad,Pcbnew,5.99.0-unknown-6252493~100~ubuntu18.04.1
FMAT,2
METRIC
T1C0.381
T2C0.650
T3C1.000
T4C1.200
T5C1.400
T6C1.500
T7C2.410
T8C3.200
T9C0.800
T10C1.700
%
G90
G05
T1
X90.0Y-111.5
X90.25Y-117.98
X90.53Y-107.7
X92.0Y-109.98
X92.9Y-88.8
X93.0Y-106.5
X93.0Y-107.73
X93.5Y-118.0
X94.75Y-112.98
X95.03Y-110.0
X96.6Y-71.9
X97.0Y-103.5
X97.5Y-108.0
X98.0Y-94.0
X98.344Y-87.3
X98.5Y-70.0
X99.044Y-90.7
X99.1Y-65.0
X99.5Y-94.0
X100.1Y-112.7
X100.4Y-65.0
X100.4Y-66.3
X100.4Y-67.8
X100.7Y-115.5
X101.5Y-94.0
X101.5Y-96.0
X101.9Y-88.1
X101.9Y-115.5
X102.76Y-120.225
X103.0Y-105.0
X103.3Y-89.6
X105.0Y-105.0
X105.7Y-91.3
X108.5Y-86.5
X108.5Y-88.2
X108.5Y-90.0
X108.5Y-91.75
X110.5Y-82.6
X110.5Y-84.3
X110.5Y-86.5
X110.5Y-88.2
X110.5Y-90.0
X110.5Y-91.75
X111.3Y-114.6
X112.1Y-117.4
X113.0Y-82.6
X113.0Y-84.3
X113.4Y-120.8
X113.6Y-119.3
X114.5Y-122.5
X115.0Y-78.0
X115.1Y-82.6
X115.3Y-116.4
X116.0Y-79.0
X116.085Y-126.585
X116.9Y-65.0
X116.9Y-66.4
X117.0Y-80.0
X117.3Y-92.5
X117.8Y-117.7
X118.9Y-62.2
X119.5Y-65.1
X121.1Y-60.2
X122.0Y-67.5
X122.7Y-62.9
X123.5Y-115.3
X124.0Y-60.2
X124.259Y-71.241
X124.8Y-118.1
X124.941Y-70.559
X125.1Y-60.6
X126.5Y-74.9
X126.6Y-62.5
X126.85Y-80.45
X127.0Y-115.438
X127.8Y-67.1
X128.5Y-115.4
X128.85Y-81.65
X129.669Y-71.069
X130.559Y-77.541
X130.95Y-69.15
X131.0Y-65.0
X131.088Y-83.1
X131.241Y-76.859
X131.887Y-83.8
X133.3Y-120.6
X133.65Y-69.45
X133.75Y-71.65
X134.65Y-76.45
X134.95Y-74.95
X135.0Y-116.5
X135.5Y-79.0
X135.7Y-124.6
X136.5Y-80.0
X136.5Y-117.5
X136.7Y-127.6
X137.588Y-83.6
X137.7Y-120.3
X137.7Y-122.6
X138.0Y-60.1
X138.088Y-68.75
X138.6Y-126.6
X139.0Y-78.0
X139.35Y-68.75
X139.75Y-75.5
X140.6Y-125.4
X140.8Y-68.4
X141.487Y-83.6
X141.9Y-68.4
X142.3Y-65.7
X144.05Y-72.65
X145.725Y-77.138
X145.775Y-74.087
X145.95Y-81.8
X146.4Y-66.1
X146.7Y-122.1
X146.7Y-123.6
X146.7Y-125.1
X146.7Y-126.6
X146.7Y-128.1
X147.4Y-97.5
X147.662Y-84.162
X148.0Y-128.1
X148.6Y-97.5
X149.2Y-64.75
X149.218Y-84.19
X149.3Y-128.1
X149.8Y-97.5
X151.0Y-97.5
X151.0Y-98.5
X151.0Y-99.5
X151.25Y-82.5
X151.5Y-68.0
X154.0Y-68.0
X154.2Y-66.1
X155.118Y-84.19
X156.7Y-84.1
X158.1Y-66.1
X92.1Y-111.93
X92.1Y-113.03
X105.73Y-114.935
X105.73Y-116.235
X105.73Y-117.535
X105.73Y-118.835
X105.73Y-120.135
X105.73Y-121.435
X105.73Y-122.735
X107.03Y-114.935
X107.03Y-116.235
X107.03Y-117.535
X107.03Y-118.835
X107.03Y-120.135
X107.03Y-121.435
X107.03Y-122.735
X108.33Y-114.935
X108.33Y-116.235
X108.33Y-117.535
X108.33Y-118.835
X108.33Y-120.135
X108.33Y-121.435
X108.33Y-122.735
X121.5Y-65.1
X122.6Y-65.1
T2
X117.5Y-125.93
X117.5Y-127.2
X118.77Y-125.93
X118.77Y-127.2
X120.04Y-125.93
X120.04Y-127.2
X121.31Y-125.93
X121.31Y-127.2
X122.58Y-125.93
X122.58Y-127.2
T3
X127.2Y-127.5
X129.74Y-127.5
X132.28Y-127.5
X134.82Y-127.5
X144.5Y-63.0
X144.5Y-65.54
X144.5Y-68.08
X144.5Y-70.62
X119.5Y-118.6
X119.5Y-121.14
X122.04Y-118.6
X122.04Y-121.14
X140.92Y-90.5
X143.46Y-90.5
X146.0Y-90.5
T4
X100.0Y-80.2
X100.0Y-82.7
X90.95Y-66.425
X90.95Y-74.175
X120.5Y-78.5
X120.5Y-81.04
X120.5Y-83.58
T5
X94.75Y-66.575
X94.75Y-74.025
T6
X155.6Y-109.2
X155.6Y-120.1
T7
X154.29Y-87.82
X154.29Y-104.12
T8
X156.0Y-126.0
X92.0Y-126.0
X92.0Y-62.0
X156.0Y-62.0
T9
X93.7Y-67.8
X93.7Y-72.8
T10
X92.82Y-80.2
X92.82Y-82.7
T0
M30
