%TF.GenerationSoftware,KiCad,Pcbnew,5.99.0-unknown-dd374e12a~102~ubuntu20.04.1*%
%TF.CreationDate,2020-12-02T08:22:49-08:00*%
%TF.ProjectId,blue_interface_board,626c7565-5f69-46e7-9465-72666163655f,rev?*%
%TF.SameCoordinates,Original*%
%TF.FileFunction,Copper,L2,Inr*%
%TF.FilePolarity,Positive*%
%FSLAX46Y46*%
G04 Gerber Fmt 4.6, Leading zero omitted, Abs format (unit mm)*
G04 Created by KiCad (PCBNEW 5.99.0-unknown-dd374e12a~102~ubuntu20.04.1) date 2020-12-02 08:22:49*
%MOMM*%
%LPD*%
G01*
G04 APERTURE LIST*
%TA.AperFunction,ComponentPad*%
%ADD10C,3.000000*%
%TD*%
%TA.AperFunction,ComponentPad*%
%ADD11C,0.762000*%
%TD*%
%TA.AperFunction,ComponentPad*%
%ADD12O,4.500000X2.500000*%
%TD*%
%TA.AperFunction,ComponentPad*%
%ADD13C,5.000000*%
%TD*%
%TA.AperFunction,ComponentPad*%
%ADD14C,1.000000*%
%TD*%
%TA.AperFunction,ComponentPad*%
%ADD15O,1.000000X1.000000*%
%TD*%
%TA.AperFunction,ComponentPad*%
%ADD16C,2.000000*%
%TD*%
%TA.AperFunction,ComponentPad*%
%ADD17C,1.800000*%
%TD*%
%TA.AperFunction,ComponentPad*%
%ADD18C,1.700000*%
%TD*%
%TA.AperFunction,ComponentPad*%
%ADD19O,1.700000X1.700000*%
%TD*%
%TA.AperFunction,ComponentPad*%
%ADD20O,2.200000X1.740000*%
%TD*%
%TA.AperFunction,ComponentPad*%
%ADD21O,2.200000X1.700000*%
%TD*%
%TA.AperFunction,ViaPad*%
%ADD22C,0.762000*%
%TD*%
G04 APERTURE END LIST*
D10*
X154290000Y-104120000D03*
X154290000Y-87820000D03*
D11*
X108330000Y-114935000D03*
X105730000Y-114935000D03*
X107030000Y-118835000D03*
X105730000Y-120135000D03*
X107030000Y-116235000D03*
X108330000Y-118835000D03*
X108330000Y-121435000D03*
X105730000Y-118835000D03*
X108330000Y-122735000D03*
X105730000Y-122735000D03*
X107030000Y-114935000D03*
X108330000Y-120135000D03*
X107030000Y-122735000D03*
X107030000Y-117535000D03*
X105730000Y-117535000D03*
X108330000Y-117535000D03*
X107030000Y-121435000D03*
X105730000Y-121435000D03*
X108330000Y-116235000D03*
X105730000Y-116235000D03*
X107030000Y-120135000D03*
D12*
X155600000Y-109200000D03*
X155600000Y-120100000D03*
D13*
X156000000Y-62000000D03*
X92000000Y-62000000D03*
D14*
X117500000Y-127200000D03*
D15*
X117500000Y-125930000D03*
X118770000Y-127200000D03*
X118770000Y-125930000D03*
X120040000Y-127200000D03*
X120040000Y-125930000D03*
X121310000Y-127200000D03*
X121310000Y-125930000D03*
X122580000Y-127200000D03*
X122580000Y-125930000D03*
D16*
X94750000Y-74025000D03*
D17*
X90950000Y-74175000D03*
X90950000Y-66425000D03*
D16*
X94750000Y-66575000D03*
D18*
X144500000Y-63000000D03*
D19*
X144500000Y-65540000D03*
X144500000Y-68080000D03*
X144500000Y-70620000D03*
%TA.AperFunction,ComponentPad*%
G36*
G01*
X119650000Y-77630000D02*
X121350000Y-77630000D01*
G75*
G02*
X121600000Y-77880000I0J-250000D01*
G01*
X121600000Y-79120000D01*
G75*
G02*
X121350000Y-79370000I-250000J0D01*
G01*
X119650000Y-79370000D01*
G75*
G02*
X119400000Y-79120000I0J250000D01*
G01*
X119400000Y-77880000D01*
G75*
G02*
X119650000Y-77630000I250000J0D01*
G01*
G37*
%TD.AperFunction*%
D20*
X120500000Y-81040000D03*
X120500000Y-83580000D03*
D13*
X92000000Y-126000000D03*
D11*
X92100000Y-111929999D03*
X92100000Y-113029999D03*
%TA.AperFunction,ComponentPad*%
G36*
G01*
X101100000Y-82100000D02*
X101100000Y-83300000D01*
G75*
G02*
X100850000Y-83550000I-250000J0D01*
G01*
X99150000Y-83550000D01*
G75*
G02*
X98900000Y-83300000I0J250000D01*
G01*
X98900000Y-82100000D01*
G75*
G02*
X99150000Y-81850000I250000J0D01*
G01*
X100850000Y-81850000D01*
G75*
G02*
X101100000Y-82100000I0J-250000D01*
G01*
G37*
%TD.AperFunction*%
D21*
X100000000Y-80200000D03*
D13*
X156000000Y-126000000D03*
D18*
X146000000Y-90500000D03*
D19*
X143460000Y-90500000D03*
X140920000Y-90500000D03*
D18*
X127200000Y-127500000D03*
D19*
X129740000Y-127500000D03*
X132280000Y-127500000D03*
X134820000Y-127500000D03*
D18*
X119500000Y-118600000D03*
D19*
X122040000Y-118600000D03*
X119500000Y-121140000D03*
X122040000Y-121140000D03*
D11*
X121500000Y-65100000D03*
X122600000Y-65100000D03*
D22*
X133650000Y-69450000D03*
X134950000Y-74950000D03*
X134650000Y-76450000D03*
X128850000Y-81650000D03*
X145775000Y-74087500D03*
X144050000Y-72650000D03*
X129668750Y-71068750D03*
X138000000Y-60100000D03*
X158100000Y-66100000D03*
X122000000Y-67500000D03*
X146400000Y-66100000D03*
X137587500Y-83600000D03*
X127800000Y-67100000D03*
X139750000Y-75500000D03*
X96600000Y-71900000D03*
X118900000Y-62200000D03*
X138087500Y-68750000D03*
X121100000Y-60200000D03*
X126600000Y-62500000D03*
X126500000Y-74900000D03*
X141900000Y-68400000D03*
X100400000Y-67800000D03*
X131887500Y-83800000D03*
X98500000Y-70000000D03*
X149200000Y-64750000D03*
X119500000Y-65100000D03*
X154200000Y-66100000D03*
X124000000Y-60200000D03*
X125100000Y-60600000D03*
X122700000Y-62900000D03*
X139350000Y-68750000D03*
X100400000Y-66300000D03*
X116900000Y-66400000D03*
X99100000Y-65000000D03*
X116900000Y-65000000D03*
X100400000Y-65000000D03*
X155117500Y-84190000D03*
X149217500Y-84190000D03*
X103000000Y-105000000D03*
X100700000Y-115500000D03*
X124258750Y-71241250D03*
X130558750Y-77541250D03*
X131241250Y-76858750D03*
X124941250Y-70558750D03*
X101900000Y-115500000D03*
X105000000Y-105000000D03*
X111300000Y-114600000D03*
X128500000Y-115400000D03*
X151500000Y-68000000D03*
X139000000Y-78000000D03*
X136500000Y-80000000D03*
X154000000Y-68000000D03*
X135500000Y-79000000D03*
X94750000Y-112979999D03*
X137700000Y-120300000D03*
X133300000Y-120600000D03*
X116085000Y-126585000D03*
X92000000Y-109979999D03*
X117800000Y-117700000D03*
X135700000Y-124600000D03*
X124800000Y-118100000D03*
X136700000Y-127600000D03*
X103300000Y-89600000D03*
X90530000Y-107699999D03*
X117300000Y-92500000D03*
X117000000Y-80000000D03*
X140600000Y-125400000D03*
X98343750Y-87300000D03*
X116000000Y-79000000D03*
X90000000Y-111500000D03*
X115000000Y-78000000D03*
X113600000Y-119300000D03*
X112100000Y-117400000D03*
X148000000Y-128100000D03*
X146700000Y-125100000D03*
X146700000Y-122100000D03*
X146700000Y-128100000D03*
X146700000Y-123600000D03*
X146700000Y-126600000D03*
X98000000Y-94000000D03*
X99500000Y-94000000D03*
X101500000Y-94000000D03*
X101500000Y-96000000D03*
X110500000Y-82600000D03*
X110500000Y-84300000D03*
X110500000Y-91750000D03*
X151250000Y-82500000D03*
X151000000Y-97500000D03*
X102760000Y-120225000D03*
X114500000Y-122500000D03*
X105700000Y-91300000D03*
X108500000Y-88200000D03*
X138600000Y-126600000D03*
X108500000Y-86500000D03*
X137700000Y-122600000D03*
X149300000Y-128100000D03*
X92900000Y-88800000D03*
X127000000Y-115437500D03*
X115300000Y-116400000D03*
X113400000Y-120800000D03*
X148600000Y-97500000D03*
X100100000Y-112700000D03*
X90250000Y-117979999D03*
X113000000Y-82600000D03*
X149800000Y-97500000D03*
X151000000Y-99500000D03*
X110500000Y-90000000D03*
X135000000Y-116500000D03*
X93000000Y-106500000D03*
X115100000Y-82600000D03*
X147662500Y-84162500D03*
X123500000Y-115300000D03*
X101900000Y-88100000D03*
X136500000Y-117500000D03*
X93000000Y-107729999D03*
X151000000Y-98500000D03*
X108500000Y-90000000D03*
X95030001Y-110000000D03*
X108500000Y-91750000D03*
X113000000Y-84300000D03*
X110500000Y-88200000D03*
X156700000Y-84100000D03*
X93500000Y-118000000D03*
X110500000Y-86500000D03*
X147400000Y-97500000D03*
X99043750Y-90700000D03*
X97000000Y-103500000D03*
X97500000Y-108000000D03*
X145725000Y-77137500D03*
X130950000Y-69150000D03*
X126850000Y-80450000D03*
X133750000Y-71650000D03*
X131087500Y-83100000D03*
X145950000Y-81800000D03*
X140800000Y-68400000D03*
X131000000Y-65000000D03*
X142300000Y-65700000D03*
X141487500Y-83600000D03*
%TA.AperFunction,Conductor*%
G36*
X154864904Y-59274002D02*
G01*
X154911397Y-59327658D01*
X154921501Y-59397932D01*
X154892007Y-59462512D01*
X154854573Y-59491966D01*
X154589329Y-59628868D01*
X154589320Y-59628874D01*
X154314682Y-59815518D01*
X154314679Y-59815520D01*
X154064455Y-60033804D01*
X153842260Y-60280576D01*
X153842259Y-60280577D01*
X153651318Y-60552258D01*
X153651316Y-60552262D01*
X153494402Y-60844906D01*
X153373780Y-61154286D01*
X153291200Y-61475912D01*
X153291200Y-61475916D01*
X153247857Y-61805138D01*
X153244380Y-62137170D01*
X153244381Y-62137187D01*
X153280817Y-62467234D01*
X153356646Y-62790535D01*
X153470762Y-63102369D01*
X153621515Y-63398237D01*
X153806727Y-63673863D01*
X154023692Y-63925220D01*
X154023700Y-63925228D01*
X154269305Y-64148711D01*
X154269314Y-64148718D01*
X154539977Y-64341067D01*
X154831798Y-64499514D01*
X155140545Y-64621755D01*
X155461735Y-64706018D01*
X155461745Y-64706020D01*
X155790722Y-64751084D01*
X155790746Y-64751086D01*
X156122745Y-64756301D01*
X156452993Y-64721591D01*
X156453007Y-64721589D01*
X156776670Y-64647460D01*
X156776681Y-64647457D01*
X157089106Y-64534977D01*
X157089112Y-64534974D01*
X157385766Y-64385774D01*
X157385775Y-64385768D01*
X157662354Y-64202009D01*
X157914847Y-63986360D01*
X157914854Y-63986353D01*
X158139610Y-63741932D01*
X158139626Y-63741913D01*
X158333378Y-63472279D01*
X158333395Y-63472253D01*
X158493358Y-63181284D01*
X158493364Y-63181271D01*
X158503094Y-63157067D01*
X158547061Y-63101323D01*
X158614186Y-63078198D01*
X158683157Y-63095035D01*
X158732077Y-63146488D01*
X158746001Y-63204064D01*
X158746001Y-72874000D01*
X158725999Y-72942121D01*
X158672343Y-72988614D01*
X158620001Y-73000000D01*
X146500000Y-73000000D01*
X146500000Y-76736082D01*
X146479998Y-76804203D01*
X146426342Y-76850696D01*
X146356068Y-76860800D01*
X146272063Y-76810142D01*
X146179610Y-76682890D01*
X146016876Y-76564658D01*
X145825573Y-76502500D01*
X145624427Y-76502500D01*
X145433124Y-76564658D01*
X145270390Y-76682890D01*
X145152158Y-76845624D01*
X145090000Y-77036927D01*
X145090000Y-77238073D01*
X145152158Y-77429376D01*
X145270390Y-77592110D01*
X145433124Y-77710342D01*
X145624427Y-77772500D01*
X145825573Y-77772500D01*
X146016876Y-77710342D01*
X146179610Y-77592110D01*
X146272063Y-77464858D01*
X146328286Y-77421503D01*
X146399022Y-77415427D01*
X146461814Y-77448559D01*
X146500000Y-77538918D01*
X146500000Y-81167407D01*
X146479998Y-81235528D01*
X146426342Y-81282021D01*
X146356068Y-81292125D01*
X146299940Y-81269344D01*
X146241876Y-81227158D01*
X146050573Y-81165000D01*
X145849427Y-81165000D01*
X145658124Y-81227158D01*
X145495390Y-81345390D01*
X145377158Y-81508124D01*
X145315000Y-81699427D01*
X145315000Y-81900573D01*
X145377158Y-82091876D01*
X145495390Y-82254610D01*
X145658124Y-82372842D01*
X145849427Y-82435000D01*
X146050573Y-82435000D01*
X146241876Y-82372842D01*
X146299940Y-82330656D01*
X146366808Y-82306798D01*
X146435959Y-82322879D01*
X146485439Y-82373794D01*
X146500000Y-82432593D01*
X146500000Y-82447810D01*
X146463095Y-82536905D01*
X144536905Y-84463095D01*
X144447810Y-84500000D01*
X129052190Y-84500000D01*
X128963095Y-84463095D01*
X127499427Y-82999427D01*
X130452500Y-82999427D01*
X130452500Y-83200573D01*
X130514658Y-83391876D01*
X130632890Y-83554610D01*
X130795624Y-83672842D01*
X130986927Y-83735000D01*
X131188073Y-83735000D01*
X131379376Y-83672842D01*
X131542110Y-83554610D01*
X131582202Y-83499427D01*
X140852500Y-83499427D01*
X140852500Y-83700573D01*
X140914658Y-83891876D01*
X141032890Y-84054610D01*
X141195624Y-84172842D01*
X141386927Y-84235000D01*
X141588073Y-84235000D01*
X141779376Y-84172842D01*
X141942110Y-84054610D01*
X142060342Y-83891876D01*
X142122500Y-83700573D01*
X142122500Y-83499427D01*
X142060342Y-83308124D01*
X141942110Y-83145390D01*
X141779376Y-83027158D01*
X141588073Y-82965000D01*
X141386927Y-82965000D01*
X141195624Y-83027158D01*
X141032890Y-83145390D01*
X140914658Y-83308124D01*
X140852500Y-83499427D01*
X131582202Y-83499427D01*
X131660342Y-83391876D01*
X131722500Y-83200573D01*
X131722500Y-82999427D01*
X131660342Y-82808124D01*
X131542110Y-82645390D01*
X131379376Y-82527158D01*
X131188073Y-82465000D01*
X130986927Y-82465000D01*
X130795624Y-82527158D01*
X130632890Y-82645390D01*
X130514658Y-82808124D01*
X130452500Y-82999427D01*
X127499427Y-82999427D01*
X124849427Y-80349427D01*
X126215000Y-80349427D01*
X126215000Y-80550573D01*
X126277158Y-80741876D01*
X126395390Y-80904610D01*
X126558124Y-81022842D01*
X126749427Y-81085000D01*
X126950573Y-81085000D01*
X127141876Y-81022842D01*
X127304610Y-80904610D01*
X127422842Y-80741876D01*
X127485000Y-80550573D01*
X127485000Y-80349427D01*
X127422842Y-80158124D01*
X127304610Y-79995390D01*
X127141876Y-79877158D01*
X126950573Y-79815000D01*
X126749427Y-79815000D01*
X126558124Y-79877158D01*
X126395390Y-79995390D01*
X126277158Y-80158124D01*
X126215000Y-80349427D01*
X124849427Y-80349427D01*
X124536905Y-80036905D01*
X124500000Y-79947810D01*
X124500000Y-78899427D01*
X134865000Y-78899427D01*
X134865000Y-79100573D01*
X134927158Y-79291876D01*
X135045390Y-79454610D01*
X135208124Y-79572842D01*
X135399427Y-79635000D01*
X135600573Y-79635000D01*
X135757085Y-79584146D01*
X135828052Y-79582118D01*
X135888850Y-79618781D01*
X135920176Y-79682493D01*
X135915854Y-79742915D01*
X135865000Y-79899427D01*
X135865000Y-80100573D01*
X135927158Y-80291876D01*
X136045390Y-80454610D01*
X136208124Y-80572842D01*
X136399427Y-80635000D01*
X136600573Y-80635000D01*
X136791876Y-80572842D01*
X136954610Y-80454610D01*
X137072842Y-80291876D01*
X137135000Y-80100573D01*
X137135000Y-79899427D01*
X137072842Y-79708124D01*
X136954610Y-79545390D01*
X136791876Y-79427158D01*
X136600573Y-79365000D01*
X136399427Y-79365000D01*
X136242915Y-79415854D01*
X136171948Y-79417882D01*
X136111150Y-79381219D01*
X136079824Y-79317507D01*
X136084146Y-79257085D01*
X136135000Y-79100573D01*
X136135000Y-78899427D01*
X136072842Y-78708124D01*
X135954610Y-78545390D01*
X135791876Y-78427158D01*
X135600573Y-78365000D01*
X135399427Y-78365000D01*
X135208124Y-78427158D01*
X135045390Y-78545390D01*
X134927158Y-78708124D01*
X134865000Y-78899427D01*
X124500000Y-78899427D01*
X124500000Y-77440677D01*
X129923750Y-77440677D01*
X129923750Y-77641823D01*
X129985908Y-77833126D01*
X130104140Y-77995860D01*
X130266874Y-78114092D01*
X130458177Y-78176250D01*
X130659323Y-78176250D01*
X130850626Y-78114092D01*
X131013360Y-77995860D01*
X131083421Y-77899427D01*
X138365000Y-77899427D01*
X138365000Y-78100573D01*
X138427158Y-78291876D01*
X138545390Y-78454610D01*
X138708124Y-78572842D01*
X138899427Y-78635000D01*
X139100573Y-78635000D01*
X139291876Y-78572842D01*
X139454610Y-78454610D01*
X139572842Y-78291876D01*
X139635000Y-78100573D01*
X139635000Y-77899427D01*
X139572842Y-77708124D01*
X139454610Y-77545390D01*
X139291876Y-77427158D01*
X139100573Y-77365000D01*
X138899427Y-77365000D01*
X138708124Y-77427158D01*
X138545390Y-77545390D01*
X138427158Y-77708124D01*
X138365000Y-77899427D01*
X131083421Y-77899427D01*
X131131592Y-77833126D01*
X131193750Y-77641823D01*
X131193750Y-77619750D01*
X131213752Y-77551629D01*
X131267408Y-77505136D01*
X131319750Y-77493750D01*
X131341823Y-77493750D01*
X131533126Y-77431592D01*
X131695860Y-77313360D01*
X131814092Y-77150626D01*
X131876250Y-76959323D01*
X131876250Y-76758177D01*
X131814092Y-76566874D01*
X131695860Y-76404140D01*
X131533126Y-76285908D01*
X131341823Y-76223750D01*
X131140677Y-76223750D01*
X130949374Y-76285908D01*
X130786640Y-76404140D01*
X130668408Y-76566874D01*
X130606250Y-76758177D01*
X130606250Y-76780250D01*
X130586248Y-76848371D01*
X130532592Y-76894864D01*
X130480250Y-76906250D01*
X130458177Y-76906250D01*
X130266874Y-76968408D01*
X130104140Y-77086640D01*
X129985908Y-77249374D01*
X129923750Y-77440677D01*
X124500000Y-77440677D01*
X124500000Y-75000000D01*
X89380000Y-75000000D01*
X89311879Y-74979998D01*
X89265386Y-74926342D01*
X89254000Y-74874000D01*
X89254000Y-72799997D01*
X93040803Y-72799997D01*
X93040803Y-72800003D01*
X93061512Y-72963931D01*
X93061513Y-72963936D01*
X93122340Y-73117569D01*
X93122340Y-73117570D01*
X93219467Y-73251252D01*
X93346785Y-73356578D01*
X93496299Y-73426934D01*
X93496301Y-73426935D01*
X93658602Y-73457895D01*
X93658614Y-73457896D01*
X93823518Y-73447522D01*
X93823519Y-73447522D01*
X93980673Y-73396458D01*
X93980677Y-73396456D01*
X94120186Y-73307922D01*
X94120187Y-73307921D01*
X94233302Y-73187466D01*
X94233302Y-73187465D01*
X94312906Y-73042666D01*
X94312907Y-73042664D01*
X94353998Y-72882627D01*
X94353999Y-72882616D01*
X94353999Y-72717384D01*
X94353998Y-72717373D01*
X94312907Y-72557336D01*
X94312906Y-72557334D01*
X94233302Y-72412535D01*
X94233302Y-72412534D01*
X94120187Y-72292079D01*
X94120186Y-72292078D01*
X93980677Y-72203544D01*
X93980673Y-72203542D01*
X93823519Y-72152478D01*
X93823518Y-72152478D01*
X93658614Y-72142104D01*
X93658602Y-72142105D01*
X93496301Y-72173065D01*
X93496299Y-72173066D01*
X93346785Y-72243422D01*
X93219467Y-72348748D01*
X93122340Y-72482430D01*
X93122340Y-72482431D01*
X93061513Y-72636064D01*
X93061512Y-72636069D01*
X93040803Y-72799997D01*
X89254000Y-72799997D01*
X89254000Y-71140677D01*
X123623750Y-71140677D01*
X123623750Y-71341823D01*
X123685908Y-71533126D01*
X123804140Y-71695860D01*
X123966874Y-71814092D01*
X124158177Y-71876250D01*
X124359323Y-71876250D01*
X124550626Y-71814092D01*
X124713360Y-71695860D01*
X124819748Y-71549427D01*
X133115000Y-71549427D01*
X133115000Y-71750573D01*
X133177158Y-71941876D01*
X133295390Y-72104610D01*
X133458124Y-72222842D01*
X133649427Y-72285000D01*
X133850573Y-72285000D01*
X134041876Y-72222842D01*
X134204610Y-72104610D01*
X134322842Y-71941876D01*
X134385000Y-71750573D01*
X134385000Y-71549427D01*
X134322842Y-71358124D01*
X134204610Y-71195390D01*
X134041876Y-71077158D01*
X133850573Y-71015000D01*
X133649427Y-71015000D01*
X133458124Y-71077158D01*
X133295390Y-71195390D01*
X133177158Y-71358124D01*
X133115000Y-71549427D01*
X124819748Y-71549427D01*
X124831592Y-71533126D01*
X124893750Y-71341823D01*
X124893750Y-71319750D01*
X124913752Y-71251629D01*
X124967408Y-71205136D01*
X125019750Y-71193750D01*
X125041823Y-71193750D01*
X125233126Y-71131592D01*
X125395860Y-71013360D01*
X125514092Y-70850626D01*
X125576250Y-70659323D01*
X125576250Y-70617095D01*
X143390983Y-70617095D01*
X143390983Y-70617102D01*
X143410442Y-70826859D01*
X143469214Y-71029156D01*
X143469215Y-71029158D01*
X143565181Y-71216691D01*
X143694880Y-71382698D01*
X143694886Y-71382704D01*
X143853627Y-71521182D01*
X143853629Y-71521183D01*
X144035701Y-71627151D01*
X144234523Y-71696777D01*
X144442920Y-71727550D01*
X144442933Y-71727551D01*
X144653390Y-71718361D01*
X144858316Y-71669542D01*
X145050316Y-71582850D01*
X145222459Y-71461416D01*
X145368528Y-71309627D01*
X145368533Y-71309621D01*
X145483262Y-71132954D01*
X145483268Y-71132943D01*
X145562520Y-70937770D01*
X145562523Y-70937760D01*
X145603441Y-70731113D01*
X145603441Y-70731111D01*
X145604007Y-70514667D01*
X145564173Y-70307810D01*
X145564171Y-70307802D01*
X145485941Y-70112212D01*
X145485937Y-70112206D01*
X145372130Y-69934934D01*
X145226852Y-69782376D01*
X145055350Y-69660046D01*
X144863802Y-69572348D01*
X144659139Y-69522456D01*
X144448727Y-69512165D01*
X144240160Y-69541848D01*
X144240159Y-69541849D01*
X144040984Y-69610430D01*
X144040976Y-69610434D01*
X143858362Y-69715441D01*
X143858356Y-69715445D01*
X143698886Y-69853095D01*
X143698882Y-69853099D01*
X143568321Y-70018418D01*
X143568320Y-70018419D01*
X143471370Y-70205453D01*
X143411542Y-70407429D01*
X143411541Y-70407433D01*
X143390983Y-70617095D01*
X125576250Y-70617095D01*
X125576250Y-70458177D01*
X125514092Y-70266874D01*
X125395860Y-70104140D01*
X125233126Y-69985908D01*
X125041823Y-69923750D01*
X124840677Y-69923750D01*
X124649374Y-69985908D01*
X124486640Y-70104140D01*
X124368408Y-70266874D01*
X124306250Y-70458177D01*
X124306250Y-70480250D01*
X124286248Y-70548371D01*
X124232592Y-70594864D01*
X124180250Y-70606250D01*
X124158177Y-70606250D01*
X123966874Y-70668408D01*
X123804140Y-70786640D01*
X123685908Y-70949374D01*
X123623750Y-71140677D01*
X89254000Y-71140677D01*
X89254000Y-69049427D01*
X130315000Y-69049427D01*
X130315000Y-69250573D01*
X130377158Y-69441876D01*
X130495390Y-69604610D01*
X130658124Y-69722842D01*
X130849427Y-69785000D01*
X131050573Y-69785000D01*
X131241876Y-69722842D01*
X131404610Y-69604610D01*
X131522842Y-69441876D01*
X131585000Y-69250573D01*
X131585000Y-69049427D01*
X131522842Y-68858124D01*
X131404610Y-68695390D01*
X131341347Y-68649427D01*
X138715000Y-68649427D01*
X138715000Y-68850573D01*
X138777158Y-69041876D01*
X138895390Y-69204610D01*
X139058124Y-69322842D01*
X139249427Y-69385000D01*
X139450573Y-69385000D01*
X139641876Y-69322842D01*
X139804610Y-69204610D01*
X139922842Y-69041876D01*
X139985000Y-68850573D01*
X139985000Y-68741441D01*
X140005002Y-68673320D01*
X140058658Y-68626827D01*
X140128932Y-68616723D01*
X140193512Y-68646217D01*
X140223267Y-68684238D01*
X140227159Y-68691877D01*
X140345390Y-68854610D01*
X140508124Y-68972842D01*
X140699427Y-69035000D01*
X140900573Y-69035000D01*
X141091876Y-68972842D01*
X141254610Y-68854610D01*
X141372842Y-68691876D01*
X141435000Y-68500573D01*
X141435000Y-68299427D01*
X141372842Y-68108124D01*
X141350299Y-68077095D01*
X143390983Y-68077095D01*
X143390983Y-68077102D01*
X143410442Y-68286859D01*
X143469214Y-68489156D01*
X143469215Y-68489158D01*
X143565181Y-68676691D01*
X143694880Y-68842698D01*
X143694886Y-68842704D01*
X143853627Y-68981182D01*
X143853629Y-68981183D01*
X144035701Y-69087151D01*
X144234523Y-69156777D01*
X144442920Y-69187550D01*
X144442933Y-69187551D01*
X144653390Y-69178361D01*
X144858316Y-69129542D01*
X145050316Y-69042850D01*
X145222459Y-68921416D01*
X145368528Y-68769627D01*
X145368533Y-68769621D01*
X145483262Y-68592954D01*
X145483268Y-68592943D01*
X145562520Y-68397770D01*
X145562523Y-68397760D01*
X145603441Y-68191113D01*
X145603441Y-68191111D01*
X145604007Y-67974667D01*
X145589519Y-67899427D01*
X150865000Y-67899427D01*
X150865000Y-68100573D01*
X150927158Y-68291876D01*
X151045390Y-68454610D01*
X151208124Y-68572842D01*
X151399427Y-68635000D01*
X151600573Y-68635000D01*
X151791876Y-68572842D01*
X151954610Y-68454610D01*
X152072842Y-68291876D01*
X152135000Y-68100573D01*
X152135000Y-67899427D01*
X153365000Y-67899427D01*
X153365000Y-68100573D01*
X153427158Y-68291876D01*
X153545390Y-68454610D01*
X153708124Y-68572842D01*
X153899427Y-68635000D01*
X154100573Y-68635000D01*
X154291876Y-68572842D01*
X154454610Y-68454610D01*
X154572842Y-68291876D01*
X154635000Y-68100573D01*
X154635000Y-67899427D01*
X154572842Y-67708124D01*
X154454610Y-67545390D01*
X154291876Y-67427158D01*
X154100573Y-67365000D01*
X153899427Y-67365000D01*
X153708124Y-67427158D01*
X153545390Y-67545390D01*
X153427158Y-67708124D01*
X153365000Y-67899427D01*
X152135000Y-67899427D01*
X152072842Y-67708124D01*
X151954610Y-67545390D01*
X151791876Y-67427158D01*
X151600573Y-67365000D01*
X151399427Y-67365000D01*
X151208124Y-67427158D01*
X151045390Y-67545390D01*
X150927158Y-67708124D01*
X150865000Y-67899427D01*
X145589519Y-67899427D01*
X145564173Y-67767810D01*
X145564171Y-67767802D01*
X145485941Y-67572212D01*
X145485937Y-67572206D01*
X145372130Y-67394934D01*
X145226852Y-67242376D01*
X145055350Y-67120046D01*
X144863802Y-67032348D01*
X144659139Y-66982456D01*
X144448727Y-66972165D01*
X144240160Y-67001848D01*
X144240159Y-67001849D01*
X144040984Y-67070430D01*
X144040976Y-67070434D01*
X143858362Y-67175441D01*
X143858356Y-67175445D01*
X143698886Y-67313095D01*
X143698882Y-67313099D01*
X143568321Y-67478418D01*
X143568320Y-67478419D01*
X143471370Y-67665453D01*
X143411542Y-67867429D01*
X143411541Y-67867433D01*
X143390983Y-68077095D01*
X141350299Y-68077095D01*
X141254610Y-67945390D01*
X141091876Y-67827158D01*
X140900573Y-67765000D01*
X140699427Y-67765000D01*
X140508124Y-67827158D01*
X140345390Y-67945390D01*
X140227158Y-68108124D01*
X140165000Y-68299427D01*
X140165000Y-68408559D01*
X140144998Y-68476680D01*
X140091342Y-68523173D01*
X140021068Y-68533277D01*
X139956488Y-68503783D01*
X139926733Y-68465762D01*
X139922841Y-68458123D01*
X139804610Y-68295390D01*
X139641876Y-68177158D01*
X139450573Y-68115000D01*
X139249427Y-68115000D01*
X139058124Y-68177158D01*
X138895390Y-68295390D01*
X138777158Y-68458124D01*
X138715000Y-68649427D01*
X131341347Y-68649427D01*
X131241876Y-68577158D01*
X131050573Y-68515000D01*
X130849427Y-68515000D01*
X130658124Y-68577158D01*
X130495390Y-68695390D01*
X130377158Y-68858124D01*
X130315000Y-69049427D01*
X89254000Y-69049427D01*
X89254000Y-67799997D01*
X93040803Y-67799997D01*
X93040803Y-67800003D01*
X93061512Y-67963931D01*
X93061513Y-67963936D01*
X93122340Y-68117569D01*
X93122340Y-68117570D01*
X93219467Y-68251252D01*
X93346785Y-68356578D01*
X93496299Y-68426934D01*
X93496301Y-68426935D01*
X93658602Y-68457895D01*
X93658614Y-68457896D01*
X93823518Y-68447522D01*
X93823519Y-68447522D01*
X93980673Y-68396458D01*
X93980677Y-68396456D01*
X94120186Y-68307922D01*
X94120187Y-68307921D01*
X94233302Y-68187466D01*
X94233302Y-68187465D01*
X94312906Y-68042666D01*
X94312907Y-68042664D01*
X94353998Y-67882627D01*
X94353999Y-67882616D01*
X94353999Y-67717384D01*
X94353998Y-67717373D01*
X94312907Y-67557336D01*
X94312906Y-67557334D01*
X94233302Y-67412535D01*
X94233302Y-67412534D01*
X94120187Y-67292079D01*
X94120186Y-67292078D01*
X93980677Y-67203544D01*
X93980673Y-67203542D01*
X93823519Y-67152478D01*
X93823518Y-67152478D01*
X93658614Y-67142104D01*
X93658602Y-67142105D01*
X93496301Y-67173065D01*
X93496299Y-67173066D01*
X93346785Y-67243422D01*
X93219467Y-67348748D01*
X93122340Y-67482430D01*
X93122340Y-67482431D01*
X93061513Y-67636064D01*
X93061512Y-67636069D01*
X93040803Y-67799997D01*
X89254000Y-67799997D01*
X89254000Y-64899427D01*
X98465000Y-64899427D01*
X98465000Y-65100573D01*
X98527158Y-65291876D01*
X98645390Y-65454610D01*
X98808124Y-65572842D01*
X98999427Y-65635000D01*
X99200573Y-65635000D01*
X99391876Y-65572842D01*
X99554610Y-65454610D01*
X99648063Y-65325981D01*
X99704285Y-65282626D01*
X99775022Y-65276550D01*
X99851937Y-65325981D01*
X99945390Y-65454610D01*
X100074019Y-65548063D01*
X100117374Y-65604285D01*
X100123450Y-65675022D01*
X100074019Y-65751937D01*
X99945390Y-65845390D01*
X99827158Y-66008124D01*
X99765000Y-66199427D01*
X99765000Y-66400573D01*
X99827158Y-66591876D01*
X99945390Y-66754610D01*
X100108124Y-66872842D01*
X100299427Y-66935000D01*
X100500573Y-66935000D01*
X100691876Y-66872842D01*
X100854610Y-66754610D01*
X100972842Y-66591876D01*
X101035000Y-66400573D01*
X101035000Y-66199427D01*
X100972842Y-66008124D01*
X100854610Y-65845390D01*
X100725981Y-65751937D01*
X100682626Y-65695715D01*
X100676550Y-65624978D01*
X100725981Y-65548063D01*
X100854610Y-65454610D01*
X100972842Y-65291876D01*
X101035000Y-65100573D01*
X101035000Y-64899427D01*
X116265000Y-64899427D01*
X116265000Y-65100573D01*
X116327158Y-65291876D01*
X116445390Y-65454610D01*
X116608124Y-65572842D01*
X116630669Y-65580167D01*
X116689275Y-65620241D01*
X116716912Y-65685637D01*
X116704805Y-65755594D01*
X116630669Y-65819833D01*
X116608124Y-65827158D01*
X116445390Y-65945390D01*
X116327158Y-66108124D01*
X116265000Y-66299427D01*
X116265000Y-66500573D01*
X116327158Y-66691876D01*
X116445390Y-66854610D01*
X116608124Y-66972842D01*
X116799427Y-67035000D01*
X117000573Y-67035000D01*
X117191876Y-66972842D01*
X117354610Y-66854610D01*
X117472842Y-66691876D01*
X117535000Y-66500573D01*
X117535000Y-66299427D01*
X117472842Y-66108124D01*
X117354610Y-65945390D01*
X117191876Y-65827158D01*
X117169331Y-65819833D01*
X117110725Y-65779759D01*
X117083088Y-65714363D01*
X117095195Y-65644406D01*
X117169331Y-65580167D01*
X117191876Y-65572842D01*
X117354610Y-65454610D01*
X117472842Y-65291876D01*
X117535000Y-65100573D01*
X117535000Y-64999427D01*
X118865000Y-64999427D01*
X118865000Y-65200573D01*
X118927158Y-65391876D01*
X119045390Y-65554610D01*
X119208124Y-65672842D01*
X119399427Y-65735000D01*
X119600573Y-65735000D01*
X119791876Y-65672842D01*
X119954610Y-65554610D01*
X120072842Y-65391876D01*
X120135000Y-65200573D01*
X120135000Y-64999427D01*
X120102509Y-64899427D01*
X130365000Y-64899427D01*
X130365000Y-65100573D01*
X130427158Y-65291876D01*
X130545390Y-65454610D01*
X130708124Y-65572842D01*
X130899427Y-65635000D01*
X131100573Y-65635000D01*
X131210055Y-65599427D01*
X141665000Y-65599427D01*
X141665000Y-65800573D01*
X141727158Y-65991876D01*
X141845390Y-66154610D01*
X142008124Y-66272842D01*
X142199427Y-66335000D01*
X142400573Y-66335000D01*
X142591876Y-66272842D01*
X142754610Y-66154610D01*
X142872842Y-65991876D01*
X142935000Y-65800573D01*
X142935000Y-65599427D01*
X142914748Y-65537095D01*
X143390983Y-65537095D01*
X143390983Y-65537102D01*
X143410442Y-65746859D01*
X143469214Y-65949156D01*
X143469215Y-65949158D01*
X143565181Y-66136691D01*
X143694880Y-66302698D01*
X143694886Y-66302704D01*
X143853627Y-66441182D01*
X143853629Y-66441183D01*
X144035701Y-66547151D01*
X144234523Y-66616777D01*
X144442920Y-66647550D01*
X144442933Y-66647551D01*
X144653390Y-66638361D01*
X144858316Y-66589542D01*
X145050316Y-66502850D01*
X145222459Y-66381416D01*
X145368528Y-66229627D01*
X145368533Y-66229621D01*
X145483262Y-66052954D01*
X145483268Y-66052943D01*
X145504998Y-65999427D01*
X153565000Y-65999427D01*
X153565000Y-66200573D01*
X153627158Y-66391876D01*
X153745390Y-66554610D01*
X153908124Y-66672842D01*
X154099427Y-66735000D01*
X154300573Y-66735000D01*
X154491876Y-66672842D01*
X154654610Y-66554610D01*
X154772842Y-66391876D01*
X154835000Y-66200573D01*
X154835000Y-65999427D01*
X154772842Y-65808124D01*
X154654610Y-65645390D01*
X154491876Y-65527158D01*
X154300573Y-65465000D01*
X154099427Y-65465000D01*
X153908124Y-65527158D01*
X153745390Y-65645390D01*
X153627158Y-65808124D01*
X153565000Y-65999427D01*
X145504998Y-65999427D01*
X145562520Y-65857770D01*
X145562523Y-65857760D01*
X145603441Y-65651113D01*
X145603441Y-65651111D01*
X145604007Y-65434667D01*
X145564173Y-65227810D01*
X145564171Y-65227802D01*
X145485941Y-65032212D01*
X145485937Y-65032206D01*
X145372130Y-64854934D01*
X145226852Y-64702376D01*
X145152620Y-64649427D01*
X148565000Y-64649427D01*
X148565000Y-64850573D01*
X148627158Y-65041876D01*
X148745390Y-65204610D01*
X148908124Y-65322842D01*
X149099427Y-65385000D01*
X149300573Y-65385000D01*
X149491876Y-65322842D01*
X149654610Y-65204610D01*
X149772842Y-65041876D01*
X149835000Y-64850573D01*
X149835000Y-64649427D01*
X149772842Y-64458124D01*
X149654610Y-64295390D01*
X149491876Y-64177158D01*
X149300573Y-64115000D01*
X149099427Y-64115000D01*
X148908124Y-64177158D01*
X148745390Y-64295390D01*
X148627158Y-64458124D01*
X148565000Y-64649427D01*
X145152620Y-64649427D01*
X145055350Y-64580046D01*
X144863802Y-64492348D01*
X144659139Y-64442456D01*
X144448727Y-64432165D01*
X144240160Y-64461848D01*
X144240159Y-64461849D01*
X144040984Y-64530430D01*
X144040976Y-64530434D01*
X143858362Y-64635441D01*
X143858356Y-64635445D01*
X143698886Y-64773095D01*
X143698882Y-64773099D01*
X143568321Y-64938418D01*
X143568320Y-64938419D01*
X143471370Y-65125453D01*
X143411542Y-65327429D01*
X143411541Y-65327433D01*
X143390983Y-65537095D01*
X142914748Y-65537095D01*
X142872842Y-65408124D01*
X142754610Y-65245390D01*
X142591876Y-65127158D01*
X142400573Y-65065000D01*
X142199427Y-65065000D01*
X142008124Y-65127158D01*
X141845390Y-65245390D01*
X141727158Y-65408124D01*
X141665000Y-65599427D01*
X131210055Y-65599427D01*
X131291876Y-65572842D01*
X131454610Y-65454610D01*
X131572842Y-65291876D01*
X131635000Y-65100573D01*
X131635000Y-64899427D01*
X131572842Y-64708124D01*
X131454610Y-64545390D01*
X131291876Y-64427158D01*
X131100573Y-64365000D01*
X130899427Y-64365000D01*
X130708124Y-64427158D01*
X130545390Y-64545390D01*
X130427158Y-64708124D01*
X130365000Y-64899427D01*
X120102509Y-64899427D01*
X120072842Y-64808124D01*
X119954610Y-64645390D01*
X119791876Y-64527158D01*
X119600573Y-64465000D01*
X119399427Y-64465000D01*
X119208124Y-64527158D01*
X119045390Y-64645390D01*
X118927158Y-64808124D01*
X118865000Y-64999427D01*
X117535000Y-64999427D01*
X117535000Y-64899427D01*
X117472842Y-64708124D01*
X117354610Y-64545390D01*
X117191876Y-64427158D01*
X117000573Y-64365000D01*
X116799427Y-64365000D01*
X116608124Y-64427158D01*
X116445390Y-64545390D01*
X116327158Y-64708124D01*
X116265000Y-64899427D01*
X101035000Y-64899427D01*
X100972842Y-64708124D01*
X100854610Y-64545390D01*
X100691876Y-64427158D01*
X100500573Y-64365000D01*
X100299427Y-64365000D01*
X100108124Y-64427158D01*
X99945390Y-64545390D01*
X99851937Y-64674019D01*
X99795715Y-64717374D01*
X99724978Y-64723450D01*
X99648063Y-64674019D01*
X99554610Y-64545390D01*
X99391876Y-64427158D01*
X99200573Y-64365000D01*
X98999427Y-64365000D01*
X98808124Y-64427158D01*
X98645390Y-64545390D01*
X98527158Y-64708124D01*
X98465000Y-64899427D01*
X89254000Y-64899427D01*
X89254000Y-63201778D01*
X89274002Y-63133657D01*
X89327658Y-63087164D01*
X89397932Y-63077060D01*
X89462512Y-63106554D01*
X89492267Y-63144575D01*
X89621515Y-63398237D01*
X89806727Y-63673863D01*
X90023692Y-63925220D01*
X90023700Y-63925228D01*
X90269305Y-64148711D01*
X90269314Y-64148718D01*
X90539977Y-64341067D01*
X90831798Y-64499514D01*
X91140545Y-64621755D01*
X91461735Y-64706018D01*
X91461745Y-64706020D01*
X91790722Y-64751084D01*
X91790746Y-64751086D01*
X92122745Y-64756301D01*
X92452993Y-64721591D01*
X92453007Y-64721589D01*
X92776670Y-64647460D01*
X92776681Y-64647457D01*
X93089106Y-64534977D01*
X93089112Y-64534974D01*
X93385766Y-64385774D01*
X93385775Y-64385768D01*
X93662354Y-64202009D01*
X93914847Y-63986360D01*
X93914854Y-63986353D01*
X94139610Y-63741932D01*
X94139626Y-63741913D01*
X94333378Y-63472279D01*
X94333395Y-63472253D01*
X94493358Y-63181284D01*
X94493367Y-63181266D01*
X94617214Y-62873184D01*
X94636977Y-62799427D01*
X122065000Y-62799427D01*
X122065000Y-63000573D01*
X122127158Y-63191876D01*
X122245390Y-63354610D01*
X122408124Y-63472842D01*
X122599427Y-63535000D01*
X122800573Y-63535000D01*
X122991876Y-63472842D01*
X123154610Y-63354610D01*
X123272842Y-63191876D01*
X123335000Y-63000573D01*
X123335000Y-62799427D01*
X123272842Y-62608124D01*
X123154610Y-62445390D01*
X122991876Y-62327158D01*
X122800573Y-62265000D01*
X122599427Y-62265000D01*
X122408124Y-62327158D01*
X122245390Y-62445390D01*
X122127158Y-62608124D01*
X122065000Y-62799427D01*
X94636977Y-62799427D01*
X94703163Y-62552424D01*
X94703164Y-62552422D01*
X94749952Y-62223672D01*
X94749952Y-62223663D01*
X94754033Y-61833969D01*
X94754032Y-61833957D01*
X94714142Y-61504318D01*
X94634932Y-61181833D01*
X94517560Y-60871212D01*
X94517553Y-60871197D01*
X94363717Y-60576939D01*
X94363712Y-60576930D01*
X94175632Y-60303272D01*
X94175620Y-60303257D01*
X93995921Y-60099427D01*
X123365000Y-60099427D01*
X123365000Y-60300573D01*
X123427158Y-60491876D01*
X123545390Y-60654610D01*
X123708124Y-60772842D01*
X123899427Y-60835000D01*
X124100573Y-60835000D01*
X124291876Y-60772842D01*
X124310630Y-60759216D01*
X124377498Y-60735358D01*
X124446649Y-60751438D01*
X124504524Y-60822215D01*
X124527159Y-60891876D01*
X124645390Y-61054610D01*
X124808124Y-61172842D01*
X124999427Y-61235000D01*
X125200573Y-61235000D01*
X125391876Y-61172842D01*
X125554610Y-61054610D01*
X125672842Y-60891876D01*
X125735000Y-60700573D01*
X125735000Y-60499427D01*
X125672842Y-60308124D01*
X125554610Y-60145390D01*
X125391876Y-60027158D01*
X125200573Y-59965000D01*
X124999427Y-59965000D01*
X124808124Y-60027158D01*
X124789370Y-60040784D01*
X124722502Y-60064642D01*
X124653351Y-60048562D01*
X124595476Y-59977785D01*
X124572841Y-59908124D01*
X124454610Y-59745390D01*
X124291876Y-59627158D01*
X124100573Y-59565000D01*
X123899427Y-59565000D01*
X123708124Y-59627158D01*
X123545390Y-59745390D01*
X123427158Y-59908124D01*
X123365000Y-60099427D01*
X93995921Y-60099427D01*
X93956036Y-60054187D01*
X93956036Y-60054186D01*
X93708110Y-59833292D01*
X93708104Y-59833287D01*
X93435418Y-59643766D01*
X93147562Y-59491354D01*
X93096719Y-59441801D01*
X93080737Y-59372627D01*
X93104691Y-59305793D01*
X93160975Y-59262520D01*
X93206521Y-59254000D01*
X154796783Y-59254000D01*
X154864904Y-59274002D01*
G37*
%TD.AperFunction*%
%TA.AperFunction,Conductor*%
G36*
X122942121Y-76520002D02*
G01*
X122988614Y-76573658D01*
X123000000Y-76626000D01*
X123000000Y-80500000D01*
X123000001Y-80500002D01*
X128499998Y-85999999D01*
X128500000Y-86000000D01*
X145000000Y-86000000D01*
X145000002Y-85999999D01*
X146925985Y-84074016D01*
X148336500Y-84074016D01*
X148336500Y-84305984D01*
X148396539Y-84530051D01*
X148396542Y-84530057D01*
X148512523Y-84730943D01*
X148512530Y-84730953D01*
X148676547Y-84894970D01*
X148676557Y-84894977D01*
X148877443Y-85010958D01*
X148877449Y-85010961D01*
X149101516Y-85071000D01*
X149333484Y-85071000D01*
X149557551Y-85010961D01*
X149557557Y-85010958D01*
X149758443Y-84894977D01*
X149758453Y-84894970D01*
X149922470Y-84730953D01*
X149922477Y-84730943D01*
X150038458Y-84530057D01*
X150038461Y-84530051D01*
X150098500Y-84305984D01*
X150098500Y-84074016D01*
X154236500Y-84074016D01*
X154236500Y-84305984D01*
X154296539Y-84530051D01*
X154296542Y-84530057D01*
X154412523Y-84730943D01*
X154412530Y-84730953D01*
X154576547Y-84894970D01*
X154576557Y-84894977D01*
X154777443Y-85010958D01*
X154777449Y-85010961D01*
X155001516Y-85071000D01*
X155233484Y-85071000D01*
X155457551Y-85010961D01*
X155457557Y-85010958D01*
X155658443Y-84894977D01*
X155658453Y-84894970D01*
X155822470Y-84730953D01*
X155822477Y-84730943D01*
X155938458Y-84530057D01*
X155938461Y-84530051D01*
X155998500Y-84305984D01*
X155998500Y-84074016D01*
X155938461Y-83849949D01*
X155938458Y-83849943D01*
X155822477Y-83649057D01*
X155822470Y-83649047D01*
X155658453Y-83485030D01*
X155658443Y-83485023D01*
X155457557Y-83369042D01*
X155457551Y-83369039D01*
X155233484Y-83309000D01*
X155001516Y-83309000D01*
X154777449Y-83369039D01*
X154777443Y-83369042D01*
X154576557Y-83485023D01*
X154576547Y-83485030D01*
X154412530Y-83649047D01*
X154412523Y-83649057D01*
X154296542Y-83849943D01*
X154296539Y-83849949D01*
X154236500Y-84074016D01*
X150098500Y-84074016D01*
X150038461Y-83849949D01*
X150038458Y-83849943D01*
X149922477Y-83649057D01*
X149922470Y-83649047D01*
X149758453Y-83485030D01*
X149758443Y-83485023D01*
X149557557Y-83369042D01*
X149557551Y-83369039D01*
X149333484Y-83309000D01*
X149101516Y-83309000D01*
X148877449Y-83369039D01*
X148877443Y-83369042D01*
X148676557Y-83485023D01*
X148676547Y-83485030D01*
X148512530Y-83649047D01*
X148512523Y-83649057D01*
X148396542Y-83849943D01*
X148396539Y-83849949D01*
X148336500Y-84074016D01*
X146925985Y-84074016D01*
X147999999Y-83000002D01*
X148000000Y-83000000D01*
X148000000Y-78626000D01*
X148020002Y-78557879D01*
X148073658Y-78511386D01*
X148126000Y-78500000D01*
X158374001Y-78500000D01*
X158442122Y-78520002D01*
X158488615Y-78573658D01*
X158500001Y-78626000D01*
X158500000Y-108581934D01*
X158479998Y-108650055D01*
X158426342Y-108696548D01*
X158356068Y-108706652D01*
X158291488Y-108677158D01*
X158253033Y-108617191D01*
X158243773Y-108585420D01*
X158134879Y-108349209D01*
X157992263Y-108131683D01*
X157819065Y-107937630D01*
X157619085Y-107771307D01*
X157396711Y-107636366D01*
X157396709Y-107636365D01*
X157156841Y-107535780D01*
X156904745Y-107471756D01*
X156904740Y-107471755D01*
X156656080Y-107450000D01*
X154533969Y-107450000D01*
X154340603Y-107464370D01*
X154086921Y-107521773D01*
X154086912Y-107521776D01*
X153844493Y-107616047D01*
X153844489Y-107616049D01*
X153618671Y-107745114D01*
X153414404Y-107906145D01*
X153414397Y-107906152D01*
X153236183Y-108095598D01*
X153236182Y-108095599D01*
X153087920Y-108309319D01*
X152972884Y-108542589D01*
X152972879Y-108542602D01*
X152893581Y-108790325D01*
X152851771Y-109047054D01*
X152848366Y-109307134D01*
X152848367Y-109307147D01*
X152883441Y-109564862D01*
X152883443Y-109564871D01*
X152956226Y-109814578D01*
X153065121Y-110050791D01*
X153207737Y-110268317D01*
X153380935Y-110462370D01*
X153580915Y-110628693D01*
X153803289Y-110763634D01*
X153803291Y-110763635D01*
X154043159Y-110864220D01*
X154295255Y-110928244D01*
X154295260Y-110928245D01*
X154543920Y-110950000D01*
X156666031Y-110950000D01*
X156859397Y-110935630D01*
X157113079Y-110878227D01*
X157113088Y-110878224D01*
X157355507Y-110783953D01*
X157355511Y-110783951D01*
X157581329Y-110654886D01*
X157785596Y-110493855D01*
X157785603Y-110493848D01*
X157963817Y-110304402D01*
X157963818Y-110304401D01*
X158112080Y-110090681D01*
X158227116Y-109857411D01*
X158227121Y-109857398D01*
X158253998Y-109773434D01*
X158293815Y-109714654D01*
X158359091Y-109686732D01*
X158429100Y-109698533D01*
X158481615Y-109746311D01*
X158500000Y-109811847D01*
X158500000Y-119481933D01*
X158479998Y-119550054D01*
X158426342Y-119596547D01*
X158356068Y-119606651D01*
X158291488Y-119577157D01*
X158253034Y-119517191D01*
X158243775Y-119485424D01*
X158134879Y-119249209D01*
X157992263Y-119031683D01*
X157819065Y-118837630D01*
X157619085Y-118671307D01*
X157396711Y-118536366D01*
X157396709Y-118536365D01*
X157156841Y-118435780D01*
X156904745Y-118371756D01*
X156904740Y-118371755D01*
X156656080Y-118350000D01*
X154533969Y-118350000D01*
X154340603Y-118364370D01*
X154086921Y-118421773D01*
X154086912Y-118421776D01*
X153844493Y-118516047D01*
X153844489Y-118516049D01*
X153618671Y-118645114D01*
X153414404Y-118806145D01*
X153414397Y-118806152D01*
X153236183Y-118995598D01*
X153236182Y-118995599D01*
X153087920Y-119209319D01*
X152972884Y-119442589D01*
X152972879Y-119442602D01*
X152893581Y-119690325D01*
X152851771Y-119947054D01*
X152848366Y-120207134D01*
X152848367Y-120207147D01*
X152883441Y-120464862D01*
X152883443Y-120464871D01*
X152956226Y-120714578D01*
X153065121Y-120950791D01*
X153207737Y-121168317D01*
X153380935Y-121362370D01*
X153580915Y-121528693D01*
X153803289Y-121663634D01*
X153803291Y-121663635D01*
X154043159Y-121764220D01*
X154295255Y-121828244D01*
X154295260Y-121828245D01*
X154543920Y-121850000D01*
X156666031Y-121850000D01*
X156859397Y-121835630D01*
X157113079Y-121778227D01*
X157113088Y-121778224D01*
X157355507Y-121683953D01*
X157355511Y-121683951D01*
X157581329Y-121554886D01*
X157785596Y-121393855D01*
X157785603Y-121393848D01*
X157963817Y-121204402D01*
X157963818Y-121204401D01*
X158112080Y-120990681D01*
X158227116Y-120757411D01*
X158227121Y-120757398D01*
X158253998Y-120673435D01*
X158293816Y-120614655D01*
X158359091Y-120586733D01*
X158429100Y-120598534D01*
X158481615Y-120646312D01*
X158500000Y-120711848D01*
X158500000Y-123965401D01*
X158479998Y-124033522D01*
X158426342Y-124080015D01*
X158356068Y-124090119D01*
X158276915Y-124045716D01*
X158201350Y-123954374D01*
X157951643Y-123714913D01*
X157676073Y-123505745D01*
X157676070Y-123505743D01*
X157378281Y-123329632D01*
X157062215Y-123188909D01*
X156732090Y-123085454D01*
X156732089Y-123085454D01*
X156392243Y-123020625D01*
X156047203Y-122995288D01*
X155701534Y-123009774D01*
X155359821Y-123063897D01*
X155359813Y-123063899D01*
X155026606Y-123156932D01*
X154706278Y-123287656D01*
X154403096Y-123454331D01*
X154121101Y-123654734D01*
X154121088Y-123654745D01*
X153864000Y-123886228D01*
X153863982Y-123886246D01*
X153635200Y-124145748D01*
X153635198Y-124145750D01*
X153437746Y-124429848D01*
X153437737Y-124429863D01*
X153274258Y-124734749D01*
X153146898Y-125056424D01*
X153057352Y-125390612D01*
X153006814Y-125732852D01*
X153006813Y-125732865D01*
X152995946Y-126078664D01*
X152995946Y-126078668D01*
X153024897Y-126423427D01*
X153024897Y-126423429D01*
X153093278Y-126762561D01*
X153200192Y-127091603D01*
X153200194Y-127091610D01*
X153344211Y-127406170D01*
X153523428Y-127702092D01*
X153735480Y-127975469D01*
X153977536Y-128222649D01*
X153977548Y-128222660D01*
X154043516Y-128276080D01*
X154083868Y-128334494D01*
X154086234Y-128405451D01*
X154049861Y-128466423D01*
X153964222Y-128500000D01*
X137350113Y-128500000D01*
X137281992Y-128479998D01*
X137235499Y-128426342D01*
X137225395Y-128356068D01*
X137261018Y-128284905D01*
X137404970Y-128140953D01*
X137404977Y-128140943D01*
X137520958Y-127940057D01*
X137520961Y-127940051D01*
X137581000Y-127715984D01*
X137581000Y-127484016D01*
X137520961Y-127259949D01*
X137520958Y-127259943D01*
X137404977Y-127059057D01*
X137404970Y-127059047D01*
X137240953Y-126895030D01*
X137240943Y-126895023D01*
X137040057Y-126779042D01*
X137040051Y-126779039D01*
X136815984Y-126719000D01*
X136584016Y-126719000D01*
X136359949Y-126779039D01*
X136359943Y-126779042D01*
X136159057Y-126895023D01*
X136159047Y-126895030D01*
X135995030Y-127059047D01*
X135995023Y-127059057D01*
X135879042Y-127259943D01*
X135879039Y-127259949D01*
X135819000Y-127484016D01*
X135819000Y-127715984D01*
X135879039Y-127940051D01*
X135879042Y-127940057D01*
X135995023Y-128140943D01*
X135995030Y-128140953D01*
X136138982Y-128284905D01*
X136173008Y-128347217D01*
X136167943Y-128418032D01*
X136125396Y-128474868D01*
X136049887Y-128500000D01*
X133473408Y-128500000D01*
X133405287Y-128479998D01*
X133358794Y-128426342D01*
X133348690Y-128356068D01*
X133376886Y-128293009D01*
X133390080Y-128277285D01*
X133390081Y-128277283D01*
X133508186Y-128072719D01*
X133508190Y-128072710D01*
X133588978Y-127850747D01*
X133588978Y-127850745D01*
X133629999Y-127618108D01*
X133629999Y-127381892D01*
X133588978Y-127149255D01*
X133588978Y-127149253D01*
X133508190Y-126927290D01*
X133508186Y-126927281D01*
X133390081Y-126722717D01*
X133390075Y-126722708D01*
X133238240Y-126541760D01*
X133057292Y-126389925D01*
X133057283Y-126389919D01*
X132852719Y-126271814D01*
X132852710Y-126271810D01*
X132630746Y-126191022D01*
X132398108Y-126150001D01*
X132161892Y-126150001D01*
X131929255Y-126191022D01*
X131929253Y-126191022D01*
X131707290Y-126271810D01*
X131707281Y-126271814D01*
X131502717Y-126389919D01*
X131502708Y-126389925D01*
X131321760Y-126541760D01*
X131169925Y-126722708D01*
X131169919Y-126722717D01*
X131119119Y-126810705D01*
X131067737Y-126859698D01*
X130998023Y-126873134D01*
X130932112Y-126846748D01*
X130900881Y-126810705D01*
X130850081Y-126722717D01*
X130850075Y-126722708D01*
X130698240Y-126541760D01*
X130517292Y-126389925D01*
X130517283Y-126389919D01*
X130312719Y-126271814D01*
X130312710Y-126271810D01*
X130090746Y-126191022D01*
X129858108Y-126150001D01*
X129621892Y-126150001D01*
X129389255Y-126191022D01*
X129389253Y-126191022D01*
X129167290Y-126271810D01*
X129167281Y-126271814D01*
X128962717Y-126389919D01*
X128962708Y-126389925D01*
X128781760Y-126541760D01*
X128629925Y-126722708D01*
X128629919Y-126722717D01*
X128579119Y-126810705D01*
X128527737Y-126859698D01*
X128458023Y-126873134D01*
X128392112Y-126846748D01*
X128360881Y-126810705D01*
X128310081Y-126722717D01*
X128310075Y-126722708D01*
X128158240Y-126541760D01*
X127977292Y-126389925D01*
X127977283Y-126389919D01*
X127772719Y-126271814D01*
X127772710Y-126271810D01*
X127550746Y-126191022D01*
X127318108Y-126150001D01*
X127081892Y-126150001D01*
X126849255Y-126191022D01*
X126849253Y-126191022D01*
X126627290Y-126271810D01*
X126627281Y-126271814D01*
X126422717Y-126389919D01*
X126422708Y-126389925D01*
X126241760Y-126541760D01*
X126089925Y-126722708D01*
X126089919Y-126722717D01*
X125971814Y-126927281D01*
X125971810Y-126927290D01*
X125891022Y-127149253D01*
X125891022Y-127149255D01*
X125850001Y-127381892D01*
X125850001Y-127618108D01*
X125891022Y-127850745D01*
X125891022Y-127850747D01*
X125971810Y-128072710D01*
X125971814Y-128072719D01*
X126089919Y-128277283D01*
X126089920Y-128277285D01*
X126103114Y-128293009D01*
X126131578Y-128358050D01*
X126120361Y-128428155D01*
X126073022Y-128481066D01*
X126006592Y-128500000D01*
X94033982Y-128500000D01*
X93965861Y-128479998D01*
X93919368Y-128426342D01*
X93909264Y-128356068D01*
X93952654Y-128277762D01*
X94068560Y-128179814D01*
X94305396Y-127927611D01*
X94511665Y-127649869D01*
X94511674Y-127649854D01*
X94684655Y-127350243D01*
X94684658Y-127350238D01*
X94822053Y-127032737D01*
X94822059Y-127032721D01*
X94922050Y-126701531D01*
X94922054Y-126701517D01*
X94963887Y-126469016D01*
X115204000Y-126469016D01*
X115204000Y-126700984D01*
X115264039Y-126925051D01*
X115264042Y-126925057D01*
X115380023Y-127125943D01*
X115380030Y-127125953D01*
X115544047Y-127289970D01*
X115544057Y-127289977D01*
X115744943Y-127405958D01*
X115744949Y-127405961D01*
X115969016Y-127466000D01*
X116200984Y-127466000D01*
X116392771Y-127414611D01*
X116463747Y-127416301D01*
X116522543Y-127456095D01*
X116545747Y-127499059D01*
X116574746Y-127592743D01*
X116574751Y-127592754D01*
X116672617Y-127770769D01*
X116804287Y-127925482D01*
X116804292Y-127925486D01*
X116964373Y-128050555D01*
X117146341Y-128140886D01*
X117342758Y-128192781D01*
X117545602Y-128204122D01*
X117746561Y-128174447D01*
X117746577Y-128174443D01*
X117937471Y-128104964D01*
X117937481Y-128104959D01*
X118110508Y-127998511D01*
X118110509Y-127998510D01*
X118258599Y-127859447D01*
X118375705Y-127693439D01*
X118375704Y-127693439D01*
X118457040Y-127507270D01*
X118499279Y-127308552D01*
X118500011Y-127098428D01*
X118500010Y-127098419D01*
X118495129Y-127074639D01*
X118501024Y-127003888D01*
X118544235Y-126947555D01*
X118625588Y-126923499D01*
X118815602Y-126934122D01*
X119016561Y-126904447D01*
X119016577Y-126904443D01*
X119207471Y-126834964D01*
X119207481Y-126834959D01*
X119337950Y-126754693D01*
X119406451Y-126736034D01*
X119481547Y-126762721D01*
X119504375Y-126780557D01*
X119686341Y-126870886D01*
X119882758Y-126922781D01*
X120085601Y-126934122D01*
X120175620Y-126920829D01*
X120245932Y-126930665D01*
X120299765Y-126976953D01*
X120319337Y-127058648D01*
X120304849Y-127196492D01*
X120324674Y-127398680D01*
X120324675Y-127398682D01*
X120384746Y-127592742D01*
X120384751Y-127592754D01*
X120482617Y-127770769D01*
X120614287Y-127925482D01*
X120614292Y-127925486D01*
X120774373Y-128050555D01*
X120956341Y-128140886D01*
X121152758Y-128192781D01*
X121355602Y-128204122D01*
X121556561Y-128174447D01*
X121556577Y-128174443D01*
X121747471Y-128104964D01*
X121747481Y-128104959D01*
X121920508Y-127998511D01*
X121920509Y-127998510D01*
X122068599Y-127859447D01*
X122185705Y-127693439D01*
X122185704Y-127693439D01*
X122267040Y-127507270D01*
X122309279Y-127308552D01*
X122310011Y-127098428D01*
X122310010Y-127098419D01*
X122305129Y-127074639D01*
X122311024Y-127003888D01*
X122354235Y-126947555D01*
X122435588Y-126923499D01*
X122625602Y-126934122D01*
X122826561Y-126904447D01*
X122826577Y-126904443D01*
X123017471Y-126834964D01*
X123017481Y-126834959D01*
X123190508Y-126728511D01*
X123190509Y-126728510D01*
X123338599Y-126589447D01*
X123455705Y-126423439D01*
X123455704Y-126423439D01*
X123537040Y-126237270D01*
X123579279Y-126038552D01*
X123580011Y-125828428D01*
X123580010Y-125828418D01*
X123539162Y-125629420D01*
X123539160Y-125629414D01*
X123459130Y-125442690D01*
X123459129Y-125442688D01*
X123343187Y-125275870D01*
X123196065Y-125135768D01*
X123023781Y-125028113D01*
X122833371Y-124957301D01*
X122632607Y-124926222D01*
X122429695Y-124936145D01*
X122232918Y-124986668D01*
X122050329Y-125075723D01*
X122021004Y-125098306D01*
X121954828Y-125124022D01*
X121877356Y-125105331D01*
X121753781Y-125028113D01*
X121563371Y-124957301D01*
X121362607Y-124926222D01*
X121159695Y-124936145D01*
X120962918Y-124986668D01*
X120780329Y-125075723D01*
X120751004Y-125098306D01*
X120684828Y-125124022D01*
X120607356Y-125105331D01*
X120483781Y-125028113D01*
X120293371Y-124957301D01*
X120092607Y-124926222D01*
X119889695Y-124936145D01*
X119692918Y-124986668D01*
X119510329Y-125075723D01*
X119481004Y-125098306D01*
X119414828Y-125124022D01*
X119337356Y-125105331D01*
X119213781Y-125028113D01*
X119023371Y-124957301D01*
X118822607Y-124926222D01*
X118619695Y-124936145D01*
X118422918Y-124986668D01*
X118240329Y-125075723D01*
X118211004Y-125098306D01*
X118144828Y-125124022D01*
X118067356Y-125105331D01*
X117943781Y-125028113D01*
X117753371Y-124957301D01*
X117552607Y-124926222D01*
X117349695Y-124936145D01*
X117152918Y-124986668D01*
X116970329Y-125075723D01*
X116809365Y-125199681D01*
X116676625Y-125353464D01*
X116577513Y-125530804D01*
X116533786Y-125668647D01*
X116494122Y-125727531D01*
X116428920Y-125755623D01*
X116381073Y-125752255D01*
X116200984Y-125704000D01*
X115969016Y-125704000D01*
X115744949Y-125764039D01*
X115744943Y-125764042D01*
X115544057Y-125880023D01*
X115544047Y-125880030D01*
X115380030Y-126044047D01*
X115380023Y-126044057D01*
X115264042Y-126244943D01*
X115264039Y-126244949D01*
X115204000Y-126469016D01*
X94963887Y-126469016D01*
X94983319Y-126361021D01*
X94983319Y-126361018D01*
X95000101Y-125827014D01*
X94960336Y-125483340D01*
X94881336Y-125146521D01*
X94881332Y-125146505D01*
X94764142Y-124820996D01*
X94610310Y-124511103D01*
X94610309Y-124511102D01*
X94592720Y-124484016D01*
X134819000Y-124484016D01*
X134819000Y-124715984D01*
X134879039Y-124940051D01*
X134879042Y-124940057D01*
X134995023Y-125140943D01*
X134995030Y-125140953D01*
X135159047Y-125304970D01*
X135159057Y-125304977D01*
X135359943Y-125420958D01*
X135359949Y-125420961D01*
X135584016Y-125481000D01*
X135815984Y-125481000D01*
X136040051Y-125420961D01*
X136040057Y-125420958D01*
X136240943Y-125304977D01*
X136240953Y-125304970D01*
X136261907Y-125284016D01*
X139719000Y-125284016D01*
X139719000Y-125515984D01*
X139779039Y-125740051D01*
X139779042Y-125740057D01*
X139895023Y-125940943D01*
X139895030Y-125940953D01*
X140059047Y-126104970D01*
X140059057Y-126104977D01*
X140259943Y-126220958D01*
X140259949Y-126220961D01*
X140484016Y-126281000D01*
X140715984Y-126281000D01*
X140940051Y-126220961D01*
X140940057Y-126220958D01*
X141140943Y-126104977D01*
X141140953Y-126104970D01*
X141304970Y-125940953D01*
X141304977Y-125940943D01*
X141420958Y-125740057D01*
X141420961Y-125740051D01*
X141481000Y-125515984D01*
X141481000Y-125284016D01*
X141420961Y-125059949D01*
X141420958Y-125059943D01*
X141304977Y-124859057D01*
X141304970Y-124859047D01*
X141140953Y-124695030D01*
X141140943Y-124695023D01*
X140940057Y-124579042D01*
X140940051Y-124579039D01*
X140715984Y-124519000D01*
X140484016Y-124519000D01*
X140259949Y-124579039D01*
X140259943Y-124579042D01*
X140059057Y-124695023D01*
X140059047Y-124695030D01*
X139895030Y-124859047D01*
X139895023Y-124859057D01*
X139779042Y-125059943D01*
X139779039Y-125059949D01*
X139719000Y-125284016D01*
X136261907Y-125284016D01*
X136404970Y-125140953D01*
X136404977Y-125140943D01*
X136520958Y-124940057D01*
X136520961Y-124940051D01*
X136581000Y-124715984D01*
X136581000Y-124484016D01*
X136520961Y-124259949D01*
X136520958Y-124259943D01*
X136404977Y-124059057D01*
X136404970Y-124059047D01*
X136240953Y-123895030D01*
X136240943Y-123895023D01*
X136040057Y-123779042D01*
X136040051Y-123779039D01*
X135815984Y-123719000D01*
X135584016Y-123719000D01*
X135359949Y-123779039D01*
X135359943Y-123779042D01*
X135159057Y-123895023D01*
X135159047Y-123895030D01*
X134995030Y-124059047D01*
X134995023Y-124059057D01*
X134879042Y-124259943D01*
X134879039Y-124259949D01*
X134819000Y-124484016D01*
X94592720Y-124484016D01*
X94421888Y-124220959D01*
X94421883Y-124220953D01*
X94201350Y-123954374D01*
X93951643Y-123714913D01*
X93676073Y-123505745D01*
X93676070Y-123505743D01*
X93378281Y-123329632D01*
X93062215Y-123188909D01*
X92732090Y-123085454D01*
X92732089Y-123085454D01*
X92392243Y-123020625D01*
X92047203Y-122995288D01*
X91701534Y-123009774D01*
X91359821Y-123063897D01*
X91359813Y-123063899D01*
X91026606Y-123156932D01*
X90706278Y-123287656D01*
X90403096Y-123454331D01*
X90121101Y-123654734D01*
X90121088Y-123654745D01*
X89864000Y-123886228D01*
X89863982Y-123886246D01*
X89720514Y-124048978D01*
X89660461Y-124086849D01*
X89589467Y-124086240D01*
X89530072Y-124047346D01*
X89500000Y-123965653D01*
X89500000Y-119184016D01*
X112719000Y-119184016D01*
X112719000Y-119415984D01*
X112779039Y-119640051D01*
X112779042Y-119640057D01*
X112895023Y-119840943D01*
X112895030Y-119840953D01*
X113059047Y-120004970D01*
X113059057Y-120004977D01*
X113259943Y-120120958D01*
X113259949Y-120120961D01*
X113484016Y-120181000D01*
X113715984Y-120181000D01*
X113940051Y-120120961D01*
X113940057Y-120120958D01*
X114140943Y-120004977D01*
X114140953Y-120004970D01*
X114304970Y-119840953D01*
X114304977Y-119840943D01*
X114420958Y-119640057D01*
X114420961Y-119640051D01*
X114481000Y-119415984D01*
X114481000Y-119184016D01*
X114420961Y-118959949D01*
X114420958Y-118959943D01*
X114304977Y-118759057D01*
X114304970Y-118759047D01*
X114140953Y-118595030D01*
X114140943Y-118595023D01*
X113940057Y-118479042D01*
X113940051Y-118479039D01*
X113715984Y-118419000D01*
X113484016Y-118419000D01*
X113259949Y-118479039D01*
X113259943Y-118479042D01*
X113059057Y-118595023D01*
X113059047Y-118595030D01*
X112895030Y-118759047D01*
X112895023Y-118759057D01*
X112779042Y-118959943D01*
X112779039Y-118959949D01*
X112719000Y-119184016D01*
X89500000Y-119184016D01*
X89500000Y-117284016D01*
X111219000Y-117284016D01*
X111219000Y-117515984D01*
X111279039Y-117740051D01*
X111279042Y-117740057D01*
X111395023Y-117940943D01*
X111395030Y-117940953D01*
X111559047Y-118104970D01*
X111559057Y-118104977D01*
X111759943Y-118220958D01*
X111759949Y-118220961D01*
X111984016Y-118281000D01*
X112215984Y-118281000D01*
X112440051Y-118220961D01*
X112440057Y-118220958D01*
X112640943Y-118104977D01*
X112640953Y-118104970D01*
X112804970Y-117940953D01*
X112804977Y-117940943D01*
X112920958Y-117740057D01*
X112920961Y-117740051D01*
X112962770Y-117584016D01*
X116919000Y-117584016D01*
X116919000Y-117815984D01*
X116979039Y-118040051D01*
X116979042Y-118040057D01*
X117095023Y-118240943D01*
X117095030Y-118240953D01*
X117259047Y-118404970D01*
X117259057Y-118404977D01*
X117459943Y-118520958D01*
X117459949Y-118520961D01*
X117684016Y-118581000D01*
X117915984Y-118581000D01*
X117991390Y-118560795D01*
X118062366Y-118562485D01*
X118121162Y-118602279D01*
X118150001Y-118682502D01*
X118150001Y-118718108D01*
X118191022Y-118950745D01*
X118191022Y-118950747D01*
X118271810Y-119172710D01*
X118271814Y-119172719D01*
X118389919Y-119377283D01*
X118389925Y-119377292D01*
X118541760Y-119558240D01*
X118722708Y-119710075D01*
X118722717Y-119710081D01*
X118810705Y-119760881D01*
X118859698Y-119812263D01*
X118873134Y-119881977D01*
X118846748Y-119947888D01*
X118810705Y-119979119D01*
X118722717Y-120029919D01*
X118722708Y-120029925D01*
X118541760Y-120181760D01*
X118389925Y-120362708D01*
X118389919Y-120362717D01*
X118271814Y-120567281D01*
X118271810Y-120567290D01*
X118191022Y-120789253D01*
X118191022Y-120789255D01*
X118150001Y-121021892D01*
X118150001Y-121258108D01*
X118191022Y-121490745D01*
X118191022Y-121490747D01*
X118271810Y-121712710D01*
X118271814Y-121712719D01*
X118389919Y-121917283D01*
X118389925Y-121917292D01*
X118541760Y-122098240D01*
X118722708Y-122250075D01*
X118722717Y-122250081D01*
X118927281Y-122368186D01*
X118927290Y-122368190D01*
X119149254Y-122448978D01*
X119381892Y-122489999D01*
X119618108Y-122489999D01*
X119850745Y-122448978D01*
X119850747Y-122448978D01*
X120072710Y-122368190D01*
X120072719Y-122368186D01*
X120277283Y-122250081D01*
X120277292Y-122250075D01*
X120458240Y-122098240D01*
X120610075Y-121917292D01*
X120610081Y-121917283D01*
X120660881Y-121829295D01*
X120712263Y-121780302D01*
X120781977Y-121766866D01*
X120847888Y-121793252D01*
X120879119Y-121829295D01*
X120929919Y-121917283D01*
X120929925Y-121917292D01*
X121081760Y-122098240D01*
X121262708Y-122250075D01*
X121262717Y-122250081D01*
X121467281Y-122368186D01*
X121467290Y-122368190D01*
X121689254Y-122448978D01*
X121921892Y-122489999D01*
X122158108Y-122489999D01*
X122390745Y-122448978D01*
X122390747Y-122448978D01*
X122612710Y-122368190D01*
X122612719Y-122368186D01*
X122817283Y-122250081D01*
X122817292Y-122250075D01*
X122998240Y-122098240D01*
X123150075Y-121917292D01*
X123150081Y-121917283D01*
X123268186Y-121712719D01*
X123268190Y-121712710D01*
X123348978Y-121490747D01*
X123348978Y-121490745D01*
X123389999Y-121258108D01*
X123389999Y-121021892D01*
X123348978Y-120789255D01*
X123348978Y-120789253D01*
X123268190Y-120567290D01*
X123268186Y-120567281D01*
X123220113Y-120484016D01*
X132419000Y-120484016D01*
X132419000Y-120715984D01*
X132479039Y-120940051D01*
X132479042Y-120940057D01*
X132595023Y-121140943D01*
X132595030Y-121140953D01*
X132759047Y-121304970D01*
X132759057Y-121304977D01*
X132959943Y-121420958D01*
X132959949Y-121420961D01*
X133184016Y-121481000D01*
X133415984Y-121481000D01*
X133640051Y-121420961D01*
X133640057Y-121420958D01*
X133840943Y-121304977D01*
X133840953Y-121304970D01*
X134004970Y-121140953D01*
X134004977Y-121140943D01*
X134120958Y-120940057D01*
X134120961Y-120940051D01*
X134181000Y-120715984D01*
X134181000Y-120484016D01*
X134120961Y-120259949D01*
X134120958Y-120259943D01*
X134077122Y-120184016D01*
X136819000Y-120184016D01*
X136819000Y-120415984D01*
X136879039Y-120640051D01*
X136879042Y-120640057D01*
X136995023Y-120840943D01*
X136995030Y-120840953D01*
X137159047Y-121004970D01*
X137159057Y-121004977D01*
X137359943Y-121120958D01*
X137359949Y-121120961D01*
X137584016Y-121181000D01*
X137815984Y-121181000D01*
X138040051Y-121120961D01*
X138040057Y-121120958D01*
X138240943Y-121004977D01*
X138240953Y-121004970D01*
X138404970Y-120840953D01*
X138404977Y-120840943D01*
X138520958Y-120640057D01*
X138520961Y-120640051D01*
X138581000Y-120415984D01*
X138581000Y-120184016D01*
X138520961Y-119959949D01*
X138520958Y-119959943D01*
X138404977Y-119759057D01*
X138404970Y-119759047D01*
X138240953Y-119595030D01*
X138240943Y-119595023D01*
X138040057Y-119479042D01*
X138040051Y-119479039D01*
X137815984Y-119419000D01*
X137584016Y-119419000D01*
X137359949Y-119479039D01*
X137359943Y-119479042D01*
X137159057Y-119595023D01*
X137159047Y-119595030D01*
X136995030Y-119759047D01*
X136995023Y-119759057D01*
X136879042Y-119959943D01*
X136879039Y-119959949D01*
X136819000Y-120184016D01*
X134077122Y-120184016D01*
X134004977Y-120059057D01*
X134004970Y-120059047D01*
X133840953Y-119895030D01*
X133840943Y-119895023D01*
X133640057Y-119779042D01*
X133640051Y-119779039D01*
X133415984Y-119719000D01*
X133184016Y-119719000D01*
X132959949Y-119779039D01*
X132959943Y-119779042D01*
X132759057Y-119895023D01*
X132759047Y-119895030D01*
X132595030Y-120059047D01*
X132595023Y-120059057D01*
X132479042Y-120259943D01*
X132479039Y-120259949D01*
X132419000Y-120484016D01*
X123220113Y-120484016D01*
X123150081Y-120362717D01*
X123150075Y-120362708D01*
X122998240Y-120181760D01*
X122817292Y-120029925D01*
X122817283Y-120029919D01*
X122612719Y-119911814D01*
X122612710Y-119911810D01*
X122390747Y-119831022D01*
X122390745Y-119831022D01*
X122158108Y-119790001D01*
X121921892Y-119790001D01*
X121689254Y-119831022D01*
X121467290Y-119911810D01*
X121467281Y-119911814D01*
X121262717Y-120029919D01*
X121262708Y-120029925D01*
X121081760Y-120181760D01*
X120929925Y-120362708D01*
X120929919Y-120362717D01*
X120879119Y-120450705D01*
X120827737Y-120499698D01*
X120758023Y-120513134D01*
X120692112Y-120486748D01*
X120660881Y-120450705D01*
X120610081Y-120362717D01*
X120610075Y-120362708D01*
X120458240Y-120181760D01*
X120277292Y-120029925D01*
X120277283Y-120029919D01*
X120189295Y-119979119D01*
X120140302Y-119927737D01*
X120126866Y-119858023D01*
X120153252Y-119792112D01*
X120189295Y-119760881D01*
X120277283Y-119710081D01*
X120277292Y-119710075D01*
X120458240Y-119558240D01*
X120610075Y-119377292D01*
X120610081Y-119377283D01*
X120728186Y-119172719D01*
X120728190Y-119172710D01*
X120808978Y-118950747D01*
X120808978Y-118950745D01*
X120849999Y-118718108D01*
X120849999Y-118481892D01*
X120808978Y-118249255D01*
X120808978Y-118249253D01*
X120728190Y-118027290D01*
X120728186Y-118027281D01*
X120703207Y-117984016D01*
X123919000Y-117984016D01*
X123919000Y-118215984D01*
X123979039Y-118440051D01*
X123979042Y-118440057D01*
X124095023Y-118640943D01*
X124095030Y-118640953D01*
X124259047Y-118804970D01*
X124259057Y-118804977D01*
X124459943Y-118920958D01*
X124459949Y-118920961D01*
X124684016Y-118981000D01*
X124915984Y-118981000D01*
X125140051Y-118920961D01*
X125140057Y-118920958D01*
X125340943Y-118804977D01*
X125340953Y-118804970D01*
X125504970Y-118640953D01*
X125504977Y-118640943D01*
X125620958Y-118440057D01*
X125620961Y-118440051D01*
X125681000Y-118215984D01*
X125681000Y-117984016D01*
X125620961Y-117759949D01*
X125620958Y-117759943D01*
X125504977Y-117559057D01*
X125504970Y-117559047D01*
X125340953Y-117395030D01*
X125340943Y-117395023D01*
X125140057Y-117279042D01*
X125140051Y-117279039D01*
X124915984Y-117219000D01*
X124684016Y-117219000D01*
X124459949Y-117279039D01*
X124459943Y-117279042D01*
X124259057Y-117395023D01*
X124259047Y-117395030D01*
X124095030Y-117559047D01*
X124095023Y-117559057D01*
X123979042Y-117759943D01*
X123979039Y-117759949D01*
X123919000Y-117984016D01*
X120703207Y-117984016D01*
X120610081Y-117822717D01*
X120610075Y-117822708D01*
X120458240Y-117641760D01*
X120277292Y-117489925D01*
X120277283Y-117489919D01*
X120072719Y-117371814D01*
X120072710Y-117371810D01*
X119850747Y-117291022D01*
X119850745Y-117291022D01*
X119618108Y-117250001D01*
X119381892Y-117250001D01*
X119149254Y-117291022D01*
X118927290Y-117371810D01*
X118927281Y-117371814D01*
X118806961Y-117441281D01*
X118737966Y-117458019D01*
X118670874Y-117434798D01*
X118624182Y-117367553D01*
X118624121Y-117367578D01*
X118624004Y-117367296D01*
X118622255Y-117364777D01*
X118620962Y-117359951D01*
X118620958Y-117359943D01*
X118504977Y-117159057D01*
X118504970Y-117159047D01*
X118340953Y-116995030D01*
X118340943Y-116995023D01*
X118140057Y-116879042D01*
X118140051Y-116879039D01*
X117915984Y-116819000D01*
X117684016Y-116819000D01*
X117459949Y-116879039D01*
X117459943Y-116879042D01*
X117259057Y-116995023D01*
X117259047Y-116995030D01*
X117095030Y-117159047D01*
X117095023Y-117159057D01*
X116979042Y-117359943D01*
X116979039Y-117359949D01*
X116919000Y-117584016D01*
X112962770Y-117584016D01*
X112981000Y-117515984D01*
X112981000Y-117284016D01*
X112920961Y-117059949D01*
X112920958Y-117059943D01*
X112804977Y-116859057D01*
X112804970Y-116859047D01*
X112640953Y-116695030D01*
X112640943Y-116695023D01*
X112440057Y-116579042D01*
X112440051Y-116579039D01*
X112215984Y-116519000D01*
X111984016Y-116519000D01*
X111759949Y-116579039D01*
X111759943Y-116579042D01*
X111559057Y-116695023D01*
X111559047Y-116695030D01*
X111395030Y-116859047D01*
X111395023Y-116859057D01*
X111279042Y-117059943D01*
X111279039Y-117059949D01*
X111219000Y-117284016D01*
X89500000Y-117284016D01*
X89500000Y-115384016D01*
X99819000Y-115384016D01*
X99819000Y-115615984D01*
X99879039Y-115840051D01*
X99879042Y-115840057D01*
X99995023Y-116040943D01*
X99995030Y-116040953D01*
X100159047Y-116204970D01*
X100159057Y-116204977D01*
X100359943Y-116320958D01*
X100359949Y-116320961D01*
X100584016Y-116381000D01*
X100815984Y-116381000D01*
X101040051Y-116320961D01*
X101040057Y-116320958D01*
X101237000Y-116207254D01*
X101305996Y-116190516D01*
X101363000Y-116207254D01*
X101559943Y-116320958D01*
X101559949Y-116320961D01*
X101784016Y-116381000D01*
X102015984Y-116381000D01*
X102240051Y-116320961D01*
X102240057Y-116320958D01*
X102440943Y-116204977D01*
X102440953Y-116204970D01*
X102604970Y-116040953D01*
X102604977Y-116040943D01*
X102720958Y-115840057D01*
X102720961Y-115840051D01*
X102781000Y-115615984D01*
X102781000Y-115384016D01*
X102720961Y-115159949D01*
X102720958Y-115159943D01*
X102604977Y-114959057D01*
X102604970Y-114959047D01*
X102440953Y-114795030D01*
X102440943Y-114795023D01*
X102240057Y-114679042D01*
X102240051Y-114679039D01*
X102015984Y-114619000D01*
X101784016Y-114619000D01*
X101559949Y-114679039D01*
X101559943Y-114679042D01*
X101363000Y-114792746D01*
X101294004Y-114809484D01*
X101237000Y-114792746D01*
X101040057Y-114679042D01*
X101040051Y-114679039D01*
X100815984Y-114619000D01*
X100584016Y-114619000D01*
X100359949Y-114679039D01*
X100359943Y-114679042D01*
X100159057Y-114795023D01*
X100159047Y-114795030D01*
X99995030Y-114959047D01*
X99995023Y-114959057D01*
X99879042Y-115159943D01*
X99879039Y-115159949D01*
X99819000Y-115384016D01*
X89500000Y-115384016D01*
X89500000Y-114484016D01*
X110419000Y-114484016D01*
X110419000Y-114715984D01*
X110479039Y-114940051D01*
X110479042Y-114940057D01*
X110595023Y-115140943D01*
X110595030Y-115140953D01*
X110759047Y-115304970D01*
X110759057Y-115304977D01*
X110959943Y-115420958D01*
X110959949Y-115420961D01*
X111184016Y-115481000D01*
X111415984Y-115481000D01*
X111640051Y-115420961D01*
X111640057Y-115420958D01*
X111840943Y-115304977D01*
X111840953Y-115304970D01*
X111861907Y-115284016D01*
X127619000Y-115284016D01*
X127619000Y-115515984D01*
X127679039Y-115740051D01*
X127679042Y-115740057D01*
X127795023Y-115940943D01*
X127795030Y-115940953D01*
X127959047Y-116104970D01*
X127959057Y-116104977D01*
X128159943Y-116220958D01*
X128159949Y-116220961D01*
X128384016Y-116281000D01*
X128615984Y-116281000D01*
X128840051Y-116220961D01*
X128840057Y-116220958D01*
X129040943Y-116104977D01*
X129040953Y-116104970D01*
X129204970Y-115940953D01*
X129204977Y-115940943D01*
X129320958Y-115740057D01*
X129320961Y-115740051D01*
X129381000Y-115515984D01*
X129381000Y-115284016D01*
X129320961Y-115059949D01*
X129320958Y-115059943D01*
X129204977Y-114859057D01*
X129204970Y-114859047D01*
X129040953Y-114695030D01*
X129040943Y-114695023D01*
X128840057Y-114579042D01*
X128840051Y-114579039D01*
X128615984Y-114519000D01*
X128384016Y-114519000D01*
X128159949Y-114579039D01*
X128159943Y-114579042D01*
X127959057Y-114695023D01*
X127959047Y-114695030D01*
X127795030Y-114859047D01*
X127795023Y-114859057D01*
X127679042Y-115059943D01*
X127679039Y-115059949D01*
X127619000Y-115284016D01*
X111861907Y-115284016D01*
X112004970Y-115140953D01*
X112004977Y-115140943D01*
X112120958Y-114940057D01*
X112120961Y-114940051D01*
X112181000Y-114715984D01*
X112181000Y-114484016D01*
X112120961Y-114259949D01*
X112120958Y-114259943D01*
X112004977Y-114059057D01*
X112004970Y-114059047D01*
X111840953Y-113895030D01*
X111840943Y-113895023D01*
X111640057Y-113779042D01*
X111640051Y-113779039D01*
X111415984Y-113719000D01*
X111184016Y-113719000D01*
X110959949Y-113779039D01*
X110959943Y-113779042D01*
X110759057Y-113895023D01*
X110759047Y-113895030D01*
X110595030Y-114059047D01*
X110595023Y-114059057D01*
X110479042Y-114259943D01*
X110479039Y-114259949D01*
X110419000Y-114484016D01*
X89500000Y-114484016D01*
X89500000Y-112864015D01*
X93869000Y-112864015D01*
X93869000Y-113095983D01*
X93929039Y-113320050D01*
X93929042Y-113320056D01*
X94045023Y-113520942D01*
X94045030Y-113520952D01*
X94209047Y-113684969D01*
X94209057Y-113684976D01*
X94409943Y-113800957D01*
X94409949Y-113800960D01*
X94634016Y-113860999D01*
X94865984Y-113860999D01*
X95090051Y-113800960D01*
X95090057Y-113800957D01*
X95290943Y-113684976D01*
X95290953Y-113684969D01*
X95454970Y-113520952D01*
X95454977Y-113520942D01*
X95570958Y-113320056D01*
X95570961Y-113320050D01*
X95631000Y-113095983D01*
X95631000Y-112864015D01*
X95570961Y-112639948D01*
X95570958Y-112639942D01*
X95454977Y-112439056D01*
X95454970Y-112439046D01*
X95290953Y-112275029D01*
X95290943Y-112275022D01*
X95090057Y-112159041D01*
X95090051Y-112159038D01*
X94865984Y-112098999D01*
X94634016Y-112098999D01*
X94409949Y-112159038D01*
X94409943Y-112159041D01*
X94209057Y-112275022D01*
X94209047Y-112275029D01*
X94045030Y-112439046D01*
X94045023Y-112439056D01*
X93929042Y-112639942D01*
X93929039Y-112639948D01*
X93869000Y-112864015D01*
X89500000Y-112864015D01*
X89500000Y-112442309D01*
X89520002Y-112374188D01*
X89573658Y-112327695D01*
X89658612Y-112320602D01*
X89884017Y-112381000D01*
X90115984Y-112381000D01*
X90340051Y-112320961D01*
X90340057Y-112320958D01*
X90540943Y-112204977D01*
X90540953Y-112204970D01*
X90704970Y-112040953D01*
X90704977Y-112040943D01*
X90820958Y-111840057D01*
X90820961Y-111840051D01*
X90881000Y-111615984D01*
X90881000Y-111384016D01*
X90820961Y-111159949D01*
X90820958Y-111159943D01*
X90704977Y-110959057D01*
X90704970Y-110959047D01*
X90540953Y-110795030D01*
X90540943Y-110795023D01*
X90340057Y-110679042D01*
X90340051Y-110679039D01*
X90115984Y-110619000D01*
X89884017Y-110619000D01*
X89658612Y-110679398D01*
X89587635Y-110677708D01*
X89528839Y-110637914D01*
X89500000Y-110557691D01*
X89500000Y-109864015D01*
X91119000Y-109864015D01*
X91119000Y-110095983D01*
X91179039Y-110320050D01*
X91179042Y-110320056D01*
X91295023Y-110520942D01*
X91295030Y-110520952D01*
X91459047Y-110684969D01*
X91459057Y-110684976D01*
X91659943Y-110800957D01*
X91659949Y-110800960D01*
X91884016Y-110860999D01*
X92115984Y-110860999D01*
X92340051Y-110800960D01*
X92340057Y-110800957D01*
X92540943Y-110684976D01*
X92540953Y-110684969D01*
X92704970Y-110520952D01*
X92704977Y-110520942D01*
X92820958Y-110320056D01*
X92820961Y-110320050D01*
X92881000Y-110095983D01*
X92881000Y-109864015D01*
X92820961Y-109639948D01*
X92820958Y-109639942D01*
X92704977Y-109439056D01*
X92704970Y-109439046D01*
X92540953Y-109275029D01*
X92540943Y-109275022D01*
X92340057Y-109159041D01*
X92340051Y-109159038D01*
X92115984Y-109098999D01*
X91884016Y-109098999D01*
X91659949Y-109159038D01*
X91659943Y-109159041D01*
X91459057Y-109275022D01*
X91459047Y-109275029D01*
X91295030Y-109439046D01*
X91295023Y-109439056D01*
X91179042Y-109639942D01*
X91179039Y-109639948D01*
X91119000Y-109864015D01*
X89500000Y-109864015D01*
X89500000Y-108148224D01*
X89520002Y-108080103D01*
X89573658Y-108033610D01*
X89643932Y-108023506D01*
X89708512Y-108053000D01*
X89735119Y-108085224D01*
X89825023Y-108240942D01*
X89825030Y-108240952D01*
X89989047Y-108404969D01*
X89989057Y-108404976D01*
X90189943Y-108520957D01*
X90189949Y-108520960D01*
X90414016Y-108580999D01*
X90645984Y-108580999D01*
X90870051Y-108520960D01*
X90870057Y-108520957D01*
X91070943Y-108404976D01*
X91070953Y-108404969D01*
X91234970Y-108240952D01*
X91234977Y-108240942D01*
X91350958Y-108040056D01*
X91350961Y-108040050D01*
X91392770Y-107884016D01*
X96619000Y-107884016D01*
X96619000Y-108115984D01*
X96679039Y-108340051D01*
X96679042Y-108340057D01*
X96795023Y-108540943D01*
X96795030Y-108540953D01*
X96959047Y-108704970D01*
X96959057Y-108704977D01*
X97159943Y-108820958D01*
X97159949Y-108820961D01*
X97384016Y-108881000D01*
X97615984Y-108881000D01*
X97840051Y-108820961D01*
X97840057Y-108820958D01*
X98040943Y-108704977D01*
X98040953Y-108704970D01*
X98204970Y-108540953D01*
X98204977Y-108540943D01*
X98320958Y-108340057D01*
X98320961Y-108340051D01*
X98381000Y-108115984D01*
X98381000Y-107884016D01*
X98320961Y-107659949D01*
X98320958Y-107659943D01*
X98204977Y-107459057D01*
X98204970Y-107459047D01*
X98040953Y-107295030D01*
X98040943Y-107295023D01*
X97840057Y-107179042D01*
X97840051Y-107179039D01*
X97615984Y-107119000D01*
X97384016Y-107119000D01*
X97159949Y-107179039D01*
X97159943Y-107179042D01*
X96959057Y-107295023D01*
X96959047Y-107295030D01*
X96795030Y-107459047D01*
X96795023Y-107459057D01*
X96679042Y-107659943D01*
X96679039Y-107659949D01*
X96619000Y-107884016D01*
X91392770Y-107884016D01*
X91411000Y-107815983D01*
X91411000Y-107584015D01*
X91350961Y-107359948D01*
X91350958Y-107359942D01*
X91234977Y-107159056D01*
X91234970Y-107159046D01*
X91070953Y-106995029D01*
X91070943Y-106995022D01*
X90870057Y-106879041D01*
X90870051Y-106879038D01*
X90645984Y-106818999D01*
X90414016Y-106818999D01*
X90189949Y-106879038D01*
X90189943Y-106879041D01*
X89989057Y-106995022D01*
X89989047Y-106995029D01*
X89825030Y-107159046D01*
X89825023Y-107159056D01*
X89735119Y-107314774D01*
X89683737Y-107363767D01*
X89614023Y-107377203D01*
X89548112Y-107350817D01*
X89506930Y-107292985D01*
X89500000Y-107251774D01*
X89500000Y-104884016D01*
X102119000Y-104884016D01*
X102119000Y-105115984D01*
X102179039Y-105340051D01*
X102179042Y-105340057D01*
X102295023Y-105540943D01*
X102295030Y-105540953D01*
X102459047Y-105704970D01*
X102459057Y-105704977D01*
X102659943Y-105820958D01*
X102659949Y-105820961D01*
X102884016Y-105881000D01*
X103115984Y-105881000D01*
X103340051Y-105820961D01*
X103340057Y-105820958D01*
X103540943Y-105704977D01*
X103540953Y-105704970D01*
X103704970Y-105540953D01*
X103704977Y-105540943D01*
X103820958Y-105340057D01*
X103820961Y-105340051D01*
X103878293Y-105126087D01*
X103915245Y-105065464D01*
X103979106Y-105034443D01*
X104049600Y-105042871D01*
X104104347Y-105088074D01*
X104121707Y-105126087D01*
X104179039Y-105340051D01*
X104179042Y-105340057D01*
X104295023Y-105540943D01*
X104295030Y-105540953D01*
X104459047Y-105704970D01*
X104459057Y-105704977D01*
X104659943Y-105820958D01*
X104659949Y-105820961D01*
X104884016Y-105881000D01*
X105115984Y-105881000D01*
X105340051Y-105820961D01*
X105340057Y-105820958D01*
X105540943Y-105704977D01*
X105540953Y-105704970D01*
X105704970Y-105540953D01*
X105704977Y-105540943D01*
X105820958Y-105340057D01*
X105820961Y-105340051D01*
X105881000Y-105115984D01*
X105881000Y-104884016D01*
X105820961Y-104659949D01*
X105820958Y-104659943D01*
X105704977Y-104459057D01*
X105704970Y-104459047D01*
X105540953Y-104295030D01*
X105540943Y-104295023D01*
X105374136Y-104198717D01*
X152286438Y-104198717D01*
X152286438Y-104198722D01*
X152317518Y-104480234D01*
X152387954Y-104754571D01*
X152496340Y-105016238D01*
X152640518Y-105260030D01*
X152817601Y-105481066D01*
X152817609Y-105481074D01*
X153024065Y-105674949D01*
X153255789Y-105837808D01*
X153508156Y-105966396D01*
X153776111Y-106058138D01*
X154054322Y-106111210D01*
X154337237Y-106124551D01*
X154619210Y-106097898D01*
X154894616Y-106031779D01*
X155157957Y-105927515D01*
X155157962Y-105927512D01*
X155403974Y-105787189D01*
X155627773Y-105613593D01*
X155824879Y-105410197D01*
X155991352Y-105181066D01*
X156123886Y-104930753D01*
X156123889Y-104930744D01*
X156219828Y-104664262D01*
X156277261Y-104386924D01*
X156277262Y-104386917D01*
X156290101Y-103978387D01*
X156250193Y-103697980D01*
X156250191Y-103697975D01*
X156171176Y-103426001D01*
X156054619Y-103167856D01*
X155902867Y-102928733D01*
X155902854Y-102928716D01*
X155718925Y-102713363D01*
X155718910Y-102713348D01*
X155506465Y-102526052D01*
X155269738Y-102370551D01*
X155013466Y-102249958D01*
X154742760Y-102166678D01*
X154742754Y-102166677D01*
X154463012Y-102122370D01*
X154463014Y-102122370D01*
X154179820Y-102117922D01*
X154179809Y-102117923D01*
X153898830Y-102153419D01*
X153898815Y-102153422D01*
X153625645Y-102228152D01*
X153625626Y-102228158D01*
X153365705Y-102340636D01*
X153124202Y-102488629D01*
X152905976Y-102669160D01*
X152905968Y-102669169D01*
X152715357Y-102878648D01*
X152715355Y-102878650D01*
X152556157Y-103112903D01*
X152431553Y-103367250D01*
X152344032Y-103636612D01*
X152344030Y-103636620D01*
X152295334Y-103915630D01*
X152286438Y-104198717D01*
X105374136Y-104198717D01*
X105340057Y-104179042D01*
X105340051Y-104179039D01*
X105115984Y-104119000D01*
X104884016Y-104119000D01*
X104659949Y-104179039D01*
X104659943Y-104179042D01*
X104459057Y-104295023D01*
X104459047Y-104295030D01*
X104295030Y-104459047D01*
X104295023Y-104459057D01*
X104179042Y-104659943D01*
X104179039Y-104659949D01*
X104121707Y-104873913D01*
X104084755Y-104934536D01*
X104020894Y-104965557D01*
X103950400Y-104957129D01*
X103895653Y-104911926D01*
X103878293Y-104873913D01*
X103820961Y-104659949D01*
X103820958Y-104659943D01*
X103704977Y-104459057D01*
X103704970Y-104459047D01*
X103540953Y-104295030D01*
X103540943Y-104295023D01*
X103340057Y-104179042D01*
X103340051Y-104179039D01*
X103115984Y-104119000D01*
X102884016Y-104119000D01*
X102659949Y-104179039D01*
X102659943Y-104179042D01*
X102459057Y-104295023D01*
X102459047Y-104295030D01*
X102295030Y-104459047D01*
X102295023Y-104459057D01*
X102179042Y-104659943D01*
X102179039Y-104659949D01*
X102119000Y-104884016D01*
X89500000Y-104884016D01*
X89500000Y-103384016D01*
X96119000Y-103384016D01*
X96119000Y-103615984D01*
X96179039Y-103840051D01*
X96179042Y-103840057D01*
X96295023Y-104040943D01*
X96295030Y-104040953D01*
X96459047Y-104204970D01*
X96459057Y-104204977D01*
X96659943Y-104320958D01*
X96659949Y-104320961D01*
X96884016Y-104381000D01*
X97115984Y-104381000D01*
X97340051Y-104320961D01*
X97340057Y-104320958D01*
X97540943Y-104204977D01*
X97540953Y-104204970D01*
X97704970Y-104040953D01*
X97704977Y-104040943D01*
X97820958Y-103840057D01*
X97820961Y-103840051D01*
X97881000Y-103615984D01*
X97881000Y-103384016D01*
X97820961Y-103159949D01*
X97820958Y-103159943D01*
X97704977Y-102959057D01*
X97704970Y-102959047D01*
X97540953Y-102795030D01*
X97540943Y-102795023D01*
X97340057Y-102679042D01*
X97340051Y-102679039D01*
X97115984Y-102619000D01*
X96884016Y-102619000D01*
X96659949Y-102679039D01*
X96659943Y-102679042D01*
X96459057Y-102795023D01*
X96459047Y-102795030D01*
X96295030Y-102959047D01*
X96295023Y-102959057D01*
X96179042Y-103159943D01*
X96179039Y-103159949D01*
X96119000Y-103384016D01*
X89500000Y-103384016D01*
X89500000Y-92384016D01*
X116419000Y-92384016D01*
X116419000Y-92615984D01*
X116479039Y-92840051D01*
X116479042Y-92840057D01*
X116595023Y-93040943D01*
X116595030Y-93040953D01*
X116759047Y-93204970D01*
X116759057Y-93204977D01*
X116959943Y-93320958D01*
X116959949Y-93320961D01*
X117184016Y-93381000D01*
X117415984Y-93381000D01*
X117640051Y-93320961D01*
X117640057Y-93320958D01*
X117840943Y-93204977D01*
X117840953Y-93204970D01*
X118004970Y-93040953D01*
X118004977Y-93040943D01*
X118120958Y-92840057D01*
X118120961Y-92840051D01*
X118181000Y-92615984D01*
X118181000Y-92384016D01*
X118120961Y-92159949D01*
X118120958Y-92159943D01*
X118004977Y-91959057D01*
X118004970Y-91959047D01*
X117840953Y-91795030D01*
X117840943Y-91795023D01*
X117640057Y-91679042D01*
X117640051Y-91679039D01*
X117415984Y-91619000D01*
X117184016Y-91619000D01*
X116959949Y-91679039D01*
X116959943Y-91679042D01*
X116759057Y-91795023D01*
X116759047Y-91795030D01*
X116595030Y-91959047D01*
X116595023Y-91959057D01*
X116479042Y-92159943D01*
X116479039Y-92159949D01*
X116419000Y-92384016D01*
X89500000Y-92384016D01*
X89500000Y-90584016D01*
X98162750Y-90584016D01*
X98162750Y-90815984D01*
X98222789Y-91040051D01*
X98222792Y-91040057D01*
X98338773Y-91240943D01*
X98338780Y-91240953D01*
X98502797Y-91404970D01*
X98502807Y-91404977D01*
X98703693Y-91520958D01*
X98703699Y-91520961D01*
X98927766Y-91581000D01*
X99159734Y-91581000D01*
X99383801Y-91520961D01*
X99383807Y-91520958D01*
X99584693Y-91404977D01*
X99584703Y-91404970D01*
X99748720Y-91240953D01*
X99748727Y-91240943D01*
X99864708Y-91040057D01*
X99864711Y-91040051D01*
X99924750Y-90815984D01*
X99924750Y-90584016D01*
X99864711Y-90359949D01*
X99864708Y-90359943D01*
X99748727Y-90159057D01*
X99748720Y-90159047D01*
X99584703Y-89995030D01*
X99584693Y-89995023D01*
X99383807Y-89879042D01*
X99383801Y-89879039D01*
X99159734Y-89819000D01*
X98927766Y-89819000D01*
X98703699Y-89879039D01*
X98703693Y-89879042D01*
X98502807Y-89995023D01*
X98502797Y-89995030D01*
X98338780Y-90159047D01*
X98338773Y-90159057D01*
X98222792Y-90359943D01*
X98222789Y-90359949D01*
X98162750Y-90584016D01*
X89500000Y-90584016D01*
X89500000Y-89484016D01*
X102419000Y-89484016D01*
X102419000Y-89715984D01*
X102479039Y-89940051D01*
X102479042Y-89940057D01*
X102595023Y-90140943D01*
X102595030Y-90140953D01*
X102759047Y-90304970D01*
X102759057Y-90304977D01*
X102959943Y-90420958D01*
X102959949Y-90420961D01*
X103184016Y-90481000D01*
X103415984Y-90481000D01*
X103640051Y-90420961D01*
X103640057Y-90420958D01*
X103707721Y-90381892D01*
X142110001Y-90381892D01*
X142110001Y-90618108D01*
X142151022Y-90850745D01*
X142151022Y-90850747D01*
X142231810Y-91072710D01*
X142231814Y-91072719D01*
X142349919Y-91277283D01*
X142349925Y-91277292D01*
X142501760Y-91458240D01*
X142682708Y-91610075D01*
X142682717Y-91610081D01*
X142887281Y-91728186D01*
X142887290Y-91728190D01*
X143109254Y-91808978D01*
X143341892Y-91849999D01*
X143578108Y-91849999D01*
X143810745Y-91808978D01*
X143810747Y-91808978D01*
X144032710Y-91728190D01*
X144032719Y-91728186D01*
X144237283Y-91610081D01*
X144237292Y-91610075D01*
X144418240Y-91458240D01*
X144570075Y-91277292D01*
X144570081Y-91277283D01*
X144620881Y-91189295D01*
X144672263Y-91140302D01*
X144741977Y-91126866D01*
X144807888Y-91153252D01*
X144839119Y-91189295D01*
X144889919Y-91277283D01*
X144889925Y-91277292D01*
X145041760Y-91458240D01*
X145222708Y-91610075D01*
X145222717Y-91610081D01*
X145427281Y-91728186D01*
X145427290Y-91728190D01*
X145649254Y-91808978D01*
X145881892Y-91849999D01*
X146118108Y-91849999D01*
X146350745Y-91808978D01*
X146350747Y-91808978D01*
X146572710Y-91728190D01*
X146572719Y-91728186D01*
X146777283Y-91610081D01*
X146777292Y-91610075D01*
X146958240Y-91458240D01*
X147110075Y-91277292D01*
X147110081Y-91277283D01*
X147228186Y-91072719D01*
X147228190Y-91072710D01*
X147308978Y-90850747D01*
X147308978Y-90850745D01*
X147349999Y-90618108D01*
X147349999Y-90381892D01*
X147308978Y-90149255D01*
X147308978Y-90149253D01*
X147228190Y-89927290D01*
X147228186Y-89927281D01*
X147110081Y-89722717D01*
X147110075Y-89722708D01*
X146958240Y-89541760D01*
X146777292Y-89389925D01*
X146777283Y-89389919D01*
X146572719Y-89271814D01*
X146572710Y-89271810D01*
X146350747Y-89191022D01*
X146350745Y-89191022D01*
X146118108Y-89150001D01*
X145881892Y-89150001D01*
X145649254Y-89191022D01*
X145427290Y-89271810D01*
X145427281Y-89271814D01*
X145222717Y-89389919D01*
X145222708Y-89389925D01*
X145041760Y-89541760D01*
X144889925Y-89722708D01*
X144889919Y-89722717D01*
X144839119Y-89810705D01*
X144787737Y-89859698D01*
X144718023Y-89873134D01*
X144652112Y-89846748D01*
X144620881Y-89810705D01*
X144570081Y-89722717D01*
X144570075Y-89722708D01*
X144418240Y-89541760D01*
X144237292Y-89389925D01*
X144237283Y-89389919D01*
X144032719Y-89271814D01*
X144032710Y-89271810D01*
X143810747Y-89191022D01*
X143810745Y-89191022D01*
X143578108Y-89150001D01*
X143341892Y-89150001D01*
X143109254Y-89191022D01*
X142887290Y-89271810D01*
X142887281Y-89271814D01*
X142682717Y-89389919D01*
X142682708Y-89389925D01*
X142501760Y-89541760D01*
X142349925Y-89722708D01*
X142349919Y-89722717D01*
X142231814Y-89927281D01*
X142231810Y-89927290D01*
X142151022Y-90149253D01*
X142151022Y-90149255D01*
X142110001Y-90381892D01*
X103707721Y-90381892D01*
X103840943Y-90304977D01*
X103840953Y-90304970D01*
X104004970Y-90140953D01*
X104004977Y-90140943D01*
X104120958Y-89940057D01*
X104120961Y-89940051D01*
X104181000Y-89715984D01*
X104181000Y-89484016D01*
X104120961Y-89259949D01*
X104120958Y-89259943D01*
X104004977Y-89059057D01*
X104004970Y-89059047D01*
X103840953Y-88895030D01*
X103840943Y-88895023D01*
X103640057Y-88779042D01*
X103640051Y-88779039D01*
X103415984Y-88719000D01*
X103184016Y-88719000D01*
X102959949Y-88779039D01*
X102959943Y-88779042D01*
X102759057Y-88895023D01*
X102759047Y-88895030D01*
X102595030Y-89059047D01*
X102595023Y-89059057D01*
X102479042Y-89259943D01*
X102479039Y-89259949D01*
X102419000Y-89484016D01*
X89500000Y-89484016D01*
X89500000Y-87184016D01*
X97462750Y-87184016D01*
X97462750Y-87415984D01*
X97522789Y-87640051D01*
X97522792Y-87640057D01*
X97638773Y-87840943D01*
X97638780Y-87840953D01*
X97802797Y-88004970D01*
X97802807Y-88004977D01*
X98003693Y-88120958D01*
X98003699Y-88120961D01*
X98227766Y-88181000D01*
X98459734Y-88181000D01*
X98683801Y-88120961D01*
X98683807Y-88120958D01*
X98884693Y-88004977D01*
X98884703Y-88004970D01*
X98990956Y-87898717D01*
X152286438Y-87898717D01*
X152286438Y-87898722D01*
X152317518Y-88180234D01*
X152387954Y-88454571D01*
X152496340Y-88716238D01*
X152640518Y-88960030D01*
X152817601Y-89181066D01*
X152817609Y-89181074D01*
X153024065Y-89374949D01*
X153255789Y-89537808D01*
X153508156Y-89666396D01*
X153776111Y-89758138D01*
X154054322Y-89811210D01*
X154337237Y-89824551D01*
X154619210Y-89797898D01*
X154894616Y-89731779D01*
X155157957Y-89627515D01*
X155157962Y-89627512D01*
X155403974Y-89487189D01*
X155627773Y-89313593D01*
X155824879Y-89110197D01*
X155991352Y-88881066D01*
X156123886Y-88630753D01*
X156123889Y-88630744D01*
X156219828Y-88364262D01*
X156277261Y-88086924D01*
X156277262Y-88086917D01*
X156290101Y-87678387D01*
X156250193Y-87397980D01*
X156250191Y-87397975D01*
X156171176Y-87126001D01*
X156054619Y-86867856D01*
X155902867Y-86628733D01*
X155902854Y-86628716D01*
X155718925Y-86413363D01*
X155718910Y-86413348D01*
X155506465Y-86226052D01*
X155269738Y-86070551D01*
X155013466Y-85949958D01*
X154742760Y-85866678D01*
X154742754Y-85866677D01*
X154463012Y-85822370D01*
X154463014Y-85822370D01*
X154179820Y-85817922D01*
X154179809Y-85817923D01*
X153898830Y-85853419D01*
X153898815Y-85853422D01*
X153625645Y-85928152D01*
X153625626Y-85928158D01*
X153365705Y-86040636D01*
X153124202Y-86188629D01*
X152905976Y-86369160D01*
X152905968Y-86369169D01*
X152715357Y-86578648D01*
X152715355Y-86578650D01*
X152556157Y-86812903D01*
X152431553Y-87067250D01*
X152344032Y-87336612D01*
X152344030Y-87336620D01*
X152295334Y-87615630D01*
X152286438Y-87898717D01*
X98990956Y-87898717D01*
X99048720Y-87840953D01*
X99048727Y-87840943D01*
X99164708Y-87640057D01*
X99164711Y-87640051D01*
X99224750Y-87415984D01*
X99224750Y-87184016D01*
X99164711Y-86959949D01*
X99164708Y-86959943D01*
X99048727Y-86759057D01*
X99048720Y-86759047D01*
X98884703Y-86595030D01*
X98884693Y-86595023D01*
X98683807Y-86479042D01*
X98683801Y-86479039D01*
X98459734Y-86419000D01*
X98227766Y-86419000D01*
X98003699Y-86479039D01*
X98003693Y-86479042D01*
X97802807Y-86595023D01*
X97802797Y-86595030D01*
X97638780Y-86759047D01*
X97638773Y-86759057D01*
X97522792Y-86959943D01*
X97522789Y-86959949D01*
X97462750Y-87184016D01*
X89500000Y-87184016D01*
X89500000Y-80081892D01*
X91470001Y-80081892D01*
X91470001Y-80318108D01*
X91511022Y-80550745D01*
X91511022Y-80550747D01*
X91591810Y-80772710D01*
X91591814Y-80772719D01*
X91709919Y-80977283D01*
X91709925Y-80977292D01*
X91861760Y-81158240D01*
X92042708Y-81310075D01*
X92042717Y-81310081D01*
X92096064Y-81340881D01*
X92145057Y-81392263D01*
X92158493Y-81461977D01*
X92132107Y-81527888D01*
X92096064Y-81559119D01*
X92042717Y-81589919D01*
X92042708Y-81589925D01*
X91861760Y-81741760D01*
X91709925Y-81922708D01*
X91709919Y-81922717D01*
X91591814Y-82127281D01*
X91591810Y-82127290D01*
X91511022Y-82349253D01*
X91511022Y-82349255D01*
X91470001Y-82581892D01*
X91470001Y-82818108D01*
X91511022Y-83050745D01*
X91511022Y-83050747D01*
X91591810Y-83272710D01*
X91591814Y-83272719D01*
X91709919Y-83477283D01*
X91709925Y-83477292D01*
X91861760Y-83658240D01*
X92042708Y-83810075D01*
X92042717Y-83810081D01*
X92247281Y-83928186D01*
X92247290Y-83928190D01*
X92469254Y-84008978D01*
X92701892Y-84049999D01*
X92938108Y-84049999D01*
X93170745Y-84008978D01*
X93170747Y-84008978D01*
X93392710Y-83928190D01*
X93392719Y-83928186D01*
X93597283Y-83810081D01*
X93597292Y-83810075D01*
X93778240Y-83658240D01*
X93930075Y-83477292D01*
X93930081Y-83477283D01*
X94048186Y-83272719D01*
X94048190Y-83272710D01*
X94128978Y-83050747D01*
X94128978Y-83050745D01*
X94169999Y-82818108D01*
X94169999Y-82581892D01*
X94128978Y-82349255D01*
X94128978Y-82349253D01*
X94048190Y-82127290D01*
X94048186Y-82127281D01*
X93930081Y-81922717D01*
X93930075Y-81922708D01*
X93778240Y-81741760D01*
X93597292Y-81589925D01*
X93597283Y-81589919D01*
X93543936Y-81559119D01*
X93494943Y-81507737D01*
X93481507Y-81438023D01*
X93507893Y-81372112D01*
X93543936Y-81340881D01*
X93597283Y-81310081D01*
X93597292Y-81310075D01*
X93778240Y-81158240D01*
X93930075Y-80977292D01*
X93930081Y-80977283D01*
X94048186Y-80772719D01*
X94048190Y-80772710D01*
X94128978Y-80550747D01*
X94128978Y-80550745D01*
X94169999Y-80318108D01*
X94169999Y-80200000D01*
X98394845Y-80200000D01*
X98415433Y-80435324D01*
X98476570Y-80663489D01*
X98476571Y-80663494D01*
X98576399Y-80877576D01*
X98576401Y-80877579D01*
X98711886Y-81071073D01*
X98711894Y-81071082D01*
X98853364Y-81212552D01*
X98887390Y-81274864D01*
X98882325Y-81345679D01*
X98832389Y-81407645D01*
X98651274Y-81524039D01*
X98508588Y-81688707D01*
X98418076Y-81886903D01*
X98394858Y-82048386D01*
X98394858Y-83333243D01*
X98456244Y-83615432D01*
X98574039Y-83798726D01*
X98738707Y-83941412D01*
X98936903Y-84031924D01*
X99098386Y-84055142D01*
X100883243Y-84055142D01*
X101165432Y-83993756D01*
X101348726Y-83875961D01*
X101491412Y-83711293D01*
X101581925Y-83513097D01*
X101581924Y-83513097D01*
X101605142Y-83351614D01*
X101605142Y-82066757D01*
X101543756Y-81784568D01*
X101425961Y-81601274D01*
X101261293Y-81458588D01*
X101178755Y-81420895D01*
X101125099Y-81374402D01*
X101105097Y-81306281D01*
X101142002Y-81217186D01*
X101223299Y-81135889D01*
X118898654Y-81135889D01*
X118898655Y-81135898D01*
X118932729Y-81358574D01*
X118932731Y-81358586D01*
X119002716Y-81572709D01*
X119002723Y-81572725D01*
X119106740Y-81772539D01*
X119106740Y-81772540D01*
X119242001Y-81952690D01*
X119242008Y-81952698D01*
X119404877Y-82108340D01*
X119404882Y-82108344D01*
X119548837Y-82206541D01*
X119593840Y-82261452D01*
X119602013Y-82331977D01*
X119546274Y-82416422D01*
X119431239Y-82490841D01*
X119264611Y-82642461D01*
X119124985Y-82819259D01*
X119016113Y-83016482D01*
X119016112Y-83016484D01*
X118940911Y-83228845D01*
X118901407Y-83450623D01*
X118898654Y-83675889D01*
X118898655Y-83675898D01*
X118932729Y-83898574D01*
X118932731Y-83898586D01*
X119002716Y-84112709D01*
X119002723Y-84112725D01*
X119106740Y-84312539D01*
X119106740Y-84312540D01*
X119242001Y-84492690D01*
X119242008Y-84492698D01*
X119404877Y-84648340D01*
X119404882Y-84648344D01*
X119590983Y-84775291D01*
X119795313Y-84870140D01*
X119795319Y-84870142D01*
X120012411Y-84930345D01*
X120220337Y-84950000D01*
X120787115Y-84950000D01*
X120954518Y-84936237D01*
X120954520Y-84936237D01*
X121173016Y-84881354D01*
X121379614Y-84791523D01*
X121379620Y-84791519D01*
X121568755Y-84669163D01*
X121568761Y-84669159D01*
X121735389Y-84517539D01*
X121875015Y-84340741D01*
X121983887Y-84143518D01*
X121983888Y-84143516D01*
X122059089Y-83931155D01*
X122098593Y-83709377D01*
X122101346Y-83484111D01*
X122101345Y-83484102D01*
X122067271Y-83261426D01*
X122067269Y-83261414D01*
X121997284Y-83047291D01*
X121997277Y-83047275D01*
X121893260Y-82847461D01*
X121893260Y-82847460D01*
X121757999Y-82667310D01*
X121757992Y-82667302D01*
X121595123Y-82511660D01*
X121595118Y-82511656D01*
X121451163Y-82413459D01*
X121406160Y-82358548D01*
X121397987Y-82288023D01*
X121453726Y-82203578D01*
X121568761Y-82129159D01*
X121735389Y-81977539D01*
X121875015Y-81800741D01*
X121983887Y-81603518D01*
X121983888Y-81603516D01*
X122059089Y-81391155D01*
X122098593Y-81169377D01*
X122101346Y-80944111D01*
X122101345Y-80944102D01*
X122067271Y-80721426D01*
X122067269Y-80721414D01*
X121997284Y-80507291D01*
X121997277Y-80507275D01*
X121893260Y-80307461D01*
X121893260Y-80307460D01*
X121757999Y-80127310D01*
X121757992Y-80127302D01*
X121595123Y-79971660D01*
X121595118Y-79971656D01*
X121409017Y-79844709D01*
X121204687Y-79749860D01*
X121204681Y-79749858D01*
X120987589Y-79689655D01*
X120779663Y-79670000D01*
X120212885Y-79670000D01*
X120045481Y-79683763D01*
X119826984Y-79738646D01*
X119620386Y-79828477D01*
X119620380Y-79828481D01*
X119431245Y-79950837D01*
X119431239Y-79950841D01*
X119264611Y-80102461D01*
X119124985Y-80279259D01*
X119016113Y-80476482D01*
X119016112Y-80476484D01*
X118940911Y-80688845D01*
X118901407Y-80910623D01*
X118898654Y-81135889D01*
X101223299Y-81135889D01*
X101288106Y-81071082D01*
X101288114Y-81071073D01*
X101423599Y-80877579D01*
X101423601Y-80877576D01*
X101523429Y-80663494D01*
X101523430Y-80663489D01*
X101584567Y-80435324D01*
X101605155Y-80200000D01*
X101584567Y-79964676D01*
X101523430Y-79736511D01*
X101523429Y-79736506D01*
X101423601Y-79522424D01*
X101423599Y-79522421D01*
X101288114Y-79328927D01*
X101288106Y-79328918D01*
X101121082Y-79161894D01*
X101121073Y-79161886D01*
X100927579Y-79026401D01*
X100927576Y-79026399D01*
X100713494Y-78926571D01*
X100713489Y-78926570D01*
X100485324Y-78865433D01*
X100308926Y-78850000D01*
X99691074Y-78850000D01*
X99514676Y-78865433D01*
X99286511Y-78926570D01*
X99286506Y-78926571D01*
X99072424Y-79026399D01*
X99072421Y-79026401D01*
X98878927Y-79161886D01*
X98878918Y-79161894D01*
X98711894Y-79328918D01*
X98711886Y-79328927D01*
X98576401Y-79522421D01*
X98576399Y-79522424D01*
X98476571Y-79736506D01*
X98476570Y-79736511D01*
X98415433Y-79964676D01*
X98394845Y-80200000D01*
X94169999Y-80200000D01*
X94169999Y-80081892D01*
X94128978Y-79849255D01*
X94128978Y-79849253D01*
X94048190Y-79627290D01*
X94048186Y-79627281D01*
X93930081Y-79422717D01*
X93930075Y-79422708D01*
X93778240Y-79241760D01*
X93597292Y-79089925D01*
X93597283Y-79089919D01*
X93392719Y-78971814D01*
X93392710Y-78971810D01*
X93170747Y-78891022D01*
X93170745Y-78891022D01*
X92938108Y-78850001D01*
X92701892Y-78850001D01*
X92469254Y-78891022D01*
X92247290Y-78971810D01*
X92247281Y-78971814D01*
X92042717Y-79089919D01*
X92042708Y-79089925D01*
X91861760Y-79241760D01*
X91709925Y-79422708D01*
X91709919Y-79422717D01*
X91591814Y-79627281D01*
X91591810Y-79627290D01*
X91511022Y-79849253D01*
X91511022Y-79849255D01*
X91470001Y-80081892D01*
X89500000Y-80081892D01*
X89500000Y-77884016D01*
X114119000Y-77884016D01*
X114119000Y-78115984D01*
X114179039Y-78340051D01*
X114179042Y-78340057D01*
X114295023Y-78540943D01*
X114295030Y-78540953D01*
X114459047Y-78704970D01*
X114459057Y-78704977D01*
X114659943Y-78820958D01*
X114659949Y-78820961D01*
X114884016Y-78881000D01*
X114993000Y-78881000D01*
X115061121Y-78901002D01*
X115107614Y-78954658D01*
X115119000Y-79007000D01*
X115119000Y-79115984D01*
X115179039Y-79340051D01*
X115179042Y-79340057D01*
X115295023Y-79540943D01*
X115295030Y-79540953D01*
X115459047Y-79704970D01*
X115459057Y-79704977D01*
X115659943Y-79820958D01*
X115659949Y-79820961D01*
X115884016Y-79881000D01*
X115993000Y-79881000D01*
X116061121Y-79901002D01*
X116107614Y-79954658D01*
X116119000Y-80007000D01*
X116119000Y-80115984D01*
X116179039Y-80340051D01*
X116179042Y-80340057D01*
X116295023Y-80540943D01*
X116295030Y-80540953D01*
X116459047Y-80704970D01*
X116459057Y-80704977D01*
X116659943Y-80820958D01*
X116659949Y-80820961D01*
X116884016Y-80881000D01*
X117115984Y-80881000D01*
X117340051Y-80820961D01*
X117340057Y-80820958D01*
X117540943Y-80704977D01*
X117540953Y-80704970D01*
X117704970Y-80540953D01*
X117704977Y-80540943D01*
X117820958Y-80340057D01*
X117820961Y-80340051D01*
X117881000Y-80115984D01*
X117881000Y-79884016D01*
X117820961Y-79659949D01*
X117820958Y-79659943D01*
X117704977Y-79459057D01*
X117704970Y-79459047D01*
X117540953Y-79295030D01*
X117540943Y-79295023D01*
X117340057Y-79179042D01*
X117340051Y-79179039D01*
X117115984Y-79119000D01*
X117007000Y-79119000D01*
X116938879Y-79098998D01*
X116892386Y-79045342D01*
X116881000Y-78993000D01*
X116881000Y-78884016D01*
X116820961Y-78659949D01*
X116820958Y-78659943D01*
X116704977Y-78459057D01*
X116704970Y-78459047D01*
X116540953Y-78295030D01*
X116540943Y-78295023D01*
X116340057Y-78179042D01*
X116340051Y-78179039D01*
X116115984Y-78119000D01*
X116007000Y-78119000D01*
X115938879Y-78098998D01*
X115892386Y-78045342D01*
X115881000Y-77993000D01*
X115881000Y-77884016D01*
X115820961Y-77659949D01*
X115820958Y-77659943D01*
X115704977Y-77459057D01*
X115704970Y-77459047D01*
X115540953Y-77295030D01*
X115540943Y-77295023D01*
X115340057Y-77179042D01*
X115340051Y-77179039D01*
X115115984Y-77119000D01*
X114884016Y-77119000D01*
X114659949Y-77179039D01*
X114659943Y-77179042D01*
X114459057Y-77295023D01*
X114459047Y-77295030D01*
X114295030Y-77459047D01*
X114295023Y-77459057D01*
X114179042Y-77659943D01*
X114179039Y-77659949D01*
X114119000Y-77884016D01*
X89500000Y-77884016D01*
X89500000Y-76626000D01*
X89520002Y-76557879D01*
X89573658Y-76511386D01*
X89626000Y-76500000D01*
X122874000Y-76500000D01*
X122942121Y-76520002D01*
G37*
%TD.AperFunction*%
M02*
