%TF.GenerationSoftware,KiCad,Pcbnew,5.99.0-unknown-6252493~100~ubuntu18.04.1*%
%TF.CreationDate,2020-02-26T18:10:23+08:00*%
%TF.ProjectId,blue_interface_board,626c7565-5f69-46e7-9465-72666163655f,rev?*%
%TF.SameCoordinates,Original*%
%TF.FileFunction,Paste,Top*%
%TF.FilePolarity,Positive*%
%FSLAX46Y46*%
G04 Gerber Fmt 4.6, Leading zero omitted, Abs format (unit mm)*
G04 Created by KiCad (PCBNEW 5.99.0-unknown-6252493~100~ubuntu18.04.1) date 2020-02-26 18:10:23*
%MOMM*%
%LPD*%
G01*
G04 APERTURE LIST*
%ADD10R,1.500000X0.450000*%
%ADD11R,0.450000X0.400000*%
%ADD12R,0.800000X1.900000*%
%ADD13R,1.900000X0.800000*%
%ADD14R,0.400000X0.450000*%
%ADD15R,0.650000X1.060000*%
%ADD16R,0.700000X0.450000*%
%ADD17R,1.650000X3.430000*%
%ADD18R,2.920000X1.270000*%
%ADD19R,0.450000X0.700000*%
%ADD20R,2.410000X3.290000*%
%ADD21R,2.200000X1.500000*%
%ADD22R,0.800000X0.900000*%
%ADD23R,2.400000X2.000000*%
%ADD24R,1.100000X4.600000*%
%ADD25R,5.250000X4.550000*%
%ADD26R,0.900000X0.800000*%
%ADD27R,1.300000X0.450000*%
%ADD28R,3.300000X2.500000*%
%ADD29R,1.200000X0.900000*%
G04 APERTURE END LIST*
D10*
X104130000Y-123060000D03*
X109930000Y-123060000D03*
X104130000Y-122410000D03*
X109930000Y-122410000D03*
X104130000Y-121760000D03*
X109930000Y-121760000D03*
X104130000Y-121110000D03*
X109930000Y-121110000D03*
X104130000Y-120460000D03*
X109930000Y-120460000D03*
X104130000Y-119810000D03*
X109930000Y-119810000D03*
X104130000Y-119160000D03*
X109930000Y-119160000D03*
X104130000Y-118510000D03*
X109930000Y-118510000D03*
X104130000Y-117860000D03*
X109930000Y-117860000D03*
X104130000Y-117210000D03*
X109930000Y-117210000D03*
X104130000Y-116560000D03*
X109930000Y-116560000D03*
X104130000Y-115910000D03*
X109930000Y-115910000D03*
X104130000Y-115260000D03*
X109930000Y-115260000D03*
X104130000Y-114610000D03*
X109930000Y-114610000D03*
D11*
X123525000Y-63900000D03*
X120575000Y-63900000D03*
X123525000Y-64700000D03*
X120575000Y-64700000D03*
X123525000Y-65500000D03*
X120575000Y-65500000D03*
X123525000Y-66300000D03*
X120575000Y-66300000D03*
D12*
X122600000Y-65100000D03*
X121500000Y-65100000D03*
G36*
X126889962Y-63391651D02*
G01*
X126960930Y-63439070D01*
X127008349Y-63510038D01*
X127025000Y-63593750D01*
X127025000Y-64031250D01*
X127008349Y-64114962D01*
X126960930Y-64185930D01*
X126889962Y-64233349D01*
X126806250Y-64250000D01*
X126293750Y-64250000D01*
X126210038Y-64233349D01*
X126139070Y-64185930D01*
X126091651Y-64114962D01*
X126075000Y-64031250D01*
X126075000Y-63593750D01*
X126091651Y-63510038D01*
X126139070Y-63439070D01*
X126210038Y-63391651D01*
X126293750Y-63375000D01*
X126806250Y-63375000D01*
X126889962Y-63391651D01*
G37*
G36*
X126889962Y-64966651D02*
G01*
X126960930Y-65014070D01*
X127008349Y-65085038D01*
X127025000Y-65168750D01*
X127025000Y-65606250D01*
X127008349Y-65689962D01*
X126960930Y-65760930D01*
X126889962Y-65808349D01*
X126806250Y-65825000D01*
X126293750Y-65825000D01*
X126210038Y-65808349D01*
X126139070Y-65760930D01*
X126091651Y-65689962D01*
X126075000Y-65606250D01*
X126075000Y-65168750D01*
X126091651Y-65085038D01*
X126139070Y-65014070D01*
X126210038Y-64966651D01*
X126293750Y-64950000D01*
X126806250Y-64950000D01*
X126889962Y-64966651D01*
G37*
G36*
X125389962Y-64966651D02*
G01*
X125460930Y-65014070D01*
X125508349Y-65085038D01*
X125525000Y-65168750D01*
X125525000Y-65606250D01*
X125508349Y-65689962D01*
X125460930Y-65760930D01*
X125389962Y-65808349D01*
X125306250Y-65825000D01*
X124793750Y-65825000D01*
X124710038Y-65808349D01*
X124639070Y-65760930D01*
X124591651Y-65689962D01*
X124575000Y-65606250D01*
X124575000Y-65168750D01*
X124591651Y-65085038D01*
X124639070Y-65014070D01*
X124710038Y-64966651D01*
X124793750Y-64950000D01*
X125306250Y-64950000D01*
X125389962Y-64966651D01*
G37*
G36*
X125389962Y-63391651D02*
G01*
X125460930Y-63439070D01*
X125508349Y-63510038D01*
X125525000Y-63593750D01*
X125525000Y-64031250D01*
X125508349Y-64114962D01*
X125460930Y-64185930D01*
X125389962Y-64233349D01*
X125306250Y-64250000D01*
X124793750Y-64250000D01*
X124710038Y-64233349D01*
X124639070Y-64185930D01*
X124591651Y-64114962D01*
X124575000Y-64031250D01*
X124575000Y-63593750D01*
X124591651Y-63510038D01*
X124639070Y-63439070D01*
X124710038Y-63391651D01*
X124793750Y-63375000D01*
X125306250Y-63375000D01*
X125389962Y-63391651D01*
G37*
G36*
X121620671Y-61044030D02*
G01*
X121701777Y-61098223D01*
X121755970Y-61179329D01*
X121775000Y-61275000D01*
X121775000Y-62525000D01*
X121755970Y-62620671D01*
X121701777Y-62701777D01*
X121620671Y-62755970D01*
X121525000Y-62775000D01*
X120775000Y-62775000D01*
X120679329Y-62755970D01*
X120598223Y-62701777D01*
X120544030Y-62620671D01*
X120525000Y-62525000D01*
X120525000Y-61275000D01*
X120544030Y-61179329D01*
X120598223Y-61098223D01*
X120679329Y-61044030D01*
X120775000Y-61025000D01*
X121525000Y-61025000D01*
X121620671Y-61044030D01*
G37*
G36*
X124420671Y-61044030D02*
G01*
X124501777Y-61098223D01*
X124555970Y-61179329D01*
X124575000Y-61275000D01*
X124575000Y-62525000D01*
X124555970Y-62620671D01*
X124501777Y-62701777D01*
X124420671Y-62755970D01*
X124325000Y-62775000D01*
X123575000Y-62775000D01*
X123479329Y-62755970D01*
X123398223Y-62701777D01*
X123344030Y-62620671D01*
X123325000Y-62525000D01*
X123325000Y-61275000D01*
X123344030Y-61179329D01*
X123398223Y-61098223D01*
X123479329Y-61044030D01*
X123575000Y-61025000D01*
X124325000Y-61025000D01*
X124420671Y-61044030D01*
G37*
G36*
X125264962Y-66641651D02*
G01*
X125335930Y-66689070D01*
X125383349Y-66760038D01*
X125400000Y-66843750D01*
X125400000Y-67356250D01*
X125383349Y-67439962D01*
X125335930Y-67510930D01*
X125264962Y-67558349D01*
X125181250Y-67575000D01*
X124743750Y-67575000D01*
X124660038Y-67558349D01*
X124589070Y-67510930D01*
X124541651Y-67439962D01*
X124525000Y-67356250D01*
X124525000Y-66843750D01*
X124541651Y-66760038D01*
X124589070Y-66689070D01*
X124660038Y-66641651D01*
X124743750Y-66625000D01*
X125181250Y-66625000D01*
X125264962Y-66641651D01*
G37*
G36*
X126839962Y-66641651D02*
G01*
X126910930Y-66689070D01*
X126958349Y-66760038D01*
X126975000Y-66843750D01*
X126975000Y-67356250D01*
X126958349Y-67439962D01*
X126910930Y-67510930D01*
X126839962Y-67558349D01*
X126756250Y-67575000D01*
X126318750Y-67575000D01*
X126235038Y-67558349D01*
X126164070Y-67510930D01*
X126116651Y-67439962D01*
X126100000Y-67356250D01*
X126100000Y-66843750D01*
X126116651Y-66760038D01*
X126164070Y-66689070D01*
X126235038Y-66641651D01*
X126318750Y-66625000D01*
X126756250Y-66625000D01*
X126839962Y-66641651D01*
G37*
G36*
X119570671Y-65894030D02*
G01*
X119651777Y-65948223D01*
X119705970Y-66029329D01*
X119725000Y-66125000D01*
X119725000Y-66875000D01*
X119705970Y-66970671D01*
X119651777Y-67051777D01*
X119570671Y-67105970D01*
X119475000Y-67125000D01*
X118225000Y-67125000D01*
X118129329Y-67105970D01*
X118048223Y-67051777D01*
X117994030Y-66970671D01*
X117975000Y-66875000D01*
X117975000Y-66125000D01*
X117994030Y-66029329D01*
X118048223Y-65948223D01*
X118129329Y-65894030D01*
X118225000Y-65875000D01*
X119475000Y-65875000D01*
X119570671Y-65894030D01*
G37*
G36*
X119570671Y-63094030D02*
G01*
X119651777Y-63148223D01*
X119705970Y-63229329D01*
X119725000Y-63325000D01*
X119725000Y-64075000D01*
X119705970Y-64170671D01*
X119651777Y-64251777D01*
X119570671Y-64305970D01*
X119475000Y-64325000D01*
X118225000Y-64325000D01*
X118129329Y-64305970D01*
X118048223Y-64251777D01*
X117994030Y-64170671D01*
X117975000Y-64075000D01*
X117975000Y-63325000D01*
X117994030Y-63229329D01*
X118048223Y-63148223D01*
X118129329Y-63094030D01*
X118225000Y-63075000D01*
X119475000Y-63075000D01*
X119570671Y-63094030D01*
G37*
G36*
X112720671Y-79994030D02*
G01*
X112801777Y-80048223D01*
X112855970Y-80129329D01*
X112875000Y-80225000D01*
X112875000Y-80975000D01*
X112855970Y-81070671D01*
X112801777Y-81151777D01*
X112720671Y-81205970D01*
X112625000Y-81225000D01*
X111375000Y-81225000D01*
X111279329Y-81205970D01*
X111198223Y-81151777D01*
X111144030Y-81070671D01*
X111125000Y-80975000D01*
X111125000Y-80225000D01*
X111144030Y-80129329D01*
X111198223Y-80048223D01*
X111279329Y-79994030D01*
X111375000Y-79975000D01*
X112625000Y-79975000D01*
X112720671Y-79994030D01*
G37*
G36*
X112720671Y-77194030D02*
G01*
X112801777Y-77248223D01*
X112855970Y-77329329D01*
X112875000Y-77425000D01*
X112875000Y-78175000D01*
X112855970Y-78270671D01*
X112801777Y-78351777D01*
X112720671Y-78405970D01*
X112625000Y-78425000D01*
X111375000Y-78425000D01*
X111279329Y-78405970D01*
X111198223Y-78351777D01*
X111144030Y-78270671D01*
X111125000Y-78175000D01*
X111125000Y-77425000D01*
X111144030Y-77329329D01*
X111198223Y-77248223D01*
X111279329Y-77194030D01*
X111375000Y-77175000D01*
X112625000Y-77175000D01*
X112720671Y-77194030D01*
G37*
G36*
X115820671Y-84294030D02*
G01*
X115901777Y-84348223D01*
X115955970Y-84429329D01*
X115975000Y-84525000D01*
X115975000Y-85275000D01*
X115955970Y-85370671D01*
X115901777Y-85451777D01*
X115820671Y-85505970D01*
X115725000Y-85525000D01*
X114475000Y-85525000D01*
X114379329Y-85505970D01*
X114298223Y-85451777D01*
X114244030Y-85370671D01*
X114225000Y-85275000D01*
X114225000Y-84525000D01*
X114244030Y-84429329D01*
X114298223Y-84348223D01*
X114379329Y-84294030D01*
X114475000Y-84275000D01*
X115725000Y-84275000D01*
X115820671Y-84294030D01*
G37*
G36*
X115820671Y-87094030D02*
G01*
X115901777Y-87148223D01*
X115955970Y-87229329D01*
X115975000Y-87325000D01*
X115975000Y-88075000D01*
X115955970Y-88170671D01*
X115901777Y-88251777D01*
X115820671Y-88305970D01*
X115725000Y-88325000D01*
X114475000Y-88325000D01*
X114379329Y-88305970D01*
X114298223Y-88251777D01*
X114244030Y-88170671D01*
X114225000Y-88075000D01*
X114225000Y-87325000D01*
X114244030Y-87229329D01*
X114298223Y-87148223D01*
X114379329Y-87094030D01*
X114475000Y-87075000D01*
X115725000Y-87075000D01*
X115820671Y-87094030D01*
G37*
G36*
X93589962Y-116271650D02*
G01*
X93660930Y-116319069D01*
X93708349Y-116390037D01*
X93725000Y-116473749D01*
X93725000Y-116986249D01*
X93708349Y-117069961D01*
X93660930Y-117140929D01*
X93589962Y-117188348D01*
X93506250Y-117204999D01*
X93068750Y-117204999D01*
X92985038Y-117188348D01*
X92914070Y-117140929D01*
X92866651Y-117069961D01*
X92850000Y-116986249D01*
X92850000Y-116473749D01*
X92866651Y-116390037D01*
X92914070Y-116319069D01*
X92985038Y-116271650D01*
X93068750Y-116254999D01*
X93506250Y-116254999D01*
X93589962Y-116271650D01*
G37*
G36*
X92014962Y-116271650D02*
G01*
X92085930Y-116319069D01*
X92133349Y-116390037D01*
X92150000Y-116473749D01*
X92150000Y-116986249D01*
X92133349Y-117069961D01*
X92085930Y-117140929D01*
X92014962Y-117188348D01*
X91931250Y-117204999D01*
X91493750Y-117204999D01*
X91410038Y-117188348D01*
X91339070Y-117140929D01*
X91291651Y-117069961D01*
X91275000Y-116986249D01*
X91275000Y-116473749D01*
X91291651Y-116390037D01*
X91339070Y-116319069D01*
X91410038Y-116271650D01*
X91493750Y-116254999D01*
X91931250Y-116254999D01*
X92014962Y-116271650D01*
G37*
G36*
X92014962Y-114771650D02*
G01*
X92085930Y-114819069D01*
X92133349Y-114890037D01*
X92150000Y-114973749D01*
X92150000Y-115486249D01*
X92133349Y-115569961D01*
X92085930Y-115640929D01*
X92014962Y-115688348D01*
X91931250Y-115704999D01*
X91493750Y-115704999D01*
X91410038Y-115688348D01*
X91339070Y-115640929D01*
X91291651Y-115569961D01*
X91275000Y-115486249D01*
X91275000Y-114973749D01*
X91291651Y-114890037D01*
X91339070Y-114819069D01*
X91410038Y-114771650D01*
X91493750Y-114754999D01*
X91931250Y-114754999D01*
X92014962Y-114771650D01*
G37*
G36*
X93589962Y-114771650D02*
G01*
X93660930Y-114819069D01*
X93708349Y-114890037D01*
X93725000Y-114973749D01*
X93725000Y-115486249D01*
X93708349Y-115569961D01*
X93660930Y-115640929D01*
X93589962Y-115688348D01*
X93506250Y-115704999D01*
X93068750Y-115704999D01*
X92985038Y-115688348D01*
X92914070Y-115640929D01*
X92866651Y-115569961D01*
X92850000Y-115486249D01*
X92850000Y-114973749D01*
X92866651Y-114890037D01*
X92914070Y-114819069D01*
X92985038Y-114771650D01*
X93068750Y-114754999D01*
X93506250Y-114754999D01*
X93589962Y-114771650D01*
G37*
G36*
X90589962Y-114771650D02*
G01*
X90660930Y-114819069D01*
X90708349Y-114890037D01*
X90725000Y-114973749D01*
X90725000Y-115411249D01*
X90708349Y-115494961D01*
X90660930Y-115565929D01*
X90589962Y-115613348D01*
X90506250Y-115629999D01*
X89993750Y-115629999D01*
X89910038Y-115613348D01*
X89839070Y-115565929D01*
X89791651Y-115494961D01*
X89775000Y-115411249D01*
X89775000Y-114973749D01*
X89791651Y-114890037D01*
X89839070Y-114819069D01*
X89910038Y-114771650D01*
X89993750Y-114754999D01*
X90506250Y-114754999D01*
X90589962Y-114771650D01*
G37*
G36*
X90589962Y-116346650D02*
G01*
X90660930Y-116394069D01*
X90708349Y-116465037D01*
X90725000Y-116548749D01*
X90725000Y-116986249D01*
X90708349Y-117069961D01*
X90660930Y-117140929D01*
X90589962Y-117188348D01*
X90506250Y-117204999D01*
X89993750Y-117204999D01*
X89910038Y-117188348D01*
X89839070Y-117140929D01*
X89791651Y-117069961D01*
X89775000Y-116986249D01*
X89775000Y-116548749D01*
X89791651Y-116465037D01*
X89839070Y-116394069D01*
X89910038Y-116346650D01*
X89993750Y-116329999D01*
X90506250Y-116329999D01*
X90589962Y-116346650D01*
G37*
G36*
X93800671Y-108444029D02*
G01*
X93881777Y-108498222D01*
X93935970Y-108579328D01*
X93955000Y-108674999D01*
X93955000Y-109924999D01*
X93935970Y-110020670D01*
X93881777Y-110101776D01*
X93800671Y-110155969D01*
X93705000Y-110174999D01*
X92955000Y-110174999D01*
X92859329Y-110155969D01*
X92778223Y-110101776D01*
X92724030Y-110020670D01*
X92705000Y-109924999D01*
X92705000Y-108674999D01*
X92724030Y-108579328D01*
X92778223Y-108498222D01*
X92859329Y-108444029D01*
X92955000Y-108424999D01*
X93705000Y-108424999D01*
X93800671Y-108444029D01*
G37*
G36*
X91000671Y-108444029D02*
G01*
X91081777Y-108498222D01*
X91135970Y-108579328D01*
X91155000Y-108674999D01*
X91155000Y-109924999D01*
X91135970Y-110020670D01*
X91081777Y-110101776D01*
X91000671Y-110155969D01*
X90905000Y-110174999D01*
X90155000Y-110174999D01*
X90059329Y-110155969D01*
X89978223Y-110101776D01*
X89924030Y-110020670D01*
X89905000Y-109924999D01*
X89905000Y-108674999D01*
X89924030Y-108579328D01*
X89978223Y-108498222D01*
X90059329Y-108444029D01*
X90155000Y-108424999D01*
X90905000Y-108424999D01*
X91000671Y-108444029D01*
G37*
G36*
X95970671Y-113524029D02*
G01*
X96051777Y-113578222D01*
X96105970Y-113659328D01*
X96125000Y-113754999D01*
X96125000Y-114504999D01*
X96105970Y-114600670D01*
X96051777Y-114681776D01*
X95970671Y-114735969D01*
X95875000Y-114754999D01*
X94625000Y-114754999D01*
X94529329Y-114735969D01*
X94448223Y-114681776D01*
X94394030Y-114600670D01*
X94375000Y-114504999D01*
X94375000Y-113754999D01*
X94394030Y-113659328D01*
X94448223Y-113578222D01*
X94529329Y-113524029D01*
X94625000Y-113504999D01*
X95875000Y-113504999D01*
X95970671Y-113524029D01*
G37*
G36*
X95970671Y-110724029D02*
G01*
X96051777Y-110778222D01*
X96105970Y-110859328D01*
X96125000Y-110954999D01*
X96125000Y-111704999D01*
X96105970Y-111800670D01*
X96051777Y-111881776D01*
X95970671Y-111935969D01*
X95875000Y-111954999D01*
X94625000Y-111954999D01*
X94529329Y-111935969D01*
X94448223Y-111881776D01*
X94394030Y-111800670D01*
X94375000Y-111704999D01*
X94375000Y-110954999D01*
X94394030Y-110859328D01*
X94448223Y-110778222D01*
X94529329Y-110724029D01*
X94625000Y-110704999D01*
X95875000Y-110704999D01*
X95970671Y-110724029D01*
G37*
D13*
X92100000Y-111929999D03*
X92100000Y-113029999D03*
D14*
X90900000Y-111004999D03*
X90900000Y-113954999D03*
X91700000Y-111004999D03*
X91700000Y-113954999D03*
X92500000Y-111004999D03*
X92500000Y-113954999D03*
X93300000Y-111004999D03*
X93300000Y-113954999D03*
G36*
X130014962Y-113541651D02*
G01*
X130085930Y-113589070D01*
X130133349Y-113660038D01*
X130150000Y-113743750D01*
X130150000Y-114256250D01*
X130133349Y-114339962D01*
X130085930Y-114410930D01*
X130014962Y-114458349D01*
X129931250Y-114475000D01*
X129493750Y-114475000D01*
X129410038Y-114458349D01*
X129339070Y-114410930D01*
X129291651Y-114339962D01*
X129275000Y-114256250D01*
X129275000Y-113743750D01*
X129291651Y-113660038D01*
X129339070Y-113589070D01*
X129410038Y-113541651D01*
X129493750Y-113525000D01*
X129931250Y-113525000D01*
X130014962Y-113541651D01*
G37*
G36*
X131589962Y-113541651D02*
G01*
X131660930Y-113589070D01*
X131708349Y-113660038D01*
X131725000Y-113743750D01*
X131725000Y-114256250D01*
X131708349Y-114339962D01*
X131660930Y-114410930D01*
X131589962Y-114458349D01*
X131506250Y-114475000D01*
X131068750Y-114475000D01*
X130985038Y-114458349D01*
X130914070Y-114410930D01*
X130866651Y-114339962D01*
X130850000Y-114256250D01*
X130850000Y-113743750D01*
X130866651Y-113660038D01*
X130914070Y-113589070D01*
X130985038Y-113541651D01*
X131068750Y-113525000D01*
X131506250Y-113525000D01*
X131589962Y-113541651D01*
G37*
G36*
X128589962Y-113541651D02*
G01*
X128660930Y-113589070D01*
X128708349Y-113660038D01*
X128725000Y-113743750D01*
X128725000Y-114256250D01*
X128708349Y-114339962D01*
X128660930Y-114410930D01*
X128589962Y-114458349D01*
X128506250Y-114475000D01*
X128068750Y-114475000D01*
X127985038Y-114458349D01*
X127914070Y-114410930D01*
X127866651Y-114339962D01*
X127850000Y-114256250D01*
X127850000Y-113743750D01*
X127866651Y-113660038D01*
X127914070Y-113589070D01*
X127985038Y-113541651D01*
X128068750Y-113525000D01*
X128506250Y-113525000D01*
X128589962Y-113541651D01*
G37*
G36*
X127014962Y-113541651D02*
G01*
X127085930Y-113589070D01*
X127133349Y-113660038D01*
X127150000Y-113743750D01*
X127150000Y-114256250D01*
X127133349Y-114339962D01*
X127085930Y-114410930D01*
X127014962Y-114458349D01*
X126931250Y-114475000D01*
X126493750Y-114475000D01*
X126410038Y-114458349D01*
X126339070Y-114410930D01*
X126291651Y-114339962D01*
X126275000Y-114256250D01*
X126275000Y-113743750D01*
X126291651Y-113660038D01*
X126339070Y-113589070D01*
X126410038Y-113541651D01*
X126493750Y-113525000D01*
X126931250Y-113525000D01*
X127014962Y-113541651D01*
G37*
D15*
X139550000Y-127600000D03*
X137650000Y-127600000D03*
X137650000Y-125400000D03*
X138600000Y-125400000D03*
X139550000Y-125400000D03*
G36*
X143289962Y-127341651D02*
G01*
X143360930Y-127389070D01*
X143408349Y-127460038D01*
X143425000Y-127543750D01*
X143425000Y-128056250D01*
X143408349Y-128139962D01*
X143360930Y-128210930D01*
X143289962Y-128258349D01*
X143206250Y-128275000D01*
X142768750Y-128275000D01*
X142685038Y-128258349D01*
X142614070Y-128210930D01*
X142566651Y-128139962D01*
X142550000Y-128056250D01*
X142550000Y-127543750D01*
X142566651Y-127460038D01*
X142614070Y-127389070D01*
X142685038Y-127341651D01*
X142768750Y-127325000D01*
X143206250Y-127325000D01*
X143289962Y-127341651D01*
G37*
G36*
X141714962Y-127341651D02*
G01*
X141785930Y-127389070D01*
X141833349Y-127460038D01*
X141850000Y-127543750D01*
X141850000Y-128056250D01*
X141833349Y-128139962D01*
X141785930Y-128210930D01*
X141714962Y-128258349D01*
X141631250Y-128275000D01*
X141193750Y-128275000D01*
X141110038Y-128258349D01*
X141039070Y-128210930D01*
X140991651Y-128139962D01*
X140975000Y-128056250D01*
X140975000Y-127543750D01*
X140991651Y-127460038D01*
X141039070Y-127389070D01*
X141110038Y-127341651D01*
X141193750Y-127325000D01*
X141631250Y-127325000D01*
X141714962Y-127341651D01*
G37*
G36*
X124839962Y-126866651D02*
G01*
X124910930Y-126914070D01*
X124958349Y-126985038D01*
X124975000Y-127068750D01*
X124975000Y-127506250D01*
X124958349Y-127589962D01*
X124910930Y-127660930D01*
X124839962Y-127708349D01*
X124756250Y-127725000D01*
X124243750Y-127725000D01*
X124160038Y-127708349D01*
X124089070Y-127660930D01*
X124041651Y-127589962D01*
X124025000Y-127506250D01*
X124025000Y-127068750D01*
X124041651Y-126985038D01*
X124089070Y-126914070D01*
X124160038Y-126866651D01*
X124243750Y-126850000D01*
X124756250Y-126850000D01*
X124839962Y-126866651D01*
G37*
G36*
X124839962Y-125291651D02*
G01*
X124910930Y-125339070D01*
X124958349Y-125410038D01*
X124975000Y-125493750D01*
X124975000Y-125931250D01*
X124958349Y-126014962D01*
X124910930Y-126085930D01*
X124839962Y-126133349D01*
X124756250Y-126150000D01*
X124243750Y-126150000D01*
X124160038Y-126133349D01*
X124089070Y-126085930D01*
X124041651Y-126014962D01*
X124025000Y-125931250D01*
X124025000Y-125493750D01*
X124041651Y-125410038D01*
X124089070Y-125339070D01*
X124160038Y-125291651D01*
X124243750Y-125275000D01*
X124756250Y-125275000D01*
X124839962Y-125291651D01*
G37*
G36*
X94358712Y-88341651D02*
G01*
X94429680Y-88389070D01*
X94477099Y-88460038D01*
X94493750Y-88543750D01*
X94493750Y-89056250D01*
X94477099Y-89139962D01*
X94429680Y-89210930D01*
X94358712Y-89258349D01*
X94275000Y-89275000D01*
X93837500Y-89275000D01*
X93753788Y-89258349D01*
X93682820Y-89210930D01*
X93635401Y-89139962D01*
X93618750Y-89056250D01*
X93618750Y-88543750D01*
X93635401Y-88460038D01*
X93682820Y-88389070D01*
X93753788Y-88341651D01*
X93837500Y-88325000D01*
X94275000Y-88325000D01*
X94358712Y-88341651D01*
G37*
G36*
X95933712Y-88341651D02*
G01*
X96004680Y-88389070D01*
X96052099Y-88460038D01*
X96068750Y-88543750D01*
X96068750Y-89056250D01*
X96052099Y-89139962D01*
X96004680Y-89210930D01*
X95933712Y-89258349D01*
X95850000Y-89275000D01*
X95412500Y-89275000D01*
X95328788Y-89258349D01*
X95257820Y-89210930D01*
X95210401Y-89139962D01*
X95193750Y-89056250D01*
X95193750Y-88543750D01*
X95210401Y-88460038D01*
X95257820Y-88389070D01*
X95328788Y-88341651D01*
X95412500Y-88325000D01*
X95850000Y-88325000D01*
X95933712Y-88341651D01*
G37*
G36*
X95883712Y-86866651D02*
G01*
X95954680Y-86914070D01*
X96002099Y-86985038D01*
X96018750Y-87068750D01*
X96018750Y-87506250D01*
X96002099Y-87589962D01*
X95954680Y-87660930D01*
X95883712Y-87708349D01*
X95800000Y-87725000D01*
X95287500Y-87725000D01*
X95203788Y-87708349D01*
X95132820Y-87660930D01*
X95085401Y-87589962D01*
X95068750Y-87506250D01*
X95068750Y-87068750D01*
X95085401Y-86985038D01*
X95132820Y-86914070D01*
X95203788Y-86866651D01*
X95287500Y-86850000D01*
X95800000Y-86850000D01*
X95883712Y-86866651D01*
G37*
G36*
X95883712Y-85291651D02*
G01*
X95954680Y-85339070D01*
X96002099Y-85410038D01*
X96018750Y-85493750D01*
X96018750Y-85931250D01*
X96002099Y-86014962D01*
X95954680Y-86085930D01*
X95883712Y-86133349D01*
X95800000Y-86150000D01*
X95287500Y-86150000D01*
X95203788Y-86133349D01*
X95132820Y-86085930D01*
X95085401Y-86014962D01*
X95068750Y-85931250D01*
X95068750Y-85493750D01*
X95085401Y-85410038D01*
X95132820Y-85339070D01*
X95203788Y-85291651D01*
X95287500Y-85275000D01*
X95800000Y-85275000D01*
X95883712Y-85291651D01*
G37*
G36*
X97383712Y-85291651D02*
G01*
X97454680Y-85339070D01*
X97502099Y-85410038D01*
X97518750Y-85493750D01*
X97518750Y-85931250D01*
X97502099Y-86014962D01*
X97454680Y-86085930D01*
X97383712Y-86133349D01*
X97300000Y-86150000D01*
X96787500Y-86150000D01*
X96703788Y-86133349D01*
X96632820Y-86085930D01*
X96585401Y-86014962D01*
X96568750Y-85931250D01*
X96568750Y-85493750D01*
X96585401Y-85410038D01*
X96632820Y-85339070D01*
X96703788Y-85291651D01*
X96787500Y-85275000D01*
X97300000Y-85275000D01*
X97383712Y-85291651D01*
G37*
G36*
X97383712Y-86866651D02*
G01*
X97454680Y-86914070D01*
X97502099Y-86985038D01*
X97518750Y-87068750D01*
X97518750Y-87506250D01*
X97502099Y-87589962D01*
X97454680Y-87660930D01*
X97383712Y-87708349D01*
X97300000Y-87725000D01*
X96787500Y-87725000D01*
X96703788Y-87708349D01*
X96632820Y-87660930D01*
X96585401Y-87589962D01*
X96568750Y-87506250D01*
X96568750Y-87068750D01*
X96585401Y-86985038D01*
X96632820Y-86914070D01*
X96703788Y-86866651D01*
X96787500Y-86850000D01*
X97300000Y-86850000D01*
X97383712Y-86866651D01*
G37*
D16*
X99143750Y-89400000D03*
X97143750Y-90050000D03*
X97143750Y-88750000D03*
G36*
X94383712Y-86866651D02*
G01*
X94454680Y-86914070D01*
X94502099Y-86985038D01*
X94518750Y-87068750D01*
X94518750Y-87506250D01*
X94502099Y-87589962D01*
X94454680Y-87660930D01*
X94383712Y-87708349D01*
X94300000Y-87725000D01*
X93787500Y-87725000D01*
X93703788Y-87708349D01*
X93632820Y-87660930D01*
X93585401Y-87589962D01*
X93568750Y-87506250D01*
X93568750Y-87068750D01*
X93585401Y-86985038D01*
X93632820Y-86914070D01*
X93703788Y-86866651D01*
X93787500Y-86850000D01*
X94300000Y-86850000D01*
X94383712Y-86866651D01*
G37*
G36*
X94383712Y-85291651D02*
G01*
X94454680Y-85339070D01*
X94502099Y-85410038D01*
X94518750Y-85493750D01*
X94518750Y-85931250D01*
X94502099Y-86014962D01*
X94454680Y-86085930D01*
X94383712Y-86133349D01*
X94300000Y-86150000D01*
X93787500Y-86150000D01*
X93703788Y-86133349D01*
X93632820Y-86085930D01*
X93585401Y-86014962D01*
X93568750Y-85931250D01*
X93568750Y-85493750D01*
X93585401Y-85410038D01*
X93632820Y-85339070D01*
X93703788Y-85291651D01*
X93787500Y-85275000D01*
X94300000Y-85275000D01*
X94383712Y-85291651D01*
G37*
D17*
X93700000Y-91615000D03*
X93700000Y-102385000D03*
D18*
X99170000Y-98500000D03*
X99170000Y-95500000D03*
D19*
X151900000Y-81500000D03*
X150600000Y-81500000D03*
X151250000Y-83500000D03*
G36*
X145889962Y-87291651D02*
G01*
X145960930Y-87339070D01*
X146008349Y-87410038D01*
X146025000Y-87493750D01*
X146025000Y-88006250D01*
X146008349Y-88089962D01*
X145960930Y-88160930D01*
X145889962Y-88208349D01*
X145806250Y-88225000D01*
X145368750Y-88225000D01*
X145285038Y-88208349D01*
X145214070Y-88160930D01*
X145166651Y-88089962D01*
X145150000Y-88006250D01*
X145150000Y-87493750D01*
X145166651Y-87410038D01*
X145214070Y-87339070D01*
X145285038Y-87291651D01*
X145368750Y-87275000D01*
X145806250Y-87275000D01*
X145889962Y-87291651D01*
G37*
G36*
X144314962Y-87291651D02*
G01*
X144385930Y-87339070D01*
X144433349Y-87410038D01*
X144450000Y-87493750D01*
X144450000Y-88006250D01*
X144433349Y-88089962D01*
X144385930Y-88160930D01*
X144314962Y-88208349D01*
X144231250Y-88225000D01*
X143793750Y-88225000D01*
X143710038Y-88208349D01*
X143639070Y-88160930D01*
X143591651Y-88089962D01*
X143575000Y-88006250D01*
X143575000Y-87493750D01*
X143591651Y-87410038D01*
X143639070Y-87339070D01*
X143710038Y-87291651D01*
X143793750Y-87275000D01*
X144231250Y-87275000D01*
X144314962Y-87291651D01*
G37*
D16*
X99400000Y-70000000D03*
X97400000Y-70650000D03*
X97400000Y-69350000D03*
D20*
X109500000Y-88075000D03*
D10*
X106600000Y-90350000D03*
X112400000Y-90350000D03*
X106600000Y-89700000D03*
X112400000Y-89700000D03*
X106600000Y-89050000D03*
X112400000Y-89050000D03*
X106600000Y-88400000D03*
X112400000Y-88400000D03*
X106600000Y-87750000D03*
X112400000Y-87750000D03*
X106600000Y-87100000D03*
X112400000Y-87100000D03*
X106600000Y-86450000D03*
X112400000Y-86450000D03*
X106600000Y-85800000D03*
X112400000Y-85800000D03*
G36*
X114939962Y-90491651D02*
G01*
X115010930Y-90539070D01*
X115058349Y-90610038D01*
X115075000Y-90693750D01*
X115075000Y-91131250D01*
X115058349Y-91214962D01*
X115010930Y-91285930D01*
X114939962Y-91333349D01*
X114856250Y-91350000D01*
X114343750Y-91350000D01*
X114260038Y-91333349D01*
X114189070Y-91285930D01*
X114141651Y-91214962D01*
X114125000Y-91131250D01*
X114125000Y-90693750D01*
X114141651Y-90610038D01*
X114189070Y-90539070D01*
X114260038Y-90491651D01*
X114343750Y-90475000D01*
X114856250Y-90475000D01*
X114939962Y-90491651D01*
G37*
G36*
X114939962Y-92066651D02*
G01*
X115010930Y-92114070D01*
X115058349Y-92185038D01*
X115075000Y-92268750D01*
X115075000Y-92706250D01*
X115058349Y-92789962D01*
X115010930Y-92860930D01*
X114939962Y-92908349D01*
X114856250Y-92925000D01*
X114343750Y-92925000D01*
X114260038Y-92908349D01*
X114189070Y-92860930D01*
X114141651Y-92789962D01*
X114125000Y-92706250D01*
X114125000Y-92268750D01*
X114141651Y-92185038D01*
X114189070Y-92114070D01*
X114260038Y-92066651D01*
X114343750Y-92050000D01*
X114856250Y-92050000D01*
X114939962Y-92066651D01*
G37*
G36*
X104839962Y-90766651D02*
G01*
X104910930Y-90814070D01*
X104958349Y-90885038D01*
X104975000Y-90968750D01*
X104975000Y-91406250D01*
X104958349Y-91489962D01*
X104910930Y-91560930D01*
X104839962Y-91608349D01*
X104756250Y-91625000D01*
X104243750Y-91625000D01*
X104160038Y-91608349D01*
X104089070Y-91560930D01*
X104041651Y-91489962D01*
X104025000Y-91406250D01*
X104025000Y-90968750D01*
X104041651Y-90885038D01*
X104089070Y-90814070D01*
X104160038Y-90766651D01*
X104243750Y-90750000D01*
X104756250Y-90750000D01*
X104839962Y-90766651D01*
G37*
G36*
X104839962Y-89191651D02*
G01*
X104910930Y-89239070D01*
X104958349Y-89310038D01*
X104975000Y-89393750D01*
X104975000Y-89831250D01*
X104958349Y-89914962D01*
X104910930Y-89985930D01*
X104839962Y-90033349D01*
X104756250Y-90050000D01*
X104243750Y-90050000D01*
X104160038Y-90033349D01*
X104089070Y-89985930D01*
X104041651Y-89914962D01*
X104025000Y-89831250D01*
X104025000Y-89393750D01*
X104041651Y-89310038D01*
X104089070Y-89239070D01*
X104160038Y-89191651D01*
X104243750Y-89175000D01*
X104756250Y-89175000D01*
X104839962Y-89191651D01*
G37*
G36*
X103314962Y-87641651D02*
G01*
X103385930Y-87689070D01*
X103433349Y-87760038D01*
X103450000Y-87843750D01*
X103450000Y-88356250D01*
X103433349Y-88439962D01*
X103385930Y-88510930D01*
X103314962Y-88558349D01*
X103231250Y-88575000D01*
X102793750Y-88575000D01*
X102710038Y-88558349D01*
X102639070Y-88510930D01*
X102591651Y-88439962D01*
X102575000Y-88356250D01*
X102575000Y-87843750D01*
X102591651Y-87760038D01*
X102639070Y-87689070D01*
X102710038Y-87641651D01*
X102793750Y-87625000D01*
X103231250Y-87625000D01*
X103314962Y-87641651D01*
G37*
G36*
X104889962Y-87641651D02*
G01*
X104960930Y-87689070D01*
X105008349Y-87760038D01*
X105025000Y-87843750D01*
X105025000Y-88356250D01*
X105008349Y-88439962D01*
X104960930Y-88510930D01*
X104889962Y-88558349D01*
X104806250Y-88575000D01*
X104368750Y-88575000D01*
X104285038Y-88558349D01*
X104214070Y-88510930D01*
X104166651Y-88439962D01*
X104150000Y-88356250D01*
X104150000Y-87843750D01*
X104166651Y-87760038D01*
X104214070Y-87689070D01*
X104285038Y-87641651D01*
X104368750Y-87625000D01*
X104806250Y-87625000D01*
X104889962Y-87641651D01*
G37*
G36*
X130014962Y-112041651D02*
G01*
X130085930Y-112089070D01*
X130133349Y-112160038D01*
X130150000Y-112243750D01*
X130150000Y-112756250D01*
X130133349Y-112839962D01*
X130085930Y-112910930D01*
X130014962Y-112958349D01*
X129931250Y-112975000D01*
X129493750Y-112975000D01*
X129410038Y-112958349D01*
X129339070Y-112910930D01*
X129291651Y-112839962D01*
X129275000Y-112756250D01*
X129275000Y-112243750D01*
X129291651Y-112160038D01*
X129339070Y-112089070D01*
X129410038Y-112041651D01*
X129493750Y-112025000D01*
X129931250Y-112025000D01*
X130014962Y-112041651D01*
G37*
G36*
X131589962Y-112041651D02*
G01*
X131660930Y-112089070D01*
X131708349Y-112160038D01*
X131725000Y-112243750D01*
X131725000Y-112756250D01*
X131708349Y-112839962D01*
X131660930Y-112910930D01*
X131589962Y-112958349D01*
X131506250Y-112975000D01*
X131068750Y-112975000D01*
X130985038Y-112958349D01*
X130914070Y-112910930D01*
X130866651Y-112839962D01*
X130850000Y-112756250D01*
X130850000Y-112243750D01*
X130866651Y-112160038D01*
X130914070Y-112089070D01*
X130985038Y-112041651D01*
X131068750Y-112025000D01*
X131506250Y-112025000D01*
X131589962Y-112041651D01*
G37*
G36*
X128589962Y-112041651D02*
G01*
X128660930Y-112089070D01*
X128708349Y-112160038D01*
X128725000Y-112243750D01*
X128725000Y-112756250D01*
X128708349Y-112839962D01*
X128660930Y-112910930D01*
X128589962Y-112958349D01*
X128506250Y-112975000D01*
X128068750Y-112975000D01*
X127985038Y-112958349D01*
X127914070Y-112910930D01*
X127866651Y-112839962D01*
X127850000Y-112756250D01*
X127850000Y-112243750D01*
X127866651Y-112160038D01*
X127914070Y-112089070D01*
X127985038Y-112041651D01*
X128068750Y-112025000D01*
X128506250Y-112025000D01*
X128589962Y-112041651D01*
G37*
G36*
X127014962Y-112041651D02*
G01*
X127085930Y-112089070D01*
X127133349Y-112160038D01*
X127150000Y-112243750D01*
X127150000Y-112756250D01*
X127133349Y-112839962D01*
X127085930Y-112910930D01*
X127014962Y-112958349D01*
X126931250Y-112975000D01*
X126493750Y-112975000D01*
X126410038Y-112958349D01*
X126339070Y-112910930D01*
X126291651Y-112839962D01*
X126275000Y-112756250D01*
X126275000Y-112243750D01*
X126291651Y-112160038D01*
X126339070Y-112089070D01*
X126410038Y-112041651D01*
X126493750Y-112025000D01*
X126931250Y-112025000D01*
X127014962Y-112041651D01*
G37*
G36*
X117239962Y-121391651D02*
G01*
X117310930Y-121439070D01*
X117358349Y-121510038D01*
X117375000Y-121593750D01*
X117375000Y-122031250D01*
X117358349Y-122114962D01*
X117310930Y-122185930D01*
X117239962Y-122233349D01*
X117156250Y-122250000D01*
X116643750Y-122250000D01*
X116560038Y-122233349D01*
X116489070Y-122185930D01*
X116441651Y-122114962D01*
X116425000Y-122031250D01*
X116425000Y-121593750D01*
X116441651Y-121510038D01*
X116489070Y-121439070D01*
X116560038Y-121391651D01*
X116643750Y-121375000D01*
X117156250Y-121375000D01*
X117239962Y-121391651D01*
G37*
G36*
X117239962Y-122966651D02*
G01*
X117310930Y-123014070D01*
X117358349Y-123085038D01*
X117375000Y-123168750D01*
X117375000Y-123606250D01*
X117358349Y-123689962D01*
X117310930Y-123760930D01*
X117239962Y-123808349D01*
X117156250Y-123825000D01*
X116643750Y-123825000D01*
X116560038Y-123808349D01*
X116489070Y-123760930D01*
X116441651Y-123689962D01*
X116425000Y-123606250D01*
X116425000Y-123168750D01*
X116441651Y-123085038D01*
X116489070Y-123014070D01*
X116560038Y-122966651D01*
X116643750Y-122950000D01*
X117156250Y-122950000D01*
X117239962Y-122966651D01*
G37*
G36*
X117239962Y-119966651D02*
G01*
X117310930Y-120014070D01*
X117358349Y-120085038D01*
X117375000Y-120168750D01*
X117375000Y-120606250D01*
X117358349Y-120689962D01*
X117310930Y-120760930D01*
X117239962Y-120808349D01*
X117156250Y-120825000D01*
X116643750Y-120825000D01*
X116560038Y-120808349D01*
X116489070Y-120760930D01*
X116441651Y-120689962D01*
X116425000Y-120606250D01*
X116425000Y-120168750D01*
X116441651Y-120085038D01*
X116489070Y-120014070D01*
X116560038Y-119966651D01*
X116643750Y-119950000D01*
X117156250Y-119950000D01*
X117239962Y-119966651D01*
G37*
G36*
X117239962Y-118391651D02*
G01*
X117310930Y-118439070D01*
X117358349Y-118510038D01*
X117375000Y-118593750D01*
X117375000Y-119031250D01*
X117358349Y-119114962D01*
X117310930Y-119185930D01*
X117239962Y-119233349D01*
X117156250Y-119250000D01*
X116643750Y-119250000D01*
X116560038Y-119233349D01*
X116489070Y-119185930D01*
X116441651Y-119114962D01*
X116425000Y-119031250D01*
X116425000Y-118593750D01*
X116441651Y-118510038D01*
X116489070Y-118439070D01*
X116560038Y-118391651D01*
X116643750Y-118375000D01*
X117156250Y-118375000D01*
X117239962Y-118391651D01*
G37*
G36*
X134939962Y-111866651D02*
G01*
X135010930Y-111914070D01*
X135058349Y-111985038D01*
X135075000Y-112068750D01*
X135075000Y-112506250D01*
X135058349Y-112589962D01*
X135010930Y-112660930D01*
X134939962Y-112708349D01*
X134856250Y-112725000D01*
X134343750Y-112725000D01*
X134260038Y-112708349D01*
X134189070Y-112660930D01*
X134141651Y-112589962D01*
X134125000Y-112506250D01*
X134125000Y-112068750D01*
X134141651Y-111985038D01*
X134189070Y-111914070D01*
X134260038Y-111866651D01*
X134343750Y-111850000D01*
X134856250Y-111850000D01*
X134939962Y-111866651D01*
G37*
G36*
X134939962Y-110291651D02*
G01*
X135010930Y-110339070D01*
X135058349Y-110410038D01*
X135075000Y-110493750D01*
X135075000Y-110931250D01*
X135058349Y-111014962D01*
X135010930Y-111085930D01*
X134939962Y-111133349D01*
X134856250Y-111150000D01*
X134343750Y-111150000D01*
X134260038Y-111133349D01*
X134189070Y-111085930D01*
X134141651Y-111014962D01*
X134125000Y-110931250D01*
X134125000Y-110493750D01*
X134141651Y-110410038D01*
X134189070Y-110339070D01*
X134260038Y-110291651D01*
X134343750Y-110275000D01*
X134856250Y-110275000D01*
X134939962Y-110291651D01*
G37*
G36*
X134939962Y-114866651D02*
G01*
X135010930Y-114914070D01*
X135058349Y-114985038D01*
X135075000Y-115068750D01*
X135075000Y-115506250D01*
X135058349Y-115589962D01*
X135010930Y-115660930D01*
X134939962Y-115708349D01*
X134856250Y-115725000D01*
X134343750Y-115725000D01*
X134260038Y-115708349D01*
X134189070Y-115660930D01*
X134141651Y-115589962D01*
X134125000Y-115506250D01*
X134125000Y-115068750D01*
X134141651Y-114985038D01*
X134189070Y-114914070D01*
X134260038Y-114866651D01*
X134343750Y-114850000D01*
X134856250Y-114850000D01*
X134939962Y-114866651D01*
G37*
G36*
X134939962Y-113291651D02*
G01*
X135010930Y-113339070D01*
X135058349Y-113410038D01*
X135075000Y-113493750D01*
X135075000Y-113931250D01*
X135058349Y-114014962D01*
X135010930Y-114085930D01*
X134939962Y-114133349D01*
X134856250Y-114150000D01*
X134343750Y-114150000D01*
X134260038Y-114133349D01*
X134189070Y-114085930D01*
X134141651Y-114014962D01*
X134125000Y-113931250D01*
X134125000Y-113493750D01*
X134141651Y-113410038D01*
X134189070Y-113339070D01*
X134260038Y-113291651D01*
X134343750Y-113275000D01*
X134856250Y-113275000D01*
X134939962Y-113291651D01*
G37*
G36*
X133472835Y-124434515D02*
G01*
X133513388Y-124461612D01*
X133540485Y-124502165D01*
X133550000Y-124550000D01*
X133550000Y-125800000D01*
X133540485Y-125847835D01*
X133513388Y-125888388D01*
X133472835Y-125915485D01*
X133425000Y-125925000D01*
X133175000Y-125925000D01*
X133127165Y-125915485D01*
X133086612Y-125888388D01*
X133059515Y-125847835D01*
X133050000Y-125800000D01*
X133050000Y-124550000D01*
X133059515Y-124502165D01*
X133086612Y-124461612D01*
X133127165Y-124434515D01*
X133175000Y-124425000D01*
X133425000Y-124425000D01*
X133472835Y-124434515D01*
G37*
G36*
X132672835Y-124434515D02*
G01*
X132713388Y-124461612D01*
X132740485Y-124502165D01*
X132750000Y-124550000D01*
X132750000Y-125800000D01*
X132740485Y-125847835D01*
X132713388Y-125888388D01*
X132672835Y-125915485D01*
X132625000Y-125925000D01*
X132375000Y-125925000D01*
X132327165Y-125915485D01*
X132286612Y-125888388D01*
X132259515Y-125847835D01*
X132250000Y-125800000D01*
X132250000Y-124550000D01*
X132259515Y-124502165D01*
X132286612Y-124461612D01*
X132327165Y-124434515D01*
X132375000Y-124425000D01*
X132625000Y-124425000D01*
X132672835Y-124434515D01*
G37*
G36*
X131872835Y-124434515D02*
G01*
X131913388Y-124461612D01*
X131940485Y-124502165D01*
X131950000Y-124550000D01*
X131950000Y-125800000D01*
X131940485Y-125847835D01*
X131913388Y-125888388D01*
X131872835Y-125915485D01*
X131825000Y-125925000D01*
X131575000Y-125925000D01*
X131527165Y-125915485D01*
X131486612Y-125888388D01*
X131459515Y-125847835D01*
X131450000Y-125800000D01*
X131450000Y-124550000D01*
X131459515Y-124502165D01*
X131486612Y-124461612D01*
X131527165Y-124434515D01*
X131575000Y-124425000D01*
X131825000Y-124425000D01*
X131872835Y-124434515D01*
G37*
G36*
X131072835Y-124434515D02*
G01*
X131113388Y-124461612D01*
X131140485Y-124502165D01*
X131150000Y-124550000D01*
X131150000Y-125800000D01*
X131140485Y-125847835D01*
X131113388Y-125888388D01*
X131072835Y-125915485D01*
X131025000Y-125925000D01*
X130775000Y-125925000D01*
X130727165Y-125915485D01*
X130686612Y-125888388D01*
X130659515Y-125847835D01*
X130650000Y-125800000D01*
X130650000Y-124550000D01*
X130659515Y-124502165D01*
X130686612Y-124461612D01*
X130727165Y-124434515D01*
X130775000Y-124425000D01*
X131025000Y-124425000D01*
X131072835Y-124434515D01*
G37*
G36*
X130272835Y-124434515D02*
G01*
X130313388Y-124461612D01*
X130340485Y-124502165D01*
X130350000Y-124550000D01*
X130350000Y-125800000D01*
X130340485Y-125847835D01*
X130313388Y-125888388D01*
X130272835Y-125915485D01*
X130225000Y-125925000D01*
X129975000Y-125925000D01*
X129927165Y-125915485D01*
X129886612Y-125888388D01*
X129859515Y-125847835D01*
X129850000Y-125800000D01*
X129850000Y-124550000D01*
X129859515Y-124502165D01*
X129886612Y-124461612D01*
X129927165Y-124434515D01*
X129975000Y-124425000D01*
X130225000Y-124425000D01*
X130272835Y-124434515D01*
G37*
G36*
X129472835Y-124434515D02*
G01*
X129513388Y-124461612D01*
X129540485Y-124502165D01*
X129550000Y-124550000D01*
X129550000Y-125800000D01*
X129540485Y-125847835D01*
X129513388Y-125888388D01*
X129472835Y-125915485D01*
X129425000Y-125925000D01*
X129175000Y-125925000D01*
X129127165Y-125915485D01*
X129086612Y-125888388D01*
X129059515Y-125847835D01*
X129050000Y-125800000D01*
X129050000Y-124550000D01*
X129059515Y-124502165D01*
X129086612Y-124461612D01*
X129127165Y-124434515D01*
X129175000Y-124425000D01*
X129425000Y-124425000D01*
X129472835Y-124434515D01*
G37*
G36*
X128672835Y-124434515D02*
G01*
X128713388Y-124461612D01*
X128740485Y-124502165D01*
X128750000Y-124550000D01*
X128750000Y-125800000D01*
X128740485Y-125847835D01*
X128713388Y-125888388D01*
X128672835Y-125915485D01*
X128625000Y-125925000D01*
X128375000Y-125925000D01*
X128327165Y-125915485D01*
X128286612Y-125888388D01*
X128259515Y-125847835D01*
X128250000Y-125800000D01*
X128250000Y-124550000D01*
X128259515Y-124502165D01*
X128286612Y-124461612D01*
X128327165Y-124434515D01*
X128375000Y-124425000D01*
X128625000Y-124425000D01*
X128672835Y-124434515D01*
G37*
G36*
X127872835Y-124434515D02*
G01*
X127913388Y-124461612D01*
X127940485Y-124502165D01*
X127950000Y-124550000D01*
X127950000Y-125800000D01*
X127940485Y-125847835D01*
X127913388Y-125888388D01*
X127872835Y-125915485D01*
X127825000Y-125925000D01*
X127575000Y-125925000D01*
X127527165Y-125915485D01*
X127486612Y-125888388D01*
X127459515Y-125847835D01*
X127450000Y-125800000D01*
X127450000Y-124550000D01*
X127459515Y-124502165D01*
X127486612Y-124461612D01*
X127527165Y-124434515D01*
X127575000Y-124425000D01*
X127825000Y-124425000D01*
X127872835Y-124434515D01*
G37*
G36*
X126997835Y-123559515D02*
G01*
X127038388Y-123586612D01*
X127065485Y-123627165D01*
X127075000Y-123675000D01*
X127075000Y-123925000D01*
X127065485Y-123972835D01*
X127038388Y-124013388D01*
X126997835Y-124040485D01*
X126950000Y-124050000D01*
X125700000Y-124050000D01*
X125652165Y-124040485D01*
X125611612Y-124013388D01*
X125584515Y-123972835D01*
X125575000Y-123925000D01*
X125575000Y-123675000D01*
X125584515Y-123627165D01*
X125611612Y-123586612D01*
X125652165Y-123559515D01*
X125700000Y-123550000D01*
X126950000Y-123550000D01*
X126997835Y-123559515D01*
G37*
G36*
X126997835Y-122759515D02*
G01*
X127038388Y-122786612D01*
X127065485Y-122827165D01*
X127075000Y-122875000D01*
X127075000Y-123125000D01*
X127065485Y-123172835D01*
X127038388Y-123213388D01*
X126997835Y-123240485D01*
X126950000Y-123250000D01*
X125700000Y-123250000D01*
X125652165Y-123240485D01*
X125611612Y-123213388D01*
X125584515Y-123172835D01*
X125575000Y-123125000D01*
X125575000Y-122875000D01*
X125584515Y-122827165D01*
X125611612Y-122786612D01*
X125652165Y-122759515D01*
X125700000Y-122750000D01*
X126950000Y-122750000D01*
X126997835Y-122759515D01*
G37*
G36*
X126997835Y-121959515D02*
G01*
X127038388Y-121986612D01*
X127065485Y-122027165D01*
X127075000Y-122075000D01*
X127075000Y-122325000D01*
X127065485Y-122372835D01*
X127038388Y-122413388D01*
X126997835Y-122440485D01*
X126950000Y-122450000D01*
X125700000Y-122450000D01*
X125652165Y-122440485D01*
X125611612Y-122413388D01*
X125584515Y-122372835D01*
X125575000Y-122325000D01*
X125575000Y-122075000D01*
X125584515Y-122027165D01*
X125611612Y-121986612D01*
X125652165Y-121959515D01*
X125700000Y-121950000D01*
X126950000Y-121950000D01*
X126997835Y-121959515D01*
G37*
G36*
X126997835Y-121159515D02*
G01*
X127038388Y-121186612D01*
X127065485Y-121227165D01*
X127075000Y-121275000D01*
X127075000Y-121525000D01*
X127065485Y-121572835D01*
X127038388Y-121613388D01*
X126997835Y-121640485D01*
X126950000Y-121650000D01*
X125700000Y-121650000D01*
X125652165Y-121640485D01*
X125611612Y-121613388D01*
X125584515Y-121572835D01*
X125575000Y-121525000D01*
X125575000Y-121275000D01*
X125584515Y-121227165D01*
X125611612Y-121186612D01*
X125652165Y-121159515D01*
X125700000Y-121150000D01*
X126950000Y-121150000D01*
X126997835Y-121159515D01*
G37*
G36*
X126997835Y-120359515D02*
G01*
X127038388Y-120386612D01*
X127065485Y-120427165D01*
X127075000Y-120475000D01*
X127075000Y-120725000D01*
X127065485Y-120772835D01*
X127038388Y-120813388D01*
X126997835Y-120840485D01*
X126950000Y-120850000D01*
X125700000Y-120850000D01*
X125652165Y-120840485D01*
X125611612Y-120813388D01*
X125584515Y-120772835D01*
X125575000Y-120725000D01*
X125575000Y-120475000D01*
X125584515Y-120427165D01*
X125611612Y-120386612D01*
X125652165Y-120359515D01*
X125700000Y-120350000D01*
X126950000Y-120350000D01*
X126997835Y-120359515D01*
G37*
G36*
X126997835Y-119559515D02*
G01*
X127038388Y-119586612D01*
X127065485Y-119627165D01*
X127075000Y-119675000D01*
X127075000Y-119925000D01*
X127065485Y-119972835D01*
X127038388Y-120013388D01*
X126997835Y-120040485D01*
X126950000Y-120050000D01*
X125700000Y-120050000D01*
X125652165Y-120040485D01*
X125611612Y-120013388D01*
X125584515Y-119972835D01*
X125575000Y-119925000D01*
X125575000Y-119675000D01*
X125584515Y-119627165D01*
X125611612Y-119586612D01*
X125652165Y-119559515D01*
X125700000Y-119550000D01*
X126950000Y-119550000D01*
X126997835Y-119559515D01*
G37*
G36*
X126997835Y-118759515D02*
G01*
X127038388Y-118786612D01*
X127065485Y-118827165D01*
X127075000Y-118875000D01*
X127075000Y-119125000D01*
X127065485Y-119172835D01*
X127038388Y-119213388D01*
X126997835Y-119240485D01*
X126950000Y-119250000D01*
X125700000Y-119250000D01*
X125652165Y-119240485D01*
X125611612Y-119213388D01*
X125584515Y-119172835D01*
X125575000Y-119125000D01*
X125575000Y-118875000D01*
X125584515Y-118827165D01*
X125611612Y-118786612D01*
X125652165Y-118759515D01*
X125700000Y-118750000D01*
X126950000Y-118750000D01*
X126997835Y-118759515D01*
G37*
G36*
X126997835Y-117959515D02*
G01*
X127038388Y-117986612D01*
X127065485Y-118027165D01*
X127075000Y-118075000D01*
X127075000Y-118325000D01*
X127065485Y-118372835D01*
X127038388Y-118413388D01*
X126997835Y-118440485D01*
X126950000Y-118450000D01*
X125700000Y-118450000D01*
X125652165Y-118440485D01*
X125611612Y-118413388D01*
X125584515Y-118372835D01*
X125575000Y-118325000D01*
X125575000Y-118075000D01*
X125584515Y-118027165D01*
X125611612Y-117986612D01*
X125652165Y-117959515D01*
X125700000Y-117950000D01*
X126950000Y-117950000D01*
X126997835Y-117959515D01*
G37*
G36*
X127872835Y-116084515D02*
G01*
X127913388Y-116111612D01*
X127940485Y-116152165D01*
X127950000Y-116200000D01*
X127950000Y-117450000D01*
X127940485Y-117497835D01*
X127913388Y-117538388D01*
X127872835Y-117565485D01*
X127825000Y-117575000D01*
X127575000Y-117575000D01*
X127527165Y-117565485D01*
X127486612Y-117538388D01*
X127459515Y-117497835D01*
X127450000Y-117450000D01*
X127450000Y-116200000D01*
X127459515Y-116152165D01*
X127486612Y-116111612D01*
X127527165Y-116084515D01*
X127575000Y-116075000D01*
X127825000Y-116075000D01*
X127872835Y-116084515D01*
G37*
G36*
X128672835Y-116084515D02*
G01*
X128713388Y-116111612D01*
X128740485Y-116152165D01*
X128750000Y-116200000D01*
X128750000Y-117450000D01*
X128740485Y-117497835D01*
X128713388Y-117538388D01*
X128672835Y-117565485D01*
X128625000Y-117575000D01*
X128375000Y-117575000D01*
X128327165Y-117565485D01*
X128286612Y-117538388D01*
X128259515Y-117497835D01*
X128250000Y-117450000D01*
X128250000Y-116200000D01*
X128259515Y-116152165D01*
X128286612Y-116111612D01*
X128327165Y-116084515D01*
X128375000Y-116075000D01*
X128625000Y-116075000D01*
X128672835Y-116084515D01*
G37*
G36*
X129472835Y-116084515D02*
G01*
X129513388Y-116111612D01*
X129540485Y-116152165D01*
X129550000Y-116200000D01*
X129550000Y-117450000D01*
X129540485Y-117497835D01*
X129513388Y-117538388D01*
X129472835Y-117565485D01*
X129425000Y-117575000D01*
X129175000Y-117575000D01*
X129127165Y-117565485D01*
X129086612Y-117538388D01*
X129059515Y-117497835D01*
X129050000Y-117450000D01*
X129050000Y-116200000D01*
X129059515Y-116152165D01*
X129086612Y-116111612D01*
X129127165Y-116084515D01*
X129175000Y-116075000D01*
X129425000Y-116075000D01*
X129472835Y-116084515D01*
G37*
G36*
X130272835Y-116084515D02*
G01*
X130313388Y-116111612D01*
X130340485Y-116152165D01*
X130350000Y-116200000D01*
X130350000Y-117450000D01*
X130340485Y-117497835D01*
X130313388Y-117538388D01*
X130272835Y-117565485D01*
X130225000Y-117575000D01*
X129975000Y-117575000D01*
X129927165Y-117565485D01*
X129886612Y-117538388D01*
X129859515Y-117497835D01*
X129850000Y-117450000D01*
X129850000Y-116200000D01*
X129859515Y-116152165D01*
X129886612Y-116111612D01*
X129927165Y-116084515D01*
X129975000Y-116075000D01*
X130225000Y-116075000D01*
X130272835Y-116084515D01*
G37*
G36*
X131072835Y-116084515D02*
G01*
X131113388Y-116111612D01*
X131140485Y-116152165D01*
X131150000Y-116200000D01*
X131150000Y-117450000D01*
X131140485Y-117497835D01*
X131113388Y-117538388D01*
X131072835Y-117565485D01*
X131025000Y-117575000D01*
X130775000Y-117575000D01*
X130727165Y-117565485D01*
X130686612Y-117538388D01*
X130659515Y-117497835D01*
X130650000Y-117450000D01*
X130650000Y-116200000D01*
X130659515Y-116152165D01*
X130686612Y-116111612D01*
X130727165Y-116084515D01*
X130775000Y-116075000D01*
X131025000Y-116075000D01*
X131072835Y-116084515D01*
G37*
G36*
X131872835Y-116084515D02*
G01*
X131913388Y-116111612D01*
X131940485Y-116152165D01*
X131950000Y-116200000D01*
X131950000Y-117450000D01*
X131940485Y-117497835D01*
X131913388Y-117538388D01*
X131872835Y-117565485D01*
X131825000Y-117575000D01*
X131575000Y-117575000D01*
X131527165Y-117565485D01*
X131486612Y-117538388D01*
X131459515Y-117497835D01*
X131450000Y-117450000D01*
X131450000Y-116200000D01*
X131459515Y-116152165D01*
X131486612Y-116111612D01*
X131527165Y-116084515D01*
X131575000Y-116075000D01*
X131825000Y-116075000D01*
X131872835Y-116084515D01*
G37*
G36*
X132672835Y-116084515D02*
G01*
X132713388Y-116111612D01*
X132740485Y-116152165D01*
X132750000Y-116200000D01*
X132750000Y-117450000D01*
X132740485Y-117497835D01*
X132713388Y-117538388D01*
X132672835Y-117565485D01*
X132625000Y-117575000D01*
X132375000Y-117575000D01*
X132327165Y-117565485D01*
X132286612Y-117538388D01*
X132259515Y-117497835D01*
X132250000Y-117450000D01*
X132250000Y-116200000D01*
X132259515Y-116152165D01*
X132286612Y-116111612D01*
X132327165Y-116084515D01*
X132375000Y-116075000D01*
X132625000Y-116075000D01*
X132672835Y-116084515D01*
G37*
G36*
X133472835Y-116084515D02*
G01*
X133513388Y-116111612D01*
X133540485Y-116152165D01*
X133550000Y-116200000D01*
X133550000Y-117450000D01*
X133540485Y-117497835D01*
X133513388Y-117538388D01*
X133472835Y-117565485D01*
X133425000Y-117575000D01*
X133175000Y-117575000D01*
X133127165Y-117565485D01*
X133086612Y-117538388D01*
X133059515Y-117497835D01*
X133050000Y-117450000D01*
X133050000Y-116200000D01*
X133059515Y-116152165D01*
X133086612Y-116111612D01*
X133127165Y-116084515D01*
X133175000Y-116075000D01*
X133425000Y-116075000D01*
X133472835Y-116084515D01*
G37*
G36*
X135347835Y-117959515D02*
G01*
X135388388Y-117986612D01*
X135415485Y-118027165D01*
X135425000Y-118075000D01*
X135425000Y-118325000D01*
X135415485Y-118372835D01*
X135388388Y-118413388D01*
X135347835Y-118440485D01*
X135300000Y-118450000D01*
X134050000Y-118450000D01*
X134002165Y-118440485D01*
X133961612Y-118413388D01*
X133934515Y-118372835D01*
X133925000Y-118325000D01*
X133925000Y-118075000D01*
X133934515Y-118027165D01*
X133961612Y-117986612D01*
X134002165Y-117959515D01*
X134050000Y-117950000D01*
X135300000Y-117950000D01*
X135347835Y-117959515D01*
G37*
G36*
X135347835Y-118759515D02*
G01*
X135388388Y-118786612D01*
X135415485Y-118827165D01*
X135425000Y-118875000D01*
X135425000Y-119125000D01*
X135415485Y-119172835D01*
X135388388Y-119213388D01*
X135347835Y-119240485D01*
X135300000Y-119250000D01*
X134050000Y-119250000D01*
X134002165Y-119240485D01*
X133961612Y-119213388D01*
X133934515Y-119172835D01*
X133925000Y-119125000D01*
X133925000Y-118875000D01*
X133934515Y-118827165D01*
X133961612Y-118786612D01*
X134002165Y-118759515D01*
X134050000Y-118750000D01*
X135300000Y-118750000D01*
X135347835Y-118759515D01*
G37*
G36*
X135347835Y-119559515D02*
G01*
X135388388Y-119586612D01*
X135415485Y-119627165D01*
X135425000Y-119675000D01*
X135425000Y-119925000D01*
X135415485Y-119972835D01*
X135388388Y-120013388D01*
X135347835Y-120040485D01*
X135300000Y-120050000D01*
X134050000Y-120050000D01*
X134002165Y-120040485D01*
X133961612Y-120013388D01*
X133934515Y-119972835D01*
X133925000Y-119925000D01*
X133925000Y-119675000D01*
X133934515Y-119627165D01*
X133961612Y-119586612D01*
X134002165Y-119559515D01*
X134050000Y-119550000D01*
X135300000Y-119550000D01*
X135347835Y-119559515D01*
G37*
G36*
X135347835Y-120359515D02*
G01*
X135388388Y-120386612D01*
X135415485Y-120427165D01*
X135425000Y-120475000D01*
X135425000Y-120725000D01*
X135415485Y-120772835D01*
X135388388Y-120813388D01*
X135347835Y-120840485D01*
X135300000Y-120850000D01*
X134050000Y-120850000D01*
X134002165Y-120840485D01*
X133961612Y-120813388D01*
X133934515Y-120772835D01*
X133925000Y-120725000D01*
X133925000Y-120475000D01*
X133934515Y-120427165D01*
X133961612Y-120386612D01*
X134002165Y-120359515D01*
X134050000Y-120350000D01*
X135300000Y-120350000D01*
X135347835Y-120359515D01*
G37*
G36*
X135347835Y-121159515D02*
G01*
X135388388Y-121186612D01*
X135415485Y-121227165D01*
X135425000Y-121275000D01*
X135425000Y-121525000D01*
X135415485Y-121572835D01*
X135388388Y-121613388D01*
X135347835Y-121640485D01*
X135300000Y-121650000D01*
X134050000Y-121650000D01*
X134002165Y-121640485D01*
X133961612Y-121613388D01*
X133934515Y-121572835D01*
X133925000Y-121525000D01*
X133925000Y-121275000D01*
X133934515Y-121227165D01*
X133961612Y-121186612D01*
X134002165Y-121159515D01*
X134050000Y-121150000D01*
X135300000Y-121150000D01*
X135347835Y-121159515D01*
G37*
G36*
X135347835Y-121959515D02*
G01*
X135388388Y-121986612D01*
X135415485Y-122027165D01*
X135425000Y-122075000D01*
X135425000Y-122325000D01*
X135415485Y-122372835D01*
X135388388Y-122413388D01*
X135347835Y-122440485D01*
X135300000Y-122450000D01*
X134050000Y-122450000D01*
X134002165Y-122440485D01*
X133961612Y-122413388D01*
X133934515Y-122372835D01*
X133925000Y-122325000D01*
X133925000Y-122075000D01*
X133934515Y-122027165D01*
X133961612Y-121986612D01*
X134002165Y-121959515D01*
X134050000Y-121950000D01*
X135300000Y-121950000D01*
X135347835Y-121959515D01*
G37*
G36*
X135347835Y-122759515D02*
G01*
X135388388Y-122786612D01*
X135415485Y-122827165D01*
X135425000Y-122875000D01*
X135425000Y-123125000D01*
X135415485Y-123172835D01*
X135388388Y-123213388D01*
X135347835Y-123240485D01*
X135300000Y-123250000D01*
X134050000Y-123250000D01*
X134002165Y-123240485D01*
X133961612Y-123213388D01*
X133934515Y-123172835D01*
X133925000Y-123125000D01*
X133925000Y-122875000D01*
X133934515Y-122827165D01*
X133961612Y-122786612D01*
X134002165Y-122759515D01*
X134050000Y-122750000D01*
X135300000Y-122750000D01*
X135347835Y-122759515D01*
G37*
G36*
X135347835Y-123559515D02*
G01*
X135388388Y-123586612D01*
X135415485Y-123627165D01*
X135425000Y-123675000D01*
X135425000Y-123925000D01*
X135415485Y-123972835D01*
X135388388Y-124013388D01*
X135347835Y-124040485D01*
X135300000Y-124050000D01*
X134050000Y-124050000D01*
X134002165Y-124040485D01*
X133961612Y-124013388D01*
X133934515Y-123972835D01*
X133925000Y-123925000D01*
X133925000Y-123675000D01*
X133934515Y-123627165D01*
X133961612Y-123586612D01*
X134002165Y-123559515D01*
X134050000Y-123550000D01*
X135300000Y-123550000D01*
X135347835Y-123559515D01*
G37*
G36*
X103514962Y-85541651D02*
G01*
X103585930Y-85589070D01*
X103633349Y-85660038D01*
X103650000Y-85743750D01*
X103650000Y-86256250D01*
X103633349Y-86339962D01*
X103585930Y-86410930D01*
X103514962Y-86458349D01*
X103431250Y-86475000D01*
X102993750Y-86475000D01*
X102910038Y-86458349D01*
X102839070Y-86410930D01*
X102791651Y-86339962D01*
X102775000Y-86256250D01*
X102775000Y-85743750D01*
X102791651Y-85660038D01*
X102839070Y-85589070D01*
X102910038Y-85541651D01*
X102993750Y-85525000D01*
X103431250Y-85525000D01*
X103514962Y-85541651D01*
G37*
G36*
X105089962Y-85541651D02*
G01*
X105160930Y-85589070D01*
X105208349Y-85660038D01*
X105225000Y-85743750D01*
X105225000Y-86256250D01*
X105208349Y-86339962D01*
X105160930Y-86410930D01*
X105089962Y-86458349D01*
X105006250Y-86475000D01*
X104568750Y-86475000D01*
X104485038Y-86458349D01*
X104414070Y-86410930D01*
X104366651Y-86339962D01*
X104350000Y-86256250D01*
X104350000Y-85743750D01*
X104366651Y-85660038D01*
X104414070Y-85589070D01*
X104485038Y-85541651D01*
X104568750Y-85525000D01*
X105006250Y-85525000D01*
X105089962Y-85541651D01*
G37*
G36*
X139889962Y-123341651D02*
G01*
X139960930Y-123389070D01*
X140008349Y-123460038D01*
X140025000Y-123543750D01*
X140025000Y-124056250D01*
X140008349Y-124139962D01*
X139960930Y-124210930D01*
X139889962Y-124258349D01*
X139806250Y-124275000D01*
X139368750Y-124275000D01*
X139285038Y-124258349D01*
X139214070Y-124210930D01*
X139166651Y-124139962D01*
X139150000Y-124056250D01*
X139150000Y-123543750D01*
X139166651Y-123460038D01*
X139214070Y-123389070D01*
X139285038Y-123341651D01*
X139368750Y-123325000D01*
X139806250Y-123325000D01*
X139889962Y-123341651D01*
G37*
G36*
X138314962Y-123341651D02*
G01*
X138385930Y-123389070D01*
X138433349Y-123460038D01*
X138450000Y-123543750D01*
X138450000Y-124056250D01*
X138433349Y-124139962D01*
X138385930Y-124210930D01*
X138314962Y-124258349D01*
X138231250Y-124275000D01*
X137793750Y-124275000D01*
X137710038Y-124258349D01*
X137639070Y-124210930D01*
X137591651Y-124139962D01*
X137575000Y-124056250D01*
X137575000Y-123543750D01*
X137591651Y-123460038D01*
X137639070Y-123389070D01*
X137710038Y-123341651D01*
X137793750Y-123325000D01*
X138231250Y-123325000D01*
X138314962Y-123341651D01*
G37*
G36*
X136439962Y-114866651D02*
G01*
X136510930Y-114914070D01*
X136558349Y-114985038D01*
X136575000Y-115068750D01*
X136575000Y-115506250D01*
X136558349Y-115589962D01*
X136510930Y-115660930D01*
X136439962Y-115708349D01*
X136356250Y-115725000D01*
X135843750Y-115725000D01*
X135760038Y-115708349D01*
X135689070Y-115660930D01*
X135641651Y-115589962D01*
X135625000Y-115506250D01*
X135625000Y-115068750D01*
X135641651Y-114985038D01*
X135689070Y-114914070D01*
X135760038Y-114866651D01*
X135843750Y-114850000D01*
X136356250Y-114850000D01*
X136439962Y-114866651D01*
G37*
G36*
X136439962Y-113291651D02*
G01*
X136510930Y-113339070D01*
X136558349Y-113410038D01*
X136575000Y-113493750D01*
X136575000Y-113931250D01*
X136558349Y-114014962D01*
X136510930Y-114085930D01*
X136439962Y-114133349D01*
X136356250Y-114150000D01*
X135843750Y-114150000D01*
X135760038Y-114133349D01*
X135689070Y-114085930D01*
X135641651Y-114014962D01*
X135625000Y-113931250D01*
X135625000Y-113493750D01*
X135641651Y-113410038D01*
X135689070Y-113339070D01*
X135760038Y-113291651D01*
X135843750Y-113275000D01*
X136356250Y-113275000D01*
X136439962Y-113291651D01*
G37*
G36*
X136439962Y-111866651D02*
G01*
X136510930Y-111914070D01*
X136558349Y-111985038D01*
X136575000Y-112068750D01*
X136575000Y-112506250D01*
X136558349Y-112589962D01*
X136510930Y-112660930D01*
X136439962Y-112708349D01*
X136356250Y-112725000D01*
X135843750Y-112725000D01*
X135760038Y-112708349D01*
X135689070Y-112660930D01*
X135641651Y-112589962D01*
X135625000Y-112506250D01*
X135625000Y-112068750D01*
X135641651Y-111985038D01*
X135689070Y-111914070D01*
X135760038Y-111866651D01*
X135843750Y-111850000D01*
X136356250Y-111850000D01*
X136439962Y-111866651D01*
G37*
G36*
X136439962Y-110291651D02*
G01*
X136510930Y-110339070D01*
X136558349Y-110410038D01*
X136575000Y-110493750D01*
X136575000Y-110931250D01*
X136558349Y-111014962D01*
X136510930Y-111085930D01*
X136439962Y-111133349D01*
X136356250Y-111150000D01*
X135843750Y-111150000D01*
X135760038Y-111133349D01*
X135689070Y-111085930D01*
X135641651Y-111014962D01*
X135625000Y-110931250D01*
X135625000Y-110493750D01*
X135641651Y-110410038D01*
X135689070Y-110339070D01*
X135760038Y-110291651D01*
X135843750Y-110275000D01*
X136356250Y-110275000D01*
X136439962Y-110291651D01*
G37*
G36*
X96089962Y-104541651D02*
G01*
X96160930Y-104589070D01*
X96208349Y-104660038D01*
X96225000Y-104743750D01*
X96225000Y-105256250D01*
X96208349Y-105339962D01*
X96160930Y-105410930D01*
X96089962Y-105458349D01*
X96006250Y-105475000D01*
X95568750Y-105475000D01*
X95485038Y-105458349D01*
X95414070Y-105410930D01*
X95366651Y-105339962D01*
X95350000Y-105256250D01*
X95350000Y-104743750D01*
X95366651Y-104660038D01*
X95414070Y-104589070D01*
X95485038Y-104541651D01*
X95568750Y-104525000D01*
X96006250Y-104525000D01*
X96089962Y-104541651D01*
G37*
G36*
X94514962Y-104541651D02*
G01*
X94585930Y-104589070D01*
X94633349Y-104660038D01*
X94650000Y-104743750D01*
X94650000Y-105256250D01*
X94633349Y-105339962D01*
X94585930Y-105410930D01*
X94514962Y-105458349D01*
X94431250Y-105475000D01*
X93993750Y-105475000D01*
X93910038Y-105458349D01*
X93839070Y-105410930D01*
X93791651Y-105339962D01*
X93775000Y-105256250D01*
X93775000Y-104743750D01*
X93791651Y-104660038D01*
X93839070Y-104589070D01*
X93910038Y-104541651D01*
X93993750Y-104525000D01*
X94431250Y-104525000D01*
X94514962Y-104541651D01*
G37*
G36*
X97514962Y-104541651D02*
G01*
X97585930Y-104589070D01*
X97633349Y-104660038D01*
X97650000Y-104743750D01*
X97650000Y-105256250D01*
X97633349Y-105339962D01*
X97585930Y-105410930D01*
X97514962Y-105458349D01*
X97431250Y-105475000D01*
X96993750Y-105475000D01*
X96910038Y-105458349D01*
X96839070Y-105410930D01*
X96791651Y-105339962D01*
X96775000Y-105256250D01*
X96775000Y-104743750D01*
X96791651Y-104660038D01*
X96839070Y-104589070D01*
X96910038Y-104541651D01*
X96993750Y-104525000D01*
X97431250Y-104525000D01*
X97514962Y-104541651D01*
G37*
G36*
X99089962Y-104541651D02*
G01*
X99160930Y-104589070D01*
X99208349Y-104660038D01*
X99225000Y-104743750D01*
X99225000Y-105256250D01*
X99208349Y-105339962D01*
X99160930Y-105410930D01*
X99089962Y-105458349D01*
X99006250Y-105475000D01*
X98568750Y-105475000D01*
X98485038Y-105458349D01*
X98414070Y-105410930D01*
X98366651Y-105339962D01*
X98350000Y-105256250D01*
X98350000Y-104743750D01*
X98366651Y-104660038D01*
X98414070Y-104589070D01*
X98485038Y-104541651D01*
X98568750Y-104525000D01*
X99006250Y-104525000D01*
X99089962Y-104541651D01*
G37*
G36*
X96089962Y-106041651D02*
G01*
X96160930Y-106089070D01*
X96208349Y-106160038D01*
X96225000Y-106243750D01*
X96225000Y-106756250D01*
X96208349Y-106839962D01*
X96160930Y-106910930D01*
X96089962Y-106958349D01*
X96006250Y-106975000D01*
X95568750Y-106975000D01*
X95485038Y-106958349D01*
X95414070Y-106910930D01*
X95366651Y-106839962D01*
X95350000Y-106756250D01*
X95350000Y-106243750D01*
X95366651Y-106160038D01*
X95414070Y-106089070D01*
X95485038Y-106041651D01*
X95568750Y-106025000D01*
X96006250Y-106025000D01*
X96089962Y-106041651D01*
G37*
G36*
X94514962Y-106041651D02*
G01*
X94585930Y-106089070D01*
X94633349Y-106160038D01*
X94650000Y-106243750D01*
X94650000Y-106756250D01*
X94633349Y-106839962D01*
X94585930Y-106910930D01*
X94514962Y-106958349D01*
X94431250Y-106975000D01*
X93993750Y-106975000D01*
X93910038Y-106958349D01*
X93839070Y-106910930D01*
X93791651Y-106839962D01*
X93775000Y-106756250D01*
X93775000Y-106243750D01*
X93791651Y-106160038D01*
X93839070Y-106089070D01*
X93910038Y-106041651D01*
X93993750Y-106025000D01*
X94431250Y-106025000D01*
X94514962Y-106041651D01*
G37*
G36*
X99089962Y-106041651D02*
G01*
X99160930Y-106089070D01*
X99208349Y-106160038D01*
X99225000Y-106243750D01*
X99225000Y-106756250D01*
X99208349Y-106839962D01*
X99160930Y-106910930D01*
X99089962Y-106958349D01*
X99006250Y-106975000D01*
X98568750Y-106975000D01*
X98485038Y-106958349D01*
X98414070Y-106910930D01*
X98366651Y-106839962D01*
X98350000Y-106756250D01*
X98350000Y-106243750D01*
X98366651Y-106160038D01*
X98414070Y-106089070D01*
X98485038Y-106041651D01*
X98568750Y-106025000D01*
X99006250Y-106025000D01*
X99089962Y-106041651D01*
G37*
G36*
X97514962Y-106041651D02*
G01*
X97585930Y-106089070D01*
X97633349Y-106160038D01*
X97650000Y-106243750D01*
X97650000Y-106756250D01*
X97633349Y-106839962D01*
X97585930Y-106910930D01*
X97514962Y-106958349D01*
X97431250Y-106975000D01*
X96993750Y-106975000D01*
X96910038Y-106958349D01*
X96839070Y-106910930D01*
X96791651Y-106839962D01*
X96775000Y-106756250D01*
X96775000Y-106243750D01*
X96791651Y-106160038D01*
X96839070Y-106089070D01*
X96910038Y-106041651D01*
X96993750Y-106025000D01*
X97431250Y-106025000D01*
X97514962Y-106041651D01*
G37*
D18*
X148820000Y-89970000D03*
X148820000Y-92970000D03*
X148820000Y-95970000D03*
X148820000Y-98970000D03*
X148820000Y-101970000D03*
G36*
X116389962Y-88941651D02*
G01*
X116460930Y-88989070D01*
X116508349Y-89060038D01*
X116525000Y-89143750D01*
X116525000Y-89656250D01*
X116508349Y-89739962D01*
X116460930Y-89810930D01*
X116389962Y-89858349D01*
X116306250Y-89875000D01*
X115868750Y-89875000D01*
X115785038Y-89858349D01*
X115714070Y-89810930D01*
X115666651Y-89739962D01*
X115650000Y-89656250D01*
X115650000Y-89143750D01*
X115666651Y-89060038D01*
X115714070Y-88989070D01*
X115785038Y-88941651D01*
X115868750Y-88925000D01*
X116306250Y-88925000D01*
X116389962Y-88941651D01*
G37*
G36*
X114814962Y-88941651D02*
G01*
X114885930Y-88989070D01*
X114933349Y-89060038D01*
X114950000Y-89143750D01*
X114950000Y-89656250D01*
X114933349Y-89739962D01*
X114885930Y-89810930D01*
X114814962Y-89858349D01*
X114731250Y-89875000D01*
X114293750Y-89875000D01*
X114210038Y-89858349D01*
X114139070Y-89810930D01*
X114091651Y-89739962D01*
X114075000Y-89656250D01*
X114075000Y-89143750D01*
X114091651Y-89060038D01*
X114139070Y-88989070D01*
X114210038Y-88941651D01*
X114293750Y-88925000D01*
X114731250Y-88925000D01*
X114814962Y-88941651D01*
G37*
G36*
X116439962Y-92066651D02*
G01*
X116510930Y-92114070D01*
X116558349Y-92185038D01*
X116575000Y-92268750D01*
X116575000Y-92706250D01*
X116558349Y-92789962D01*
X116510930Y-92860930D01*
X116439962Y-92908349D01*
X116356250Y-92925000D01*
X115843750Y-92925000D01*
X115760038Y-92908349D01*
X115689070Y-92860930D01*
X115641651Y-92789962D01*
X115625000Y-92706250D01*
X115625000Y-92268750D01*
X115641651Y-92185038D01*
X115689070Y-92114070D01*
X115760038Y-92066651D01*
X115843750Y-92050000D01*
X116356250Y-92050000D01*
X116439962Y-92066651D01*
G37*
G36*
X116439962Y-90491651D02*
G01*
X116510930Y-90539070D01*
X116558349Y-90610038D01*
X116575000Y-90693750D01*
X116575000Y-91131250D01*
X116558349Y-91214962D01*
X116510930Y-91285930D01*
X116439962Y-91333349D01*
X116356250Y-91350000D01*
X115843750Y-91350000D01*
X115760038Y-91333349D01*
X115689070Y-91285930D01*
X115641651Y-91214962D01*
X115625000Y-91131250D01*
X115625000Y-90693750D01*
X115641651Y-90610038D01*
X115689070Y-90539070D01*
X115760038Y-90491651D01*
X115843750Y-90475000D01*
X116356250Y-90475000D01*
X116439962Y-90491651D01*
G37*
D21*
X106500000Y-84200000D03*
X106500000Y-77800000D03*
G36*
X133578701Y-74755709D02*
G01*
X133603033Y-74771967D01*
X133619291Y-74796299D01*
X133625000Y-74825000D01*
X133625000Y-74975000D01*
X133619291Y-75003701D01*
X133603033Y-75028033D01*
X133578701Y-75044291D01*
X133550000Y-75050000D01*
X132225000Y-75050000D01*
X132196299Y-75044291D01*
X132171967Y-75028033D01*
X132155709Y-75003701D01*
X132150000Y-74975000D01*
X132150000Y-74825000D01*
X132155709Y-74796299D01*
X132171967Y-74771967D01*
X132196299Y-74755709D01*
X132225000Y-74750000D01*
X133550000Y-74750000D01*
X133578701Y-74755709D01*
G37*
G36*
X133578701Y-75255709D02*
G01*
X133603033Y-75271967D01*
X133619291Y-75296299D01*
X133625000Y-75325000D01*
X133625000Y-75475000D01*
X133619291Y-75503701D01*
X133603033Y-75528033D01*
X133578701Y-75544291D01*
X133550000Y-75550000D01*
X132225000Y-75550000D01*
X132196299Y-75544291D01*
X132171967Y-75528033D01*
X132155709Y-75503701D01*
X132150000Y-75475000D01*
X132150000Y-75325000D01*
X132155709Y-75296299D01*
X132171967Y-75271967D01*
X132196299Y-75255709D01*
X132225000Y-75250000D01*
X133550000Y-75250000D01*
X133578701Y-75255709D01*
G37*
G36*
X133578701Y-75755709D02*
G01*
X133603033Y-75771967D01*
X133619291Y-75796299D01*
X133625000Y-75825000D01*
X133625000Y-75975000D01*
X133619291Y-76003701D01*
X133603033Y-76028033D01*
X133578701Y-76044291D01*
X133550000Y-76050000D01*
X132225000Y-76050000D01*
X132196299Y-76044291D01*
X132171967Y-76028033D01*
X132155709Y-76003701D01*
X132150000Y-75975000D01*
X132150000Y-75825000D01*
X132155709Y-75796299D01*
X132171967Y-75771967D01*
X132196299Y-75755709D01*
X132225000Y-75750000D01*
X133550000Y-75750000D01*
X133578701Y-75755709D01*
G37*
G36*
X133578701Y-76255709D02*
G01*
X133603033Y-76271967D01*
X133619291Y-76296299D01*
X133625000Y-76325000D01*
X133625000Y-76475000D01*
X133619291Y-76503701D01*
X133603033Y-76528033D01*
X133578701Y-76544291D01*
X133550000Y-76550000D01*
X132225000Y-76550000D01*
X132196299Y-76544291D01*
X132171967Y-76528033D01*
X132155709Y-76503701D01*
X132150000Y-76475000D01*
X132150000Y-76325000D01*
X132155709Y-76296299D01*
X132171967Y-76271967D01*
X132196299Y-76255709D01*
X132225000Y-76250000D01*
X133550000Y-76250000D01*
X133578701Y-76255709D01*
G37*
G36*
X133578701Y-76755709D02*
G01*
X133603033Y-76771967D01*
X133619291Y-76796299D01*
X133625000Y-76825000D01*
X133625000Y-76975000D01*
X133619291Y-77003701D01*
X133603033Y-77028033D01*
X133578701Y-77044291D01*
X133550000Y-77050000D01*
X132225000Y-77050000D01*
X132196299Y-77044291D01*
X132171967Y-77028033D01*
X132155709Y-77003701D01*
X132150000Y-76975000D01*
X132150000Y-76825000D01*
X132155709Y-76796299D01*
X132171967Y-76771967D01*
X132196299Y-76755709D01*
X132225000Y-76750000D01*
X133550000Y-76750000D01*
X133578701Y-76755709D01*
G37*
G36*
X133578701Y-77255709D02*
G01*
X133603033Y-77271967D01*
X133619291Y-77296299D01*
X133625000Y-77325000D01*
X133625000Y-77475000D01*
X133619291Y-77503701D01*
X133603033Y-77528033D01*
X133578701Y-77544291D01*
X133550000Y-77550000D01*
X132225000Y-77550000D01*
X132196299Y-77544291D01*
X132171967Y-77528033D01*
X132155709Y-77503701D01*
X132150000Y-77475000D01*
X132150000Y-77325000D01*
X132155709Y-77296299D01*
X132171967Y-77271967D01*
X132196299Y-77255709D01*
X132225000Y-77250000D01*
X133550000Y-77250000D01*
X133578701Y-77255709D01*
G37*
G36*
X133578701Y-77755709D02*
G01*
X133603033Y-77771967D01*
X133619291Y-77796299D01*
X133625000Y-77825000D01*
X133625000Y-77975000D01*
X133619291Y-78003701D01*
X133603033Y-78028033D01*
X133578701Y-78044291D01*
X133550000Y-78050000D01*
X132225000Y-78050000D01*
X132196299Y-78044291D01*
X132171967Y-78028033D01*
X132155709Y-78003701D01*
X132150000Y-77975000D01*
X132150000Y-77825000D01*
X132155709Y-77796299D01*
X132171967Y-77771967D01*
X132196299Y-77755709D01*
X132225000Y-77750000D01*
X133550000Y-77750000D01*
X133578701Y-77755709D01*
G37*
G36*
X133578701Y-78255709D02*
G01*
X133603033Y-78271967D01*
X133619291Y-78296299D01*
X133625000Y-78325000D01*
X133625000Y-78475000D01*
X133619291Y-78503701D01*
X133603033Y-78528033D01*
X133578701Y-78544291D01*
X133550000Y-78550000D01*
X132225000Y-78550000D01*
X132196299Y-78544291D01*
X132171967Y-78528033D01*
X132155709Y-78503701D01*
X132150000Y-78475000D01*
X132150000Y-78325000D01*
X132155709Y-78296299D01*
X132171967Y-78271967D01*
X132196299Y-78255709D01*
X132225000Y-78250000D01*
X133550000Y-78250000D01*
X133578701Y-78255709D01*
G37*
G36*
X133578701Y-78755709D02*
G01*
X133603033Y-78771967D01*
X133619291Y-78796299D01*
X133625000Y-78825000D01*
X133625000Y-78975000D01*
X133619291Y-79003701D01*
X133603033Y-79028033D01*
X133578701Y-79044291D01*
X133550000Y-79050000D01*
X132225000Y-79050000D01*
X132196299Y-79044291D01*
X132171967Y-79028033D01*
X132155709Y-79003701D01*
X132150000Y-78975000D01*
X132150000Y-78825000D01*
X132155709Y-78796299D01*
X132171967Y-78771967D01*
X132196299Y-78755709D01*
X132225000Y-78750000D01*
X133550000Y-78750000D01*
X133578701Y-78755709D01*
G37*
G36*
X133578701Y-79255709D02*
G01*
X133603033Y-79271967D01*
X133619291Y-79296299D01*
X133625000Y-79325000D01*
X133625000Y-79475000D01*
X133619291Y-79503701D01*
X133603033Y-79528033D01*
X133578701Y-79544291D01*
X133550000Y-79550000D01*
X132225000Y-79550000D01*
X132196299Y-79544291D01*
X132171967Y-79528033D01*
X132155709Y-79503701D01*
X132150000Y-79475000D01*
X132150000Y-79325000D01*
X132155709Y-79296299D01*
X132171967Y-79271967D01*
X132196299Y-79255709D01*
X132225000Y-79250000D01*
X133550000Y-79250000D01*
X133578701Y-79255709D01*
G37*
G36*
X133578701Y-79755709D02*
G01*
X133603033Y-79771967D01*
X133619291Y-79796299D01*
X133625000Y-79825000D01*
X133625000Y-79975000D01*
X133619291Y-80003701D01*
X133603033Y-80028033D01*
X133578701Y-80044291D01*
X133550000Y-80050000D01*
X132225000Y-80050000D01*
X132196299Y-80044291D01*
X132171967Y-80028033D01*
X132155709Y-80003701D01*
X132150000Y-79975000D01*
X132150000Y-79825000D01*
X132155709Y-79796299D01*
X132171967Y-79771967D01*
X132196299Y-79755709D01*
X132225000Y-79750000D01*
X133550000Y-79750000D01*
X133578701Y-79755709D01*
G37*
G36*
X133578701Y-80255709D02*
G01*
X133603033Y-80271967D01*
X133619291Y-80296299D01*
X133625000Y-80325000D01*
X133625000Y-80475000D01*
X133619291Y-80503701D01*
X133603033Y-80528033D01*
X133578701Y-80544291D01*
X133550000Y-80550000D01*
X132225000Y-80550000D01*
X132196299Y-80544291D01*
X132171967Y-80528033D01*
X132155709Y-80503701D01*
X132150000Y-80475000D01*
X132150000Y-80325000D01*
X132155709Y-80296299D01*
X132171967Y-80271967D01*
X132196299Y-80255709D01*
X132225000Y-80250000D01*
X133550000Y-80250000D01*
X133578701Y-80255709D01*
G37*
G36*
X134403701Y-81080709D02*
G01*
X134428033Y-81096967D01*
X134444291Y-81121299D01*
X134450000Y-81150000D01*
X134450000Y-82475000D01*
X134444291Y-82503701D01*
X134428033Y-82528033D01*
X134403701Y-82544291D01*
X134375000Y-82550000D01*
X134225000Y-82550000D01*
X134196299Y-82544291D01*
X134171967Y-82528033D01*
X134155709Y-82503701D01*
X134150000Y-82475000D01*
X134150000Y-81150000D01*
X134155709Y-81121299D01*
X134171967Y-81096967D01*
X134196299Y-81080709D01*
X134225000Y-81075000D01*
X134375000Y-81075000D01*
X134403701Y-81080709D01*
G37*
G36*
X134903701Y-81080709D02*
G01*
X134928033Y-81096967D01*
X134944291Y-81121299D01*
X134950000Y-81150000D01*
X134950000Y-82475000D01*
X134944291Y-82503701D01*
X134928033Y-82528033D01*
X134903701Y-82544291D01*
X134875000Y-82550000D01*
X134725000Y-82550000D01*
X134696299Y-82544291D01*
X134671967Y-82528033D01*
X134655709Y-82503701D01*
X134650000Y-82475000D01*
X134650000Y-81150000D01*
X134655709Y-81121299D01*
X134671967Y-81096967D01*
X134696299Y-81080709D01*
X134725000Y-81075000D01*
X134875000Y-81075000D01*
X134903701Y-81080709D01*
G37*
G36*
X135403701Y-81080709D02*
G01*
X135428033Y-81096967D01*
X135444291Y-81121299D01*
X135450000Y-81150000D01*
X135450000Y-82475000D01*
X135444291Y-82503701D01*
X135428033Y-82528033D01*
X135403701Y-82544291D01*
X135375000Y-82550000D01*
X135225000Y-82550000D01*
X135196299Y-82544291D01*
X135171967Y-82528033D01*
X135155709Y-82503701D01*
X135150000Y-82475000D01*
X135150000Y-81150000D01*
X135155709Y-81121299D01*
X135171967Y-81096967D01*
X135196299Y-81080709D01*
X135225000Y-81075000D01*
X135375000Y-81075000D01*
X135403701Y-81080709D01*
G37*
G36*
X135903701Y-81080709D02*
G01*
X135928033Y-81096967D01*
X135944291Y-81121299D01*
X135950000Y-81150000D01*
X135950000Y-82475000D01*
X135944291Y-82503701D01*
X135928033Y-82528033D01*
X135903701Y-82544291D01*
X135875000Y-82550000D01*
X135725000Y-82550000D01*
X135696299Y-82544291D01*
X135671967Y-82528033D01*
X135655709Y-82503701D01*
X135650000Y-82475000D01*
X135650000Y-81150000D01*
X135655709Y-81121299D01*
X135671967Y-81096967D01*
X135696299Y-81080709D01*
X135725000Y-81075000D01*
X135875000Y-81075000D01*
X135903701Y-81080709D01*
G37*
G36*
X136403701Y-81080709D02*
G01*
X136428033Y-81096967D01*
X136444291Y-81121299D01*
X136450000Y-81150000D01*
X136450000Y-82475000D01*
X136444291Y-82503701D01*
X136428033Y-82528033D01*
X136403701Y-82544291D01*
X136375000Y-82550000D01*
X136225000Y-82550000D01*
X136196299Y-82544291D01*
X136171967Y-82528033D01*
X136155709Y-82503701D01*
X136150000Y-82475000D01*
X136150000Y-81150000D01*
X136155709Y-81121299D01*
X136171967Y-81096967D01*
X136196299Y-81080709D01*
X136225000Y-81075000D01*
X136375000Y-81075000D01*
X136403701Y-81080709D01*
G37*
G36*
X136903701Y-81080709D02*
G01*
X136928033Y-81096967D01*
X136944291Y-81121299D01*
X136950000Y-81150000D01*
X136950000Y-82475000D01*
X136944291Y-82503701D01*
X136928033Y-82528033D01*
X136903701Y-82544291D01*
X136875000Y-82550000D01*
X136725000Y-82550000D01*
X136696299Y-82544291D01*
X136671967Y-82528033D01*
X136655709Y-82503701D01*
X136650000Y-82475000D01*
X136650000Y-81150000D01*
X136655709Y-81121299D01*
X136671967Y-81096967D01*
X136696299Y-81080709D01*
X136725000Y-81075000D01*
X136875000Y-81075000D01*
X136903701Y-81080709D01*
G37*
G36*
X137403701Y-81080709D02*
G01*
X137428033Y-81096967D01*
X137444291Y-81121299D01*
X137450000Y-81150000D01*
X137450000Y-82475000D01*
X137444291Y-82503701D01*
X137428033Y-82528033D01*
X137403701Y-82544291D01*
X137375000Y-82550000D01*
X137225000Y-82550000D01*
X137196299Y-82544291D01*
X137171967Y-82528033D01*
X137155709Y-82503701D01*
X137150000Y-82475000D01*
X137150000Y-81150000D01*
X137155709Y-81121299D01*
X137171967Y-81096967D01*
X137196299Y-81080709D01*
X137225000Y-81075000D01*
X137375000Y-81075000D01*
X137403701Y-81080709D01*
G37*
G36*
X137903701Y-81080709D02*
G01*
X137928033Y-81096967D01*
X137944291Y-81121299D01*
X137950000Y-81150000D01*
X137950000Y-82475000D01*
X137944291Y-82503701D01*
X137928033Y-82528033D01*
X137903701Y-82544291D01*
X137875000Y-82550000D01*
X137725000Y-82550000D01*
X137696299Y-82544291D01*
X137671967Y-82528033D01*
X137655709Y-82503701D01*
X137650000Y-82475000D01*
X137650000Y-81150000D01*
X137655709Y-81121299D01*
X137671967Y-81096967D01*
X137696299Y-81080709D01*
X137725000Y-81075000D01*
X137875000Y-81075000D01*
X137903701Y-81080709D01*
G37*
G36*
X138403701Y-81080709D02*
G01*
X138428033Y-81096967D01*
X138444291Y-81121299D01*
X138450000Y-81150000D01*
X138450000Y-82475000D01*
X138444291Y-82503701D01*
X138428033Y-82528033D01*
X138403701Y-82544291D01*
X138375000Y-82550000D01*
X138225000Y-82550000D01*
X138196299Y-82544291D01*
X138171967Y-82528033D01*
X138155709Y-82503701D01*
X138150000Y-82475000D01*
X138150000Y-81150000D01*
X138155709Y-81121299D01*
X138171967Y-81096967D01*
X138196299Y-81080709D01*
X138225000Y-81075000D01*
X138375000Y-81075000D01*
X138403701Y-81080709D01*
G37*
G36*
X138903701Y-81080709D02*
G01*
X138928033Y-81096967D01*
X138944291Y-81121299D01*
X138950000Y-81150000D01*
X138950000Y-82475000D01*
X138944291Y-82503701D01*
X138928033Y-82528033D01*
X138903701Y-82544291D01*
X138875000Y-82550000D01*
X138725000Y-82550000D01*
X138696299Y-82544291D01*
X138671967Y-82528033D01*
X138655709Y-82503701D01*
X138650000Y-82475000D01*
X138650000Y-81150000D01*
X138655709Y-81121299D01*
X138671967Y-81096967D01*
X138696299Y-81080709D01*
X138725000Y-81075000D01*
X138875000Y-81075000D01*
X138903701Y-81080709D01*
G37*
G36*
X139403701Y-81080709D02*
G01*
X139428033Y-81096967D01*
X139444291Y-81121299D01*
X139450000Y-81150000D01*
X139450000Y-82475000D01*
X139444291Y-82503701D01*
X139428033Y-82528033D01*
X139403701Y-82544291D01*
X139375000Y-82550000D01*
X139225000Y-82550000D01*
X139196299Y-82544291D01*
X139171967Y-82528033D01*
X139155709Y-82503701D01*
X139150000Y-82475000D01*
X139150000Y-81150000D01*
X139155709Y-81121299D01*
X139171967Y-81096967D01*
X139196299Y-81080709D01*
X139225000Y-81075000D01*
X139375000Y-81075000D01*
X139403701Y-81080709D01*
G37*
G36*
X139903701Y-81080709D02*
G01*
X139928033Y-81096967D01*
X139944291Y-81121299D01*
X139950000Y-81150000D01*
X139950000Y-82475000D01*
X139944291Y-82503701D01*
X139928033Y-82528033D01*
X139903701Y-82544291D01*
X139875000Y-82550000D01*
X139725000Y-82550000D01*
X139696299Y-82544291D01*
X139671967Y-82528033D01*
X139655709Y-82503701D01*
X139650000Y-82475000D01*
X139650000Y-81150000D01*
X139655709Y-81121299D01*
X139671967Y-81096967D01*
X139696299Y-81080709D01*
X139725000Y-81075000D01*
X139875000Y-81075000D01*
X139903701Y-81080709D01*
G37*
G36*
X141903701Y-80255709D02*
G01*
X141928033Y-80271967D01*
X141944291Y-80296299D01*
X141950000Y-80325000D01*
X141950000Y-80475000D01*
X141944291Y-80503701D01*
X141928033Y-80528033D01*
X141903701Y-80544291D01*
X141875000Y-80550000D01*
X140550000Y-80550000D01*
X140521299Y-80544291D01*
X140496967Y-80528033D01*
X140480709Y-80503701D01*
X140475000Y-80475000D01*
X140475000Y-80325000D01*
X140480709Y-80296299D01*
X140496967Y-80271967D01*
X140521299Y-80255709D01*
X140550000Y-80250000D01*
X141875000Y-80250000D01*
X141903701Y-80255709D01*
G37*
G36*
X141903701Y-79755709D02*
G01*
X141928033Y-79771967D01*
X141944291Y-79796299D01*
X141950000Y-79825000D01*
X141950000Y-79975000D01*
X141944291Y-80003701D01*
X141928033Y-80028033D01*
X141903701Y-80044291D01*
X141875000Y-80050000D01*
X140550000Y-80050000D01*
X140521299Y-80044291D01*
X140496967Y-80028033D01*
X140480709Y-80003701D01*
X140475000Y-79975000D01*
X140475000Y-79825000D01*
X140480709Y-79796299D01*
X140496967Y-79771967D01*
X140521299Y-79755709D01*
X140550000Y-79750000D01*
X141875000Y-79750000D01*
X141903701Y-79755709D01*
G37*
G36*
X141903701Y-79255709D02*
G01*
X141928033Y-79271967D01*
X141944291Y-79296299D01*
X141950000Y-79325000D01*
X141950000Y-79475000D01*
X141944291Y-79503701D01*
X141928033Y-79528033D01*
X141903701Y-79544291D01*
X141875000Y-79550000D01*
X140550000Y-79550000D01*
X140521299Y-79544291D01*
X140496967Y-79528033D01*
X140480709Y-79503701D01*
X140475000Y-79475000D01*
X140475000Y-79325000D01*
X140480709Y-79296299D01*
X140496967Y-79271967D01*
X140521299Y-79255709D01*
X140550000Y-79250000D01*
X141875000Y-79250000D01*
X141903701Y-79255709D01*
G37*
G36*
X141903701Y-78755709D02*
G01*
X141928033Y-78771967D01*
X141944291Y-78796299D01*
X141950000Y-78825000D01*
X141950000Y-78975000D01*
X141944291Y-79003701D01*
X141928033Y-79028033D01*
X141903701Y-79044291D01*
X141875000Y-79050000D01*
X140550000Y-79050000D01*
X140521299Y-79044291D01*
X140496967Y-79028033D01*
X140480709Y-79003701D01*
X140475000Y-78975000D01*
X140475000Y-78825000D01*
X140480709Y-78796299D01*
X140496967Y-78771967D01*
X140521299Y-78755709D01*
X140550000Y-78750000D01*
X141875000Y-78750000D01*
X141903701Y-78755709D01*
G37*
G36*
X141903701Y-78255709D02*
G01*
X141928033Y-78271967D01*
X141944291Y-78296299D01*
X141950000Y-78325000D01*
X141950000Y-78475000D01*
X141944291Y-78503701D01*
X141928033Y-78528033D01*
X141903701Y-78544291D01*
X141875000Y-78550000D01*
X140550000Y-78550000D01*
X140521299Y-78544291D01*
X140496967Y-78528033D01*
X140480709Y-78503701D01*
X140475000Y-78475000D01*
X140475000Y-78325000D01*
X140480709Y-78296299D01*
X140496967Y-78271967D01*
X140521299Y-78255709D01*
X140550000Y-78250000D01*
X141875000Y-78250000D01*
X141903701Y-78255709D01*
G37*
G36*
X141903701Y-77755709D02*
G01*
X141928033Y-77771967D01*
X141944291Y-77796299D01*
X141950000Y-77825000D01*
X141950000Y-77975000D01*
X141944291Y-78003701D01*
X141928033Y-78028033D01*
X141903701Y-78044291D01*
X141875000Y-78050000D01*
X140550000Y-78050000D01*
X140521299Y-78044291D01*
X140496967Y-78028033D01*
X140480709Y-78003701D01*
X140475000Y-77975000D01*
X140475000Y-77825000D01*
X140480709Y-77796299D01*
X140496967Y-77771967D01*
X140521299Y-77755709D01*
X140550000Y-77750000D01*
X141875000Y-77750000D01*
X141903701Y-77755709D01*
G37*
G36*
X141903701Y-77255709D02*
G01*
X141928033Y-77271967D01*
X141944291Y-77296299D01*
X141950000Y-77325000D01*
X141950000Y-77475000D01*
X141944291Y-77503701D01*
X141928033Y-77528033D01*
X141903701Y-77544291D01*
X141875000Y-77550000D01*
X140550000Y-77550000D01*
X140521299Y-77544291D01*
X140496967Y-77528033D01*
X140480709Y-77503701D01*
X140475000Y-77475000D01*
X140475000Y-77325000D01*
X140480709Y-77296299D01*
X140496967Y-77271967D01*
X140521299Y-77255709D01*
X140550000Y-77250000D01*
X141875000Y-77250000D01*
X141903701Y-77255709D01*
G37*
G36*
X141903701Y-76755709D02*
G01*
X141928033Y-76771967D01*
X141944291Y-76796299D01*
X141950000Y-76825000D01*
X141950000Y-76975000D01*
X141944291Y-77003701D01*
X141928033Y-77028033D01*
X141903701Y-77044291D01*
X141875000Y-77050000D01*
X140550000Y-77050000D01*
X140521299Y-77044291D01*
X140496967Y-77028033D01*
X140480709Y-77003701D01*
X140475000Y-76975000D01*
X140475000Y-76825000D01*
X140480709Y-76796299D01*
X140496967Y-76771967D01*
X140521299Y-76755709D01*
X140550000Y-76750000D01*
X141875000Y-76750000D01*
X141903701Y-76755709D01*
G37*
G36*
X141903701Y-76255709D02*
G01*
X141928033Y-76271967D01*
X141944291Y-76296299D01*
X141950000Y-76325000D01*
X141950000Y-76475000D01*
X141944291Y-76503701D01*
X141928033Y-76528033D01*
X141903701Y-76544291D01*
X141875000Y-76550000D01*
X140550000Y-76550000D01*
X140521299Y-76544291D01*
X140496967Y-76528033D01*
X140480709Y-76503701D01*
X140475000Y-76475000D01*
X140475000Y-76325000D01*
X140480709Y-76296299D01*
X140496967Y-76271967D01*
X140521299Y-76255709D01*
X140550000Y-76250000D01*
X141875000Y-76250000D01*
X141903701Y-76255709D01*
G37*
G36*
X141903701Y-75755709D02*
G01*
X141928033Y-75771967D01*
X141944291Y-75796299D01*
X141950000Y-75825000D01*
X141950000Y-75975000D01*
X141944291Y-76003701D01*
X141928033Y-76028033D01*
X141903701Y-76044291D01*
X141875000Y-76050000D01*
X140550000Y-76050000D01*
X140521299Y-76044291D01*
X140496967Y-76028033D01*
X140480709Y-76003701D01*
X140475000Y-75975000D01*
X140475000Y-75825000D01*
X140480709Y-75796299D01*
X140496967Y-75771967D01*
X140521299Y-75755709D01*
X140550000Y-75750000D01*
X141875000Y-75750000D01*
X141903701Y-75755709D01*
G37*
G36*
X141903701Y-75255709D02*
G01*
X141928033Y-75271967D01*
X141944291Y-75296299D01*
X141950000Y-75325000D01*
X141950000Y-75475000D01*
X141944291Y-75503701D01*
X141928033Y-75528033D01*
X141903701Y-75544291D01*
X141875000Y-75550000D01*
X140550000Y-75550000D01*
X140521299Y-75544291D01*
X140496967Y-75528033D01*
X140480709Y-75503701D01*
X140475000Y-75475000D01*
X140475000Y-75325000D01*
X140480709Y-75296299D01*
X140496967Y-75271967D01*
X140521299Y-75255709D01*
X140550000Y-75250000D01*
X141875000Y-75250000D01*
X141903701Y-75255709D01*
G37*
G36*
X141903701Y-74755709D02*
G01*
X141928033Y-74771967D01*
X141944291Y-74796299D01*
X141950000Y-74825000D01*
X141950000Y-74975000D01*
X141944291Y-75003701D01*
X141928033Y-75028033D01*
X141903701Y-75044291D01*
X141875000Y-75050000D01*
X140550000Y-75050000D01*
X140521299Y-75044291D01*
X140496967Y-75028033D01*
X140480709Y-75003701D01*
X140475000Y-74975000D01*
X140475000Y-74825000D01*
X140480709Y-74796299D01*
X140496967Y-74771967D01*
X140521299Y-74755709D01*
X140550000Y-74750000D01*
X141875000Y-74750000D01*
X141903701Y-74755709D01*
G37*
G36*
X139903701Y-72755709D02*
G01*
X139928033Y-72771967D01*
X139944291Y-72796299D01*
X139950000Y-72825000D01*
X139950000Y-74150000D01*
X139944291Y-74178701D01*
X139928033Y-74203033D01*
X139903701Y-74219291D01*
X139875000Y-74225000D01*
X139725000Y-74225000D01*
X139696299Y-74219291D01*
X139671967Y-74203033D01*
X139655709Y-74178701D01*
X139650000Y-74150000D01*
X139650000Y-72825000D01*
X139655709Y-72796299D01*
X139671967Y-72771967D01*
X139696299Y-72755709D01*
X139725000Y-72750000D01*
X139875000Y-72750000D01*
X139903701Y-72755709D01*
G37*
G36*
X139403701Y-72755709D02*
G01*
X139428033Y-72771967D01*
X139444291Y-72796299D01*
X139450000Y-72825000D01*
X139450000Y-74150000D01*
X139444291Y-74178701D01*
X139428033Y-74203033D01*
X139403701Y-74219291D01*
X139375000Y-74225000D01*
X139225000Y-74225000D01*
X139196299Y-74219291D01*
X139171967Y-74203033D01*
X139155709Y-74178701D01*
X139150000Y-74150000D01*
X139150000Y-72825000D01*
X139155709Y-72796299D01*
X139171967Y-72771967D01*
X139196299Y-72755709D01*
X139225000Y-72750000D01*
X139375000Y-72750000D01*
X139403701Y-72755709D01*
G37*
G36*
X138903701Y-72755709D02*
G01*
X138928033Y-72771967D01*
X138944291Y-72796299D01*
X138950000Y-72825000D01*
X138950000Y-74150000D01*
X138944291Y-74178701D01*
X138928033Y-74203033D01*
X138903701Y-74219291D01*
X138875000Y-74225000D01*
X138725000Y-74225000D01*
X138696299Y-74219291D01*
X138671967Y-74203033D01*
X138655709Y-74178701D01*
X138650000Y-74150000D01*
X138650000Y-72825000D01*
X138655709Y-72796299D01*
X138671967Y-72771967D01*
X138696299Y-72755709D01*
X138725000Y-72750000D01*
X138875000Y-72750000D01*
X138903701Y-72755709D01*
G37*
G36*
X138403701Y-72755709D02*
G01*
X138428033Y-72771967D01*
X138444291Y-72796299D01*
X138450000Y-72825000D01*
X138450000Y-74150000D01*
X138444291Y-74178701D01*
X138428033Y-74203033D01*
X138403701Y-74219291D01*
X138375000Y-74225000D01*
X138225000Y-74225000D01*
X138196299Y-74219291D01*
X138171967Y-74203033D01*
X138155709Y-74178701D01*
X138150000Y-74150000D01*
X138150000Y-72825000D01*
X138155709Y-72796299D01*
X138171967Y-72771967D01*
X138196299Y-72755709D01*
X138225000Y-72750000D01*
X138375000Y-72750000D01*
X138403701Y-72755709D01*
G37*
G36*
X137903701Y-72755709D02*
G01*
X137928033Y-72771967D01*
X137944291Y-72796299D01*
X137950000Y-72825000D01*
X137950000Y-74150000D01*
X137944291Y-74178701D01*
X137928033Y-74203033D01*
X137903701Y-74219291D01*
X137875000Y-74225000D01*
X137725000Y-74225000D01*
X137696299Y-74219291D01*
X137671967Y-74203033D01*
X137655709Y-74178701D01*
X137650000Y-74150000D01*
X137650000Y-72825000D01*
X137655709Y-72796299D01*
X137671967Y-72771967D01*
X137696299Y-72755709D01*
X137725000Y-72750000D01*
X137875000Y-72750000D01*
X137903701Y-72755709D01*
G37*
G36*
X137403701Y-72755709D02*
G01*
X137428033Y-72771967D01*
X137444291Y-72796299D01*
X137450000Y-72825000D01*
X137450000Y-74150000D01*
X137444291Y-74178701D01*
X137428033Y-74203033D01*
X137403701Y-74219291D01*
X137375000Y-74225000D01*
X137225000Y-74225000D01*
X137196299Y-74219291D01*
X137171967Y-74203033D01*
X137155709Y-74178701D01*
X137150000Y-74150000D01*
X137150000Y-72825000D01*
X137155709Y-72796299D01*
X137171967Y-72771967D01*
X137196299Y-72755709D01*
X137225000Y-72750000D01*
X137375000Y-72750000D01*
X137403701Y-72755709D01*
G37*
G36*
X136903701Y-72755709D02*
G01*
X136928033Y-72771967D01*
X136944291Y-72796299D01*
X136950000Y-72825000D01*
X136950000Y-74150000D01*
X136944291Y-74178701D01*
X136928033Y-74203033D01*
X136903701Y-74219291D01*
X136875000Y-74225000D01*
X136725000Y-74225000D01*
X136696299Y-74219291D01*
X136671967Y-74203033D01*
X136655709Y-74178701D01*
X136650000Y-74150000D01*
X136650000Y-72825000D01*
X136655709Y-72796299D01*
X136671967Y-72771967D01*
X136696299Y-72755709D01*
X136725000Y-72750000D01*
X136875000Y-72750000D01*
X136903701Y-72755709D01*
G37*
G36*
X136403701Y-72755709D02*
G01*
X136428033Y-72771967D01*
X136444291Y-72796299D01*
X136450000Y-72825000D01*
X136450000Y-74150000D01*
X136444291Y-74178701D01*
X136428033Y-74203033D01*
X136403701Y-74219291D01*
X136375000Y-74225000D01*
X136225000Y-74225000D01*
X136196299Y-74219291D01*
X136171967Y-74203033D01*
X136155709Y-74178701D01*
X136150000Y-74150000D01*
X136150000Y-72825000D01*
X136155709Y-72796299D01*
X136171967Y-72771967D01*
X136196299Y-72755709D01*
X136225000Y-72750000D01*
X136375000Y-72750000D01*
X136403701Y-72755709D01*
G37*
G36*
X135903701Y-72755709D02*
G01*
X135928033Y-72771967D01*
X135944291Y-72796299D01*
X135950000Y-72825000D01*
X135950000Y-74150000D01*
X135944291Y-74178701D01*
X135928033Y-74203033D01*
X135903701Y-74219291D01*
X135875000Y-74225000D01*
X135725000Y-74225000D01*
X135696299Y-74219291D01*
X135671967Y-74203033D01*
X135655709Y-74178701D01*
X135650000Y-74150000D01*
X135650000Y-72825000D01*
X135655709Y-72796299D01*
X135671967Y-72771967D01*
X135696299Y-72755709D01*
X135725000Y-72750000D01*
X135875000Y-72750000D01*
X135903701Y-72755709D01*
G37*
G36*
X135403701Y-72755709D02*
G01*
X135428033Y-72771967D01*
X135444291Y-72796299D01*
X135450000Y-72825000D01*
X135450000Y-74150000D01*
X135444291Y-74178701D01*
X135428033Y-74203033D01*
X135403701Y-74219291D01*
X135375000Y-74225000D01*
X135225000Y-74225000D01*
X135196299Y-74219291D01*
X135171967Y-74203033D01*
X135155709Y-74178701D01*
X135150000Y-74150000D01*
X135150000Y-72825000D01*
X135155709Y-72796299D01*
X135171967Y-72771967D01*
X135196299Y-72755709D01*
X135225000Y-72750000D01*
X135375000Y-72750000D01*
X135403701Y-72755709D01*
G37*
G36*
X134903701Y-72755709D02*
G01*
X134928033Y-72771967D01*
X134944291Y-72796299D01*
X134950000Y-72825000D01*
X134950000Y-74150000D01*
X134944291Y-74178701D01*
X134928033Y-74203033D01*
X134903701Y-74219291D01*
X134875000Y-74225000D01*
X134725000Y-74225000D01*
X134696299Y-74219291D01*
X134671967Y-74203033D01*
X134655709Y-74178701D01*
X134650000Y-74150000D01*
X134650000Y-72825000D01*
X134655709Y-72796299D01*
X134671967Y-72771967D01*
X134696299Y-72755709D01*
X134725000Y-72750000D01*
X134875000Y-72750000D01*
X134903701Y-72755709D01*
G37*
G36*
X134403701Y-72755709D02*
G01*
X134428033Y-72771967D01*
X134444291Y-72796299D01*
X134450000Y-72825000D01*
X134450000Y-74150000D01*
X134444291Y-74178701D01*
X134428033Y-74203033D01*
X134403701Y-74219291D01*
X134375000Y-74225000D01*
X134225000Y-74225000D01*
X134196299Y-74219291D01*
X134171967Y-74203033D01*
X134155709Y-74178701D01*
X134150000Y-74150000D01*
X134150000Y-72825000D01*
X134155709Y-72796299D01*
X134171967Y-72771967D01*
X134196299Y-72755709D01*
X134225000Y-72750000D01*
X134375000Y-72750000D01*
X134403701Y-72755709D01*
G37*
G36*
X122689962Y-113091651D02*
G01*
X122760930Y-113139070D01*
X122808349Y-113210038D01*
X122825000Y-113293750D01*
X122825000Y-113731250D01*
X122808349Y-113814962D01*
X122760930Y-113885930D01*
X122689962Y-113933349D01*
X122606250Y-113950000D01*
X122093750Y-113950000D01*
X122010038Y-113933349D01*
X121939070Y-113885930D01*
X121891651Y-113814962D01*
X121875000Y-113731250D01*
X121875000Y-113293750D01*
X121891651Y-113210038D01*
X121939070Y-113139070D01*
X122010038Y-113091651D01*
X122093750Y-113075000D01*
X122606250Y-113075000D01*
X122689962Y-113091651D01*
G37*
G36*
X122689962Y-114666651D02*
G01*
X122760930Y-114714070D01*
X122808349Y-114785038D01*
X122825000Y-114868750D01*
X122825000Y-115306250D01*
X122808349Y-115389962D01*
X122760930Y-115460930D01*
X122689962Y-115508349D01*
X122606250Y-115525000D01*
X122093750Y-115525000D01*
X122010038Y-115508349D01*
X121939070Y-115460930D01*
X121891651Y-115389962D01*
X121875000Y-115306250D01*
X121875000Y-114868750D01*
X121891651Y-114785038D01*
X121939070Y-114714070D01*
X122010038Y-114666651D01*
X122093750Y-114650000D01*
X122606250Y-114650000D01*
X122689962Y-114666651D01*
G37*
D22*
X118850000Y-115300000D03*
X120750000Y-115300000D03*
X119800000Y-113300000D03*
G36*
X136839962Y-119866651D02*
G01*
X136910930Y-119914070D01*
X136958349Y-119985038D01*
X136975000Y-120068750D01*
X136975000Y-120506250D01*
X136958349Y-120589962D01*
X136910930Y-120660930D01*
X136839962Y-120708349D01*
X136756250Y-120725000D01*
X136243750Y-120725000D01*
X136160038Y-120708349D01*
X136089070Y-120660930D01*
X136041651Y-120589962D01*
X136025000Y-120506250D01*
X136025000Y-120068750D01*
X136041651Y-119985038D01*
X136089070Y-119914070D01*
X136160038Y-119866651D01*
X136243750Y-119850000D01*
X136756250Y-119850000D01*
X136839962Y-119866651D01*
G37*
G36*
X136839962Y-118291651D02*
G01*
X136910930Y-118339070D01*
X136958349Y-118410038D01*
X136975000Y-118493750D01*
X136975000Y-118931250D01*
X136958349Y-119014962D01*
X136910930Y-119085930D01*
X136839962Y-119133349D01*
X136756250Y-119150000D01*
X136243750Y-119150000D01*
X136160038Y-119133349D01*
X136089070Y-119085930D01*
X136041651Y-119014962D01*
X136025000Y-118931250D01*
X136025000Y-118493750D01*
X136041651Y-118410038D01*
X136089070Y-118339070D01*
X136160038Y-118291651D01*
X136243750Y-118275000D01*
X136756250Y-118275000D01*
X136839962Y-118291651D01*
G37*
G36*
X125039962Y-116466651D02*
G01*
X125110930Y-116514070D01*
X125158349Y-116585038D01*
X125175000Y-116668750D01*
X125175000Y-117106250D01*
X125158349Y-117189962D01*
X125110930Y-117260930D01*
X125039962Y-117308349D01*
X124956250Y-117325000D01*
X124443750Y-117325000D01*
X124360038Y-117308349D01*
X124289070Y-117260930D01*
X124241651Y-117189962D01*
X124225000Y-117106250D01*
X124225000Y-116668750D01*
X124241651Y-116585038D01*
X124289070Y-116514070D01*
X124360038Y-116466651D01*
X124443750Y-116450000D01*
X124956250Y-116450000D01*
X125039962Y-116466651D01*
G37*
G36*
X125039962Y-114891651D02*
G01*
X125110930Y-114939070D01*
X125158349Y-115010038D01*
X125175000Y-115093750D01*
X125175000Y-115531250D01*
X125158349Y-115614962D01*
X125110930Y-115685930D01*
X125039962Y-115733349D01*
X124956250Y-115750000D01*
X124443750Y-115750000D01*
X124360038Y-115733349D01*
X124289070Y-115685930D01*
X124241651Y-115614962D01*
X124225000Y-115531250D01*
X124225000Y-115093750D01*
X124241651Y-115010038D01*
X124289070Y-114939070D01*
X124360038Y-114891651D01*
X124443750Y-114875000D01*
X124956250Y-114875000D01*
X125039962Y-114891651D01*
G37*
G36*
X136839962Y-123266651D02*
G01*
X136910930Y-123314070D01*
X136958349Y-123385038D01*
X136975000Y-123468750D01*
X136975000Y-123906250D01*
X136958349Y-123989962D01*
X136910930Y-124060930D01*
X136839962Y-124108349D01*
X136756250Y-124125000D01*
X136243750Y-124125000D01*
X136160038Y-124108349D01*
X136089070Y-124060930D01*
X136041651Y-123989962D01*
X136025000Y-123906250D01*
X136025000Y-123468750D01*
X136041651Y-123385038D01*
X136089070Y-123314070D01*
X136160038Y-123266651D01*
X136243750Y-123250000D01*
X136756250Y-123250000D01*
X136839962Y-123266651D01*
G37*
G36*
X136839962Y-121691651D02*
G01*
X136910930Y-121739070D01*
X136958349Y-121810038D01*
X136975000Y-121893750D01*
X136975000Y-122331250D01*
X136958349Y-122414962D01*
X136910930Y-122485930D01*
X136839962Y-122533349D01*
X136756250Y-122550000D01*
X136243750Y-122550000D01*
X136160038Y-122533349D01*
X136089070Y-122485930D01*
X136041651Y-122414962D01*
X136025000Y-122331250D01*
X136025000Y-121893750D01*
X136041651Y-121810038D01*
X136089070Y-121739070D01*
X136160038Y-121691651D01*
X136243750Y-121675000D01*
X136756250Y-121675000D01*
X136839962Y-121691651D01*
G37*
D23*
X128250000Y-76500000D03*
X128250000Y-72800000D03*
G36*
X156852403Y-68936418D02*
G01*
X156901066Y-68968934D01*
X156933582Y-69017597D01*
X156945000Y-69075000D01*
X156945000Y-70825000D01*
X156933582Y-70882403D01*
X156901066Y-70931066D01*
X156852403Y-70963582D01*
X156795000Y-70975000D01*
X156495000Y-70975000D01*
X156437597Y-70963582D01*
X156388934Y-70931066D01*
X156356418Y-70882403D01*
X156345000Y-70825000D01*
X156345000Y-69075000D01*
X156356418Y-69017597D01*
X156388934Y-68968934D01*
X156437597Y-68936418D01*
X156495000Y-68925000D01*
X156795000Y-68925000D01*
X156852403Y-68936418D01*
G37*
G36*
X155582403Y-68936418D02*
G01*
X155631066Y-68968934D01*
X155663582Y-69017597D01*
X155675000Y-69075000D01*
X155675000Y-70825000D01*
X155663582Y-70882403D01*
X155631066Y-70931066D01*
X155582403Y-70963582D01*
X155525000Y-70975000D01*
X155225000Y-70975000D01*
X155167597Y-70963582D01*
X155118934Y-70931066D01*
X155086418Y-70882403D01*
X155075000Y-70825000D01*
X155075000Y-69075000D01*
X155086418Y-69017597D01*
X155118934Y-68968934D01*
X155167597Y-68936418D01*
X155225000Y-68925000D01*
X155525000Y-68925000D01*
X155582403Y-68936418D01*
G37*
G36*
X154312403Y-68936418D02*
G01*
X154361066Y-68968934D01*
X154393582Y-69017597D01*
X154405000Y-69075000D01*
X154405000Y-70825000D01*
X154393582Y-70882403D01*
X154361066Y-70931066D01*
X154312403Y-70963582D01*
X154255000Y-70975000D01*
X153955000Y-70975000D01*
X153897597Y-70963582D01*
X153848934Y-70931066D01*
X153816418Y-70882403D01*
X153805000Y-70825000D01*
X153805000Y-69075000D01*
X153816418Y-69017597D01*
X153848934Y-68968934D01*
X153897597Y-68936418D01*
X153955000Y-68925000D01*
X154255000Y-68925000D01*
X154312403Y-68936418D01*
G37*
G36*
X153042403Y-68936418D02*
G01*
X153091066Y-68968934D01*
X153123582Y-69017597D01*
X153135000Y-69075000D01*
X153135000Y-70825000D01*
X153123582Y-70882403D01*
X153091066Y-70931066D01*
X153042403Y-70963582D01*
X152985000Y-70975000D01*
X152685000Y-70975000D01*
X152627597Y-70963582D01*
X152578934Y-70931066D01*
X152546418Y-70882403D01*
X152535000Y-70825000D01*
X152535000Y-69075000D01*
X152546418Y-69017597D01*
X152578934Y-68968934D01*
X152627597Y-68936418D01*
X152685000Y-68925000D01*
X152985000Y-68925000D01*
X153042403Y-68936418D01*
G37*
G36*
X151772403Y-68936418D02*
G01*
X151821066Y-68968934D01*
X151853582Y-69017597D01*
X151865000Y-69075000D01*
X151865000Y-70825000D01*
X151853582Y-70882403D01*
X151821066Y-70931066D01*
X151772403Y-70963582D01*
X151715000Y-70975000D01*
X151415000Y-70975000D01*
X151357597Y-70963582D01*
X151308934Y-70931066D01*
X151276418Y-70882403D01*
X151265000Y-70825000D01*
X151265000Y-69075000D01*
X151276418Y-69017597D01*
X151308934Y-68968934D01*
X151357597Y-68936418D01*
X151415000Y-68925000D01*
X151715000Y-68925000D01*
X151772403Y-68936418D01*
G37*
G36*
X150502403Y-68936418D02*
G01*
X150551066Y-68968934D01*
X150583582Y-69017597D01*
X150595000Y-69075000D01*
X150595000Y-70825000D01*
X150583582Y-70882403D01*
X150551066Y-70931066D01*
X150502403Y-70963582D01*
X150445000Y-70975000D01*
X150145000Y-70975000D01*
X150087597Y-70963582D01*
X150038934Y-70931066D01*
X150006418Y-70882403D01*
X149995000Y-70825000D01*
X149995000Y-69075000D01*
X150006418Y-69017597D01*
X150038934Y-68968934D01*
X150087597Y-68936418D01*
X150145000Y-68925000D01*
X150445000Y-68925000D01*
X150502403Y-68936418D01*
G37*
G36*
X149232403Y-68936418D02*
G01*
X149281066Y-68968934D01*
X149313582Y-69017597D01*
X149325000Y-69075000D01*
X149325000Y-70825000D01*
X149313582Y-70882403D01*
X149281066Y-70931066D01*
X149232403Y-70963582D01*
X149175000Y-70975000D01*
X148875000Y-70975000D01*
X148817597Y-70963582D01*
X148768934Y-70931066D01*
X148736418Y-70882403D01*
X148725000Y-70825000D01*
X148725000Y-69075000D01*
X148736418Y-69017597D01*
X148768934Y-68968934D01*
X148817597Y-68936418D01*
X148875000Y-68925000D01*
X149175000Y-68925000D01*
X149232403Y-68936418D01*
G37*
G36*
X147962403Y-68936418D02*
G01*
X148011066Y-68968934D01*
X148043582Y-69017597D01*
X148055000Y-69075000D01*
X148055000Y-70825000D01*
X148043582Y-70882403D01*
X148011066Y-70931066D01*
X147962403Y-70963582D01*
X147905000Y-70975000D01*
X147605000Y-70975000D01*
X147547597Y-70963582D01*
X147498934Y-70931066D01*
X147466418Y-70882403D01*
X147455000Y-70825000D01*
X147455000Y-69075000D01*
X147466418Y-69017597D01*
X147498934Y-68968934D01*
X147547597Y-68936418D01*
X147605000Y-68925000D01*
X147905000Y-68925000D01*
X147962403Y-68936418D01*
G37*
G36*
X147962403Y-78236418D02*
G01*
X148011066Y-78268934D01*
X148043582Y-78317597D01*
X148055000Y-78375000D01*
X148055000Y-80125000D01*
X148043582Y-80182403D01*
X148011066Y-80231066D01*
X147962403Y-80263582D01*
X147905000Y-80275000D01*
X147605000Y-80275000D01*
X147547597Y-80263582D01*
X147498934Y-80231066D01*
X147466418Y-80182403D01*
X147455000Y-80125000D01*
X147455000Y-78375000D01*
X147466418Y-78317597D01*
X147498934Y-78268934D01*
X147547597Y-78236418D01*
X147605000Y-78225000D01*
X147905000Y-78225000D01*
X147962403Y-78236418D01*
G37*
G36*
X149232403Y-78236418D02*
G01*
X149281066Y-78268934D01*
X149313582Y-78317597D01*
X149325000Y-78375000D01*
X149325000Y-80125000D01*
X149313582Y-80182403D01*
X149281066Y-80231066D01*
X149232403Y-80263582D01*
X149175000Y-80275000D01*
X148875000Y-80275000D01*
X148817597Y-80263582D01*
X148768934Y-80231066D01*
X148736418Y-80182403D01*
X148725000Y-80125000D01*
X148725000Y-78375000D01*
X148736418Y-78317597D01*
X148768934Y-78268934D01*
X148817597Y-78236418D01*
X148875000Y-78225000D01*
X149175000Y-78225000D01*
X149232403Y-78236418D01*
G37*
G36*
X150502403Y-78236418D02*
G01*
X150551066Y-78268934D01*
X150583582Y-78317597D01*
X150595000Y-78375000D01*
X150595000Y-80125000D01*
X150583582Y-80182403D01*
X150551066Y-80231066D01*
X150502403Y-80263582D01*
X150445000Y-80275000D01*
X150145000Y-80275000D01*
X150087597Y-80263582D01*
X150038934Y-80231066D01*
X150006418Y-80182403D01*
X149995000Y-80125000D01*
X149995000Y-78375000D01*
X150006418Y-78317597D01*
X150038934Y-78268934D01*
X150087597Y-78236418D01*
X150145000Y-78225000D01*
X150445000Y-78225000D01*
X150502403Y-78236418D01*
G37*
G36*
X151772403Y-78236418D02*
G01*
X151821066Y-78268934D01*
X151853582Y-78317597D01*
X151865000Y-78375000D01*
X151865000Y-80125000D01*
X151853582Y-80182403D01*
X151821066Y-80231066D01*
X151772403Y-80263582D01*
X151715000Y-80275000D01*
X151415000Y-80275000D01*
X151357597Y-80263582D01*
X151308934Y-80231066D01*
X151276418Y-80182403D01*
X151265000Y-80125000D01*
X151265000Y-78375000D01*
X151276418Y-78317597D01*
X151308934Y-78268934D01*
X151357597Y-78236418D01*
X151415000Y-78225000D01*
X151715000Y-78225000D01*
X151772403Y-78236418D01*
G37*
G36*
X153042403Y-78236418D02*
G01*
X153091066Y-78268934D01*
X153123582Y-78317597D01*
X153135000Y-78375000D01*
X153135000Y-80125000D01*
X153123582Y-80182403D01*
X153091066Y-80231066D01*
X153042403Y-80263582D01*
X152985000Y-80275000D01*
X152685000Y-80275000D01*
X152627597Y-80263582D01*
X152578934Y-80231066D01*
X152546418Y-80182403D01*
X152535000Y-80125000D01*
X152535000Y-78375000D01*
X152546418Y-78317597D01*
X152578934Y-78268934D01*
X152627597Y-78236418D01*
X152685000Y-78225000D01*
X152985000Y-78225000D01*
X153042403Y-78236418D01*
G37*
G36*
X154312403Y-78236418D02*
G01*
X154361066Y-78268934D01*
X154393582Y-78317597D01*
X154405000Y-78375000D01*
X154405000Y-80125000D01*
X154393582Y-80182403D01*
X154361066Y-80231066D01*
X154312403Y-80263582D01*
X154255000Y-80275000D01*
X153955000Y-80275000D01*
X153897597Y-80263582D01*
X153848934Y-80231066D01*
X153816418Y-80182403D01*
X153805000Y-80125000D01*
X153805000Y-78375000D01*
X153816418Y-78317597D01*
X153848934Y-78268934D01*
X153897597Y-78236418D01*
X153955000Y-78225000D01*
X154255000Y-78225000D01*
X154312403Y-78236418D01*
G37*
G36*
X155582403Y-78236418D02*
G01*
X155631066Y-78268934D01*
X155663582Y-78317597D01*
X155675000Y-78375000D01*
X155675000Y-80125000D01*
X155663582Y-80182403D01*
X155631066Y-80231066D01*
X155582403Y-80263582D01*
X155525000Y-80275000D01*
X155225000Y-80275000D01*
X155167597Y-80263582D01*
X155118934Y-80231066D01*
X155086418Y-80182403D01*
X155075000Y-80125000D01*
X155075000Y-78375000D01*
X155086418Y-78317597D01*
X155118934Y-78268934D01*
X155167597Y-78236418D01*
X155225000Y-78225000D01*
X155525000Y-78225000D01*
X155582403Y-78236418D01*
G37*
G36*
X156852403Y-78236418D02*
G01*
X156901066Y-78268934D01*
X156933582Y-78317597D01*
X156945000Y-78375000D01*
X156945000Y-80125000D01*
X156933582Y-80182403D01*
X156901066Y-80231066D01*
X156852403Y-80263582D01*
X156795000Y-80275000D01*
X156495000Y-80275000D01*
X156437597Y-80263582D01*
X156388934Y-80231066D01*
X156356418Y-80182403D01*
X156345000Y-80125000D01*
X156345000Y-78375000D01*
X156356418Y-78317597D01*
X156388934Y-78268934D01*
X156437597Y-78236418D01*
X156495000Y-78225000D01*
X156795000Y-78225000D01*
X156852403Y-78236418D01*
G37*
G36*
X135587403Y-66161418D02*
G01*
X135636066Y-66193934D01*
X135668582Y-66242597D01*
X135680000Y-66300000D01*
X135680000Y-67950000D01*
X135668582Y-68007403D01*
X135636066Y-68056066D01*
X135587403Y-68088582D01*
X135530000Y-68100000D01*
X135230000Y-68100000D01*
X135172597Y-68088582D01*
X135123934Y-68056066D01*
X135091418Y-68007403D01*
X135080000Y-67950000D01*
X135080000Y-66300000D01*
X135091418Y-66242597D01*
X135123934Y-66193934D01*
X135172597Y-66161418D01*
X135230000Y-66150000D01*
X135530000Y-66150000D01*
X135587403Y-66161418D01*
G37*
G36*
X136857403Y-66161418D02*
G01*
X136906066Y-66193934D01*
X136938582Y-66242597D01*
X136950000Y-66300000D01*
X136950000Y-67950000D01*
X136938582Y-68007403D01*
X136906066Y-68056066D01*
X136857403Y-68088582D01*
X136800000Y-68100000D01*
X136500000Y-68100000D01*
X136442597Y-68088582D01*
X136393934Y-68056066D01*
X136361418Y-68007403D01*
X136350000Y-67950000D01*
X136350000Y-66300000D01*
X136361418Y-66242597D01*
X136393934Y-66193934D01*
X136442597Y-66161418D01*
X136500000Y-66150000D01*
X136800000Y-66150000D01*
X136857403Y-66161418D01*
G37*
G36*
X138127403Y-66161418D02*
G01*
X138176066Y-66193934D01*
X138208582Y-66242597D01*
X138220000Y-66300000D01*
X138220000Y-67950000D01*
X138208582Y-68007403D01*
X138176066Y-68056066D01*
X138127403Y-68088582D01*
X138070000Y-68100000D01*
X137770000Y-68100000D01*
X137712597Y-68088582D01*
X137663934Y-68056066D01*
X137631418Y-68007403D01*
X137620000Y-67950000D01*
X137620000Y-66300000D01*
X137631418Y-66242597D01*
X137663934Y-66193934D01*
X137712597Y-66161418D01*
X137770000Y-66150000D01*
X138070000Y-66150000D01*
X138127403Y-66161418D01*
G37*
G36*
X139397403Y-66161418D02*
G01*
X139446066Y-66193934D01*
X139478582Y-66242597D01*
X139490000Y-66300000D01*
X139490000Y-67950000D01*
X139478582Y-68007403D01*
X139446066Y-68056066D01*
X139397403Y-68088582D01*
X139340000Y-68100000D01*
X139040000Y-68100000D01*
X138982597Y-68088582D01*
X138933934Y-68056066D01*
X138901418Y-68007403D01*
X138890000Y-67950000D01*
X138890000Y-66300000D01*
X138901418Y-66242597D01*
X138933934Y-66193934D01*
X138982597Y-66161418D01*
X139040000Y-66150000D01*
X139340000Y-66150000D01*
X139397403Y-66161418D01*
G37*
G36*
X139397403Y-61211418D02*
G01*
X139446066Y-61243934D01*
X139478582Y-61292597D01*
X139490000Y-61350000D01*
X139490000Y-63000000D01*
X139478582Y-63057403D01*
X139446066Y-63106066D01*
X139397403Y-63138582D01*
X139340000Y-63150000D01*
X139040000Y-63150000D01*
X138982597Y-63138582D01*
X138933934Y-63106066D01*
X138901418Y-63057403D01*
X138890000Y-63000000D01*
X138890000Y-61350000D01*
X138901418Y-61292597D01*
X138933934Y-61243934D01*
X138982597Y-61211418D01*
X139040000Y-61200000D01*
X139340000Y-61200000D01*
X139397403Y-61211418D01*
G37*
G36*
X138127403Y-61211418D02*
G01*
X138176066Y-61243934D01*
X138208582Y-61292597D01*
X138220000Y-61350000D01*
X138220000Y-63000000D01*
X138208582Y-63057403D01*
X138176066Y-63106066D01*
X138127403Y-63138582D01*
X138070000Y-63150000D01*
X137770000Y-63150000D01*
X137712597Y-63138582D01*
X137663934Y-63106066D01*
X137631418Y-63057403D01*
X137620000Y-63000000D01*
X137620000Y-61350000D01*
X137631418Y-61292597D01*
X137663934Y-61243934D01*
X137712597Y-61211418D01*
X137770000Y-61200000D01*
X138070000Y-61200000D01*
X138127403Y-61211418D01*
G37*
G36*
X136857403Y-61211418D02*
G01*
X136906066Y-61243934D01*
X136938582Y-61292597D01*
X136950000Y-61350000D01*
X136950000Y-63000000D01*
X136938582Y-63057403D01*
X136906066Y-63106066D01*
X136857403Y-63138582D01*
X136800000Y-63150000D01*
X136500000Y-63150000D01*
X136442597Y-63138582D01*
X136393934Y-63106066D01*
X136361418Y-63057403D01*
X136350000Y-63000000D01*
X136350000Y-61350000D01*
X136361418Y-61292597D01*
X136393934Y-61243934D01*
X136442597Y-61211418D01*
X136500000Y-61200000D01*
X136800000Y-61200000D01*
X136857403Y-61211418D01*
G37*
G36*
X135587403Y-61211418D02*
G01*
X135636066Y-61243934D01*
X135668582Y-61292597D01*
X135680000Y-61350000D01*
X135680000Y-63000000D01*
X135668582Y-63057403D01*
X135636066Y-63106066D01*
X135587403Y-63138582D01*
X135530000Y-63150000D01*
X135230000Y-63150000D01*
X135172597Y-63138582D01*
X135123934Y-63106066D01*
X135091418Y-63057403D01*
X135080000Y-63000000D01*
X135080000Y-61350000D01*
X135091418Y-61292597D01*
X135123934Y-61243934D01*
X135172597Y-61211418D01*
X135230000Y-61200000D01*
X135530000Y-61200000D01*
X135587403Y-61211418D01*
G37*
G36*
X112814962Y-114241651D02*
G01*
X112885930Y-114289070D01*
X112933349Y-114360038D01*
X112950000Y-114443750D01*
X112950000Y-114956250D01*
X112933349Y-115039962D01*
X112885930Y-115110930D01*
X112814962Y-115158349D01*
X112731250Y-115175000D01*
X112293750Y-115175000D01*
X112210038Y-115158349D01*
X112139070Y-115110930D01*
X112091651Y-115039962D01*
X112075000Y-114956250D01*
X112075000Y-114443750D01*
X112091651Y-114360038D01*
X112139070Y-114289070D01*
X112210038Y-114241651D01*
X112293750Y-114225000D01*
X112731250Y-114225000D01*
X112814962Y-114241651D01*
G37*
G36*
X114389962Y-114241651D02*
G01*
X114460930Y-114289070D01*
X114508349Y-114360038D01*
X114525000Y-114443750D01*
X114525000Y-114956250D01*
X114508349Y-115039962D01*
X114460930Y-115110930D01*
X114389962Y-115158349D01*
X114306250Y-115175000D01*
X113868750Y-115175000D01*
X113785038Y-115158349D01*
X113714070Y-115110930D01*
X113666651Y-115039962D01*
X113650000Y-114956250D01*
X113650000Y-114443750D01*
X113666651Y-114360038D01*
X113714070Y-114289070D01*
X113785038Y-114241651D01*
X113868750Y-114225000D01*
X114306250Y-114225000D01*
X114389962Y-114241651D01*
G37*
G36*
X117489962Y-114766651D02*
G01*
X117560930Y-114814070D01*
X117608349Y-114885038D01*
X117625000Y-114968750D01*
X117625000Y-115481250D01*
X117608349Y-115564962D01*
X117560930Y-115635930D01*
X117489962Y-115683349D01*
X117406250Y-115700000D01*
X116968750Y-115700000D01*
X116885038Y-115683349D01*
X116814070Y-115635930D01*
X116766651Y-115564962D01*
X116750000Y-115481250D01*
X116750000Y-114968750D01*
X116766651Y-114885038D01*
X116814070Y-114814070D01*
X116885038Y-114766651D01*
X116968750Y-114750000D01*
X117406250Y-114750000D01*
X117489962Y-114766651D01*
G37*
G36*
X115914962Y-114766651D02*
G01*
X115985930Y-114814070D01*
X116033349Y-114885038D01*
X116050000Y-114968750D01*
X116050000Y-115481250D01*
X116033349Y-115564962D01*
X115985930Y-115635930D01*
X115914962Y-115683349D01*
X115831250Y-115700000D01*
X115393750Y-115700000D01*
X115310038Y-115683349D01*
X115239070Y-115635930D01*
X115191651Y-115564962D01*
X115175000Y-115481250D01*
X115175000Y-114968750D01*
X115191651Y-114885038D01*
X115239070Y-114814070D01*
X115310038Y-114766651D01*
X115393750Y-114750000D01*
X115831250Y-114750000D01*
X115914962Y-114766651D01*
G37*
G36*
X117489962Y-113266651D02*
G01*
X117560930Y-113314070D01*
X117608349Y-113385038D01*
X117625000Y-113468750D01*
X117625000Y-113981250D01*
X117608349Y-114064962D01*
X117560930Y-114135930D01*
X117489962Y-114183349D01*
X117406250Y-114200000D01*
X116968750Y-114200000D01*
X116885038Y-114183349D01*
X116814070Y-114135930D01*
X116766651Y-114064962D01*
X116750000Y-113981250D01*
X116750000Y-113468750D01*
X116766651Y-113385038D01*
X116814070Y-113314070D01*
X116885038Y-113266651D01*
X116968750Y-113250000D01*
X117406250Y-113250000D01*
X117489962Y-113266651D01*
G37*
G36*
X115914962Y-113266651D02*
G01*
X115985930Y-113314070D01*
X116033349Y-113385038D01*
X116050000Y-113468750D01*
X116050000Y-113981250D01*
X116033349Y-114064962D01*
X115985930Y-114135930D01*
X115914962Y-114183349D01*
X115831250Y-114200000D01*
X115393750Y-114200000D01*
X115310038Y-114183349D01*
X115239070Y-114135930D01*
X115191651Y-114064962D01*
X115175000Y-113981250D01*
X115175000Y-113468750D01*
X115191651Y-113385038D01*
X115239070Y-113314070D01*
X115310038Y-113266651D01*
X115393750Y-113250000D01*
X115831250Y-113250000D01*
X115914962Y-113266651D01*
G37*
G36*
X107320671Y-103544030D02*
G01*
X107401777Y-103598223D01*
X107455970Y-103679329D01*
X107475000Y-103774999D01*
X107475000Y-106625001D01*
X107455970Y-106720671D01*
X107401777Y-106801777D01*
X107320671Y-106855970D01*
X107225001Y-106875000D01*
X106374999Y-106875000D01*
X106279329Y-106855970D01*
X106198223Y-106801777D01*
X106144030Y-106720671D01*
X106125000Y-106625001D01*
X106125000Y-103774999D01*
X106144030Y-103679329D01*
X106198223Y-103598223D01*
X106279329Y-103544030D01*
X106374999Y-103525000D01*
X107225001Y-103525000D01*
X107320671Y-103544030D01*
G37*
G36*
X101520671Y-103544030D02*
G01*
X101601777Y-103598223D01*
X101655970Y-103679329D01*
X101675000Y-103774999D01*
X101675000Y-106625001D01*
X101655970Y-106720671D01*
X101601777Y-106801777D01*
X101520671Y-106855970D01*
X101425001Y-106875000D01*
X100574999Y-106875000D01*
X100479329Y-106855970D01*
X100398223Y-106801777D01*
X100344030Y-106720671D01*
X100325000Y-106625001D01*
X100325000Y-103774999D01*
X100344030Y-103679329D01*
X100398223Y-103598223D01*
X100479329Y-103544030D01*
X100574999Y-103525000D01*
X101425001Y-103525000D01*
X101520671Y-103544030D01*
G37*
G36*
X105489962Y-111041651D02*
G01*
X105560930Y-111089070D01*
X105608349Y-111160038D01*
X105625000Y-111243750D01*
X105625000Y-111756250D01*
X105608349Y-111839962D01*
X105560930Y-111910930D01*
X105489962Y-111958349D01*
X105406250Y-111975000D01*
X104968750Y-111975000D01*
X104885038Y-111958349D01*
X104814070Y-111910930D01*
X104766651Y-111839962D01*
X104750000Y-111756250D01*
X104750000Y-111243750D01*
X104766651Y-111160038D01*
X104814070Y-111089070D01*
X104885038Y-111041651D01*
X104968750Y-111025000D01*
X105406250Y-111025000D01*
X105489962Y-111041651D01*
G37*
G36*
X103914962Y-111041651D02*
G01*
X103985930Y-111089070D01*
X104033349Y-111160038D01*
X104050000Y-111243750D01*
X104050000Y-111756250D01*
X104033349Y-111839962D01*
X103985930Y-111910930D01*
X103914962Y-111958349D01*
X103831250Y-111975000D01*
X103393750Y-111975000D01*
X103310038Y-111958349D01*
X103239070Y-111910930D01*
X103191651Y-111839962D01*
X103175000Y-111756250D01*
X103175000Y-111243750D01*
X103191651Y-111160038D01*
X103239070Y-111089070D01*
X103310038Y-111041651D01*
X103393750Y-111025000D01*
X103831250Y-111025000D01*
X103914962Y-111041651D01*
G37*
G36*
X144889962Y-78254151D02*
G01*
X144960930Y-78301570D01*
X145008349Y-78372538D01*
X145025000Y-78456250D01*
X145025000Y-78968750D01*
X145008349Y-79052462D01*
X144960930Y-79123430D01*
X144889962Y-79170849D01*
X144806250Y-79187500D01*
X144368750Y-79187500D01*
X144285038Y-79170849D01*
X144214070Y-79123430D01*
X144166651Y-79052462D01*
X144150000Y-78968750D01*
X144150000Y-78456250D01*
X144166651Y-78372538D01*
X144214070Y-78301570D01*
X144285038Y-78254151D01*
X144368750Y-78237500D01*
X144806250Y-78237500D01*
X144889962Y-78254151D01*
G37*
G36*
X143314962Y-78254151D02*
G01*
X143385930Y-78301570D01*
X143433349Y-78372538D01*
X143450000Y-78456250D01*
X143450000Y-78968750D01*
X143433349Y-79052462D01*
X143385930Y-79123430D01*
X143314962Y-79170849D01*
X143231250Y-79187500D01*
X142793750Y-79187500D01*
X142710038Y-79170849D01*
X142639070Y-79123430D01*
X142591651Y-79052462D01*
X142575000Y-78968750D01*
X142575000Y-78456250D01*
X142591651Y-78372538D01*
X142639070Y-78301570D01*
X142710038Y-78254151D01*
X142793750Y-78237500D01*
X143231250Y-78237500D01*
X143314962Y-78254151D01*
G37*
G36*
X143389962Y-81354151D02*
G01*
X143460930Y-81401570D01*
X143508349Y-81472538D01*
X143525000Y-81556250D01*
X143525000Y-81993750D01*
X143508349Y-82077462D01*
X143460930Y-82148430D01*
X143389962Y-82195849D01*
X143306250Y-82212500D01*
X142793750Y-82212500D01*
X142710038Y-82195849D01*
X142639070Y-82148430D01*
X142591651Y-82077462D01*
X142575000Y-81993750D01*
X142575000Y-81556250D01*
X142591651Y-81472538D01*
X142639070Y-81401570D01*
X142710038Y-81354151D01*
X142793750Y-81337500D01*
X143306250Y-81337500D01*
X143389962Y-81354151D01*
G37*
G36*
X143389962Y-79779151D02*
G01*
X143460930Y-79826570D01*
X143508349Y-79897538D01*
X143525000Y-79981250D01*
X143525000Y-80418750D01*
X143508349Y-80502462D01*
X143460930Y-80573430D01*
X143389962Y-80620849D01*
X143306250Y-80637500D01*
X142793750Y-80637500D01*
X142710038Y-80620849D01*
X142639070Y-80573430D01*
X142591651Y-80502462D01*
X142575000Y-80418750D01*
X142575000Y-79981250D01*
X142591651Y-79897538D01*
X142639070Y-79826570D01*
X142710038Y-79779151D01*
X142793750Y-79762500D01*
X143306250Y-79762500D01*
X143389962Y-79779151D01*
G37*
G36*
X133389962Y-83316651D02*
G01*
X133460930Y-83364070D01*
X133508349Y-83435038D01*
X133525000Y-83518750D01*
X133525000Y-83956250D01*
X133508349Y-84039962D01*
X133460930Y-84110930D01*
X133389962Y-84158349D01*
X133306250Y-84175000D01*
X132793750Y-84175000D01*
X132710038Y-84158349D01*
X132639070Y-84110930D01*
X132591651Y-84039962D01*
X132575000Y-83956250D01*
X132575000Y-83518750D01*
X132591651Y-83435038D01*
X132639070Y-83364070D01*
X132710038Y-83316651D01*
X132793750Y-83300000D01*
X133306250Y-83300000D01*
X133389962Y-83316651D01*
G37*
G36*
X133389962Y-81741651D02*
G01*
X133460930Y-81789070D01*
X133508349Y-81860038D01*
X133525000Y-81943750D01*
X133525000Y-82381250D01*
X133508349Y-82464962D01*
X133460930Y-82535930D01*
X133389962Y-82583349D01*
X133306250Y-82600000D01*
X132793750Y-82600000D01*
X132710038Y-82583349D01*
X132639070Y-82535930D01*
X132591651Y-82464962D01*
X132575000Y-82381250D01*
X132575000Y-81943750D01*
X132591651Y-81860038D01*
X132639070Y-81789070D01*
X132710038Y-81741651D01*
X132793750Y-81725000D01*
X133306250Y-81725000D01*
X133389962Y-81741651D01*
G37*
G36*
X143314962Y-76729151D02*
G01*
X143385930Y-76776570D01*
X143433349Y-76847538D01*
X143450000Y-76931250D01*
X143450000Y-77443750D01*
X143433349Y-77527462D01*
X143385930Y-77598430D01*
X143314962Y-77645849D01*
X143231250Y-77662500D01*
X142793750Y-77662500D01*
X142710038Y-77645849D01*
X142639070Y-77598430D01*
X142591651Y-77527462D01*
X142575000Y-77443750D01*
X142575000Y-76931250D01*
X142591651Y-76847538D01*
X142639070Y-76776570D01*
X142710038Y-76729151D01*
X142793750Y-76712500D01*
X143231250Y-76712500D01*
X143314962Y-76729151D01*
G37*
G36*
X144889962Y-76729151D02*
G01*
X144960930Y-76776570D01*
X145008349Y-76847538D01*
X145025000Y-76931250D01*
X145025000Y-77443750D01*
X145008349Y-77527462D01*
X144960930Y-77598430D01*
X144889962Y-77645849D01*
X144806250Y-77662500D01*
X144368750Y-77662500D01*
X144285038Y-77645849D01*
X144214070Y-77598430D01*
X144166651Y-77527462D01*
X144150000Y-77443750D01*
X144150000Y-76931250D01*
X144166651Y-76847538D01*
X144214070Y-76776570D01*
X144285038Y-76729151D01*
X144368750Y-76712500D01*
X144806250Y-76712500D01*
X144889962Y-76729151D01*
G37*
G36*
X132514962Y-63041651D02*
G01*
X132585930Y-63089070D01*
X132633349Y-63160038D01*
X132650000Y-63243750D01*
X132650000Y-63756250D01*
X132633349Y-63839962D01*
X132585930Y-63910930D01*
X132514962Y-63958349D01*
X132431250Y-63975000D01*
X131993750Y-63975000D01*
X131910038Y-63958349D01*
X131839070Y-63910930D01*
X131791651Y-63839962D01*
X131775000Y-63756250D01*
X131775000Y-63243750D01*
X131791651Y-63160038D01*
X131839070Y-63089070D01*
X131910038Y-63041651D01*
X131993750Y-63025000D01*
X132431250Y-63025000D01*
X132514962Y-63041651D01*
G37*
G36*
X134089962Y-63041651D02*
G01*
X134160930Y-63089070D01*
X134208349Y-63160038D01*
X134225000Y-63243750D01*
X134225000Y-63756250D01*
X134208349Y-63839962D01*
X134160930Y-63910930D01*
X134089962Y-63958349D01*
X134006250Y-63975000D01*
X133568750Y-63975000D01*
X133485038Y-63958349D01*
X133414070Y-63910930D01*
X133366651Y-63839962D01*
X133350000Y-63756250D01*
X133350000Y-63243750D01*
X133366651Y-63160038D01*
X133414070Y-63089070D01*
X133485038Y-63041651D01*
X133568750Y-63025000D01*
X134006250Y-63025000D01*
X134089962Y-63041651D01*
G37*
G36*
X141124962Y-63541651D02*
G01*
X141195930Y-63589070D01*
X141243349Y-63660038D01*
X141260000Y-63743750D01*
X141260000Y-64181250D01*
X141243349Y-64264962D01*
X141195930Y-64335930D01*
X141124962Y-64383349D01*
X141041250Y-64400000D01*
X140528750Y-64400000D01*
X140445038Y-64383349D01*
X140374070Y-64335930D01*
X140326651Y-64264962D01*
X140310000Y-64181250D01*
X140310000Y-63743750D01*
X140326651Y-63660038D01*
X140374070Y-63589070D01*
X140445038Y-63541651D01*
X140528750Y-63525000D01*
X141041250Y-63525000D01*
X141124962Y-63541651D01*
G37*
G36*
X141124962Y-65116651D02*
G01*
X141195930Y-65164070D01*
X141243349Y-65235038D01*
X141260000Y-65318750D01*
X141260000Y-65756250D01*
X141243349Y-65839962D01*
X141195930Y-65910930D01*
X141124962Y-65958349D01*
X141041250Y-65975000D01*
X140528750Y-65975000D01*
X140445038Y-65958349D01*
X140374070Y-65910930D01*
X140326651Y-65839962D01*
X140310000Y-65756250D01*
X140310000Y-65318750D01*
X140326651Y-65235038D01*
X140374070Y-65164070D01*
X140445038Y-65116651D01*
X140528750Y-65100000D01*
X141041250Y-65100000D01*
X141124962Y-65116651D01*
G37*
G36*
X142674962Y-66591651D02*
G01*
X142745930Y-66639070D01*
X142793349Y-66710038D01*
X142810000Y-66793750D01*
X142810000Y-67306250D01*
X142793349Y-67389962D01*
X142745930Y-67460930D01*
X142674962Y-67508349D01*
X142591250Y-67525000D01*
X142153750Y-67525000D01*
X142070038Y-67508349D01*
X141999070Y-67460930D01*
X141951651Y-67389962D01*
X141935000Y-67306250D01*
X141935000Y-66793750D01*
X141951651Y-66710038D01*
X141999070Y-66639070D01*
X142070038Y-66591651D01*
X142153750Y-66575000D01*
X142591250Y-66575000D01*
X142674962Y-66591651D01*
G37*
G36*
X141099962Y-66591651D02*
G01*
X141170930Y-66639070D01*
X141218349Y-66710038D01*
X141235000Y-66793750D01*
X141235000Y-67306250D01*
X141218349Y-67389962D01*
X141170930Y-67460930D01*
X141099962Y-67508349D01*
X141016250Y-67525000D01*
X140578750Y-67525000D01*
X140495038Y-67508349D01*
X140424070Y-67460930D01*
X140376651Y-67389962D01*
X140360000Y-67306250D01*
X140360000Y-66793750D01*
X140376651Y-66710038D01*
X140424070Y-66639070D01*
X140495038Y-66591651D01*
X140578750Y-66575000D01*
X141016250Y-66575000D01*
X141099962Y-66591651D01*
G37*
G36*
X132514962Y-64541651D02*
G01*
X132585930Y-64589070D01*
X132633349Y-64660038D01*
X132650000Y-64743750D01*
X132650000Y-65256250D01*
X132633349Y-65339962D01*
X132585930Y-65410930D01*
X132514962Y-65458349D01*
X132431250Y-65475000D01*
X131993750Y-65475000D01*
X131910038Y-65458349D01*
X131839070Y-65410930D01*
X131791651Y-65339962D01*
X131775000Y-65256250D01*
X131775000Y-64743750D01*
X131791651Y-64660038D01*
X131839070Y-64589070D01*
X131910038Y-64541651D01*
X131993750Y-64525000D01*
X132431250Y-64525000D01*
X132514962Y-64541651D01*
G37*
G36*
X134089962Y-64541651D02*
G01*
X134160930Y-64589070D01*
X134208349Y-64660038D01*
X134225000Y-64743750D01*
X134225000Y-65256250D01*
X134208349Y-65339962D01*
X134160930Y-65410930D01*
X134089962Y-65458349D01*
X134006250Y-65475000D01*
X133568750Y-65475000D01*
X133485038Y-65458349D01*
X133414070Y-65410930D01*
X133366651Y-65339962D01*
X133350000Y-65256250D01*
X133350000Y-64743750D01*
X133366651Y-64660038D01*
X133414070Y-64589070D01*
X133485038Y-64541651D01*
X133568750Y-64525000D01*
X134006250Y-64525000D01*
X134089962Y-64541651D01*
G37*
D24*
X143560000Y-124445841D03*
X148640000Y-124445841D03*
D25*
X148875000Y-112870841D03*
X143325000Y-117720841D03*
X143325000Y-112870841D03*
X148875000Y-117720841D03*
X116775000Y-102150000D03*
X111225000Y-97300000D03*
X111225000Y-102150000D03*
X116775000Y-97300000D03*
D24*
X116540000Y-108875000D03*
X111460000Y-108875000D03*
D26*
X102100000Y-112525000D03*
X102100000Y-110625000D03*
X100100000Y-111575000D03*
D27*
X94800000Y-71600000D03*
X94800000Y-70950000D03*
X94800000Y-70300000D03*
X94800000Y-69650000D03*
X94800000Y-69000000D03*
G36*
X97814962Y-65841651D02*
G01*
X97885930Y-65889070D01*
X97933349Y-65960038D01*
X97950000Y-66043750D01*
X97950000Y-66556250D01*
X97933349Y-66639962D01*
X97885930Y-66710930D01*
X97814962Y-66758349D01*
X97731250Y-66775000D01*
X97293750Y-66775000D01*
X97210038Y-66758349D01*
X97139070Y-66710930D01*
X97091651Y-66639962D01*
X97075000Y-66556250D01*
X97075000Y-66043750D01*
X97091651Y-65960038D01*
X97139070Y-65889070D01*
X97210038Y-65841651D01*
X97293750Y-65825000D01*
X97731250Y-65825000D01*
X97814962Y-65841651D01*
G37*
G36*
X99389962Y-65841651D02*
G01*
X99460930Y-65889070D01*
X99508349Y-65960038D01*
X99525000Y-66043750D01*
X99525000Y-66556250D01*
X99508349Y-66639962D01*
X99460930Y-66710930D01*
X99389962Y-66758349D01*
X99306250Y-66775000D01*
X98868750Y-66775000D01*
X98785038Y-66758349D01*
X98714070Y-66710930D01*
X98666651Y-66639962D01*
X98650000Y-66556250D01*
X98650000Y-66043750D01*
X98666651Y-65960038D01*
X98714070Y-65889070D01*
X98785038Y-65841651D01*
X98868750Y-65825000D01*
X99306250Y-65825000D01*
X99389962Y-65841651D01*
G37*
G36*
X128389962Y-80016651D02*
G01*
X128460930Y-80064070D01*
X128508349Y-80135038D01*
X128525000Y-80218750D01*
X128525000Y-80656250D01*
X128508349Y-80739962D01*
X128460930Y-80810930D01*
X128389962Y-80858349D01*
X128306250Y-80875000D01*
X127793750Y-80875000D01*
X127710038Y-80858349D01*
X127639070Y-80810930D01*
X127591651Y-80739962D01*
X127575000Y-80656250D01*
X127575000Y-80218750D01*
X127591651Y-80135038D01*
X127639070Y-80064070D01*
X127710038Y-80016651D01*
X127793750Y-80000000D01*
X128306250Y-80000000D01*
X128389962Y-80016651D01*
G37*
G36*
X128389962Y-78441651D02*
G01*
X128460930Y-78489070D01*
X128508349Y-78560038D01*
X128525000Y-78643750D01*
X128525000Y-79081250D01*
X128508349Y-79164962D01*
X128460930Y-79235930D01*
X128389962Y-79283349D01*
X128306250Y-79300000D01*
X127793750Y-79300000D01*
X127710038Y-79283349D01*
X127639070Y-79235930D01*
X127591651Y-79164962D01*
X127575000Y-79081250D01*
X127575000Y-78643750D01*
X127591651Y-78560038D01*
X127639070Y-78489070D01*
X127710038Y-78441651D01*
X127793750Y-78425000D01*
X128306250Y-78425000D01*
X128389962Y-78441651D01*
G37*
G36*
X132789962Y-69991651D02*
G01*
X132860930Y-70039070D01*
X132908349Y-70110038D01*
X132925000Y-70193750D01*
X132925000Y-70706250D01*
X132908349Y-70789962D01*
X132860930Y-70860930D01*
X132789962Y-70908349D01*
X132706250Y-70925000D01*
X132268750Y-70925000D01*
X132185038Y-70908349D01*
X132114070Y-70860930D01*
X132066651Y-70789962D01*
X132050000Y-70706250D01*
X132050000Y-70193750D01*
X132066651Y-70110038D01*
X132114070Y-70039070D01*
X132185038Y-69991651D01*
X132268750Y-69975000D01*
X132706250Y-69975000D01*
X132789962Y-69991651D01*
G37*
G36*
X131214962Y-69991651D02*
G01*
X131285930Y-70039070D01*
X131333349Y-70110038D01*
X131350000Y-70193750D01*
X131350000Y-70706250D01*
X131333349Y-70789962D01*
X131285930Y-70860930D01*
X131214962Y-70908349D01*
X131131250Y-70925000D01*
X130693750Y-70925000D01*
X130610038Y-70908349D01*
X130539070Y-70860930D01*
X130491651Y-70789962D01*
X130475000Y-70706250D01*
X130475000Y-70193750D01*
X130491651Y-70110038D01*
X130539070Y-70039070D01*
X130610038Y-69991651D01*
X130693750Y-69975000D01*
X131131250Y-69975000D01*
X131214962Y-69991651D01*
G37*
D28*
X143500000Y-103600000D03*
X143500000Y-96800000D03*
X104300000Y-101700000D03*
X104300000Y-94900000D03*
D29*
X107100000Y-108250000D03*
X107100000Y-111550000D03*
G36*
X145039962Y-79829151D02*
G01*
X145110930Y-79876570D01*
X145158349Y-79947538D01*
X145175000Y-80031250D01*
X145175000Y-80468750D01*
X145158349Y-80552462D01*
X145110930Y-80623430D01*
X145039962Y-80670849D01*
X144956250Y-80687500D01*
X144443750Y-80687500D01*
X144360038Y-80670849D01*
X144289070Y-80623430D01*
X144241651Y-80552462D01*
X144225000Y-80468750D01*
X144225000Y-80031250D01*
X144241651Y-79947538D01*
X144289070Y-79876570D01*
X144360038Y-79829151D01*
X144443750Y-79812500D01*
X144956250Y-79812500D01*
X145039962Y-79829151D01*
G37*
G36*
X145039962Y-81404151D02*
G01*
X145110930Y-81451570D01*
X145158349Y-81522538D01*
X145175000Y-81606250D01*
X145175000Y-82043750D01*
X145158349Y-82127462D01*
X145110930Y-82198430D01*
X145039962Y-82245849D01*
X144956250Y-82262500D01*
X144443750Y-82262500D01*
X144360038Y-82245849D01*
X144289070Y-82198430D01*
X144241651Y-82127462D01*
X144225000Y-82043750D01*
X144225000Y-81606250D01*
X144241651Y-81522538D01*
X144289070Y-81451570D01*
X144360038Y-81404151D01*
X144443750Y-81387500D01*
X144956250Y-81387500D01*
X145039962Y-81404151D01*
G37*
G36*
X143439962Y-82879151D02*
G01*
X143510930Y-82926570D01*
X143558349Y-82997538D01*
X143575000Y-83081250D01*
X143575000Y-83593750D01*
X143558349Y-83677462D01*
X143510930Y-83748430D01*
X143439962Y-83795849D01*
X143356250Y-83812500D01*
X142918750Y-83812500D01*
X142835038Y-83795849D01*
X142764070Y-83748430D01*
X142716651Y-83677462D01*
X142700000Y-83593750D01*
X142700000Y-83081250D01*
X142716651Y-82997538D01*
X142764070Y-82926570D01*
X142835038Y-82879151D01*
X142918750Y-82862500D01*
X143356250Y-82862500D01*
X143439962Y-82879151D01*
G37*
G36*
X145014962Y-82879151D02*
G01*
X145085930Y-82926570D01*
X145133349Y-82997538D01*
X145150000Y-83081250D01*
X145150000Y-83593750D01*
X145133349Y-83677462D01*
X145085930Y-83748430D01*
X145014962Y-83795849D01*
X144931250Y-83812500D01*
X144493750Y-83812500D01*
X144410038Y-83795849D01*
X144339070Y-83748430D01*
X144291651Y-83677462D01*
X144275000Y-83593750D01*
X144275000Y-83081250D01*
X144291651Y-82997538D01*
X144339070Y-82926570D01*
X144410038Y-82879151D01*
X144493750Y-82862500D01*
X144931250Y-82862500D01*
X145014962Y-82879151D01*
G37*
G36*
X134578389Y-99819030D02*
G01*
X134659495Y-99873223D01*
X134713688Y-99954329D01*
X134732718Y-100049999D01*
X134732718Y-108350001D01*
X134713688Y-108445671D01*
X134659495Y-108526777D01*
X134578389Y-108580970D01*
X134482719Y-108600000D01*
X125382717Y-108600000D01*
X125287047Y-108580970D01*
X125205941Y-108526777D01*
X125151748Y-108445671D01*
X125132718Y-108350001D01*
X125132718Y-100049999D01*
X125151748Y-99954329D01*
X125205941Y-99873223D01*
X125287047Y-99819030D01*
X125382717Y-99800000D01*
X134482719Y-99800000D01*
X134578389Y-99819030D01*
G37*
G36*
X134578389Y-86319030D02*
G01*
X134659495Y-86373223D01*
X134713688Y-86454329D01*
X134732718Y-86549999D01*
X134732718Y-94850001D01*
X134713688Y-94945671D01*
X134659495Y-95026777D01*
X134578389Y-95080970D01*
X134482719Y-95100000D01*
X125382717Y-95100000D01*
X125287047Y-95080970D01*
X125205941Y-95026777D01*
X125151748Y-94945671D01*
X125132718Y-94850001D01*
X125132718Y-86549999D01*
X125151748Y-86454329D01*
X125205941Y-86373223D01*
X125287047Y-86319030D01*
X125382717Y-86300000D01*
X134482719Y-86300000D01*
X134578389Y-86319030D01*
G37*
G36*
X112814962Y-115741651D02*
G01*
X112885930Y-115789070D01*
X112933349Y-115860038D01*
X112950000Y-115943750D01*
X112950000Y-116456250D01*
X112933349Y-116539962D01*
X112885930Y-116610930D01*
X112814962Y-116658349D01*
X112731250Y-116675000D01*
X112293750Y-116675000D01*
X112210038Y-116658349D01*
X112139070Y-116610930D01*
X112091651Y-116539962D01*
X112075000Y-116456250D01*
X112075000Y-115943750D01*
X112091651Y-115860038D01*
X112139070Y-115789070D01*
X112210038Y-115741651D01*
X112293750Y-115725000D01*
X112731250Y-115725000D01*
X112814962Y-115741651D01*
G37*
G36*
X114389962Y-115741651D02*
G01*
X114460930Y-115789070D01*
X114508349Y-115860038D01*
X114525000Y-115943750D01*
X114525000Y-116456250D01*
X114508349Y-116539962D01*
X114460930Y-116610930D01*
X114389962Y-116658349D01*
X114306250Y-116675000D01*
X113868750Y-116675000D01*
X113785038Y-116658349D01*
X113714070Y-116610930D01*
X113666651Y-116539962D01*
X113650000Y-116456250D01*
X113650000Y-115943750D01*
X113666651Y-115860038D01*
X113714070Y-115789070D01*
X113785038Y-115741651D01*
X113868750Y-115725000D01*
X114306250Y-115725000D01*
X114389962Y-115741651D01*
G37*
G36*
X112399962Y-118791651D02*
G01*
X112470930Y-118839070D01*
X112518349Y-118910038D01*
X112535000Y-118993750D01*
X112535000Y-119431250D01*
X112518349Y-119514962D01*
X112470930Y-119585930D01*
X112399962Y-119633349D01*
X112316250Y-119650000D01*
X111803750Y-119650000D01*
X111720038Y-119633349D01*
X111649070Y-119585930D01*
X111601651Y-119514962D01*
X111585000Y-119431250D01*
X111585000Y-118993750D01*
X111601651Y-118910038D01*
X111649070Y-118839070D01*
X111720038Y-118791651D01*
X111803750Y-118775000D01*
X112316250Y-118775000D01*
X112399962Y-118791651D01*
G37*
G36*
X112399962Y-120366651D02*
G01*
X112470930Y-120414070D01*
X112518349Y-120485038D01*
X112535000Y-120568750D01*
X112535000Y-121006250D01*
X112518349Y-121089962D01*
X112470930Y-121160930D01*
X112399962Y-121208349D01*
X112316250Y-121225000D01*
X111803750Y-121225000D01*
X111720038Y-121208349D01*
X111649070Y-121160930D01*
X111601651Y-121089962D01*
X111585000Y-121006250D01*
X111585000Y-120568750D01*
X111601651Y-120485038D01*
X111649070Y-120414070D01*
X111720038Y-120366651D01*
X111803750Y-120350000D01*
X112316250Y-120350000D01*
X112399962Y-120366651D01*
G37*
G36*
X112274962Y-122766651D02*
G01*
X112345930Y-122814070D01*
X112393349Y-122885038D01*
X112410000Y-122968750D01*
X112410000Y-123481250D01*
X112393349Y-123564962D01*
X112345930Y-123635930D01*
X112274962Y-123683349D01*
X112191250Y-123700000D01*
X111753750Y-123700000D01*
X111670038Y-123683349D01*
X111599070Y-123635930D01*
X111551651Y-123564962D01*
X111535000Y-123481250D01*
X111535000Y-122968750D01*
X111551651Y-122885038D01*
X111599070Y-122814070D01*
X111670038Y-122766651D01*
X111753750Y-122750000D01*
X112191250Y-122750000D01*
X112274962Y-122766651D01*
G37*
G36*
X113849962Y-122766651D02*
G01*
X113920930Y-122814070D01*
X113968349Y-122885038D01*
X113985000Y-122968750D01*
X113985000Y-123481250D01*
X113968349Y-123564962D01*
X113920930Y-123635930D01*
X113849962Y-123683349D01*
X113766250Y-123700000D01*
X113328750Y-123700000D01*
X113245038Y-123683349D01*
X113174070Y-123635930D01*
X113126651Y-123564962D01*
X113110000Y-123481250D01*
X113110000Y-122968750D01*
X113126651Y-122885038D01*
X113174070Y-122814070D01*
X113245038Y-122766651D01*
X113328750Y-122750000D01*
X113766250Y-122750000D01*
X113849962Y-122766651D01*
G37*
G36*
X101280671Y-116694030D02*
G01*
X101361777Y-116748223D01*
X101415970Y-116829329D01*
X101435000Y-116925000D01*
X101435000Y-117675000D01*
X101415970Y-117770671D01*
X101361777Y-117851777D01*
X101280671Y-117905970D01*
X101185000Y-117925000D01*
X99935000Y-117925000D01*
X99839329Y-117905970D01*
X99758223Y-117851777D01*
X99704030Y-117770671D01*
X99685000Y-117675000D01*
X99685000Y-116925000D01*
X99704030Y-116829329D01*
X99758223Y-116748223D01*
X99839329Y-116694030D01*
X99935000Y-116675000D01*
X101185000Y-116675000D01*
X101280671Y-116694030D01*
G37*
G36*
X101280671Y-119494030D02*
G01*
X101361777Y-119548223D01*
X101415970Y-119629329D01*
X101435000Y-119725000D01*
X101435000Y-120475000D01*
X101415970Y-120570671D01*
X101361777Y-120651777D01*
X101280671Y-120705970D01*
X101185000Y-120725000D01*
X99935000Y-120725000D01*
X99839329Y-120705970D01*
X99758223Y-120651777D01*
X99704030Y-120570671D01*
X99685000Y-120475000D01*
X99685000Y-119725000D01*
X99704030Y-119629329D01*
X99758223Y-119548223D01*
X99839329Y-119494030D01*
X99935000Y-119475000D01*
X101185000Y-119475000D01*
X101280671Y-119494030D01*
G37*
G36*
X103870671Y-107819030D02*
G01*
X103951777Y-107873223D01*
X104005970Y-107954329D01*
X104025000Y-108050000D01*
X104025000Y-109300000D01*
X104005970Y-109395671D01*
X103951777Y-109476777D01*
X103870671Y-109530970D01*
X103775000Y-109550000D01*
X103025000Y-109550000D01*
X102929329Y-109530970D01*
X102848223Y-109476777D01*
X102794030Y-109395671D01*
X102775000Y-109300000D01*
X102775000Y-108050000D01*
X102794030Y-107954329D01*
X102848223Y-107873223D01*
X102929329Y-107819030D01*
X103025000Y-107800000D01*
X103775000Y-107800000D01*
X103870671Y-107819030D01*
G37*
G36*
X101070671Y-107819030D02*
G01*
X101151777Y-107873223D01*
X101205970Y-107954329D01*
X101225000Y-108050000D01*
X101225000Y-109300000D01*
X101205970Y-109395671D01*
X101151777Y-109476777D01*
X101070671Y-109530970D01*
X100975000Y-109550000D01*
X100225000Y-109550000D01*
X100129329Y-109530970D01*
X100048223Y-109476777D01*
X99994030Y-109395671D01*
X99975000Y-109300000D01*
X99975000Y-108050000D01*
X99994030Y-107954329D01*
X100048223Y-107873223D01*
X100129329Y-107819030D01*
X100225000Y-107800000D01*
X100975000Y-107800000D01*
X101070671Y-107819030D01*
G37*
G36*
X97814962Y-67341651D02*
G01*
X97885930Y-67389070D01*
X97933349Y-67460038D01*
X97950000Y-67543750D01*
X97950000Y-68056250D01*
X97933349Y-68139962D01*
X97885930Y-68210930D01*
X97814962Y-68258349D01*
X97731250Y-68275000D01*
X97293750Y-68275000D01*
X97210038Y-68258349D01*
X97139070Y-68210930D01*
X97091651Y-68139962D01*
X97075000Y-68056250D01*
X97075000Y-67543750D01*
X97091651Y-67460038D01*
X97139070Y-67389070D01*
X97210038Y-67341651D01*
X97293750Y-67325000D01*
X97731250Y-67325000D01*
X97814962Y-67341651D01*
G37*
G36*
X99389962Y-67341651D02*
G01*
X99460930Y-67389070D01*
X99508349Y-67460038D01*
X99525000Y-67543750D01*
X99525000Y-68056250D01*
X99508349Y-68139962D01*
X99460930Y-68210930D01*
X99389962Y-68258349D01*
X99306250Y-68275000D01*
X98868750Y-68275000D01*
X98785038Y-68258349D01*
X98714070Y-68210930D01*
X98666651Y-68139962D01*
X98650000Y-68056250D01*
X98650000Y-67543750D01*
X98666651Y-67460038D01*
X98714070Y-67389070D01*
X98785038Y-67341651D01*
X98868750Y-67325000D01*
X99306250Y-67325000D01*
X99389962Y-67341651D01*
G37*
G36*
X147964962Y-82391651D02*
G01*
X148035930Y-82439070D01*
X148083349Y-82510038D01*
X148100000Y-82593750D01*
X148100000Y-83106250D01*
X148083349Y-83189962D01*
X148035930Y-83260930D01*
X147964962Y-83308349D01*
X147881250Y-83325000D01*
X147443750Y-83325000D01*
X147360038Y-83308349D01*
X147289070Y-83260930D01*
X147241651Y-83189962D01*
X147225000Y-83106250D01*
X147225000Y-82593750D01*
X147241651Y-82510038D01*
X147289070Y-82439070D01*
X147360038Y-82391651D01*
X147443750Y-82375000D01*
X147881250Y-82375000D01*
X147964962Y-82391651D01*
G37*
G36*
X149539962Y-82391651D02*
G01*
X149610930Y-82439070D01*
X149658349Y-82510038D01*
X149675000Y-82593750D01*
X149675000Y-83106250D01*
X149658349Y-83189962D01*
X149610930Y-83260930D01*
X149539962Y-83308349D01*
X149456250Y-83325000D01*
X149018750Y-83325000D01*
X148935038Y-83308349D01*
X148864070Y-83260930D01*
X148816651Y-83189962D01*
X148800000Y-83106250D01*
X148800000Y-82593750D01*
X148816651Y-82510038D01*
X148864070Y-82439070D01*
X148935038Y-82391651D01*
X149018750Y-82375000D01*
X149456250Y-82375000D01*
X149539962Y-82391651D01*
G37*
G36*
X147964962Y-80891651D02*
G01*
X148035930Y-80939070D01*
X148083349Y-81010038D01*
X148100000Y-81093750D01*
X148100000Y-81606250D01*
X148083349Y-81689962D01*
X148035930Y-81760930D01*
X147964962Y-81808349D01*
X147881250Y-81825000D01*
X147443750Y-81825000D01*
X147360038Y-81808349D01*
X147289070Y-81760930D01*
X147241651Y-81689962D01*
X147225000Y-81606250D01*
X147225000Y-81093750D01*
X147241651Y-81010038D01*
X147289070Y-80939070D01*
X147360038Y-80891651D01*
X147443750Y-80875000D01*
X147881250Y-80875000D01*
X147964962Y-80891651D01*
G37*
G36*
X149539962Y-80891651D02*
G01*
X149610930Y-80939070D01*
X149658349Y-81010038D01*
X149675000Y-81093750D01*
X149675000Y-81606250D01*
X149658349Y-81689962D01*
X149610930Y-81760930D01*
X149539962Y-81808349D01*
X149456250Y-81825000D01*
X149018750Y-81825000D01*
X148935038Y-81808349D01*
X148864070Y-81760930D01*
X148816651Y-81689962D01*
X148800000Y-81606250D01*
X148800000Y-81093750D01*
X148816651Y-81010038D01*
X148864070Y-80939070D01*
X148935038Y-80891651D01*
X149018750Y-80875000D01*
X149456250Y-80875000D01*
X149539962Y-80891651D01*
G37*
G36*
X157039962Y-80891651D02*
G01*
X157110930Y-80939070D01*
X157158349Y-81010038D01*
X157175000Y-81093750D01*
X157175000Y-81606250D01*
X157158349Y-81689962D01*
X157110930Y-81760930D01*
X157039962Y-81808349D01*
X156956250Y-81825000D01*
X156518750Y-81825000D01*
X156435038Y-81808349D01*
X156364070Y-81760930D01*
X156316651Y-81689962D01*
X156300000Y-81606250D01*
X156300000Y-81093750D01*
X156316651Y-81010038D01*
X156364070Y-80939070D01*
X156435038Y-80891651D01*
X156518750Y-80875000D01*
X156956250Y-80875000D01*
X157039962Y-80891651D01*
G37*
G36*
X155464962Y-80891651D02*
G01*
X155535930Y-80939070D01*
X155583349Y-81010038D01*
X155600000Y-81093750D01*
X155600000Y-81606250D01*
X155583349Y-81689962D01*
X155535930Y-81760930D01*
X155464962Y-81808349D01*
X155381250Y-81825000D01*
X154943750Y-81825000D01*
X154860038Y-81808349D01*
X154789070Y-81760930D01*
X154741651Y-81689962D01*
X154725000Y-81606250D01*
X154725000Y-81093750D01*
X154741651Y-81010038D01*
X154789070Y-80939070D01*
X154860038Y-80891651D01*
X154943750Y-80875000D01*
X155381250Y-80875000D01*
X155464962Y-80891651D01*
G37*
G36*
X157039962Y-82391651D02*
G01*
X157110930Y-82439070D01*
X157158349Y-82510038D01*
X157175000Y-82593750D01*
X157175000Y-83106250D01*
X157158349Y-83189962D01*
X157110930Y-83260930D01*
X157039962Y-83308349D01*
X156956250Y-83325000D01*
X156518750Y-83325000D01*
X156435038Y-83308349D01*
X156364070Y-83260930D01*
X156316651Y-83189962D01*
X156300000Y-83106250D01*
X156300000Y-82593750D01*
X156316651Y-82510038D01*
X156364070Y-82439070D01*
X156435038Y-82391651D01*
X156518750Y-82375000D01*
X156956250Y-82375000D01*
X157039962Y-82391651D01*
G37*
G36*
X155464962Y-82391651D02*
G01*
X155535930Y-82439070D01*
X155583349Y-82510038D01*
X155600000Y-82593750D01*
X155600000Y-83106250D01*
X155583349Y-83189962D01*
X155535930Y-83260930D01*
X155464962Y-83308349D01*
X155381250Y-83325000D01*
X154943750Y-83325000D01*
X154860038Y-83308349D01*
X154789070Y-83260930D01*
X154741651Y-83189962D01*
X154725000Y-83106250D01*
X154725000Y-82593750D01*
X154741651Y-82510038D01*
X154789070Y-82439070D01*
X154860038Y-82391651D01*
X154943750Y-82375000D01*
X155381250Y-82375000D01*
X155464962Y-82391651D01*
G37*
G36*
X147964962Y-65641651D02*
G01*
X148035930Y-65689070D01*
X148083349Y-65760038D01*
X148100000Y-65843750D01*
X148100000Y-66356250D01*
X148083349Y-66439962D01*
X148035930Y-66510930D01*
X147964962Y-66558349D01*
X147881250Y-66575000D01*
X147443750Y-66575000D01*
X147360038Y-66558349D01*
X147289070Y-66510930D01*
X147241651Y-66439962D01*
X147225000Y-66356250D01*
X147225000Y-65843750D01*
X147241651Y-65760038D01*
X147289070Y-65689070D01*
X147360038Y-65641651D01*
X147443750Y-65625000D01*
X147881250Y-65625000D01*
X147964962Y-65641651D01*
G37*
G36*
X149539962Y-65641651D02*
G01*
X149610930Y-65689070D01*
X149658349Y-65760038D01*
X149675000Y-65843750D01*
X149675000Y-66356250D01*
X149658349Y-66439962D01*
X149610930Y-66510930D01*
X149539962Y-66558349D01*
X149456250Y-66575000D01*
X149018750Y-66575000D01*
X148935038Y-66558349D01*
X148864070Y-66510930D01*
X148816651Y-66439962D01*
X148800000Y-66356250D01*
X148800000Y-65843750D01*
X148816651Y-65760038D01*
X148864070Y-65689070D01*
X148935038Y-65641651D01*
X149018750Y-65625000D01*
X149456250Y-65625000D01*
X149539962Y-65641651D01*
G37*
G36*
X147964962Y-67141651D02*
G01*
X148035930Y-67189070D01*
X148083349Y-67260038D01*
X148100000Y-67343750D01*
X148100000Y-67856250D01*
X148083349Y-67939962D01*
X148035930Y-68010930D01*
X147964962Y-68058349D01*
X147881250Y-68075000D01*
X147443750Y-68075000D01*
X147360038Y-68058349D01*
X147289070Y-68010930D01*
X147241651Y-67939962D01*
X147225000Y-67856250D01*
X147225000Y-67343750D01*
X147241651Y-67260038D01*
X147289070Y-67189070D01*
X147360038Y-67141651D01*
X147443750Y-67125000D01*
X147881250Y-67125000D01*
X147964962Y-67141651D01*
G37*
G36*
X149539962Y-67141651D02*
G01*
X149610930Y-67189070D01*
X149658349Y-67260038D01*
X149675000Y-67343750D01*
X149675000Y-67856250D01*
X149658349Y-67939962D01*
X149610930Y-68010930D01*
X149539962Y-68058349D01*
X149456250Y-68075000D01*
X149018750Y-68075000D01*
X148935038Y-68058349D01*
X148864070Y-68010930D01*
X148816651Y-67939962D01*
X148800000Y-67856250D01*
X148800000Y-67343750D01*
X148816651Y-67260038D01*
X148864070Y-67189070D01*
X148935038Y-67141651D01*
X149018750Y-67125000D01*
X149456250Y-67125000D01*
X149539962Y-67141651D01*
G37*
G36*
X157229962Y-67141651D02*
G01*
X157300930Y-67189070D01*
X157348349Y-67260038D01*
X157365000Y-67343750D01*
X157365000Y-67856250D01*
X157348349Y-67939962D01*
X157300930Y-68010930D01*
X157229962Y-68058349D01*
X157146250Y-68075000D01*
X156708750Y-68075000D01*
X156625038Y-68058349D01*
X156554070Y-68010930D01*
X156506651Y-67939962D01*
X156490000Y-67856250D01*
X156490000Y-67343750D01*
X156506651Y-67260038D01*
X156554070Y-67189070D01*
X156625038Y-67141651D01*
X156708750Y-67125000D01*
X157146250Y-67125000D01*
X157229962Y-67141651D01*
G37*
G36*
X155654962Y-67141651D02*
G01*
X155725930Y-67189070D01*
X155773349Y-67260038D01*
X155790000Y-67343750D01*
X155790000Y-67856250D01*
X155773349Y-67939962D01*
X155725930Y-68010930D01*
X155654962Y-68058349D01*
X155571250Y-68075000D01*
X155133750Y-68075000D01*
X155050038Y-68058349D01*
X154979070Y-68010930D01*
X154931651Y-67939962D01*
X154915000Y-67856250D01*
X154915000Y-67343750D01*
X154931651Y-67260038D01*
X154979070Y-67189070D01*
X155050038Y-67141651D01*
X155133750Y-67125000D01*
X155571250Y-67125000D01*
X155654962Y-67141651D01*
G37*
G36*
X157229962Y-65641651D02*
G01*
X157300930Y-65689070D01*
X157348349Y-65760038D01*
X157365000Y-65843750D01*
X157365000Y-66356250D01*
X157348349Y-66439962D01*
X157300930Y-66510930D01*
X157229962Y-66558349D01*
X157146250Y-66575000D01*
X156708750Y-66575000D01*
X156625038Y-66558349D01*
X156554070Y-66510930D01*
X156506651Y-66439962D01*
X156490000Y-66356250D01*
X156490000Y-65843750D01*
X156506651Y-65760038D01*
X156554070Y-65689070D01*
X156625038Y-65641651D01*
X156708750Y-65625000D01*
X157146250Y-65625000D01*
X157229962Y-65641651D01*
G37*
G36*
X155654962Y-65641651D02*
G01*
X155725930Y-65689070D01*
X155773349Y-65760038D01*
X155790000Y-65843750D01*
X155790000Y-66356250D01*
X155773349Y-66439962D01*
X155725930Y-66510930D01*
X155654962Y-66558349D01*
X155571250Y-66575000D01*
X155133750Y-66575000D01*
X155050038Y-66558349D01*
X154979070Y-66510930D01*
X154931651Y-66439962D01*
X154915000Y-66356250D01*
X154915000Y-65843750D01*
X154931651Y-65760038D01*
X154979070Y-65689070D01*
X155050038Y-65641651D01*
X155133750Y-65625000D01*
X155571250Y-65625000D01*
X155654962Y-65641651D01*
G37*
G36*
X131389962Y-78441651D02*
G01*
X131460930Y-78489070D01*
X131508349Y-78560038D01*
X131525000Y-78643750D01*
X131525000Y-79081250D01*
X131508349Y-79164962D01*
X131460930Y-79235930D01*
X131389962Y-79283349D01*
X131306250Y-79300000D01*
X130793750Y-79300000D01*
X130710038Y-79283349D01*
X130639070Y-79235930D01*
X130591651Y-79164962D01*
X130575000Y-79081250D01*
X130575000Y-78643750D01*
X130591651Y-78560038D01*
X130639070Y-78489070D01*
X130710038Y-78441651D01*
X130793750Y-78425000D01*
X131306250Y-78425000D01*
X131389962Y-78441651D01*
G37*
G36*
X131389962Y-80016651D02*
G01*
X131460930Y-80064070D01*
X131508349Y-80135038D01*
X131525000Y-80218750D01*
X131525000Y-80656250D01*
X131508349Y-80739962D01*
X131460930Y-80810930D01*
X131389962Y-80858349D01*
X131306250Y-80875000D01*
X130793750Y-80875000D01*
X130710038Y-80858349D01*
X130639070Y-80810930D01*
X130591651Y-80739962D01*
X130575000Y-80656250D01*
X130575000Y-80218750D01*
X130591651Y-80135038D01*
X130639070Y-80064070D01*
X130710038Y-80016651D01*
X130793750Y-80000000D01*
X131306250Y-80000000D01*
X131389962Y-80016651D01*
G37*
G36*
X140639962Y-83141651D02*
G01*
X140710930Y-83189070D01*
X140758349Y-83260038D01*
X140775000Y-83343750D01*
X140775000Y-83856250D01*
X140758349Y-83939962D01*
X140710930Y-84010930D01*
X140639962Y-84058349D01*
X140556250Y-84075000D01*
X140118750Y-84075000D01*
X140035038Y-84058349D01*
X139964070Y-84010930D01*
X139916651Y-83939962D01*
X139900000Y-83856250D01*
X139900000Y-83343750D01*
X139916651Y-83260038D01*
X139964070Y-83189070D01*
X140035038Y-83141651D01*
X140118750Y-83125000D01*
X140556250Y-83125000D01*
X140639962Y-83141651D01*
G37*
G36*
X139064962Y-83141651D02*
G01*
X139135930Y-83189070D01*
X139183349Y-83260038D01*
X139200000Y-83343750D01*
X139200000Y-83856250D01*
X139183349Y-83939962D01*
X139135930Y-84010930D01*
X139064962Y-84058349D01*
X138981250Y-84075000D01*
X138543750Y-84075000D01*
X138460038Y-84058349D01*
X138389070Y-84010930D01*
X138341651Y-83939962D01*
X138325000Y-83856250D01*
X138325000Y-83343750D01*
X138341651Y-83260038D01*
X138389070Y-83189070D01*
X138460038Y-83141651D01*
X138543750Y-83125000D01*
X138981250Y-83125000D01*
X139064962Y-83141651D01*
G37*
G36*
X129889962Y-78441651D02*
G01*
X129960930Y-78489070D01*
X130008349Y-78560038D01*
X130025000Y-78643750D01*
X130025000Y-79081250D01*
X130008349Y-79164962D01*
X129960930Y-79235930D01*
X129889962Y-79283349D01*
X129806250Y-79300000D01*
X129293750Y-79300000D01*
X129210038Y-79283349D01*
X129139070Y-79235930D01*
X129091651Y-79164962D01*
X129075000Y-79081250D01*
X129075000Y-78643750D01*
X129091651Y-78560038D01*
X129139070Y-78489070D01*
X129210038Y-78441651D01*
X129293750Y-78425000D01*
X129806250Y-78425000D01*
X129889962Y-78441651D01*
G37*
G36*
X129889962Y-80016651D02*
G01*
X129960930Y-80064070D01*
X130008349Y-80135038D01*
X130025000Y-80218750D01*
X130025000Y-80656250D01*
X130008349Y-80739962D01*
X129960930Y-80810930D01*
X129889962Y-80858349D01*
X129806250Y-80875000D01*
X129293750Y-80875000D01*
X129210038Y-80858349D01*
X129139070Y-80810930D01*
X129091651Y-80739962D01*
X129075000Y-80656250D01*
X129075000Y-80218750D01*
X129091651Y-80135038D01*
X129139070Y-80064070D01*
X129210038Y-80016651D01*
X129293750Y-80000000D01*
X129806250Y-80000000D01*
X129889962Y-80016651D01*
G37*
G36*
X131839962Y-81491651D02*
G01*
X131910930Y-81539070D01*
X131958349Y-81610038D01*
X131975000Y-81693750D01*
X131975000Y-82206250D01*
X131958349Y-82289962D01*
X131910930Y-82360930D01*
X131839962Y-82408349D01*
X131756250Y-82425000D01*
X131318750Y-82425000D01*
X131235038Y-82408349D01*
X131164070Y-82360930D01*
X131116651Y-82289962D01*
X131100000Y-82206250D01*
X131100000Y-81693750D01*
X131116651Y-81610038D01*
X131164070Y-81539070D01*
X131235038Y-81491651D01*
X131318750Y-81475000D01*
X131756250Y-81475000D01*
X131839962Y-81491651D01*
G37*
G36*
X130264962Y-81491651D02*
G01*
X130335930Y-81539070D01*
X130383349Y-81610038D01*
X130400000Y-81693750D01*
X130400000Y-82206250D01*
X130383349Y-82289962D01*
X130335930Y-82360930D01*
X130264962Y-82408349D01*
X130181250Y-82425000D01*
X129743750Y-82425000D01*
X129660038Y-82408349D01*
X129589070Y-82360930D01*
X129541651Y-82289962D01*
X129525000Y-82206250D01*
X129525000Y-81693750D01*
X129541651Y-81610038D01*
X129589070Y-81539070D01*
X129660038Y-81491651D01*
X129743750Y-81475000D01*
X130181250Y-81475000D01*
X130264962Y-81491651D01*
G37*
G36*
X135189962Y-71266651D02*
G01*
X135260930Y-71314070D01*
X135308349Y-71385038D01*
X135325000Y-71468750D01*
X135325000Y-71906250D01*
X135308349Y-71989962D01*
X135260930Y-72060930D01*
X135189962Y-72108349D01*
X135106250Y-72125000D01*
X134593750Y-72125000D01*
X134510038Y-72108349D01*
X134439070Y-72060930D01*
X134391651Y-71989962D01*
X134375000Y-71906250D01*
X134375000Y-71468750D01*
X134391651Y-71385038D01*
X134439070Y-71314070D01*
X134510038Y-71266651D01*
X134593750Y-71250000D01*
X135106250Y-71250000D01*
X135189962Y-71266651D01*
G37*
G36*
X135189962Y-69691651D02*
G01*
X135260930Y-69739070D01*
X135308349Y-69810038D01*
X135325000Y-69893750D01*
X135325000Y-70331250D01*
X135308349Y-70414962D01*
X135260930Y-70485930D01*
X135189962Y-70533349D01*
X135106250Y-70550000D01*
X134593750Y-70550000D01*
X134510038Y-70533349D01*
X134439070Y-70485930D01*
X134391651Y-70414962D01*
X134375000Y-70331250D01*
X134375000Y-69893750D01*
X134391651Y-69810038D01*
X134439070Y-69739070D01*
X134510038Y-69691651D01*
X134593750Y-69675000D01*
X135106250Y-69675000D01*
X135189962Y-69691651D01*
G37*
G36*
X132789962Y-72991651D02*
G01*
X132860930Y-73039070D01*
X132908349Y-73110038D01*
X132925000Y-73193750D01*
X132925000Y-73706250D01*
X132908349Y-73789962D01*
X132860930Y-73860930D01*
X132789962Y-73908349D01*
X132706250Y-73925000D01*
X132268750Y-73925000D01*
X132185038Y-73908349D01*
X132114070Y-73860930D01*
X132066651Y-73789962D01*
X132050000Y-73706250D01*
X132050000Y-73193750D01*
X132066651Y-73110038D01*
X132114070Y-73039070D01*
X132185038Y-72991651D01*
X132268750Y-72975000D01*
X132706250Y-72975000D01*
X132789962Y-72991651D01*
G37*
G36*
X131214962Y-72991651D02*
G01*
X131285930Y-73039070D01*
X131333349Y-73110038D01*
X131350000Y-73193750D01*
X131350000Y-73706250D01*
X131333349Y-73789962D01*
X131285930Y-73860930D01*
X131214962Y-73908349D01*
X131131250Y-73925000D01*
X130693750Y-73925000D01*
X130610038Y-73908349D01*
X130539070Y-73860930D01*
X130491651Y-73789962D01*
X130475000Y-73706250D01*
X130475000Y-73193750D01*
X130491651Y-73110038D01*
X130539070Y-73039070D01*
X130610038Y-72991651D01*
X130693750Y-72975000D01*
X131131250Y-72975000D01*
X131214962Y-72991651D01*
G37*
G36*
X132789962Y-71491651D02*
G01*
X132860930Y-71539070D01*
X132908349Y-71610038D01*
X132925000Y-71693750D01*
X132925000Y-72206250D01*
X132908349Y-72289962D01*
X132860930Y-72360930D01*
X132789962Y-72408349D01*
X132706250Y-72425000D01*
X132268750Y-72425000D01*
X132185038Y-72408349D01*
X132114070Y-72360930D01*
X132066651Y-72289962D01*
X132050000Y-72206250D01*
X132050000Y-71693750D01*
X132066651Y-71610038D01*
X132114070Y-71539070D01*
X132185038Y-71491651D01*
X132268750Y-71475000D01*
X132706250Y-71475000D01*
X132789962Y-71491651D01*
G37*
G36*
X131214962Y-71491651D02*
G01*
X131285930Y-71539070D01*
X131333349Y-71610038D01*
X131350000Y-71693750D01*
X131350000Y-72206250D01*
X131333349Y-72289962D01*
X131285930Y-72360930D01*
X131214962Y-72408349D01*
X131131250Y-72425000D01*
X130693750Y-72425000D01*
X130610038Y-72408349D01*
X130539070Y-72360930D01*
X130491651Y-72289962D01*
X130475000Y-72206250D01*
X130475000Y-71693750D01*
X130491651Y-71610038D01*
X130539070Y-71539070D01*
X130610038Y-71491651D01*
X130693750Y-71475000D01*
X131131250Y-71475000D01*
X131214962Y-71491651D01*
G37*
G36*
X125539962Y-76766651D02*
G01*
X125610930Y-76814070D01*
X125658349Y-76885038D01*
X125675000Y-76968750D01*
X125675000Y-77406250D01*
X125658349Y-77489962D01*
X125610930Y-77560930D01*
X125539962Y-77608349D01*
X125456250Y-77625000D01*
X124943750Y-77625000D01*
X124860038Y-77608349D01*
X124789070Y-77560930D01*
X124741651Y-77489962D01*
X124725000Y-77406250D01*
X124725000Y-76968750D01*
X124741651Y-76885038D01*
X124789070Y-76814070D01*
X124860038Y-76766651D01*
X124943750Y-76750000D01*
X125456250Y-76750000D01*
X125539962Y-76766651D01*
G37*
G36*
X125539962Y-75191651D02*
G01*
X125610930Y-75239070D01*
X125658349Y-75310038D01*
X125675000Y-75393750D01*
X125675000Y-75831250D01*
X125658349Y-75914962D01*
X125610930Y-75985930D01*
X125539962Y-76033349D01*
X125456250Y-76050000D01*
X124943750Y-76050000D01*
X124860038Y-76033349D01*
X124789070Y-75985930D01*
X124741651Y-75914962D01*
X124725000Y-75831250D01*
X124725000Y-75393750D01*
X124741651Y-75310038D01*
X124789070Y-75239070D01*
X124860038Y-75191651D01*
X124943750Y-75175000D01*
X125456250Y-75175000D01*
X125539962Y-75191651D01*
G37*
G36*
X125539962Y-72191651D02*
G01*
X125610930Y-72239070D01*
X125658349Y-72310038D01*
X125675000Y-72393750D01*
X125675000Y-72831250D01*
X125658349Y-72914962D01*
X125610930Y-72985930D01*
X125539962Y-73033349D01*
X125456250Y-73050000D01*
X124943750Y-73050000D01*
X124860038Y-73033349D01*
X124789070Y-72985930D01*
X124741651Y-72914962D01*
X124725000Y-72831250D01*
X124725000Y-72393750D01*
X124741651Y-72310038D01*
X124789070Y-72239070D01*
X124860038Y-72191651D01*
X124943750Y-72175000D01*
X125456250Y-72175000D01*
X125539962Y-72191651D01*
G37*
G36*
X125539962Y-73766651D02*
G01*
X125610930Y-73814070D01*
X125658349Y-73885038D01*
X125675000Y-73968750D01*
X125675000Y-74406250D01*
X125658349Y-74489962D01*
X125610930Y-74560930D01*
X125539962Y-74608349D01*
X125456250Y-74625000D01*
X124943750Y-74625000D01*
X124860038Y-74608349D01*
X124789070Y-74560930D01*
X124741651Y-74489962D01*
X124725000Y-74406250D01*
X124725000Y-73968750D01*
X124741651Y-73885038D01*
X124789070Y-73814070D01*
X124860038Y-73766651D01*
X124943750Y-73750000D01*
X125456250Y-73750000D01*
X125539962Y-73766651D01*
G37*
G36*
X141564962Y-72191651D02*
G01*
X141635930Y-72239070D01*
X141683349Y-72310038D01*
X141700000Y-72393750D01*
X141700000Y-72906250D01*
X141683349Y-72989962D01*
X141635930Y-73060930D01*
X141564962Y-73108349D01*
X141481250Y-73125000D01*
X141043750Y-73125000D01*
X140960038Y-73108349D01*
X140889070Y-73060930D01*
X140841651Y-72989962D01*
X140825000Y-72906250D01*
X140825000Y-72393750D01*
X140841651Y-72310038D01*
X140889070Y-72239070D01*
X140960038Y-72191651D01*
X141043750Y-72175000D01*
X141481250Y-72175000D01*
X141564962Y-72191651D01*
G37*
G36*
X143139962Y-72191651D02*
G01*
X143210930Y-72239070D01*
X143258349Y-72310038D01*
X143275000Y-72393750D01*
X143275000Y-72906250D01*
X143258349Y-72989962D01*
X143210930Y-73060930D01*
X143139962Y-73108349D01*
X143056250Y-73125000D01*
X142618750Y-73125000D01*
X142535038Y-73108349D01*
X142464070Y-73060930D01*
X142416651Y-72989962D01*
X142400000Y-72906250D01*
X142400000Y-72393750D01*
X142416651Y-72310038D01*
X142464070Y-72239070D01*
X142535038Y-72191651D01*
X142618750Y-72175000D01*
X143056250Y-72175000D01*
X143139962Y-72191651D01*
G37*
G36*
X139639962Y-70891651D02*
G01*
X139710930Y-70939070D01*
X139758349Y-71010038D01*
X139775000Y-71093750D01*
X139775000Y-71606250D01*
X139758349Y-71689962D01*
X139710930Y-71760930D01*
X139639962Y-71808349D01*
X139556250Y-71825000D01*
X139118750Y-71825000D01*
X139035038Y-71808349D01*
X138964070Y-71760930D01*
X138916651Y-71689962D01*
X138900000Y-71606250D01*
X138900000Y-71093750D01*
X138916651Y-71010038D01*
X138964070Y-70939070D01*
X139035038Y-70891651D01*
X139118750Y-70875000D01*
X139556250Y-70875000D01*
X139639962Y-70891651D01*
G37*
G36*
X138064962Y-70891651D02*
G01*
X138135930Y-70939070D01*
X138183349Y-71010038D01*
X138200000Y-71093750D01*
X138200000Y-71606250D01*
X138183349Y-71689962D01*
X138135930Y-71760930D01*
X138064962Y-71808349D01*
X137981250Y-71825000D01*
X137543750Y-71825000D01*
X137460038Y-71808349D01*
X137389070Y-71760930D01*
X137341651Y-71689962D01*
X137325000Y-71606250D01*
X137325000Y-71093750D01*
X137341651Y-71010038D01*
X137389070Y-70939070D01*
X137460038Y-70891651D01*
X137543750Y-70875000D01*
X137981250Y-70875000D01*
X138064962Y-70891651D01*
G37*
G36*
X141064962Y-70691651D02*
G01*
X141135930Y-70739070D01*
X141183349Y-70810038D01*
X141200000Y-70893750D01*
X141200000Y-71406250D01*
X141183349Y-71489962D01*
X141135930Y-71560930D01*
X141064962Y-71608349D01*
X140981250Y-71625000D01*
X140543750Y-71625000D01*
X140460038Y-71608349D01*
X140389070Y-71560930D01*
X140341651Y-71489962D01*
X140325000Y-71406250D01*
X140325000Y-70893750D01*
X140341651Y-70810038D01*
X140389070Y-70739070D01*
X140460038Y-70691651D01*
X140543750Y-70675000D01*
X140981250Y-70675000D01*
X141064962Y-70691651D01*
G37*
G36*
X142639962Y-70691651D02*
G01*
X142710930Y-70739070D01*
X142758349Y-70810038D01*
X142775000Y-70893750D01*
X142775000Y-71406250D01*
X142758349Y-71489962D01*
X142710930Y-71560930D01*
X142639962Y-71608349D01*
X142556250Y-71625000D01*
X142118750Y-71625000D01*
X142035038Y-71608349D01*
X141964070Y-71560930D01*
X141916651Y-71489962D01*
X141900000Y-71406250D01*
X141900000Y-70893750D01*
X141916651Y-70810038D01*
X141964070Y-70739070D01*
X142035038Y-70691651D01*
X142118750Y-70675000D01*
X142556250Y-70675000D01*
X142639962Y-70691651D01*
G37*
G36*
X143314962Y-75229151D02*
G01*
X143385930Y-75276570D01*
X143433349Y-75347538D01*
X143450000Y-75431250D01*
X143450000Y-75943750D01*
X143433349Y-76027462D01*
X143385930Y-76098430D01*
X143314962Y-76145849D01*
X143231250Y-76162500D01*
X142793750Y-76162500D01*
X142710038Y-76145849D01*
X142639070Y-76098430D01*
X142591651Y-76027462D01*
X142575000Y-75943750D01*
X142575000Y-75431250D01*
X142591651Y-75347538D01*
X142639070Y-75276570D01*
X142710038Y-75229151D01*
X142793750Y-75212500D01*
X143231250Y-75212500D01*
X143314962Y-75229151D01*
G37*
G36*
X144889962Y-75229151D02*
G01*
X144960930Y-75276570D01*
X145008349Y-75347538D01*
X145025000Y-75431250D01*
X145025000Y-75943750D01*
X145008349Y-76027462D01*
X144960930Y-76098430D01*
X144889962Y-76145849D01*
X144806250Y-76162500D01*
X144368750Y-76162500D01*
X144285038Y-76145849D01*
X144214070Y-76098430D01*
X144166651Y-76027462D01*
X144150000Y-75943750D01*
X144150000Y-75431250D01*
X144166651Y-75347538D01*
X144214070Y-75276570D01*
X144285038Y-75229151D01*
X144368750Y-75212500D01*
X144806250Y-75212500D01*
X144889962Y-75229151D01*
G37*
G36*
X143314962Y-73691651D02*
G01*
X143385930Y-73739070D01*
X143433349Y-73810038D01*
X143450000Y-73893750D01*
X143450000Y-74406250D01*
X143433349Y-74489962D01*
X143385930Y-74560930D01*
X143314962Y-74608349D01*
X143231250Y-74625000D01*
X142793750Y-74625000D01*
X142710038Y-74608349D01*
X142639070Y-74560930D01*
X142591651Y-74489962D01*
X142575000Y-74406250D01*
X142575000Y-73893750D01*
X142591651Y-73810038D01*
X142639070Y-73739070D01*
X142710038Y-73691651D01*
X142793750Y-73675000D01*
X143231250Y-73675000D01*
X143314962Y-73691651D01*
G37*
G36*
X144889962Y-73691651D02*
G01*
X144960930Y-73739070D01*
X145008349Y-73810038D01*
X145025000Y-73893750D01*
X145025000Y-74406250D01*
X145008349Y-74489962D01*
X144960930Y-74560930D01*
X144889962Y-74608349D01*
X144806250Y-74625000D01*
X144368750Y-74625000D01*
X144285038Y-74608349D01*
X144214070Y-74560930D01*
X144166651Y-74489962D01*
X144150000Y-74406250D01*
X144150000Y-73893750D01*
X144166651Y-73810038D01*
X144214070Y-73739070D01*
X144285038Y-73691651D01*
X144368750Y-73675000D01*
X144806250Y-73675000D01*
X144889962Y-73691651D01*
G37*
G36*
X139639962Y-69391651D02*
G01*
X139710930Y-69439070D01*
X139758349Y-69510038D01*
X139775000Y-69593750D01*
X139775000Y-70106250D01*
X139758349Y-70189962D01*
X139710930Y-70260930D01*
X139639962Y-70308349D01*
X139556250Y-70325000D01*
X139118750Y-70325000D01*
X139035038Y-70308349D01*
X138964070Y-70260930D01*
X138916651Y-70189962D01*
X138900000Y-70106250D01*
X138900000Y-69593750D01*
X138916651Y-69510038D01*
X138964070Y-69439070D01*
X139035038Y-69391651D01*
X139118750Y-69375000D01*
X139556250Y-69375000D01*
X139639962Y-69391651D01*
G37*
G36*
X138064962Y-69391651D02*
G01*
X138135930Y-69439070D01*
X138183349Y-69510038D01*
X138200000Y-69593750D01*
X138200000Y-70106250D01*
X138183349Y-70189962D01*
X138135930Y-70260930D01*
X138064962Y-70308349D01*
X137981250Y-70325000D01*
X137543750Y-70325000D01*
X137460038Y-70308349D01*
X137389070Y-70260930D01*
X137341651Y-70189962D01*
X137325000Y-70106250D01*
X137325000Y-69593750D01*
X137341651Y-69510038D01*
X137389070Y-69439070D01*
X137460038Y-69391651D01*
X137543750Y-69375000D01*
X137981250Y-69375000D01*
X138064962Y-69391651D01*
G37*
G36*
X141064962Y-69191651D02*
G01*
X141135930Y-69239070D01*
X141183349Y-69310038D01*
X141200000Y-69393750D01*
X141200000Y-69906250D01*
X141183349Y-69989962D01*
X141135930Y-70060930D01*
X141064962Y-70108349D01*
X140981250Y-70125000D01*
X140543750Y-70125000D01*
X140460038Y-70108349D01*
X140389070Y-70060930D01*
X140341651Y-69989962D01*
X140325000Y-69906250D01*
X140325000Y-69393750D01*
X140341651Y-69310038D01*
X140389070Y-69239070D01*
X140460038Y-69191651D01*
X140543750Y-69175000D01*
X140981250Y-69175000D01*
X141064962Y-69191651D01*
G37*
G36*
X142639962Y-69191651D02*
G01*
X142710930Y-69239070D01*
X142758349Y-69310038D01*
X142775000Y-69393750D01*
X142775000Y-69906250D01*
X142758349Y-69989962D01*
X142710930Y-70060930D01*
X142639962Y-70108349D01*
X142556250Y-70125000D01*
X142118750Y-70125000D01*
X142035038Y-70108349D01*
X141964070Y-70060930D01*
X141916651Y-69989962D01*
X141900000Y-69906250D01*
X141900000Y-69393750D01*
X141916651Y-69310038D01*
X141964070Y-69239070D01*
X142035038Y-69191651D01*
X142118750Y-69175000D01*
X142556250Y-69175000D01*
X142639962Y-69191651D01*
G37*
G36*
X135514962Y-59691651D02*
G01*
X135585930Y-59739070D01*
X135633349Y-59810038D01*
X135650000Y-59893750D01*
X135650000Y-60406250D01*
X135633349Y-60489962D01*
X135585930Y-60560930D01*
X135514962Y-60608349D01*
X135431250Y-60625000D01*
X134993750Y-60625000D01*
X134910038Y-60608349D01*
X134839070Y-60560930D01*
X134791651Y-60489962D01*
X134775000Y-60406250D01*
X134775000Y-59893750D01*
X134791651Y-59810038D01*
X134839070Y-59739070D01*
X134910038Y-59691651D01*
X134993750Y-59675000D01*
X135431250Y-59675000D01*
X135514962Y-59691651D01*
G37*
G36*
X137089962Y-59691651D02*
G01*
X137160930Y-59739070D01*
X137208349Y-59810038D01*
X137225000Y-59893750D01*
X137225000Y-60406250D01*
X137208349Y-60489962D01*
X137160930Y-60560930D01*
X137089962Y-60608349D01*
X137006250Y-60625000D01*
X136568750Y-60625000D01*
X136485038Y-60608349D01*
X136414070Y-60560930D01*
X136366651Y-60489962D01*
X136350000Y-60406250D01*
X136350000Y-59893750D01*
X136366651Y-59810038D01*
X136414070Y-59739070D01*
X136485038Y-59691651D01*
X136568750Y-59675000D01*
X137006250Y-59675000D01*
X137089962Y-59691651D01*
G37*
M02*
