%TF.GenerationSoftware,KiCad,Pcbnew,5.99.0-unknown-dd374e12a~102~ubuntu20.04.1*%
%TF.CreationDate,2020-12-02T08:22:49-08:00*%
%TF.ProjectId,blue_interface_board,626c7565-5f69-46e7-9465-72666163655f,rev?*%
%TF.SameCoordinates,Original*%
%TF.FileFunction,Paste,Top*%
%TF.FilePolarity,Positive*%
%FSLAX46Y46*%
G04 Gerber Fmt 4.6, Leading zero omitted, Abs format (unit mm)*
G04 Created by KiCad (PCBNEW 5.99.0-unknown-dd374e12a~102~ubuntu20.04.1) date 2020-12-02 08:22:49*
%MOMM*%
%LPD*%
G01*
G04 APERTURE LIST*
%ADD10R,2.920000X1.270000*%
%ADD11R,3.300000X2.500000*%
%ADD12R,1.500000X0.450000*%
%ADD13R,1.200000X0.900000*%
%ADD14R,0.800000X0.900000*%
%ADD15R,5.250000X4.550000*%
%ADD16R,1.100000X4.600000*%
%ADD17R,0.700000X0.450000*%
%ADD18R,2.200000X1.500000*%
%ADD19R,2.400000X2.000000*%
%ADD20R,2.410000X3.290000*%
%ADD21R,1.650000X3.430000*%
%ADD22R,1.300000X0.450000*%
%ADD23R,0.400000X0.450000*%
%ADD24R,1.900000X0.800000*%
%ADD25R,0.450000X0.700000*%
%ADD26R,0.900000X0.800000*%
%ADD27R,0.650000X1.060000*%
%ADD28R,0.450000X0.400000*%
%ADD29R,0.800000X1.900000*%
G04 APERTURE END LIST*
D10*
X148820000Y-89970000D03*
X148820000Y-92970000D03*
X148820000Y-95970000D03*
X148820000Y-98970000D03*
X148820000Y-101970000D03*
G36*
G01*
X135843750Y-110275000D02*
X136356250Y-110275000D01*
G75*
G02*
X136575000Y-110493750I0J-218750D01*
G01*
X136575000Y-110931250D01*
G75*
G02*
X136356250Y-111150000I-218750J0D01*
G01*
X135843750Y-111150000D01*
G75*
G02*
X135625000Y-110931250I0J218750D01*
G01*
X135625000Y-110493750D01*
G75*
G02*
X135843750Y-110275000I218750J0D01*
G01*
G37*
G36*
G01*
X135843750Y-111850000D02*
X136356250Y-111850000D01*
G75*
G02*
X136575000Y-112068750I0J-218750D01*
G01*
X136575000Y-112506250D01*
G75*
G02*
X136356250Y-112725000I-218750J0D01*
G01*
X135843750Y-112725000D01*
G75*
G02*
X135625000Y-112506250I0J218750D01*
G01*
X135625000Y-112068750D01*
G75*
G02*
X135843750Y-111850000I218750J0D01*
G01*
G37*
D11*
X143500000Y-103600000D03*
X143500000Y-96800000D03*
G36*
G01*
X99935000Y-116675000D02*
X101185000Y-116675000D01*
G75*
G02*
X101435000Y-116925000I0J-250000D01*
G01*
X101435000Y-117675000D01*
G75*
G02*
X101185000Y-117925000I-250000J0D01*
G01*
X99935000Y-117925000D01*
G75*
G02*
X99685000Y-117675000I0J250000D01*
G01*
X99685000Y-116925000D01*
G75*
G02*
X99935000Y-116675000I250000J0D01*
G01*
G37*
G36*
G01*
X99935000Y-119475000D02*
X101185000Y-119475000D01*
G75*
G02*
X101435000Y-119725000I0J-250000D01*
G01*
X101435000Y-120475000D01*
G75*
G02*
X101185000Y-120725000I-250000J0D01*
G01*
X99935000Y-120725000D01*
G75*
G02*
X99685000Y-120475000I0J250000D01*
G01*
X99685000Y-119725000D01*
G75*
G02*
X99935000Y-119475000I250000J0D01*
G01*
G37*
G36*
G01*
X117625000Y-113468750D02*
X117625000Y-113981250D01*
G75*
G02*
X117406250Y-114200000I-218750J0D01*
G01*
X116968750Y-114200000D01*
G75*
G02*
X116750000Y-113981250I0J218750D01*
G01*
X116750000Y-113468750D01*
G75*
G02*
X116968750Y-113250000I218750J0D01*
G01*
X117406250Y-113250000D01*
G75*
G02*
X117625000Y-113468750I0J-218750D01*
G01*
G37*
G36*
G01*
X116050000Y-113468750D02*
X116050000Y-113981250D01*
G75*
G02*
X115831250Y-114200000I-218750J0D01*
G01*
X115393750Y-114200000D01*
G75*
G02*
X115175000Y-113981250I0J218750D01*
G01*
X115175000Y-113468750D01*
G75*
G02*
X115393750Y-113250000I218750J0D01*
G01*
X115831250Y-113250000D01*
G75*
G02*
X116050000Y-113468750I0J-218750D01*
G01*
G37*
G36*
G01*
X111803750Y-118775000D02*
X112316250Y-118775000D01*
G75*
G02*
X112535000Y-118993750I0J-218750D01*
G01*
X112535000Y-119431250D01*
G75*
G02*
X112316250Y-119650000I-218750J0D01*
G01*
X111803750Y-119650000D01*
G75*
G02*
X111585000Y-119431250I0J218750D01*
G01*
X111585000Y-118993750D01*
G75*
G02*
X111803750Y-118775000I218750J0D01*
G01*
G37*
G36*
G01*
X111803750Y-120350000D02*
X112316250Y-120350000D01*
G75*
G02*
X112535000Y-120568750I0J-218750D01*
G01*
X112535000Y-121006250D01*
G75*
G02*
X112316250Y-121225000I-218750J0D01*
G01*
X111803750Y-121225000D01*
G75*
G02*
X111585000Y-121006250I0J218750D01*
G01*
X111585000Y-120568750D01*
G75*
G02*
X111803750Y-120350000I218750J0D01*
G01*
G37*
D12*
X104130000Y-114610000D03*
X104130000Y-115260000D03*
X104130000Y-115910000D03*
X104130000Y-116560000D03*
X104130000Y-117210000D03*
X104130000Y-117860000D03*
X104130000Y-118510000D03*
X104130000Y-119160000D03*
X104130000Y-119810000D03*
X104130000Y-120460000D03*
X104130000Y-121110000D03*
X104130000Y-121760000D03*
X104130000Y-122410000D03*
X104130000Y-123060000D03*
X109930000Y-123060000D03*
X109930000Y-122410000D03*
X109930000Y-121760000D03*
X109930000Y-121110000D03*
X109930000Y-120460000D03*
X109930000Y-119810000D03*
X109930000Y-119160000D03*
X109930000Y-118510000D03*
X109930000Y-117860000D03*
X109930000Y-117210000D03*
X109930000Y-116560000D03*
X109930000Y-115910000D03*
X109930000Y-115260000D03*
X109930000Y-114610000D03*
G36*
G01*
X112075000Y-114956250D02*
X112075000Y-114443750D01*
G75*
G02*
X112293750Y-114225000I218750J0D01*
G01*
X112731250Y-114225000D01*
G75*
G02*
X112950000Y-114443750I0J-218750D01*
G01*
X112950000Y-114956250D01*
G75*
G02*
X112731250Y-115175000I-218750J0D01*
G01*
X112293750Y-115175000D01*
G75*
G02*
X112075000Y-114956250I0J218750D01*
G01*
G37*
G36*
G01*
X113650000Y-114956250D02*
X113650000Y-114443750D01*
G75*
G02*
X113868750Y-114225000I218750J0D01*
G01*
X114306250Y-114225000D01*
G75*
G02*
X114525000Y-114443750I0J-218750D01*
G01*
X114525000Y-114956250D01*
G75*
G02*
X114306250Y-115175000I-218750J0D01*
G01*
X113868750Y-115175000D01*
G75*
G02*
X113650000Y-114956250I0J218750D01*
G01*
G37*
G36*
G01*
X112075000Y-116456250D02*
X112075000Y-115943750D01*
G75*
G02*
X112293750Y-115725000I218750J0D01*
G01*
X112731250Y-115725000D01*
G75*
G02*
X112950000Y-115943750I0J-218750D01*
G01*
X112950000Y-116456250D01*
G75*
G02*
X112731250Y-116675000I-218750J0D01*
G01*
X112293750Y-116675000D01*
G75*
G02*
X112075000Y-116456250I0J218750D01*
G01*
G37*
G36*
G01*
X113650000Y-116456250D02*
X113650000Y-115943750D01*
G75*
G02*
X113868750Y-115725000I218750J0D01*
G01*
X114306250Y-115725000D01*
G75*
G02*
X114525000Y-115943750I0J-218750D01*
G01*
X114525000Y-116456250D01*
G75*
G02*
X114306250Y-116675000I-218750J0D01*
G01*
X113868750Y-116675000D01*
G75*
G02*
X113650000Y-116456250I0J218750D01*
G01*
G37*
D13*
X107100000Y-108250000D03*
X107100000Y-111550000D03*
G36*
G01*
X111535000Y-123481250D02*
X111535000Y-122968750D01*
G75*
G02*
X111753750Y-122750000I218750J0D01*
G01*
X112191250Y-122750000D01*
G75*
G02*
X112410000Y-122968750I0J-218750D01*
G01*
X112410000Y-123481250D01*
G75*
G02*
X112191250Y-123700000I-218750J0D01*
G01*
X111753750Y-123700000D01*
G75*
G02*
X111535000Y-123481250I0J218750D01*
G01*
G37*
G36*
G01*
X113110000Y-123481250D02*
X113110000Y-122968750D01*
G75*
G02*
X113328750Y-122750000I218750J0D01*
G01*
X113766250Y-122750000D01*
G75*
G02*
X113985000Y-122968750I0J-218750D01*
G01*
X113985000Y-123481250D01*
G75*
G02*
X113766250Y-123700000I-218750J0D01*
G01*
X113328750Y-123700000D01*
G75*
G02*
X113110000Y-123481250I0J218750D01*
G01*
G37*
G36*
G01*
X134482719Y-108600000D02*
X125382717Y-108600000D01*
G75*
G02*
X125132718Y-108350001I0J249999D01*
G01*
X125132718Y-100049999D01*
G75*
G02*
X125382717Y-99800000I249999J0D01*
G01*
X134482719Y-99800000D01*
G75*
G02*
X134732718Y-100049999I0J-249999D01*
G01*
X134732718Y-108350001D01*
G75*
G02*
X134482719Y-108600000I-249999J0D01*
G01*
G37*
G36*
G01*
X134482719Y-95100000D02*
X125382717Y-95100000D01*
G75*
G02*
X125132718Y-94850001I0J249999D01*
G01*
X125132718Y-86549999D01*
G75*
G02*
X125382717Y-86300000I249999J0D01*
G01*
X134482719Y-86300000D01*
G75*
G02*
X134732718Y-86549999I0J-249999D01*
G01*
X134732718Y-94850001D01*
G75*
G02*
X134482719Y-95100000I-249999J0D01*
G01*
G37*
D14*
X118850000Y-115300000D03*
X120750000Y-115300000D03*
X119800000Y-113300000D03*
G36*
G01*
X122093750Y-113075000D02*
X122606250Y-113075000D01*
G75*
G02*
X122825000Y-113293750I0J-218750D01*
G01*
X122825000Y-113731250D01*
G75*
G02*
X122606250Y-113950000I-218750J0D01*
G01*
X122093750Y-113950000D01*
G75*
G02*
X121875000Y-113731250I0J218750D01*
G01*
X121875000Y-113293750D01*
G75*
G02*
X122093750Y-113075000I218750J0D01*
G01*
G37*
G36*
G01*
X122093750Y-114650000D02*
X122606250Y-114650000D01*
G75*
G02*
X122825000Y-114868750I0J-218750D01*
G01*
X122825000Y-115306250D01*
G75*
G02*
X122606250Y-115525000I-218750J0D01*
G01*
X122093750Y-115525000D01*
G75*
G02*
X121875000Y-115306250I0J218750D01*
G01*
X121875000Y-114868750D01*
G75*
G02*
X122093750Y-114650000I218750J0D01*
G01*
G37*
D15*
X143325000Y-112870841D03*
X148875000Y-112870841D03*
X143325000Y-117720841D03*
X148875000Y-117720841D03*
D16*
X143560000Y-124445841D03*
X148640000Y-124445841D03*
G36*
G01*
X135425000Y-123675000D02*
X135425000Y-123925000D01*
G75*
G02*
X135300000Y-124050000I-125000J0D01*
G01*
X134050000Y-124050000D01*
G75*
G02*
X133925000Y-123925000I0J125000D01*
G01*
X133925000Y-123675000D01*
G75*
G02*
X134050000Y-123550000I125000J0D01*
G01*
X135300000Y-123550000D01*
G75*
G02*
X135425000Y-123675000I0J-125000D01*
G01*
G37*
G36*
G01*
X135425000Y-122875000D02*
X135425000Y-123125000D01*
G75*
G02*
X135300000Y-123250000I-125000J0D01*
G01*
X134050000Y-123250000D01*
G75*
G02*
X133925000Y-123125000I0J125000D01*
G01*
X133925000Y-122875000D01*
G75*
G02*
X134050000Y-122750000I125000J0D01*
G01*
X135300000Y-122750000D01*
G75*
G02*
X135425000Y-122875000I0J-125000D01*
G01*
G37*
G36*
G01*
X135425000Y-122075000D02*
X135425000Y-122325000D01*
G75*
G02*
X135300000Y-122450000I-125000J0D01*
G01*
X134050000Y-122450000D01*
G75*
G02*
X133925000Y-122325000I0J125000D01*
G01*
X133925000Y-122075000D01*
G75*
G02*
X134050000Y-121950000I125000J0D01*
G01*
X135300000Y-121950000D01*
G75*
G02*
X135425000Y-122075000I0J-125000D01*
G01*
G37*
G36*
G01*
X135425000Y-121275000D02*
X135425000Y-121525000D01*
G75*
G02*
X135300000Y-121650000I-125000J0D01*
G01*
X134050000Y-121650000D01*
G75*
G02*
X133925000Y-121525000I0J125000D01*
G01*
X133925000Y-121275000D01*
G75*
G02*
X134050000Y-121150000I125000J0D01*
G01*
X135300000Y-121150000D01*
G75*
G02*
X135425000Y-121275000I0J-125000D01*
G01*
G37*
G36*
G01*
X135425000Y-120475000D02*
X135425000Y-120725000D01*
G75*
G02*
X135300000Y-120850000I-125000J0D01*
G01*
X134050000Y-120850000D01*
G75*
G02*
X133925000Y-120725000I0J125000D01*
G01*
X133925000Y-120475000D01*
G75*
G02*
X134050000Y-120350000I125000J0D01*
G01*
X135300000Y-120350000D01*
G75*
G02*
X135425000Y-120475000I0J-125000D01*
G01*
G37*
G36*
G01*
X135425000Y-119675000D02*
X135425000Y-119925000D01*
G75*
G02*
X135300000Y-120050000I-125000J0D01*
G01*
X134050000Y-120050000D01*
G75*
G02*
X133925000Y-119925000I0J125000D01*
G01*
X133925000Y-119675000D01*
G75*
G02*
X134050000Y-119550000I125000J0D01*
G01*
X135300000Y-119550000D01*
G75*
G02*
X135425000Y-119675000I0J-125000D01*
G01*
G37*
G36*
G01*
X135425000Y-118875000D02*
X135425000Y-119125000D01*
G75*
G02*
X135300000Y-119250000I-125000J0D01*
G01*
X134050000Y-119250000D01*
G75*
G02*
X133925000Y-119125000I0J125000D01*
G01*
X133925000Y-118875000D01*
G75*
G02*
X134050000Y-118750000I125000J0D01*
G01*
X135300000Y-118750000D01*
G75*
G02*
X135425000Y-118875000I0J-125000D01*
G01*
G37*
G36*
G01*
X135425000Y-118075000D02*
X135425000Y-118325000D01*
G75*
G02*
X135300000Y-118450000I-125000J0D01*
G01*
X134050000Y-118450000D01*
G75*
G02*
X133925000Y-118325000I0J125000D01*
G01*
X133925000Y-118075000D01*
G75*
G02*
X134050000Y-117950000I125000J0D01*
G01*
X135300000Y-117950000D01*
G75*
G02*
X135425000Y-118075000I0J-125000D01*
G01*
G37*
G36*
G01*
X133550000Y-116200000D02*
X133550000Y-117450000D01*
G75*
G02*
X133425000Y-117575000I-125000J0D01*
G01*
X133175000Y-117575000D01*
G75*
G02*
X133050000Y-117450000I0J125000D01*
G01*
X133050000Y-116200000D01*
G75*
G02*
X133175000Y-116075000I125000J0D01*
G01*
X133425000Y-116075000D01*
G75*
G02*
X133550000Y-116200000I0J-125000D01*
G01*
G37*
G36*
G01*
X132750000Y-116200000D02*
X132750000Y-117450000D01*
G75*
G02*
X132625000Y-117575000I-125000J0D01*
G01*
X132375000Y-117575000D01*
G75*
G02*
X132250000Y-117450000I0J125000D01*
G01*
X132250000Y-116200000D01*
G75*
G02*
X132375000Y-116075000I125000J0D01*
G01*
X132625000Y-116075000D01*
G75*
G02*
X132750000Y-116200000I0J-125000D01*
G01*
G37*
G36*
G01*
X131950000Y-116200000D02*
X131950000Y-117450000D01*
G75*
G02*
X131825000Y-117575000I-125000J0D01*
G01*
X131575000Y-117575000D01*
G75*
G02*
X131450000Y-117450000I0J125000D01*
G01*
X131450000Y-116200000D01*
G75*
G02*
X131575000Y-116075000I125000J0D01*
G01*
X131825000Y-116075000D01*
G75*
G02*
X131950000Y-116200000I0J-125000D01*
G01*
G37*
G36*
G01*
X131150000Y-116200000D02*
X131150000Y-117450000D01*
G75*
G02*
X131025000Y-117575000I-125000J0D01*
G01*
X130775000Y-117575000D01*
G75*
G02*
X130650000Y-117450000I0J125000D01*
G01*
X130650000Y-116200000D01*
G75*
G02*
X130775000Y-116075000I125000J0D01*
G01*
X131025000Y-116075000D01*
G75*
G02*
X131150000Y-116200000I0J-125000D01*
G01*
G37*
G36*
G01*
X130350000Y-116200000D02*
X130350000Y-117450000D01*
G75*
G02*
X130225000Y-117575000I-125000J0D01*
G01*
X129975000Y-117575000D01*
G75*
G02*
X129850000Y-117450000I0J125000D01*
G01*
X129850000Y-116200000D01*
G75*
G02*
X129975000Y-116075000I125000J0D01*
G01*
X130225000Y-116075000D01*
G75*
G02*
X130350000Y-116200000I0J-125000D01*
G01*
G37*
G36*
G01*
X129550000Y-116200000D02*
X129550000Y-117450000D01*
G75*
G02*
X129425000Y-117575000I-125000J0D01*
G01*
X129175000Y-117575000D01*
G75*
G02*
X129050000Y-117450000I0J125000D01*
G01*
X129050000Y-116200000D01*
G75*
G02*
X129175000Y-116075000I125000J0D01*
G01*
X129425000Y-116075000D01*
G75*
G02*
X129550000Y-116200000I0J-125000D01*
G01*
G37*
G36*
G01*
X128750000Y-116200000D02*
X128750000Y-117450000D01*
G75*
G02*
X128625000Y-117575000I-125000J0D01*
G01*
X128375000Y-117575000D01*
G75*
G02*
X128250000Y-117450000I0J125000D01*
G01*
X128250000Y-116200000D01*
G75*
G02*
X128375000Y-116075000I125000J0D01*
G01*
X128625000Y-116075000D01*
G75*
G02*
X128750000Y-116200000I0J-125000D01*
G01*
G37*
G36*
G01*
X127950000Y-116200000D02*
X127950000Y-117450000D01*
G75*
G02*
X127825000Y-117575000I-125000J0D01*
G01*
X127575000Y-117575000D01*
G75*
G02*
X127450000Y-117450000I0J125000D01*
G01*
X127450000Y-116200000D01*
G75*
G02*
X127575000Y-116075000I125000J0D01*
G01*
X127825000Y-116075000D01*
G75*
G02*
X127950000Y-116200000I0J-125000D01*
G01*
G37*
G36*
G01*
X127075000Y-118075000D02*
X127075000Y-118325000D01*
G75*
G02*
X126950000Y-118450000I-125000J0D01*
G01*
X125700000Y-118450000D01*
G75*
G02*
X125575000Y-118325000I0J125000D01*
G01*
X125575000Y-118075000D01*
G75*
G02*
X125700000Y-117950000I125000J0D01*
G01*
X126950000Y-117950000D01*
G75*
G02*
X127075000Y-118075000I0J-125000D01*
G01*
G37*
G36*
G01*
X127075000Y-118875000D02*
X127075000Y-119125000D01*
G75*
G02*
X126950000Y-119250000I-125000J0D01*
G01*
X125700000Y-119250000D01*
G75*
G02*
X125575000Y-119125000I0J125000D01*
G01*
X125575000Y-118875000D01*
G75*
G02*
X125700000Y-118750000I125000J0D01*
G01*
X126950000Y-118750000D01*
G75*
G02*
X127075000Y-118875000I0J-125000D01*
G01*
G37*
G36*
G01*
X127075000Y-119675000D02*
X127075000Y-119925000D01*
G75*
G02*
X126950000Y-120050000I-125000J0D01*
G01*
X125700000Y-120050000D01*
G75*
G02*
X125575000Y-119925000I0J125000D01*
G01*
X125575000Y-119675000D01*
G75*
G02*
X125700000Y-119550000I125000J0D01*
G01*
X126950000Y-119550000D01*
G75*
G02*
X127075000Y-119675000I0J-125000D01*
G01*
G37*
G36*
G01*
X127075000Y-120475000D02*
X127075000Y-120725000D01*
G75*
G02*
X126950000Y-120850000I-125000J0D01*
G01*
X125700000Y-120850000D01*
G75*
G02*
X125575000Y-120725000I0J125000D01*
G01*
X125575000Y-120475000D01*
G75*
G02*
X125700000Y-120350000I125000J0D01*
G01*
X126950000Y-120350000D01*
G75*
G02*
X127075000Y-120475000I0J-125000D01*
G01*
G37*
G36*
G01*
X127075000Y-121275000D02*
X127075000Y-121525000D01*
G75*
G02*
X126950000Y-121650000I-125000J0D01*
G01*
X125700000Y-121650000D01*
G75*
G02*
X125575000Y-121525000I0J125000D01*
G01*
X125575000Y-121275000D01*
G75*
G02*
X125700000Y-121150000I125000J0D01*
G01*
X126950000Y-121150000D01*
G75*
G02*
X127075000Y-121275000I0J-125000D01*
G01*
G37*
G36*
G01*
X127075000Y-122075000D02*
X127075000Y-122325000D01*
G75*
G02*
X126950000Y-122450000I-125000J0D01*
G01*
X125700000Y-122450000D01*
G75*
G02*
X125575000Y-122325000I0J125000D01*
G01*
X125575000Y-122075000D01*
G75*
G02*
X125700000Y-121950000I125000J0D01*
G01*
X126950000Y-121950000D01*
G75*
G02*
X127075000Y-122075000I0J-125000D01*
G01*
G37*
G36*
G01*
X127075000Y-122875000D02*
X127075000Y-123125000D01*
G75*
G02*
X126950000Y-123250000I-125000J0D01*
G01*
X125700000Y-123250000D01*
G75*
G02*
X125575000Y-123125000I0J125000D01*
G01*
X125575000Y-122875000D01*
G75*
G02*
X125700000Y-122750000I125000J0D01*
G01*
X126950000Y-122750000D01*
G75*
G02*
X127075000Y-122875000I0J-125000D01*
G01*
G37*
G36*
G01*
X127075000Y-123675000D02*
X127075000Y-123925000D01*
G75*
G02*
X126950000Y-124050000I-125000J0D01*
G01*
X125700000Y-124050000D01*
G75*
G02*
X125575000Y-123925000I0J125000D01*
G01*
X125575000Y-123675000D01*
G75*
G02*
X125700000Y-123550000I125000J0D01*
G01*
X126950000Y-123550000D01*
G75*
G02*
X127075000Y-123675000I0J-125000D01*
G01*
G37*
G36*
G01*
X127950000Y-124550000D02*
X127950000Y-125800000D01*
G75*
G02*
X127825000Y-125925000I-125000J0D01*
G01*
X127575000Y-125925000D01*
G75*
G02*
X127450000Y-125800000I0J125000D01*
G01*
X127450000Y-124550000D01*
G75*
G02*
X127575000Y-124425000I125000J0D01*
G01*
X127825000Y-124425000D01*
G75*
G02*
X127950000Y-124550000I0J-125000D01*
G01*
G37*
G36*
G01*
X128750000Y-124550000D02*
X128750000Y-125800000D01*
G75*
G02*
X128625000Y-125925000I-125000J0D01*
G01*
X128375000Y-125925000D01*
G75*
G02*
X128250000Y-125800000I0J125000D01*
G01*
X128250000Y-124550000D01*
G75*
G02*
X128375000Y-124425000I125000J0D01*
G01*
X128625000Y-124425000D01*
G75*
G02*
X128750000Y-124550000I0J-125000D01*
G01*
G37*
G36*
G01*
X129550000Y-124550000D02*
X129550000Y-125800000D01*
G75*
G02*
X129425000Y-125925000I-125000J0D01*
G01*
X129175000Y-125925000D01*
G75*
G02*
X129050000Y-125800000I0J125000D01*
G01*
X129050000Y-124550000D01*
G75*
G02*
X129175000Y-124425000I125000J0D01*
G01*
X129425000Y-124425000D01*
G75*
G02*
X129550000Y-124550000I0J-125000D01*
G01*
G37*
G36*
G01*
X130350000Y-124550000D02*
X130350000Y-125800000D01*
G75*
G02*
X130225000Y-125925000I-125000J0D01*
G01*
X129975000Y-125925000D01*
G75*
G02*
X129850000Y-125800000I0J125000D01*
G01*
X129850000Y-124550000D01*
G75*
G02*
X129975000Y-124425000I125000J0D01*
G01*
X130225000Y-124425000D01*
G75*
G02*
X130350000Y-124550000I0J-125000D01*
G01*
G37*
G36*
G01*
X131150000Y-124550000D02*
X131150000Y-125800000D01*
G75*
G02*
X131025000Y-125925000I-125000J0D01*
G01*
X130775000Y-125925000D01*
G75*
G02*
X130650000Y-125800000I0J125000D01*
G01*
X130650000Y-124550000D01*
G75*
G02*
X130775000Y-124425000I125000J0D01*
G01*
X131025000Y-124425000D01*
G75*
G02*
X131150000Y-124550000I0J-125000D01*
G01*
G37*
G36*
G01*
X131950000Y-124550000D02*
X131950000Y-125800000D01*
G75*
G02*
X131825000Y-125925000I-125000J0D01*
G01*
X131575000Y-125925000D01*
G75*
G02*
X131450000Y-125800000I0J125000D01*
G01*
X131450000Y-124550000D01*
G75*
G02*
X131575000Y-124425000I125000J0D01*
G01*
X131825000Y-124425000D01*
G75*
G02*
X131950000Y-124550000I0J-125000D01*
G01*
G37*
G36*
G01*
X132750000Y-124550000D02*
X132750000Y-125800000D01*
G75*
G02*
X132625000Y-125925000I-125000J0D01*
G01*
X132375000Y-125925000D01*
G75*
G02*
X132250000Y-125800000I0J125000D01*
G01*
X132250000Y-124550000D01*
G75*
G02*
X132375000Y-124425000I125000J0D01*
G01*
X132625000Y-124425000D01*
G75*
G02*
X132750000Y-124550000I0J-125000D01*
G01*
G37*
G36*
G01*
X133550000Y-124550000D02*
X133550000Y-125800000D01*
G75*
G02*
X133425000Y-125925000I-125000J0D01*
G01*
X133175000Y-125925000D01*
G75*
G02*
X133050000Y-125800000I0J125000D01*
G01*
X133050000Y-124550000D01*
G75*
G02*
X133175000Y-124425000I125000J0D01*
G01*
X133425000Y-124425000D01*
G75*
G02*
X133550000Y-124550000I0J-125000D01*
G01*
G37*
G36*
G01*
X136756250Y-120725000D02*
X136243750Y-120725000D01*
G75*
G02*
X136025000Y-120506250I0J218750D01*
G01*
X136025000Y-120068750D01*
G75*
G02*
X136243750Y-119850000I218750J0D01*
G01*
X136756250Y-119850000D01*
G75*
G02*
X136975000Y-120068750I0J-218750D01*
G01*
X136975000Y-120506250D01*
G75*
G02*
X136756250Y-120725000I-218750J0D01*
G01*
G37*
G36*
G01*
X136756250Y-119150000D02*
X136243750Y-119150000D01*
G75*
G02*
X136025000Y-118931250I0J218750D01*
G01*
X136025000Y-118493750D01*
G75*
G02*
X136243750Y-118275000I218750J0D01*
G01*
X136756250Y-118275000D01*
G75*
G02*
X136975000Y-118493750I0J-218750D01*
G01*
X136975000Y-118931250D01*
G75*
G02*
X136756250Y-119150000I-218750J0D01*
G01*
G37*
G36*
G01*
X136756250Y-124125000D02*
X136243750Y-124125000D01*
G75*
G02*
X136025000Y-123906250I0J218750D01*
G01*
X136025000Y-123468750D01*
G75*
G02*
X136243750Y-123250000I218750J0D01*
G01*
X136756250Y-123250000D01*
G75*
G02*
X136975000Y-123468750I0J-218750D01*
G01*
X136975000Y-123906250D01*
G75*
G02*
X136756250Y-124125000I-218750J0D01*
G01*
G37*
G36*
G01*
X136756250Y-122550000D02*
X136243750Y-122550000D01*
G75*
G02*
X136025000Y-122331250I0J218750D01*
G01*
X136025000Y-121893750D01*
G75*
G02*
X136243750Y-121675000I218750J0D01*
G01*
X136756250Y-121675000D01*
G75*
G02*
X136975000Y-121893750I0J-218750D01*
G01*
X136975000Y-122331250D01*
G75*
G02*
X136756250Y-122550000I-218750J0D01*
G01*
G37*
G36*
G01*
X124943750Y-72175000D02*
X125456250Y-72175000D01*
G75*
G02*
X125675000Y-72393750I0J-218750D01*
G01*
X125675000Y-72831250D01*
G75*
G02*
X125456250Y-73050000I-218750J0D01*
G01*
X124943750Y-73050000D01*
G75*
G02*
X124725000Y-72831250I0J218750D01*
G01*
X124725000Y-72393750D01*
G75*
G02*
X124943750Y-72175000I218750J0D01*
G01*
G37*
G36*
G01*
X124943750Y-73750000D02*
X125456250Y-73750000D01*
G75*
G02*
X125675000Y-73968750I0J-218750D01*
G01*
X125675000Y-74406250D01*
G75*
G02*
X125456250Y-74625000I-218750J0D01*
G01*
X124943750Y-74625000D01*
G75*
G02*
X124725000Y-74406250I0J218750D01*
G01*
X124725000Y-73968750D01*
G75*
G02*
X124943750Y-73750000I218750J0D01*
G01*
G37*
G36*
G01*
X149675000Y-65843750D02*
X149675000Y-66356250D01*
G75*
G02*
X149456250Y-66575000I-218750J0D01*
G01*
X149018750Y-66575000D01*
G75*
G02*
X148800000Y-66356250I0J218750D01*
G01*
X148800000Y-65843750D01*
G75*
G02*
X149018750Y-65625000I218750J0D01*
G01*
X149456250Y-65625000D01*
G75*
G02*
X149675000Y-65843750I0J-218750D01*
G01*
G37*
G36*
G01*
X148100000Y-65843750D02*
X148100000Y-66356250D01*
G75*
G02*
X147881250Y-66575000I-218750J0D01*
G01*
X147443750Y-66575000D01*
G75*
G02*
X147225000Y-66356250I0J218750D01*
G01*
X147225000Y-65843750D01*
G75*
G02*
X147443750Y-65625000I218750J0D01*
G01*
X147881250Y-65625000D01*
G75*
G02*
X148100000Y-65843750I0J-218750D01*
G01*
G37*
G36*
G01*
X154725000Y-81606250D02*
X154725000Y-81093750D01*
G75*
G02*
X154943750Y-80875000I218750J0D01*
G01*
X155381250Y-80875000D01*
G75*
G02*
X155600000Y-81093750I0J-218750D01*
G01*
X155600000Y-81606250D01*
G75*
G02*
X155381250Y-81825000I-218750J0D01*
G01*
X154943750Y-81825000D01*
G75*
G02*
X154725000Y-81606250I0J218750D01*
G01*
G37*
G36*
G01*
X156300000Y-81606250D02*
X156300000Y-81093750D01*
G75*
G02*
X156518750Y-80875000I218750J0D01*
G01*
X156956250Y-80875000D01*
G75*
G02*
X157175000Y-81093750I0J-218750D01*
G01*
X157175000Y-81606250D01*
G75*
G02*
X156956250Y-81825000I-218750J0D01*
G01*
X156518750Y-81825000D01*
G75*
G02*
X156300000Y-81606250I0J218750D01*
G01*
G37*
G36*
G01*
X154915000Y-67856250D02*
X154915000Y-67343750D01*
G75*
G02*
X155133750Y-67125000I218750J0D01*
G01*
X155571250Y-67125000D01*
G75*
G02*
X155790000Y-67343750I0J-218750D01*
G01*
X155790000Y-67856250D01*
G75*
G02*
X155571250Y-68075000I-218750J0D01*
G01*
X155133750Y-68075000D01*
G75*
G02*
X154915000Y-67856250I0J218750D01*
G01*
G37*
G36*
G01*
X156490000Y-67856250D02*
X156490000Y-67343750D01*
G75*
G02*
X156708750Y-67125000I218750J0D01*
G01*
X157146250Y-67125000D01*
G75*
G02*
X157365000Y-67343750I0J-218750D01*
G01*
X157365000Y-67856250D01*
G75*
G02*
X157146250Y-68075000I-218750J0D01*
G01*
X156708750Y-68075000D01*
G75*
G02*
X156490000Y-67856250I0J218750D01*
G01*
G37*
G36*
G01*
X154725000Y-83106250D02*
X154725000Y-82593750D01*
G75*
G02*
X154943750Y-82375000I218750J0D01*
G01*
X155381250Y-82375000D01*
G75*
G02*
X155600000Y-82593750I0J-218750D01*
G01*
X155600000Y-83106250D01*
G75*
G02*
X155381250Y-83325000I-218750J0D01*
G01*
X154943750Y-83325000D01*
G75*
G02*
X154725000Y-83106250I0J218750D01*
G01*
G37*
G36*
G01*
X156300000Y-83106250D02*
X156300000Y-82593750D01*
G75*
G02*
X156518750Y-82375000I218750J0D01*
G01*
X156956250Y-82375000D01*
G75*
G02*
X157175000Y-82593750I0J-218750D01*
G01*
X157175000Y-83106250D01*
G75*
G02*
X156956250Y-83325000I-218750J0D01*
G01*
X156518750Y-83325000D01*
G75*
G02*
X156300000Y-83106250I0J218750D01*
G01*
G37*
G36*
G01*
X156495000Y-68925000D02*
X156795000Y-68925000D01*
G75*
G02*
X156945000Y-69075000I0J-150000D01*
G01*
X156945000Y-70825000D01*
G75*
G02*
X156795000Y-70975000I-150000J0D01*
G01*
X156495000Y-70975000D01*
G75*
G02*
X156345000Y-70825000I0J150000D01*
G01*
X156345000Y-69075000D01*
G75*
G02*
X156495000Y-68925000I150000J0D01*
G01*
G37*
G36*
G01*
X155225000Y-68925000D02*
X155525000Y-68925000D01*
G75*
G02*
X155675000Y-69075000I0J-150000D01*
G01*
X155675000Y-70825000D01*
G75*
G02*
X155525000Y-70975000I-150000J0D01*
G01*
X155225000Y-70975000D01*
G75*
G02*
X155075000Y-70825000I0J150000D01*
G01*
X155075000Y-69075000D01*
G75*
G02*
X155225000Y-68925000I150000J0D01*
G01*
G37*
G36*
G01*
X153955000Y-68925000D02*
X154255000Y-68925000D01*
G75*
G02*
X154405000Y-69075000I0J-150000D01*
G01*
X154405000Y-70825000D01*
G75*
G02*
X154255000Y-70975000I-150000J0D01*
G01*
X153955000Y-70975000D01*
G75*
G02*
X153805000Y-70825000I0J150000D01*
G01*
X153805000Y-69075000D01*
G75*
G02*
X153955000Y-68925000I150000J0D01*
G01*
G37*
G36*
G01*
X152685000Y-68925000D02*
X152985000Y-68925000D01*
G75*
G02*
X153135000Y-69075000I0J-150000D01*
G01*
X153135000Y-70825000D01*
G75*
G02*
X152985000Y-70975000I-150000J0D01*
G01*
X152685000Y-70975000D01*
G75*
G02*
X152535000Y-70825000I0J150000D01*
G01*
X152535000Y-69075000D01*
G75*
G02*
X152685000Y-68925000I150000J0D01*
G01*
G37*
G36*
G01*
X151415000Y-68925000D02*
X151715000Y-68925000D01*
G75*
G02*
X151865000Y-69075000I0J-150000D01*
G01*
X151865000Y-70825000D01*
G75*
G02*
X151715000Y-70975000I-150000J0D01*
G01*
X151415000Y-70975000D01*
G75*
G02*
X151265000Y-70825000I0J150000D01*
G01*
X151265000Y-69075000D01*
G75*
G02*
X151415000Y-68925000I150000J0D01*
G01*
G37*
G36*
G01*
X150145000Y-68925000D02*
X150445000Y-68925000D01*
G75*
G02*
X150595000Y-69075000I0J-150000D01*
G01*
X150595000Y-70825000D01*
G75*
G02*
X150445000Y-70975000I-150000J0D01*
G01*
X150145000Y-70975000D01*
G75*
G02*
X149995000Y-70825000I0J150000D01*
G01*
X149995000Y-69075000D01*
G75*
G02*
X150145000Y-68925000I150000J0D01*
G01*
G37*
G36*
G01*
X148875000Y-68925000D02*
X149175000Y-68925000D01*
G75*
G02*
X149325000Y-69075000I0J-150000D01*
G01*
X149325000Y-70825000D01*
G75*
G02*
X149175000Y-70975000I-150000J0D01*
G01*
X148875000Y-70975000D01*
G75*
G02*
X148725000Y-70825000I0J150000D01*
G01*
X148725000Y-69075000D01*
G75*
G02*
X148875000Y-68925000I150000J0D01*
G01*
G37*
G36*
G01*
X147605000Y-68925000D02*
X147905000Y-68925000D01*
G75*
G02*
X148055000Y-69075000I0J-150000D01*
G01*
X148055000Y-70825000D01*
G75*
G02*
X147905000Y-70975000I-150000J0D01*
G01*
X147605000Y-70975000D01*
G75*
G02*
X147455000Y-70825000I0J150000D01*
G01*
X147455000Y-69075000D01*
G75*
G02*
X147605000Y-68925000I150000J0D01*
G01*
G37*
G36*
G01*
X147605000Y-78225000D02*
X147905000Y-78225000D01*
G75*
G02*
X148055000Y-78375000I0J-150000D01*
G01*
X148055000Y-80125000D01*
G75*
G02*
X147905000Y-80275000I-150000J0D01*
G01*
X147605000Y-80275000D01*
G75*
G02*
X147455000Y-80125000I0J150000D01*
G01*
X147455000Y-78375000D01*
G75*
G02*
X147605000Y-78225000I150000J0D01*
G01*
G37*
G36*
G01*
X148875000Y-78225000D02*
X149175000Y-78225000D01*
G75*
G02*
X149325000Y-78375000I0J-150000D01*
G01*
X149325000Y-80125000D01*
G75*
G02*
X149175000Y-80275000I-150000J0D01*
G01*
X148875000Y-80275000D01*
G75*
G02*
X148725000Y-80125000I0J150000D01*
G01*
X148725000Y-78375000D01*
G75*
G02*
X148875000Y-78225000I150000J0D01*
G01*
G37*
G36*
G01*
X150145000Y-78225000D02*
X150445000Y-78225000D01*
G75*
G02*
X150595000Y-78375000I0J-150000D01*
G01*
X150595000Y-80125000D01*
G75*
G02*
X150445000Y-80275000I-150000J0D01*
G01*
X150145000Y-80275000D01*
G75*
G02*
X149995000Y-80125000I0J150000D01*
G01*
X149995000Y-78375000D01*
G75*
G02*
X150145000Y-78225000I150000J0D01*
G01*
G37*
G36*
G01*
X151415000Y-78225000D02*
X151715000Y-78225000D01*
G75*
G02*
X151865000Y-78375000I0J-150000D01*
G01*
X151865000Y-80125000D01*
G75*
G02*
X151715000Y-80275000I-150000J0D01*
G01*
X151415000Y-80275000D01*
G75*
G02*
X151265000Y-80125000I0J150000D01*
G01*
X151265000Y-78375000D01*
G75*
G02*
X151415000Y-78225000I150000J0D01*
G01*
G37*
G36*
G01*
X152685000Y-78225000D02*
X152985000Y-78225000D01*
G75*
G02*
X153135000Y-78375000I0J-150000D01*
G01*
X153135000Y-80125000D01*
G75*
G02*
X152985000Y-80275000I-150000J0D01*
G01*
X152685000Y-80275000D01*
G75*
G02*
X152535000Y-80125000I0J150000D01*
G01*
X152535000Y-78375000D01*
G75*
G02*
X152685000Y-78225000I150000J0D01*
G01*
G37*
G36*
G01*
X153955000Y-78225000D02*
X154255000Y-78225000D01*
G75*
G02*
X154405000Y-78375000I0J-150000D01*
G01*
X154405000Y-80125000D01*
G75*
G02*
X154255000Y-80275000I-150000J0D01*
G01*
X153955000Y-80275000D01*
G75*
G02*
X153805000Y-80125000I0J150000D01*
G01*
X153805000Y-78375000D01*
G75*
G02*
X153955000Y-78225000I150000J0D01*
G01*
G37*
G36*
G01*
X155225000Y-78225000D02*
X155525000Y-78225000D01*
G75*
G02*
X155675000Y-78375000I0J-150000D01*
G01*
X155675000Y-80125000D01*
G75*
G02*
X155525000Y-80275000I-150000J0D01*
G01*
X155225000Y-80275000D01*
G75*
G02*
X155075000Y-80125000I0J150000D01*
G01*
X155075000Y-78375000D01*
G75*
G02*
X155225000Y-78225000I150000J0D01*
G01*
G37*
G36*
G01*
X156495000Y-78225000D02*
X156795000Y-78225000D01*
G75*
G02*
X156945000Y-78375000I0J-150000D01*
G01*
X156945000Y-80125000D01*
G75*
G02*
X156795000Y-80275000I-150000J0D01*
G01*
X156495000Y-80275000D01*
G75*
G02*
X156345000Y-80125000I0J150000D01*
G01*
X156345000Y-78375000D01*
G75*
G02*
X156495000Y-78225000I150000J0D01*
G01*
G37*
G36*
G01*
X149675000Y-82593750D02*
X149675000Y-83106250D01*
G75*
G02*
X149456250Y-83325000I-218750J0D01*
G01*
X149018750Y-83325000D01*
G75*
G02*
X148800000Y-83106250I0J218750D01*
G01*
X148800000Y-82593750D01*
G75*
G02*
X149018750Y-82375000I218750J0D01*
G01*
X149456250Y-82375000D01*
G75*
G02*
X149675000Y-82593750I0J-218750D01*
G01*
G37*
G36*
G01*
X148100000Y-82593750D02*
X148100000Y-83106250D01*
G75*
G02*
X147881250Y-83325000I-218750J0D01*
G01*
X147443750Y-83325000D01*
G75*
G02*
X147225000Y-83106250I0J218750D01*
G01*
X147225000Y-82593750D01*
G75*
G02*
X147443750Y-82375000I218750J0D01*
G01*
X147881250Y-82375000D01*
G75*
G02*
X148100000Y-82593750I0J-218750D01*
G01*
G37*
G36*
G01*
X154915000Y-66356250D02*
X154915000Y-65843750D01*
G75*
G02*
X155133750Y-65625000I218750J0D01*
G01*
X155571250Y-65625000D01*
G75*
G02*
X155790000Y-65843750I0J-218750D01*
G01*
X155790000Y-66356250D01*
G75*
G02*
X155571250Y-66575000I-218750J0D01*
G01*
X155133750Y-66575000D01*
G75*
G02*
X154915000Y-66356250I0J218750D01*
G01*
G37*
G36*
G01*
X156490000Y-66356250D02*
X156490000Y-65843750D01*
G75*
G02*
X156708750Y-65625000I218750J0D01*
G01*
X157146250Y-65625000D01*
G75*
G02*
X157365000Y-65843750I0J-218750D01*
G01*
X157365000Y-66356250D01*
G75*
G02*
X157146250Y-66575000I-218750J0D01*
G01*
X156708750Y-66575000D01*
G75*
G02*
X156490000Y-66356250I0J218750D01*
G01*
G37*
G36*
G01*
X149675000Y-67343750D02*
X149675000Y-67856250D01*
G75*
G02*
X149456250Y-68075000I-218750J0D01*
G01*
X149018750Y-68075000D01*
G75*
G02*
X148800000Y-67856250I0J218750D01*
G01*
X148800000Y-67343750D01*
G75*
G02*
X149018750Y-67125000I218750J0D01*
G01*
X149456250Y-67125000D01*
G75*
G02*
X149675000Y-67343750I0J-218750D01*
G01*
G37*
G36*
G01*
X148100000Y-67343750D02*
X148100000Y-67856250D01*
G75*
G02*
X147881250Y-68075000I-218750J0D01*
G01*
X147443750Y-68075000D01*
G75*
G02*
X147225000Y-67856250I0J218750D01*
G01*
X147225000Y-67343750D01*
G75*
G02*
X147443750Y-67125000I218750J0D01*
G01*
X147881250Y-67125000D01*
G75*
G02*
X148100000Y-67343750I0J-218750D01*
G01*
G37*
G36*
G01*
X135843750Y-113275000D02*
X136356250Y-113275000D01*
G75*
G02*
X136575000Y-113493750I0J-218750D01*
G01*
X136575000Y-113931250D01*
G75*
G02*
X136356250Y-114150000I-218750J0D01*
G01*
X135843750Y-114150000D01*
G75*
G02*
X135625000Y-113931250I0J218750D01*
G01*
X135625000Y-113493750D01*
G75*
G02*
X135843750Y-113275000I218750J0D01*
G01*
G37*
G36*
G01*
X135843750Y-114850000D02*
X136356250Y-114850000D01*
G75*
G02*
X136575000Y-115068750I0J-218750D01*
G01*
X136575000Y-115506250D01*
G75*
G02*
X136356250Y-115725000I-218750J0D01*
G01*
X135843750Y-115725000D01*
G75*
G02*
X135625000Y-115506250I0J218750D01*
G01*
X135625000Y-115068750D01*
G75*
G02*
X135843750Y-114850000I218750J0D01*
G01*
G37*
G36*
G01*
X142575000Y-74406250D02*
X142575000Y-73893750D01*
G75*
G02*
X142793750Y-73675000I218750J0D01*
G01*
X143231250Y-73675000D01*
G75*
G02*
X143450000Y-73893750I0J-218750D01*
G01*
X143450000Y-74406250D01*
G75*
G02*
X143231250Y-74625000I-218750J0D01*
G01*
X142793750Y-74625000D01*
G75*
G02*
X142575000Y-74406250I0J218750D01*
G01*
G37*
G36*
G01*
X144150000Y-74406250D02*
X144150000Y-73893750D01*
G75*
G02*
X144368750Y-73675000I218750J0D01*
G01*
X144806250Y-73675000D01*
G75*
G02*
X145025000Y-73893750I0J-218750D01*
G01*
X145025000Y-74406250D01*
G75*
G02*
X144806250Y-74625000I-218750J0D01*
G01*
X144368750Y-74625000D01*
G75*
G02*
X144150000Y-74406250I0J218750D01*
G01*
G37*
G36*
G01*
X131775000Y-63756250D02*
X131775000Y-63243750D01*
G75*
G02*
X131993750Y-63025000I218750J0D01*
G01*
X132431250Y-63025000D01*
G75*
G02*
X132650000Y-63243750I0J-218750D01*
G01*
X132650000Y-63756250D01*
G75*
G02*
X132431250Y-63975000I-218750J0D01*
G01*
X131993750Y-63975000D01*
G75*
G02*
X131775000Y-63756250I0J218750D01*
G01*
G37*
G36*
G01*
X133350000Y-63756250D02*
X133350000Y-63243750D01*
G75*
G02*
X133568750Y-63025000I218750J0D01*
G01*
X134006250Y-63025000D01*
G75*
G02*
X134225000Y-63243750I0J-218750D01*
G01*
X134225000Y-63756250D01*
G75*
G02*
X134006250Y-63975000I-218750J0D01*
G01*
X133568750Y-63975000D01*
G75*
G02*
X133350000Y-63756250I0J218750D01*
G01*
G37*
G36*
G01*
X134775000Y-60406250D02*
X134775000Y-59893750D01*
G75*
G02*
X134993750Y-59675000I218750J0D01*
G01*
X135431250Y-59675000D01*
G75*
G02*
X135650000Y-59893750I0J-218750D01*
G01*
X135650000Y-60406250D01*
G75*
G02*
X135431250Y-60625000I-218750J0D01*
G01*
X134993750Y-60625000D01*
G75*
G02*
X134775000Y-60406250I0J218750D01*
G01*
G37*
G36*
G01*
X136350000Y-60406250D02*
X136350000Y-59893750D01*
G75*
G02*
X136568750Y-59675000I218750J0D01*
G01*
X137006250Y-59675000D01*
G75*
G02*
X137225000Y-59893750I0J-218750D01*
G01*
X137225000Y-60406250D01*
G75*
G02*
X137006250Y-60625000I-218750J0D01*
G01*
X136568750Y-60625000D01*
G75*
G02*
X136350000Y-60406250I0J218750D01*
G01*
G37*
G36*
G01*
X130793750Y-78425000D02*
X131306250Y-78425000D01*
G75*
G02*
X131525000Y-78643750I0J-218750D01*
G01*
X131525000Y-79081250D01*
G75*
G02*
X131306250Y-79300000I-218750J0D01*
G01*
X130793750Y-79300000D01*
G75*
G02*
X130575000Y-79081250I0J218750D01*
G01*
X130575000Y-78643750D01*
G75*
G02*
X130793750Y-78425000I218750J0D01*
G01*
G37*
G36*
G01*
X130793750Y-80000000D02*
X131306250Y-80000000D01*
G75*
G02*
X131525000Y-80218750I0J-218750D01*
G01*
X131525000Y-80656250D01*
G75*
G02*
X131306250Y-80875000I-218750J0D01*
G01*
X130793750Y-80875000D01*
G75*
G02*
X130575000Y-80656250I0J218750D01*
G01*
X130575000Y-80218750D01*
G75*
G02*
X130793750Y-80000000I218750J0D01*
G01*
G37*
G36*
G01*
X140825000Y-72906250D02*
X140825000Y-72393750D01*
G75*
G02*
X141043750Y-72175000I218750J0D01*
G01*
X141481250Y-72175000D01*
G75*
G02*
X141700000Y-72393750I0J-218750D01*
G01*
X141700000Y-72906250D01*
G75*
G02*
X141481250Y-73125000I-218750J0D01*
G01*
X141043750Y-73125000D01*
G75*
G02*
X140825000Y-72906250I0J218750D01*
G01*
G37*
G36*
G01*
X142400000Y-72906250D02*
X142400000Y-72393750D01*
G75*
G02*
X142618750Y-72175000I218750J0D01*
G01*
X143056250Y-72175000D01*
G75*
G02*
X143275000Y-72393750I0J-218750D01*
G01*
X143275000Y-72906250D01*
G75*
G02*
X143056250Y-73125000I-218750J0D01*
G01*
X142618750Y-73125000D01*
G75*
G02*
X142400000Y-72906250I0J218750D01*
G01*
G37*
G36*
G01*
X129293750Y-78425000D02*
X129806250Y-78425000D01*
G75*
G02*
X130025000Y-78643750I0J-218750D01*
G01*
X130025000Y-79081250D01*
G75*
G02*
X129806250Y-79300000I-218750J0D01*
G01*
X129293750Y-79300000D01*
G75*
G02*
X129075000Y-79081250I0J218750D01*
G01*
X129075000Y-78643750D01*
G75*
G02*
X129293750Y-78425000I218750J0D01*
G01*
G37*
G36*
G01*
X129293750Y-80000000D02*
X129806250Y-80000000D01*
G75*
G02*
X130025000Y-80218750I0J-218750D01*
G01*
X130025000Y-80656250D01*
G75*
G02*
X129806250Y-80875000I-218750J0D01*
G01*
X129293750Y-80875000D01*
G75*
G02*
X129075000Y-80656250I0J218750D01*
G01*
X129075000Y-80218750D01*
G75*
G02*
X129293750Y-80000000I218750J0D01*
G01*
G37*
G36*
G01*
X142575000Y-77443750D02*
X142575000Y-76931250D01*
G75*
G02*
X142793750Y-76712500I218750J0D01*
G01*
X143231250Y-76712500D01*
G75*
G02*
X143450000Y-76931250I0J-218750D01*
G01*
X143450000Y-77443750D01*
G75*
G02*
X143231250Y-77662500I-218750J0D01*
G01*
X142793750Y-77662500D01*
G75*
G02*
X142575000Y-77443750I0J218750D01*
G01*
G37*
G36*
G01*
X144150000Y-77443750D02*
X144150000Y-76931250D01*
G75*
G02*
X144368750Y-76712500I218750J0D01*
G01*
X144806250Y-76712500D01*
G75*
G02*
X145025000Y-76931250I0J-218750D01*
G01*
X145025000Y-77443750D01*
G75*
G02*
X144806250Y-77662500I-218750J0D01*
G01*
X144368750Y-77662500D01*
G75*
G02*
X144150000Y-77443750I0J218750D01*
G01*
G37*
G36*
G01*
X142810000Y-66793750D02*
X142810000Y-67306250D01*
G75*
G02*
X142591250Y-67525000I-218750J0D01*
G01*
X142153750Y-67525000D01*
G75*
G02*
X141935000Y-67306250I0J218750D01*
G01*
X141935000Y-66793750D01*
G75*
G02*
X142153750Y-66575000I218750J0D01*
G01*
X142591250Y-66575000D01*
G75*
G02*
X142810000Y-66793750I0J-218750D01*
G01*
G37*
G36*
G01*
X141235000Y-66793750D02*
X141235000Y-67306250D01*
G75*
G02*
X141016250Y-67525000I-218750J0D01*
G01*
X140578750Y-67525000D01*
G75*
G02*
X140360000Y-67306250I0J218750D01*
G01*
X140360000Y-66793750D01*
G75*
G02*
X140578750Y-66575000I218750J0D01*
G01*
X141016250Y-66575000D01*
G75*
G02*
X141235000Y-66793750I0J-218750D01*
G01*
G37*
G36*
G01*
X140325000Y-71406250D02*
X140325000Y-70893750D01*
G75*
G02*
X140543750Y-70675000I218750J0D01*
G01*
X140981250Y-70675000D01*
G75*
G02*
X141200000Y-70893750I0J-218750D01*
G01*
X141200000Y-71406250D01*
G75*
G02*
X140981250Y-71625000I-218750J0D01*
G01*
X140543750Y-71625000D01*
G75*
G02*
X140325000Y-71406250I0J218750D01*
G01*
G37*
G36*
G01*
X141900000Y-71406250D02*
X141900000Y-70893750D01*
G75*
G02*
X142118750Y-70675000I218750J0D01*
G01*
X142556250Y-70675000D01*
G75*
G02*
X142775000Y-70893750I0J-218750D01*
G01*
X142775000Y-71406250D01*
G75*
G02*
X142556250Y-71625000I-218750J0D01*
G01*
X142118750Y-71625000D01*
G75*
G02*
X141900000Y-71406250I0J218750D01*
G01*
G37*
G36*
G01*
X133306250Y-84175000D02*
X132793750Y-84175000D01*
G75*
G02*
X132575000Y-83956250I0J218750D01*
G01*
X132575000Y-83518750D01*
G75*
G02*
X132793750Y-83300000I218750J0D01*
G01*
X133306250Y-83300000D01*
G75*
G02*
X133525000Y-83518750I0J-218750D01*
G01*
X133525000Y-83956250D01*
G75*
G02*
X133306250Y-84175000I-218750J0D01*
G01*
G37*
G36*
G01*
X133306250Y-82600000D02*
X132793750Y-82600000D01*
G75*
G02*
X132575000Y-82381250I0J218750D01*
G01*
X132575000Y-81943750D01*
G75*
G02*
X132793750Y-81725000I218750J0D01*
G01*
X133306250Y-81725000D01*
G75*
G02*
X133525000Y-81943750I0J-218750D01*
G01*
X133525000Y-82381250D01*
G75*
G02*
X133306250Y-82600000I-218750J0D01*
G01*
G37*
G36*
G01*
X139775000Y-71093750D02*
X139775000Y-71606250D01*
G75*
G02*
X139556250Y-71825000I-218750J0D01*
G01*
X139118750Y-71825000D01*
G75*
G02*
X138900000Y-71606250I0J218750D01*
G01*
X138900000Y-71093750D01*
G75*
G02*
X139118750Y-70875000I218750J0D01*
G01*
X139556250Y-70875000D01*
G75*
G02*
X139775000Y-71093750I0J-218750D01*
G01*
G37*
G36*
G01*
X138200000Y-71093750D02*
X138200000Y-71606250D01*
G75*
G02*
X137981250Y-71825000I-218750J0D01*
G01*
X137543750Y-71825000D01*
G75*
G02*
X137325000Y-71606250I0J218750D01*
G01*
X137325000Y-71093750D01*
G75*
G02*
X137543750Y-70875000I218750J0D01*
G01*
X137981250Y-70875000D01*
G75*
G02*
X138200000Y-71093750I0J-218750D01*
G01*
G37*
G36*
G01*
X140775000Y-83343750D02*
X140775000Y-83856250D01*
G75*
G02*
X140556250Y-84075000I-218750J0D01*
G01*
X140118750Y-84075000D01*
G75*
G02*
X139900000Y-83856250I0J218750D01*
G01*
X139900000Y-83343750D01*
G75*
G02*
X140118750Y-83125000I218750J0D01*
G01*
X140556250Y-83125000D01*
G75*
G02*
X140775000Y-83343750I0J-218750D01*
G01*
G37*
G36*
G01*
X139200000Y-83343750D02*
X139200000Y-83856250D01*
G75*
G02*
X138981250Y-84075000I-218750J0D01*
G01*
X138543750Y-84075000D01*
G75*
G02*
X138325000Y-83856250I0J218750D01*
G01*
X138325000Y-83343750D01*
G75*
G02*
X138543750Y-83125000I218750J0D01*
G01*
X138981250Y-83125000D01*
G75*
G02*
X139200000Y-83343750I0J-218750D01*
G01*
G37*
G36*
G01*
X145025000Y-78456250D02*
X145025000Y-78968750D01*
G75*
G02*
X144806250Y-79187500I-218750J0D01*
G01*
X144368750Y-79187500D01*
G75*
G02*
X144150000Y-78968750I0J218750D01*
G01*
X144150000Y-78456250D01*
G75*
G02*
X144368750Y-78237500I218750J0D01*
G01*
X144806250Y-78237500D01*
G75*
G02*
X145025000Y-78456250I0J-218750D01*
G01*
G37*
G36*
G01*
X143450000Y-78456250D02*
X143450000Y-78968750D01*
G75*
G02*
X143231250Y-79187500I-218750J0D01*
G01*
X142793750Y-79187500D01*
G75*
G02*
X142575000Y-78968750I0J218750D01*
G01*
X142575000Y-78456250D01*
G75*
G02*
X142793750Y-78237500I218750J0D01*
G01*
X143231250Y-78237500D01*
G75*
G02*
X143450000Y-78456250I0J-218750D01*
G01*
G37*
G36*
G01*
X131975000Y-81693750D02*
X131975000Y-82206250D01*
G75*
G02*
X131756250Y-82425000I-218750J0D01*
G01*
X131318750Y-82425000D01*
G75*
G02*
X131100000Y-82206250I0J218750D01*
G01*
X131100000Y-81693750D01*
G75*
G02*
X131318750Y-81475000I218750J0D01*
G01*
X131756250Y-81475000D01*
G75*
G02*
X131975000Y-81693750I0J-218750D01*
G01*
G37*
G36*
G01*
X130400000Y-81693750D02*
X130400000Y-82206250D01*
G75*
G02*
X130181250Y-82425000I-218750J0D01*
G01*
X129743750Y-82425000D01*
G75*
G02*
X129525000Y-82206250I0J218750D01*
G01*
X129525000Y-81693750D01*
G75*
G02*
X129743750Y-81475000I218750J0D01*
G01*
X130181250Y-81475000D01*
G75*
G02*
X130400000Y-81693750I0J-218750D01*
G01*
G37*
G36*
G01*
X132925000Y-71693750D02*
X132925000Y-72206250D01*
G75*
G02*
X132706250Y-72425000I-218750J0D01*
G01*
X132268750Y-72425000D01*
G75*
G02*
X132050000Y-72206250I0J218750D01*
G01*
X132050000Y-71693750D01*
G75*
G02*
X132268750Y-71475000I218750J0D01*
G01*
X132706250Y-71475000D01*
G75*
G02*
X132925000Y-71693750I0J-218750D01*
G01*
G37*
G36*
G01*
X131350000Y-71693750D02*
X131350000Y-72206250D01*
G75*
G02*
X131131250Y-72425000I-218750J0D01*
G01*
X130693750Y-72425000D01*
G75*
G02*
X130475000Y-72206250I0J218750D01*
G01*
X130475000Y-71693750D01*
G75*
G02*
X130693750Y-71475000I218750J0D01*
G01*
X131131250Y-71475000D01*
G75*
G02*
X131350000Y-71693750I0J-218750D01*
G01*
G37*
G36*
G01*
X143306250Y-82212500D02*
X142793750Y-82212500D01*
G75*
G02*
X142575000Y-81993750I0J218750D01*
G01*
X142575000Y-81556250D01*
G75*
G02*
X142793750Y-81337500I218750J0D01*
G01*
X143306250Y-81337500D01*
G75*
G02*
X143525000Y-81556250I0J-218750D01*
G01*
X143525000Y-81993750D01*
G75*
G02*
X143306250Y-82212500I-218750J0D01*
G01*
G37*
G36*
G01*
X143306250Y-80637500D02*
X142793750Y-80637500D01*
G75*
G02*
X142575000Y-80418750I0J218750D01*
G01*
X142575000Y-79981250D01*
G75*
G02*
X142793750Y-79762500I218750J0D01*
G01*
X143306250Y-79762500D01*
G75*
G02*
X143525000Y-79981250I0J-218750D01*
G01*
X143525000Y-80418750D01*
G75*
G02*
X143306250Y-80637500I-218750J0D01*
G01*
G37*
G36*
G01*
X144443750Y-79812500D02*
X144956250Y-79812500D01*
G75*
G02*
X145175000Y-80031250I0J-218750D01*
G01*
X145175000Y-80468750D01*
G75*
G02*
X144956250Y-80687500I-218750J0D01*
G01*
X144443750Y-80687500D01*
G75*
G02*
X144225000Y-80468750I0J218750D01*
G01*
X144225000Y-80031250D01*
G75*
G02*
X144443750Y-79812500I218750J0D01*
G01*
G37*
G36*
G01*
X144443750Y-81387500D02*
X144956250Y-81387500D01*
G75*
G02*
X145175000Y-81606250I0J-218750D01*
G01*
X145175000Y-82043750D01*
G75*
G02*
X144956250Y-82262500I-218750J0D01*
G01*
X144443750Y-82262500D01*
G75*
G02*
X144225000Y-82043750I0J218750D01*
G01*
X144225000Y-81606250D01*
G75*
G02*
X144443750Y-81387500I218750J0D01*
G01*
G37*
D17*
X97400000Y-69350000D03*
X97400000Y-70650000D03*
X99400000Y-70000000D03*
G36*
G01*
X132150000Y-74975000D02*
X132150000Y-74825000D01*
G75*
G02*
X132225000Y-74750000I75000J0D01*
G01*
X133550000Y-74750000D01*
G75*
G02*
X133625000Y-74825000I0J-75000D01*
G01*
X133625000Y-74975000D01*
G75*
G02*
X133550000Y-75050000I-75000J0D01*
G01*
X132225000Y-75050000D01*
G75*
G02*
X132150000Y-74975000I0J75000D01*
G01*
G37*
G36*
G01*
X132150000Y-75475000D02*
X132150000Y-75325000D01*
G75*
G02*
X132225000Y-75250000I75000J0D01*
G01*
X133550000Y-75250000D01*
G75*
G02*
X133625000Y-75325000I0J-75000D01*
G01*
X133625000Y-75475000D01*
G75*
G02*
X133550000Y-75550000I-75000J0D01*
G01*
X132225000Y-75550000D01*
G75*
G02*
X132150000Y-75475000I0J75000D01*
G01*
G37*
G36*
G01*
X132150000Y-75975000D02*
X132150000Y-75825000D01*
G75*
G02*
X132225000Y-75750000I75000J0D01*
G01*
X133550000Y-75750000D01*
G75*
G02*
X133625000Y-75825000I0J-75000D01*
G01*
X133625000Y-75975000D01*
G75*
G02*
X133550000Y-76050000I-75000J0D01*
G01*
X132225000Y-76050000D01*
G75*
G02*
X132150000Y-75975000I0J75000D01*
G01*
G37*
G36*
G01*
X132150000Y-76475000D02*
X132150000Y-76325000D01*
G75*
G02*
X132225000Y-76250000I75000J0D01*
G01*
X133550000Y-76250000D01*
G75*
G02*
X133625000Y-76325000I0J-75000D01*
G01*
X133625000Y-76475000D01*
G75*
G02*
X133550000Y-76550000I-75000J0D01*
G01*
X132225000Y-76550000D01*
G75*
G02*
X132150000Y-76475000I0J75000D01*
G01*
G37*
G36*
G01*
X132150000Y-76975000D02*
X132150000Y-76825000D01*
G75*
G02*
X132225000Y-76750000I75000J0D01*
G01*
X133550000Y-76750000D01*
G75*
G02*
X133625000Y-76825000I0J-75000D01*
G01*
X133625000Y-76975000D01*
G75*
G02*
X133550000Y-77050000I-75000J0D01*
G01*
X132225000Y-77050000D01*
G75*
G02*
X132150000Y-76975000I0J75000D01*
G01*
G37*
G36*
G01*
X132150000Y-77475000D02*
X132150000Y-77325000D01*
G75*
G02*
X132225000Y-77250000I75000J0D01*
G01*
X133550000Y-77250000D01*
G75*
G02*
X133625000Y-77325000I0J-75000D01*
G01*
X133625000Y-77475000D01*
G75*
G02*
X133550000Y-77550000I-75000J0D01*
G01*
X132225000Y-77550000D01*
G75*
G02*
X132150000Y-77475000I0J75000D01*
G01*
G37*
G36*
G01*
X132150000Y-77975000D02*
X132150000Y-77825000D01*
G75*
G02*
X132225000Y-77750000I75000J0D01*
G01*
X133550000Y-77750000D01*
G75*
G02*
X133625000Y-77825000I0J-75000D01*
G01*
X133625000Y-77975000D01*
G75*
G02*
X133550000Y-78050000I-75000J0D01*
G01*
X132225000Y-78050000D01*
G75*
G02*
X132150000Y-77975000I0J75000D01*
G01*
G37*
G36*
G01*
X132150000Y-78475000D02*
X132150000Y-78325000D01*
G75*
G02*
X132225000Y-78250000I75000J0D01*
G01*
X133550000Y-78250000D01*
G75*
G02*
X133625000Y-78325000I0J-75000D01*
G01*
X133625000Y-78475000D01*
G75*
G02*
X133550000Y-78550000I-75000J0D01*
G01*
X132225000Y-78550000D01*
G75*
G02*
X132150000Y-78475000I0J75000D01*
G01*
G37*
G36*
G01*
X132150000Y-78975000D02*
X132150000Y-78825000D01*
G75*
G02*
X132225000Y-78750000I75000J0D01*
G01*
X133550000Y-78750000D01*
G75*
G02*
X133625000Y-78825000I0J-75000D01*
G01*
X133625000Y-78975000D01*
G75*
G02*
X133550000Y-79050000I-75000J0D01*
G01*
X132225000Y-79050000D01*
G75*
G02*
X132150000Y-78975000I0J75000D01*
G01*
G37*
G36*
G01*
X132150000Y-79475000D02*
X132150000Y-79325000D01*
G75*
G02*
X132225000Y-79250000I75000J0D01*
G01*
X133550000Y-79250000D01*
G75*
G02*
X133625000Y-79325000I0J-75000D01*
G01*
X133625000Y-79475000D01*
G75*
G02*
X133550000Y-79550000I-75000J0D01*
G01*
X132225000Y-79550000D01*
G75*
G02*
X132150000Y-79475000I0J75000D01*
G01*
G37*
G36*
G01*
X132150000Y-79975000D02*
X132150000Y-79825000D01*
G75*
G02*
X132225000Y-79750000I75000J0D01*
G01*
X133550000Y-79750000D01*
G75*
G02*
X133625000Y-79825000I0J-75000D01*
G01*
X133625000Y-79975000D01*
G75*
G02*
X133550000Y-80050000I-75000J0D01*
G01*
X132225000Y-80050000D01*
G75*
G02*
X132150000Y-79975000I0J75000D01*
G01*
G37*
G36*
G01*
X132150000Y-80475000D02*
X132150000Y-80325000D01*
G75*
G02*
X132225000Y-80250000I75000J0D01*
G01*
X133550000Y-80250000D01*
G75*
G02*
X133625000Y-80325000I0J-75000D01*
G01*
X133625000Y-80475000D01*
G75*
G02*
X133550000Y-80550000I-75000J0D01*
G01*
X132225000Y-80550000D01*
G75*
G02*
X132150000Y-80475000I0J75000D01*
G01*
G37*
G36*
G01*
X134150000Y-82475000D02*
X134150000Y-81150000D01*
G75*
G02*
X134225000Y-81075000I75000J0D01*
G01*
X134375000Y-81075000D01*
G75*
G02*
X134450000Y-81150000I0J-75000D01*
G01*
X134450000Y-82475000D01*
G75*
G02*
X134375000Y-82550000I-75000J0D01*
G01*
X134225000Y-82550000D01*
G75*
G02*
X134150000Y-82475000I0J75000D01*
G01*
G37*
G36*
G01*
X134650000Y-82475000D02*
X134650000Y-81150000D01*
G75*
G02*
X134725000Y-81075000I75000J0D01*
G01*
X134875000Y-81075000D01*
G75*
G02*
X134950000Y-81150000I0J-75000D01*
G01*
X134950000Y-82475000D01*
G75*
G02*
X134875000Y-82550000I-75000J0D01*
G01*
X134725000Y-82550000D01*
G75*
G02*
X134650000Y-82475000I0J75000D01*
G01*
G37*
G36*
G01*
X135150000Y-82475000D02*
X135150000Y-81150000D01*
G75*
G02*
X135225000Y-81075000I75000J0D01*
G01*
X135375000Y-81075000D01*
G75*
G02*
X135450000Y-81150000I0J-75000D01*
G01*
X135450000Y-82475000D01*
G75*
G02*
X135375000Y-82550000I-75000J0D01*
G01*
X135225000Y-82550000D01*
G75*
G02*
X135150000Y-82475000I0J75000D01*
G01*
G37*
G36*
G01*
X135650000Y-82475000D02*
X135650000Y-81150000D01*
G75*
G02*
X135725000Y-81075000I75000J0D01*
G01*
X135875000Y-81075000D01*
G75*
G02*
X135950000Y-81150000I0J-75000D01*
G01*
X135950000Y-82475000D01*
G75*
G02*
X135875000Y-82550000I-75000J0D01*
G01*
X135725000Y-82550000D01*
G75*
G02*
X135650000Y-82475000I0J75000D01*
G01*
G37*
G36*
G01*
X136150000Y-82475000D02*
X136150000Y-81150000D01*
G75*
G02*
X136225000Y-81075000I75000J0D01*
G01*
X136375000Y-81075000D01*
G75*
G02*
X136450000Y-81150000I0J-75000D01*
G01*
X136450000Y-82475000D01*
G75*
G02*
X136375000Y-82550000I-75000J0D01*
G01*
X136225000Y-82550000D01*
G75*
G02*
X136150000Y-82475000I0J75000D01*
G01*
G37*
G36*
G01*
X136650000Y-82475000D02*
X136650000Y-81150000D01*
G75*
G02*
X136725000Y-81075000I75000J0D01*
G01*
X136875000Y-81075000D01*
G75*
G02*
X136950000Y-81150000I0J-75000D01*
G01*
X136950000Y-82475000D01*
G75*
G02*
X136875000Y-82550000I-75000J0D01*
G01*
X136725000Y-82550000D01*
G75*
G02*
X136650000Y-82475000I0J75000D01*
G01*
G37*
G36*
G01*
X137150000Y-82475000D02*
X137150000Y-81150000D01*
G75*
G02*
X137225000Y-81075000I75000J0D01*
G01*
X137375000Y-81075000D01*
G75*
G02*
X137450000Y-81150000I0J-75000D01*
G01*
X137450000Y-82475000D01*
G75*
G02*
X137375000Y-82550000I-75000J0D01*
G01*
X137225000Y-82550000D01*
G75*
G02*
X137150000Y-82475000I0J75000D01*
G01*
G37*
G36*
G01*
X137650000Y-82475000D02*
X137650000Y-81150000D01*
G75*
G02*
X137725000Y-81075000I75000J0D01*
G01*
X137875000Y-81075000D01*
G75*
G02*
X137950000Y-81150000I0J-75000D01*
G01*
X137950000Y-82475000D01*
G75*
G02*
X137875000Y-82550000I-75000J0D01*
G01*
X137725000Y-82550000D01*
G75*
G02*
X137650000Y-82475000I0J75000D01*
G01*
G37*
G36*
G01*
X138150000Y-82475000D02*
X138150000Y-81150000D01*
G75*
G02*
X138225000Y-81075000I75000J0D01*
G01*
X138375000Y-81075000D01*
G75*
G02*
X138450000Y-81150000I0J-75000D01*
G01*
X138450000Y-82475000D01*
G75*
G02*
X138375000Y-82550000I-75000J0D01*
G01*
X138225000Y-82550000D01*
G75*
G02*
X138150000Y-82475000I0J75000D01*
G01*
G37*
G36*
G01*
X138650000Y-82475000D02*
X138650000Y-81150000D01*
G75*
G02*
X138725000Y-81075000I75000J0D01*
G01*
X138875000Y-81075000D01*
G75*
G02*
X138950000Y-81150000I0J-75000D01*
G01*
X138950000Y-82475000D01*
G75*
G02*
X138875000Y-82550000I-75000J0D01*
G01*
X138725000Y-82550000D01*
G75*
G02*
X138650000Y-82475000I0J75000D01*
G01*
G37*
G36*
G01*
X139150000Y-82475000D02*
X139150000Y-81150000D01*
G75*
G02*
X139225000Y-81075000I75000J0D01*
G01*
X139375000Y-81075000D01*
G75*
G02*
X139450000Y-81150000I0J-75000D01*
G01*
X139450000Y-82475000D01*
G75*
G02*
X139375000Y-82550000I-75000J0D01*
G01*
X139225000Y-82550000D01*
G75*
G02*
X139150000Y-82475000I0J75000D01*
G01*
G37*
G36*
G01*
X139650000Y-82475000D02*
X139650000Y-81150000D01*
G75*
G02*
X139725000Y-81075000I75000J0D01*
G01*
X139875000Y-81075000D01*
G75*
G02*
X139950000Y-81150000I0J-75000D01*
G01*
X139950000Y-82475000D01*
G75*
G02*
X139875000Y-82550000I-75000J0D01*
G01*
X139725000Y-82550000D01*
G75*
G02*
X139650000Y-82475000I0J75000D01*
G01*
G37*
G36*
G01*
X140475000Y-80475000D02*
X140475000Y-80325000D01*
G75*
G02*
X140550000Y-80250000I75000J0D01*
G01*
X141875000Y-80250000D01*
G75*
G02*
X141950000Y-80325000I0J-75000D01*
G01*
X141950000Y-80475000D01*
G75*
G02*
X141875000Y-80550000I-75000J0D01*
G01*
X140550000Y-80550000D01*
G75*
G02*
X140475000Y-80475000I0J75000D01*
G01*
G37*
G36*
G01*
X140475000Y-79975000D02*
X140475000Y-79825000D01*
G75*
G02*
X140550000Y-79750000I75000J0D01*
G01*
X141875000Y-79750000D01*
G75*
G02*
X141950000Y-79825000I0J-75000D01*
G01*
X141950000Y-79975000D01*
G75*
G02*
X141875000Y-80050000I-75000J0D01*
G01*
X140550000Y-80050000D01*
G75*
G02*
X140475000Y-79975000I0J75000D01*
G01*
G37*
G36*
G01*
X140475000Y-79475000D02*
X140475000Y-79325000D01*
G75*
G02*
X140550000Y-79250000I75000J0D01*
G01*
X141875000Y-79250000D01*
G75*
G02*
X141950000Y-79325000I0J-75000D01*
G01*
X141950000Y-79475000D01*
G75*
G02*
X141875000Y-79550000I-75000J0D01*
G01*
X140550000Y-79550000D01*
G75*
G02*
X140475000Y-79475000I0J75000D01*
G01*
G37*
G36*
G01*
X140475000Y-78975000D02*
X140475000Y-78825000D01*
G75*
G02*
X140550000Y-78750000I75000J0D01*
G01*
X141875000Y-78750000D01*
G75*
G02*
X141950000Y-78825000I0J-75000D01*
G01*
X141950000Y-78975000D01*
G75*
G02*
X141875000Y-79050000I-75000J0D01*
G01*
X140550000Y-79050000D01*
G75*
G02*
X140475000Y-78975000I0J75000D01*
G01*
G37*
G36*
G01*
X140475000Y-78475000D02*
X140475000Y-78325000D01*
G75*
G02*
X140550000Y-78250000I75000J0D01*
G01*
X141875000Y-78250000D01*
G75*
G02*
X141950000Y-78325000I0J-75000D01*
G01*
X141950000Y-78475000D01*
G75*
G02*
X141875000Y-78550000I-75000J0D01*
G01*
X140550000Y-78550000D01*
G75*
G02*
X140475000Y-78475000I0J75000D01*
G01*
G37*
G36*
G01*
X140475000Y-77975000D02*
X140475000Y-77825000D01*
G75*
G02*
X140550000Y-77750000I75000J0D01*
G01*
X141875000Y-77750000D01*
G75*
G02*
X141950000Y-77825000I0J-75000D01*
G01*
X141950000Y-77975000D01*
G75*
G02*
X141875000Y-78050000I-75000J0D01*
G01*
X140550000Y-78050000D01*
G75*
G02*
X140475000Y-77975000I0J75000D01*
G01*
G37*
G36*
G01*
X140475000Y-77475000D02*
X140475000Y-77325000D01*
G75*
G02*
X140550000Y-77250000I75000J0D01*
G01*
X141875000Y-77250000D01*
G75*
G02*
X141950000Y-77325000I0J-75000D01*
G01*
X141950000Y-77475000D01*
G75*
G02*
X141875000Y-77550000I-75000J0D01*
G01*
X140550000Y-77550000D01*
G75*
G02*
X140475000Y-77475000I0J75000D01*
G01*
G37*
G36*
G01*
X140475000Y-76975000D02*
X140475000Y-76825000D01*
G75*
G02*
X140550000Y-76750000I75000J0D01*
G01*
X141875000Y-76750000D01*
G75*
G02*
X141950000Y-76825000I0J-75000D01*
G01*
X141950000Y-76975000D01*
G75*
G02*
X141875000Y-77050000I-75000J0D01*
G01*
X140550000Y-77050000D01*
G75*
G02*
X140475000Y-76975000I0J75000D01*
G01*
G37*
G36*
G01*
X140475000Y-76475000D02*
X140475000Y-76325000D01*
G75*
G02*
X140550000Y-76250000I75000J0D01*
G01*
X141875000Y-76250000D01*
G75*
G02*
X141950000Y-76325000I0J-75000D01*
G01*
X141950000Y-76475000D01*
G75*
G02*
X141875000Y-76550000I-75000J0D01*
G01*
X140550000Y-76550000D01*
G75*
G02*
X140475000Y-76475000I0J75000D01*
G01*
G37*
G36*
G01*
X140475000Y-75975000D02*
X140475000Y-75825000D01*
G75*
G02*
X140550000Y-75750000I75000J0D01*
G01*
X141875000Y-75750000D01*
G75*
G02*
X141950000Y-75825000I0J-75000D01*
G01*
X141950000Y-75975000D01*
G75*
G02*
X141875000Y-76050000I-75000J0D01*
G01*
X140550000Y-76050000D01*
G75*
G02*
X140475000Y-75975000I0J75000D01*
G01*
G37*
G36*
G01*
X140475000Y-75475000D02*
X140475000Y-75325000D01*
G75*
G02*
X140550000Y-75250000I75000J0D01*
G01*
X141875000Y-75250000D01*
G75*
G02*
X141950000Y-75325000I0J-75000D01*
G01*
X141950000Y-75475000D01*
G75*
G02*
X141875000Y-75550000I-75000J0D01*
G01*
X140550000Y-75550000D01*
G75*
G02*
X140475000Y-75475000I0J75000D01*
G01*
G37*
G36*
G01*
X140475000Y-74975000D02*
X140475000Y-74825000D01*
G75*
G02*
X140550000Y-74750000I75000J0D01*
G01*
X141875000Y-74750000D01*
G75*
G02*
X141950000Y-74825000I0J-75000D01*
G01*
X141950000Y-74975000D01*
G75*
G02*
X141875000Y-75050000I-75000J0D01*
G01*
X140550000Y-75050000D01*
G75*
G02*
X140475000Y-74975000I0J75000D01*
G01*
G37*
G36*
G01*
X139650000Y-74150000D02*
X139650000Y-72825000D01*
G75*
G02*
X139725000Y-72750000I75000J0D01*
G01*
X139875000Y-72750000D01*
G75*
G02*
X139950000Y-72825000I0J-75000D01*
G01*
X139950000Y-74150000D01*
G75*
G02*
X139875000Y-74225000I-75000J0D01*
G01*
X139725000Y-74225000D01*
G75*
G02*
X139650000Y-74150000I0J75000D01*
G01*
G37*
G36*
G01*
X139150000Y-74150000D02*
X139150000Y-72825000D01*
G75*
G02*
X139225000Y-72750000I75000J0D01*
G01*
X139375000Y-72750000D01*
G75*
G02*
X139450000Y-72825000I0J-75000D01*
G01*
X139450000Y-74150000D01*
G75*
G02*
X139375000Y-74225000I-75000J0D01*
G01*
X139225000Y-74225000D01*
G75*
G02*
X139150000Y-74150000I0J75000D01*
G01*
G37*
G36*
G01*
X138650000Y-74150000D02*
X138650000Y-72825000D01*
G75*
G02*
X138725000Y-72750000I75000J0D01*
G01*
X138875000Y-72750000D01*
G75*
G02*
X138950000Y-72825000I0J-75000D01*
G01*
X138950000Y-74150000D01*
G75*
G02*
X138875000Y-74225000I-75000J0D01*
G01*
X138725000Y-74225000D01*
G75*
G02*
X138650000Y-74150000I0J75000D01*
G01*
G37*
G36*
G01*
X138150000Y-74150000D02*
X138150000Y-72825000D01*
G75*
G02*
X138225000Y-72750000I75000J0D01*
G01*
X138375000Y-72750000D01*
G75*
G02*
X138450000Y-72825000I0J-75000D01*
G01*
X138450000Y-74150000D01*
G75*
G02*
X138375000Y-74225000I-75000J0D01*
G01*
X138225000Y-74225000D01*
G75*
G02*
X138150000Y-74150000I0J75000D01*
G01*
G37*
G36*
G01*
X137650000Y-74150000D02*
X137650000Y-72825000D01*
G75*
G02*
X137725000Y-72750000I75000J0D01*
G01*
X137875000Y-72750000D01*
G75*
G02*
X137950000Y-72825000I0J-75000D01*
G01*
X137950000Y-74150000D01*
G75*
G02*
X137875000Y-74225000I-75000J0D01*
G01*
X137725000Y-74225000D01*
G75*
G02*
X137650000Y-74150000I0J75000D01*
G01*
G37*
G36*
G01*
X137150000Y-74150000D02*
X137150000Y-72825000D01*
G75*
G02*
X137225000Y-72750000I75000J0D01*
G01*
X137375000Y-72750000D01*
G75*
G02*
X137450000Y-72825000I0J-75000D01*
G01*
X137450000Y-74150000D01*
G75*
G02*
X137375000Y-74225000I-75000J0D01*
G01*
X137225000Y-74225000D01*
G75*
G02*
X137150000Y-74150000I0J75000D01*
G01*
G37*
G36*
G01*
X136650000Y-74150000D02*
X136650000Y-72825000D01*
G75*
G02*
X136725000Y-72750000I75000J0D01*
G01*
X136875000Y-72750000D01*
G75*
G02*
X136950000Y-72825000I0J-75000D01*
G01*
X136950000Y-74150000D01*
G75*
G02*
X136875000Y-74225000I-75000J0D01*
G01*
X136725000Y-74225000D01*
G75*
G02*
X136650000Y-74150000I0J75000D01*
G01*
G37*
G36*
G01*
X136150000Y-74150000D02*
X136150000Y-72825000D01*
G75*
G02*
X136225000Y-72750000I75000J0D01*
G01*
X136375000Y-72750000D01*
G75*
G02*
X136450000Y-72825000I0J-75000D01*
G01*
X136450000Y-74150000D01*
G75*
G02*
X136375000Y-74225000I-75000J0D01*
G01*
X136225000Y-74225000D01*
G75*
G02*
X136150000Y-74150000I0J75000D01*
G01*
G37*
G36*
G01*
X135650000Y-74150000D02*
X135650000Y-72825000D01*
G75*
G02*
X135725000Y-72750000I75000J0D01*
G01*
X135875000Y-72750000D01*
G75*
G02*
X135950000Y-72825000I0J-75000D01*
G01*
X135950000Y-74150000D01*
G75*
G02*
X135875000Y-74225000I-75000J0D01*
G01*
X135725000Y-74225000D01*
G75*
G02*
X135650000Y-74150000I0J75000D01*
G01*
G37*
G36*
G01*
X135150000Y-74150000D02*
X135150000Y-72825000D01*
G75*
G02*
X135225000Y-72750000I75000J0D01*
G01*
X135375000Y-72750000D01*
G75*
G02*
X135450000Y-72825000I0J-75000D01*
G01*
X135450000Y-74150000D01*
G75*
G02*
X135375000Y-74225000I-75000J0D01*
G01*
X135225000Y-74225000D01*
G75*
G02*
X135150000Y-74150000I0J75000D01*
G01*
G37*
G36*
G01*
X134650000Y-74150000D02*
X134650000Y-72825000D01*
G75*
G02*
X134725000Y-72750000I75000J0D01*
G01*
X134875000Y-72750000D01*
G75*
G02*
X134950000Y-72825000I0J-75000D01*
G01*
X134950000Y-74150000D01*
G75*
G02*
X134875000Y-74225000I-75000J0D01*
G01*
X134725000Y-74225000D01*
G75*
G02*
X134650000Y-74150000I0J75000D01*
G01*
G37*
G36*
G01*
X134150000Y-74150000D02*
X134150000Y-72825000D01*
G75*
G02*
X134225000Y-72750000I75000J0D01*
G01*
X134375000Y-72750000D01*
G75*
G02*
X134450000Y-72825000I0J-75000D01*
G01*
X134450000Y-74150000D01*
G75*
G02*
X134375000Y-74225000I-75000J0D01*
G01*
X134225000Y-74225000D01*
G75*
G02*
X134150000Y-74150000I0J75000D01*
G01*
G37*
G36*
G01*
X142700000Y-83593750D02*
X142700000Y-83081250D01*
G75*
G02*
X142918750Y-82862500I218750J0D01*
G01*
X143356250Y-82862500D01*
G75*
G02*
X143575000Y-83081250I0J-218750D01*
G01*
X143575000Y-83593750D01*
G75*
G02*
X143356250Y-83812500I-218750J0D01*
G01*
X142918750Y-83812500D01*
G75*
G02*
X142700000Y-83593750I0J218750D01*
G01*
G37*
G36*
G01*
X144275000Y-83593750D02*
X144275000Y-83081250D01*
G75*
G02*
X144493750Y-82862500I218750J0D01*
G01*
X144931250Y-82862500D01*
G75*
G02*
X145150000Y-83081250I0J-218750D01*
G01*
X145150000Y-83593750D01*
G75*
G02*
X144931250Y-83812500I-218750J0D01*
G01*
X144493750Y-83812500D01*
G75*
G02*
X144275000Y-83593750I0J218750D01*
G01*
G37*
G36*
G01*
X132925000Y-70193750D02*
X132925000Y-70706250D01*
G75*
G02*
X132706250Y-70925000I-218750J0D01*
G01*
X132268750Y-70925000D01*
G75*
G02*
X132050000Y-70706250I0J218750D01*
G01*
X132050000Y-70193750D01*
G75*
G02*
X132268750Y-69975000I218750J0D01*
G01*
X132706250Y-69975000D01*
G75*
G02*
X132925000Y-70193750I0J-218750D01*
G01*
G37*
G36*
G01*
X131350000Y-70193750D02*
X131350000Y-70706250D01*
G75*
G02*
X131131250Y-70925000I-218750J0D01*
G01*
X130693750Y-70925000D01*
G75*
G02*
X130475000Y-70706250I0J218750D01*
G01*
X130475000Y-70193750D01*
G75*
G02*
X130693750Y-69975000I218750J0D01*
G01*
X131131250Y-69975000D01*
G75*
G02*
X131350000Y-70193750I0J-218750D01*
G01*
G37*
G36*
G01*
X128306250Y-80875000D02*
X127793750Y-80875000D01*
G75*
G02*
X127575000Y-80656250I0J218750D01*
G01*
X127575000Y-80218750D01*
G75*
G02*
X127793750Y-80000000I218750J0D01*
G01*
X128306250Y-80000000D01*
G75*
G02*
X128525000Y-80218750I0J-218750D01*
G01*
X128525000Y-80656250D01*
G75*
G02*
X128306250Y-80875000I-218750J0D01*
G01*
G37*
G36*
G01*
X128306250Y-79300000D02*
X127793750Y-79300000D01*
G75*
G02*
X127575000Y-79081250I0J218750D01*
G01*
X127575000Y-78643750D01*
G75*
G02*
X127793750Y-78425000I218750J0D01*
G01*
X128306250Y-78425000D01*
G75*
G02*
X128525000Y-78643750I0J-218750D01*
G01*
X128525000Y-79081250D01*
G75*
G02*
X128306250Y-79300000I-218750J0D01*
G01*
G37*
G36*
G01*
X139775000Y-69593750D02*
X139775000Y-70106250D01*
G75*
G02*
X139556250Y-70325000I-218750J0D01*
G01*
X139118750Y-70325000D01*
G75*
G02*
X138900000Y-70106250I0J218750D01*
G01*
X138900000Y-69593750D01*
G75*
G02*
X139118750Y-69375000I218750J0D01*
G01*
X139556250Y-69375000D01*
G75*
G02*
X139775000Y-69593750I0J-218750D01*
G01*
G37*
G36*
G01*
X138200000Y-69593750D02*
X138200000Y-70106250D01*
G75*
G02*
X137981250Y-70325000I-218750J0D01*
G01*
X137543750Y-70325000D01*
G75*
G02*
X137325000Y-70106250I0J218750D01*
G01*
X137325000Y-69593750D01*
G75*
G02*
X137543750Y-69375000I218750J0D01*
G01*
X137981250Y-69375000D01*
G75*
G02*
X138200000Y-69593750I0J-218750D01*
G01*
G37*
G36*
G01*
X131775000Y-65256250D02*
X131775000Y-64743750D01*
G75*
G02*
X131993750Y-64525000I218750J0D01*
G01*
X132431250Y-64525000D01*
G75*
G02*
X132650000Y-64743750I0J-218750D01*
G01*
X132650000Y-65256250D01*
G75*
G02*
X132431250Y-65475000I-218750J0D01*
G01*
X131993750Y-65475000D01*
G75*
G02*
X131775000Y-65256250I0J218750D01*
G01*
G37*
G36*
G01*
X133350000Y-65256250D02*
X133350000Y-64743750D01*
G75*
G02*
X133568750Y-64525000I218750J0D01*
G01*
X134006250Y-64525000D01*
G75*
G02*
X134225000Y-64743750I0J-218750D01*
G01*
X134225000Y-65256250D01*
G75*
G02*
X134006250Y-65475000I-218750J0D01*
G01*
X133568750Y-65475000D01*
G75*
G02*
X133350000Y-65256250I0J218750D01*
G01*
G37*
G36*
G01*
X140528750Y-63525000D02*
X141041250Y-63525000D01*
G75*
G02*
X141260000Y-63743750I0J-218750D01*
G01*
X141260000Y-64181250D01*
G75*
G02*
X141041250Y-64400000I-218750J0D01*
G01*
X140528750Y-64400000D01*
G75*
G02*
X140310000Y-64181250I0J218750D01*
G01*
X140310000Y-63743750D01*
G75*
G02*
X140528750Y-63525000I218750J0D01*
G01*
G37*
G36*
G01*
X140528750Y-65100000D02*
X141041250Y-65100000D01*
G75*
G02*
X141260000Y-65318750I0J-218750D01*
G01*
X141260000Y-65756250D01*
G75*
G02*
X141041250Y-65975000I-218750J0D01*
G01*
X140528750Y-65975000D01*
G75*
G02*
X140310000Y-65756250I0J218750D01*
G01*
X140310000Y-65318750D01*
G75*
G02*
X140528750Y-65100000I218750J0D01*
G01*
G37*
G36*
G01*
X97075000Y-68056250D02*
X97075000Y-67543750D01*
G75*
G02*
X97293750Y-67325000I218750J0D01*
G01*
X97731250Y-67325000D01*
G75*
G02*
X97950000Y-67543750I0J-218750D01*
G01*
X97950000Y-68056250D01*
G75*
G02*
X97731250Y-68275000I-218750J0D01*
G01*
X97293750Y-68275000D01*
G75*
G02*
X97075000Y-68056250I0J218750D01*
G01*
G37*
G36*
G01*
X98650000Y-68056250D02*
X98650000Y-67543750D01*
G75*
G02*
X98868750Y-67325000I218750J0D01*
G01*
X99306250Y-67325000D01*
G75*
G02*
X99525000Y-67543750I0J-218750D01*
G01*
X99525000Y-68056250D01*
G75*
G02*
X99306250Y-68275000I-218750J0D01*
G01*
X98868750Y-68275000D01*
G75*
G02*
X98650000Y-68056250I0J218750D01*
G01*
G37*
G36*
G01*
X135530000Y-68100000D02*
X135230000Y-68100000D01*
G75*
G02*
X135080000Y-67950000I0J150000D01*
G01*
X135080000Y-66300000D01*
G75*
G02*
X135230000Y-66150000I150000J0D01*
G01*
X135530000Y-66150000D01*
G75*
G02*
X135680000Y-66300000I0J-150000D01*
G01*
X135680000Y-67950000D01*
G75*
G02*
X135530000Y-68100000I-150000J0D01*
G01*
G37*
G36*
G01*
X136800000Y-68100000D02*
X136500000Y-68100000D01*
G75*
G02*
X136350000Y-67950000I0J150000D01*
G01*
X136350000Y-66300000D01*
G75*
G02*
X136500000Y-66150000I150000J0D01*
G01*
X136800000Y-66150000D01*
G75*
G02*
X136950000Y-66300000I0J-150000D01*
G01*
X136950000Y-67950000D01*
G75*
G02*
X136800000Y-68100000I-150000J0D01*
G01*
G37*
G36*
G01*
X138070000Y-68100000D02*
X137770000Y-68100000D01*
G75*
G02*
X137620000Y-67950000I0J150000D01*
G01*
X137620000Y-66300000D01*
G75*
G02*
X137770000Y-66150000I150000J0D01*
G01*
X138070000Y-66150000D01*
G75*
G02*
X138220000Y-66300000I0J-150000D01*
G01*
X138220000Y-67950000D01*
G75*
G02*
X138070000Y-68100000I-150000J0D01*
G01*
G37*
G36*
G01*
X139340000Y-68100000D02*
X139040000Y-68100000D01*
G75*
G02*
X138890000Y-67950000I0J150000D01*
G01*
X138890000Y-66300000D01*
G75*
G02*
X139040000Y-66150000I150000J0D01*
G01*
X139340000Y-66150000D01*
G75*
G02*
X139490000Y-66300000I0J-150000D01*
G01*
X139490000Y-67950000D01*
G75*
G02*
X139340000Y-68100000I-150000J0D01*
G01*
G37*
G36*
G01*
X139340000Y-63150000D02*
X139040000Y-63150000D01*
G75*
G02*
X138890000Y-63000000I0J150000D01*
G01*
X138890000Y-61350000D01*
G75*
G02*
X139040000Y-61200000I150000J0D01*
G01*
X139340000Y-61200000D01*
G75*
G02*
X139490000Y-61350000I0J-150000D01*
G01*
X139490000Y-63000000D01*
G75*
G02*
X139340000Y-63150000I-150000J0D01*
G01*
G37*
G36*
G01*
X138070000Y-63150000D02*
X137770000Y-63150000D01*
G75*
G02*
X137620000Y-63000000I0J150000D01*
G01*
X137620000Y-61350000D01*
G75*
G02*
X137770000Y-61200000I150000J0D01*
G01*
X138070000Y-61200000D01*
G75*
G02*
X138220000Y-61350000I0J-150000D01*
G01*
X138220000Y-63000000D01*
G75*
G02*
X138070000Y-63150000I-150000J0D01*
G01*
G37*
G36*
G01*
X136800000Y-63150000D02*
X136500000Y-63150000D01*
G75*
G02*
X136350000Y-63000000I0J150000D01*
G01*
X136350000Y-61350000D01*
G75*
G02*
X136500000Y-61200000I150000J0D01*
G01*
X136800000Y-61200000D01*
G75*
G02*
X136950000Y-61350000I0J-150000D01*
G01*
X136950000Y-63000000D01*
G75*
G02*
X136800000Y-63150000I-150000J0D01*
G01*
G37*
G36*
G01*
X135530000Y-63150000D02*
X135230000Y-63150000D01*
G75*
G02*
X135080000Y-63000000I0J150000D01*
G01*
X135080000Y-61350000D01*
G75*
G02*
X135230000Y-61200000I150000J0D01*
G01*
X135530000Y-61200000D01*
G75*
G02*
X135680000Y-61350000I0J-150000D01*
G01*
X135680000Y-63000000D01*
G75*
G02*
X135530000Y-63150000I-150000J0D01*
G01*
G37*
G36*
G01*
X135106250Y-72125000D02*
X134593750Y-72125000D01*
G75*
G02*
X134375000Y-71906250I0J218750D01*
G01*
X134375000Y-71468750D01*
G75*
G02*
X134593750Y-71250000I218750J0D01*
G01*
X135106250Y-71250000D01*
G75*
G02*
X135325000Y-71468750I0J-218750D01*
G01*
X135325000Y-71906250D01*
G75*
G02*
X135106250Y-72125000I-218750J0D01*
G01*
G37*
G36*
G01*
X135106250Y-70550000D02*
X134593750Y-70550000D01*
G75*
G02*
X134375000Y-70331250I0J218750D01*
G01*
X134375000Y-69893750D01*
G75*
G02*
X134593750Y-69675000I218750J0D01*
G01*
X135106250Y-69675000D01*
G75*
G02*
X135325000Y-69893750I0J-218750D01*
G01*
X135325000Y-70331250D01*
G75*
G02*
X135106250Y-70550000I-218750J0D01*
G01*
G37*
G36*
G01*
X97075000Y-66556250D02*
X97075000Y-66043750D01*
G75*
G02*
X97293750Y-65825000I218750J0D01*
G01*
X97731250Y-65825000D01*
G75*
G02*
X97950000Y-66043750I0J-218750D01*
G01*
X97950000Y-66556250D01*
G75*
G02*
X97731250Y-66775000I-218750J0D01*
G01*
X97293750Y-66775000D01*
G75*
G02*
X97075000Y-66556250I0J218750D01*
G01*
G37*
G36*
G01*
X98650000Y-66556250D02*
X98650000Y-66043750D01*
G75*
G02*
X98868750Y-65825000I218750J0D01*
G01*
X99306250Y-65825000D01*
G75*
G02*
X99525000Y-66043750I0J-218750D01*
G01*
X99525000Y-66556250D01*
G75*
G02*
X99306250Y-66775000I-218750J0D01*
G01*
X98868750Y-66775000D01*
G75*
G02*
X98650000Y-66556250I0J218750D01*
G01*
G37*
G36*
G01*
X142575000Y-75943750D02*
X142575000Y-75431250D01*
G75*
G02*
X142793750Y-75212500I218750J0D01*
G01*
X143231250Y-75212500D01*
G75*
G02*
X143450000Y-75431250I0J-218750D01*
G01*
X143450000Y-75943750D01*
G75*
G02*
X143231250Y-76162500I-218750J0D01*
G01*
X142793750Y-76162500D01*
G75*
G02*
X142575000Y-75943750I0J218750D01*
G01*
G37*
G36*
G01*
X144150000Y-75943750D02*
X144150000Y-75431250D01*
G75*
G02*
X144368750Y-75212500I218750J0D01*
G01*
X144806250Y-75212500D01*
G75*
G02*
X145025000Y-75431250I0J-218750D01*
G01*
X145025000Y-75943750D01*
G75*
G02*
X144806250Y-76162500I-218750J0D01*
G01*
X144368750Y-76162500D01*
G75*
G02*
X144150000Y-75943750I0J218750D01*
G01*
G37*
G36*
G01*
X140325000Y-69906250D02*
X140325000Y-69393750D01*
G75*
G02*
X140543750Y-69175000I218750J0D01*
G01*
X140981250Y-69175000D01*
G75*
G02*
X141200000Y-69393750I0J-218750D01*
G01*
X141200000Y-69906250D01*
G75*
G02*
X140981250Y-70125000I-218750J0D01*
G01*
X140543750Y-70125000D01*
G75*
G02*
X140325000Y-69906250I0J218750D01*
G01*
G37*
G36*
G01*
X141900000Y-69906250D02*
X141900000Y-69393750D01*
G75*
G02*
X142118750Y-69175000I218750J0D01*
G01*
X142556250Y-69175000D01*
G75*
G02*
X142775000Y-69393750I0J-218750D01*
G01*
X142775000Y-69906250D01*
G75*
G02*
X142556250Y-70125000I-218750J0D01*
G01*
X142118750Y-70125000D01*
G75*
G02*
X141900000Y-69906250I0J218750D01*
G01*
G37*
G36*
G01*
X125456250Y-77625000D02*
X124943750Y-77625000D01*
G75*
G02*
X124725000Y-77406250I0J218750D01*
G01*
X124725000Y-76968750D01*
G75*
G02*
X124943750Y-76750000I218750J0D01*
G01*
X125456250Y-76750000D01*
G75*
G02*
X125675000Y-76968750I0J-218750D01*
G01*
X125675000Y-77406250D01*
G75*
G02*
X125456250Y-77625000I-218750J0D01*
G01*
G37*
G36*
G01*
X125456250Y-76050000D02*
X124943750Y-76050000D01*
G75*
G02*
X124725000Y-75831250I0J218750D01*
G01*
X124725000Y-75393750D01*
G75*
G02*
X124943750Y-75175000I218750J0D01*
G01*
X125456250Y-75175000D01*
G75*
G02*
X125675000Y-75393750I0J-218750D01*
G01*
X125675000Y-75831250D01*
G75*
G02*
X125456250Y-76050000I-218750J0D01*
G01*
G37*
G36*
G01*
X107475000Y-103775000D02*
X107475000Y-106625000D01*
G75*
G02*
X107225000Y-106875000I-250000J0D01*
G01*
X106375000Y-106875000D01*
G75*
G02*
X106125000Y-106625000I0J250000D01*
G01*
X106125000Y-103775000D01*
G75*
G02*
X106375000Y-103525000I250000J0D01*
G01*
X107225000Y-103525000D01*
G75*
G02*
X107475000Y-103775000I0J-250000D01*
G01*
G37*
G36*
G01*
X101675000Y-103775000D02*
X101675000Y-106625000D01*
G75*
G02*
X101425000Y-106875000I-250000J0D01*
G01*
X100575000Y-106875000D01*
G75*
G02*
X100325000Y-106625000I0J250000D01*
G01*
X100325000Y-103775000D01*
G75*
G02*
X100575000Y-103525000I250000J0D01*
G01*
X101425000Y-103525000D01*
G75*
G02*
X101675000Y-103775000I0J-250000D01*
G01*
G37*
D15*
X116775000Y-97300000D03*
X111225000Y-97300000D03*
X111225000Y-102150000D03*
X116775000Y-102150000D03*
D16*
X111460000Y-108875000D03*
X116540000Y-108875000D03*
G36*
G01*
X96225000Y-104743750D02*
X96225000Y-105256250D01*
G75*
G02*
X96006250Y-105475000I-218750J0D01*
G01*
X95568750Y-105475000D01*
G75*
G02*
X95350000Y-105256250I0J218750D01*
G01*
X95350000Y-104743750D01*
G75*
G02*
X95568750Y-104525000I218750J0D01*
G01*
X96006250Y-104525000D01*
G75*
G02*
X96225000Y-104743750I0J-218750D01*
G01*
G37*
G36*
G01*
X94650000Y-104743750D02*
X94650000Y-105256250D01*
G75*
G02*
X94431250Y-105475000I-218750J0D01*
G01*
X93993750Y-105475000D01*
G75*
G02*
X93775000Y-105256250I0J218750D01*
G01*
X93775000Y-104743750D01*
G75*
G02*
X93993750Y-104525000I218750J0D01*
G01*
X94431250Y-104525000D01*
G75*
G02*
X94650000Y-104743750I0J-218750D01*
G01*
G37*
G36*
G01*
X99225000Y-104743750D02*
X99225000Y-105256250D01*
G75*
G02*
X99006250Y-105475000I-218750J0D01*
G01*
X98568750Y-105475000D01*
G75*
G02*
X98350000Y-105256250I0J218750D01*
G01*
X98350000Y-104743750D01*
G75*
G02*
X98568750Y-104525000I218750J0D01*
G01*
X99006250Y-104525000D01*
G75*
G02*
X99225000Y-104743750I0J-218750D01*
G01*
G37*
G36*
G01*
X97650000Y-104743750D02*
X97650000Y-105256250D01*
G75*
G02*
X97431250Y-105475000I-218750J0D01*
G01*
X96993750Y-105475000D01*
G75*
G02*
X96775000Y-105256250I0J218750D01*
G01*
X96775000Y-104743750D01*
G75*
G02*
X96993750Y-104525000I218750J0D01*
G01*
X97431250Y-104525000D01*
G75*
G02*
X97650000Y-104743750I0J-218750D01*
G01*
G37*
G36*
G01*
X102775000Y-86256250D02*
X102775000Y-85743750D01*
G75*
G02*
X102993750Y-85525000I218750J0D01*
G01*
X103431250Y-85525000D01*
G75*
G02*
X103650000Y-85743750I0J-218750D01*
G01*
X103650000Y-86256250D01*
G75*
G02*
X103431250Y-86475000I-218750J0D01*
G01*
X102993750Y-86475000D01*
G75*
G02*
X102775000Y-86256250I0J218750D01*
G01*
G37*
G36*
G01*
X104350000Y-86256250D02*
X104350000Y-85743750D01*
G75*
G02*
X104568750Y-85525000I218750J0D01*
G01*
X105006250Y-85525000D01*
G75*
G02*
X105225000Y-85743750I0J-218750D01*
G01*
X105225000Y-86256250D01*
G75*
G02*
X105006250Y-86475000I-218750J0D01*
G01*
X104568750Y-86475000D01*
G75*
G02*
X104350000Y-86256250I0J218750D01*
G01*
G37*
G36*
G01*
X116525000Y-89143750D02*
X116525000Y-89656250D01*
G75*
G02*
X116306250Y-89875000I-218750J0D01*
G01*
X115868750Y-89875000D01*
G75*
G02*
X115650000Y-89656250I0J218750D01*
G01*
X115650000Y-89143750D01*
G75*
G02*
X115868750Y-88925000I218750J0D01*
G01*
X116306250Y-88925000D01*
G75*
G02*
X116525000Y-89143750I0J-218750D01*
G01*
G37*
G36*
G01*
X114950000Y-89143750D02*
X114950000Y-89656250D01*
G75*
G02*
X114731250Y-89875000I-218750J0D01*
G01*
X114293750Y-89875000D01*
G75*
G02*
X114075000Y-89656250I0J218750D01*
G01*
X114075000Y-89143750D01*
G75*
G02*
X114293750Y-88925000I218750J0D01*
G01*
X114731250Y-88925000D01*
G75*
G02*
X114950000Y-89143750I0J-218750D01*
G01*
G37*
G36*
G01*
X105625000Y-111243750D02*
X105625000Y-111756250D01*
G75*
G02*
X105406250Y-111975000I-218750J0D01*
G01*
X104968750Y-111975000D01*
G75*
G02*
X104750000Y-111756250I0J218750D01*
G01*
X104750000Y-111243750D01*
G75*
G02*
X104968750Y-111025000I218750J0D01*
G01*
X105406250Y-111025000D01*
G75*
G02*
X105625000Y-111243750I0J-218750D01*
G01*
G37*
G36*
G01*
X104050000Y-111243750D02*
X104050000Y-111756250D01*
G75*
G02*
X103831250Y-111975000I-218750J0D01*
G01*
X103393750Y-111975000D01*
G75*
G02*
X103175000Y-111756250I0J218750D01*
G01*
X103175000Y-111243750D01*
G75*
G02*
X103393750Y-111025000I218750J0D01*
G01*
X103831250Y-111025000D01*
G75*
G02*
X104050000Y-111243750I0J-218750D01*
G01*
G37*
G36*
G01*
X96225000Y-106243750D02*
X96225000Y-106756250D01*
G75*
G02*
X96006250Y-106975000I-218750J0D01*
G01*
X95568750Y-106975000D01*
G75*
G02*
X95350000Y-106756250I0J218750D01*
G01*
X95350000Y-106243750D01*
G75*
G02*
X95568750Y-106025000I218750J0D01*
G01*
X96006250Y-106025000D01*
G75*
G02*
X96225000Y-106243750I0J-218750D01*
G01*
G37*
G36*
G01*
X94650000Y-106243750D02*
X94650000Y-106756250D01*
G75*
G02*
X94431250Y-106975000I-218750J0D01*
G01*
X93993750Y-106975000D01*
G75*
G02*
X93775000Y-106756250I0J218750D01*
G01*
X93775000Y-106243750D01*
G75*
G02*
X93993750Y-106025000I218750J0D01*
G01*
X94431250Y-106025000D01*
G75*
G02*
X94650000Y-106243750I0J-218750D01*
G01*
G37*
G36*
G01*
X99225000Y-106243750D02*
X99225000Y-106756250D01*
G75*
G02*
X99006250Y-106975000I-218750J0D01*
G01*
X98568750Y-106975000D01*
G75*
G02*
X98350000Y-106756250I0J218750D01*
G01*
X98350000Y-106243750D01*
G75*
G02*
X98568750Y-106025000I218750J0D01*
G01*
X99006250Y-106025000D01*
G75*
G02*
X99225000Y-106243750I0J-218750D01*
G01*
G37*
G36*
G01*
X97650000Y-106243750D02*
X97650000Y-106756250D01*
G75*
G02*
X97431250Y-106975000I-218750J0D01*
G01*
X96993750Y-106975000D01*
G75*
G02*
X96775000Y-106756250I0J218750D01*
G01*
X96775000Y-106243750D01*
G75*
G02*
X96993750Y-106025000I218750J0D01*
G01*
X97431250Y-106025000D01*
G75*
G02*
X97650000Y-106243750I0J-218750D01*
G01*
G37*
G36*
G01*
X104025000Y-108050000D02*
X104025000Y-109300000D01*
G75*
G02*
X103775000Y-109550000I-250000J0D01*
G01*
X103025000Y-109550000D01*
G75*
G02*
X102775000Y-109300000I0J250000D01*
G01*
X102775000Y-108050000D01*
G75*
G02*
X103025000Y-107800000I250000J0D01*
G01*
X103775000Y-107800000D01*
G75*
G02*
X104025000Y-108050000I0J-250000D01*
G01*
G37*
G36*
G01*
X101225000Y-108050000D02*
X101225000Y-109300000D01*
G75*
G02*
X100975000Y-109550000I-250000J0D01*
G01*
X100225000Y-109550000D01*
G75*
G02*
X99975000Y-109300000I0J250000D01*
G01*
X99975000Y-108050000D01*
G75*
G02*
X100225000Y-107800000I250000J0D01*
G01*
X100975000Y-107800000D01*
G75*
G02*
X101225000Y-108050000I0J-250000D01*
G01*
G37*
D18*
X106500000Y-84200000D03*
X106500000Y-77800000D03*
D19*
X128250000Y-76500000D03*
X128250000Y-72800000D03*
G36*
G01*
X132925000Y-73193750D02*
X132925000Y-73706250D01*
G75*
G02*
X132706250Y-73925000I-218750J0D01*
G01*
X132268750Y-73925000D01*
G75*
G02*
X132050000Y-73706250I0J218750D01*
G01*
X132050000Y-73193750D01*
G75*
G02*
X132268750Y-72975000I218750J0D01*
G01*
X132706250Y-72975000D01*
G75*
G02*
X132925000Y-73193750I0J-218750D01*
G01*
G37*
G36*
G01*
X131350000Y-73193750D02*
X131350000Y-73706250D01*
G75*
G02*
X131131250Y-73925000I-218750J0D01*
G01*
X130693750Y-73925000D01*
G75*
G02*
X130475000Y-73706250I0J218750D01*
G01*
X130475000Y-73193750D01*
G75*
G02*
X130693750Y-72975000I218750J0D01*
G01*
X131131250Y-72975000D01*
G75*
G02*
X131350000Y-73193750I0J-218750D01*
G01*
G37*
G36*
G01*
X149675000Y-81093750D02*
X149675000Y-81606250D01*
G75*
G02*
X149456250Y-81825000I-218750J0D01*
G01*
X149018750Y-81825000D01*
G75*
G02*
X148800000Y-81606250I0J218750D01*
G01*
X148800000Y-81093750D01*
G75*
G02*
X149018750Y-80875000I218750J0D01*
G01*
X149456250Y-80875000D01*
G75*
G02*
X149675000Y-81093750I0J-218750D01*
G01*
G37*
G36*
G01*
X148100000Y-81093750D02*
X148100000Y-81606250D01*
G75*
G02*
X147881250Y-81825000I-218750J0D01*
G01*
X147443750Y-81825000D01*
G75*
G02*
X147225000Y-81606250I0J218750D01*
G01*
X147225000Y-81093750D01*
G75*
G02*
X147443750Y-80875000I218750J0D01*
G01*
X147881250Y-80875000D01*
G75*
G02*
X148100000Y-81093750I0J-218750D01*
G01*
G37*
G36*
G01*
X117625000Y-114968750D02*
X117625000Y-115481250D01*
G75*
G02*
X117406250Y-115700000I-218750J0D01*
G01*
X116968750Y-115700000D01*
G75*
G02*
X116750000Y-115481250I0J218750D01*
G01*
X116750000Y-114968750D01*
G75*
G02*
X116968750Y-114750000I218750J0D01*
G01*
X117406250Y-114750000D01*
G75*
G02*
X117625000Y-114968750I0J-218750D01*
G01*
G37*
G36*
G01*
X116050000Y-114968750D02*
X116050000Y-115481250D01*
G75*
G02*
X115831250Y-115700000I-218750J0D01*
G01*
X115393750Y-115700000D01*
G75*
G02*
X115175000Y-115481250I0J218750D01*
G01*
X115175000Y-114968750D01*
G75*
G02*
X115393750Y-114750000I218750J0D01*
G01*
X115831250Y-114750000D01*
G75*
G02*
X116050000Y-114968750I0J-218750D01*
G01*
G37*
G36*
G01*
X134343750Y-113275000D02*
X134856250Y-113275000D01*
G75*
G02*
X135075000Y-113493750I0J-218750D01*
G01*
X135075000Y-113931250D01*
G75*
G02*
X134856250Y-114150000I-218750J0D01*
G01*
X134343750Y-114150000D01*
G75*
G02*
X134125000Y-113931250I0J218750D01*
G01*
X134125000Y-113493750D01*
G75*
G02*
X134343750Y-113275000I218750J0D01*
G01*
G37*
G36*
G01*
X134343750Y-114850000D02*
X134856250Y-114850000D01*
G75*
G02*
X135075000Y-115068750I0J-218750D01*
G01*
X135075000Y-115506250D01*
G75*
G02*
X134856250Y-115725000I-218750J0D01*
G01*
X134343750Y-115725000D01*
G75*
G02*
X134125000Y-115506250I0J218750D01*
G01*
X134125000Y-115068750D01*
G75*
G02*
X134343750Y-114850000I218750J0D01*
G01*
G37*
G36*
G01*
X134343750Y-110275000D02*
X134856250Y-110275000D01*
G75*
G02*
X135075000Y-110493750I0J-218750D01*
G01*
X135075000Y-110931250D01*
G75*
G02*
X134856250Y-111150000I-218750J0D01*
G01*
X134343750Y-111150000D01*
G75*
G02*
X134125000Y-110931250I0J218750D01*
G01*
X134125000Y-110493750D01*
G75*
G02*
X134343750Y-110275000I218750J0D01*
G01*
G37*
G36*
G01*
X134343750Y-111850000D02*
X134856250Y-111850000D01*
G75*
G02*
X135075000Y-112068750I0J-218750D01*
G01*
X135075000Y-112506250D01*
G75*
G02*
X134856250Y-112725000I-218750J0D01*
G01*
X134343750Y-112725000D01*
G75*
G02*
X134125000Y-112506250I0J218750D01*
G01*
X134125000Y-112068750D01*
G75*
G02*
X134343750Y-111850000I218750J0D01*
G01*
G37*
G36*
G01*
X116643750Y-118375000D02*
X117156250Y-118375000D01*
G75*
G02*
X117375000Y-118593750I0J-218750D01*
G01*
X117375000Y-119031250D01*
G75*
G02*
X117156250Y-119250000I-218750J0D01*
G01*
X116643750Y-119250000D01*
G75*
G02*
X116425000Y-119031250I0J218750D01*
G01*
X116425000Y-118593750D01*
G75*
G02*
X116643750Y-118375000I218750J0D01*
G01*
G37*
G36*
G01*
X116643750Y-119950000D02*
X117156250Y-119950000D01*
G75*
G02*
X117375000Y-120168750I0J-218750D01*
G01*
X117375000Y-120606250D01*
G75*
G02*
X117156250Y-120825000I-218750J0D01*
G01*
X116643750Y-120825000D01*
G75*
G02*
X116425000Y-120606250I0J218750D01*
G01*
X116425000Y-120168750D01*
G75*
G02*
X116643750Y-119950000I218750J0D01*
G01*
G37*
G36*
G01*
X117156250Y-123825000D02*
X116643750Y-123825000D01*
G75*
G02*
X116425000Y-123606250I0J218750D01*
G01*
X116425000Y-123168750D01*
G75*
G02*
X116643750Y-122950000I218750J0D01*
G01*
X117156250Y-122950000D01*
G75*
G02*
X117375000Y-123168750I0J-218750D01*
G01*
X117375000Y-123606250D01*
G75*
G02*
X117156250Y-123825000I-218750J0D01*
G01*
G37*
G36*
G01*
X117156250Y-122250000D02*
X116643750Y-122250000D01*
G75*
G02*
X116425000Y-122031250I0J218750D01*
G01*
X116425000Y-121593750D01*
G75*
G02*
X116643750Y-121375000I218750J0D01*
G01*
X117156250Y-121375000D01*
G75*
G02*
X117375000Y-121593750I0J-218750D01*
G01*
X117375000Y-122031250D01*
G75*
G02*
X117156250Y-122250000I-218750J0D01*
G01*
G37*
G36*
G01*
X126275000Y-112756250D02*
X126275000Y-112243750D01*
G75*
G02*
X126493750Y-112025000I218750J0D01*
G01*
X126931250Y-112025000D01*
G75*
G02*
X127150000Y-112243750I0J-218750D01*
G01*
X127150000Y-112756250D01*
G75*
G02*
X126931250Y-112975000I-218750J0D01*
G01*
X126493750Y-112975000D01*
G75*
G02*
X126275000Y-112756250I0J218750D01*
G01*
G37*
G36*
G01*
X127850000Y-112756250D02*
X127850000Y-112243750D01*
G75*
G02*
X128068750Y-112025000I218750J0D01*
G01*
X128506250Y-112025000D01*
G75*
G02*
X128725000Y-112243750I0J-218750D01*
G01*
X128725000Y-112756250D01*
G75*
G02*
X128506250Y-112975000I-218750J0D01*
G01*
X128068750Y-112975000D01*
G75*
G02*
X127850000Y-112756250I0J218750D01*
G01*
G37*
G36*
G01*
X131725000Y-112243750D02*
X131725000Y-112756250D01*
G75*
G02*
X131506250Y-112975000I-218750J0D01*
G01*
X131068750Y-112975000D01*
G75*
G02*
X130850000Y-112756250I0J218750D01*
G01*
X130850000Y-112243750D01*
G75*
G02*
X131068750Y-112025000I218750J0D01*
G01*
X131506250Y-112025000D01*
G75*
G02*
X131725000Y-112243750I0J-218750D01*
G01*
G37*
G36*
G01*
X130150000Y-112243750D02*
X130150000Y-112756250D01*
G75*
G02*
X129931250Y-112975000I-218750J0D01*
G01*
X129493750Y-112975000D01*
G75*
G02*
X129275000Y-112756250I0J218750D01*
G01*
X129275000Y-112243750D01*
G75*
G02*
X129493750Y-112025000I218750J0D01*
G01*
X129931250Y-112025000D01*
G75*
G02*
X130150000Y-112243750I0J-218750D01*
G01*
G37*
G36*
G01*
X140025000Y-123543750D02*
X140025000Y-124056250D01*
G75*
G02*
X139806250Y-124275000I-218750J0D01*
G01*
X139368750Y-124275000D01*
G75*
G02*
X139150000Y-124056250I0J218750D01*
G01*
X139150000Y-123543750D01*
G75*
G02*
X139368750Y-123325000I218750J0D01*
G01*
X139806250Y-123325000D01*
G75*
G02*
X140025000Y-123543750I0J-218750D01*
G01*
G37*
G36*
G01*
X138450000Y-123543750D02*
X138450000Y-124056250D01*
G75*
G02*
X138231250Y-124275000I-218750J0D01*
G01*
X137793750Y-124275000D01*
G75*
G02*
X137575000Y-124056250I0J218750D01*
G01*
X137575000Y-123543750D01*
G75*
G02*
X137793750Y-123325000I218750J0D01*
G01*
X138231250Y-123325000D01*
G75*
G02*
X138450000Y-123543750I0J-218750D01*
G01*
G37*
G36*
G01*
X105025000Y-87843750D02*
X105025000Y-88356250D01*
G75*
G02*
X104806250Y-88575000I-218750J0D01*
G01*
X104368750Y-88575000D01*
G75*
G02*
X104150000Y-88356250I0J218750D01*
G01*
X104150000Y-87843750D01*
G75*
G02*
X104368750Y-87625000I218750J0D01*
G01*
X104806250Y-87625000D01*
G75*
G02*
X105025000Y-87843750I0J-218750D01*
G01*
G37*
G36*
G01*
X103450000Y-87843750D02*
X103450000Y-88356250D01*
G75*
G02*
X103231250Y-88575000I-218750J0D01*
G01*
X102793750Y-88575000D01*
G75*
G02*
X102575000Y-88356250I0J218750D01*
G01*
X102575000Y-87843750D01*
G75*
G02*
X102793750Y-87625000I218750J0D01*
G01*
X103231250Y-87625000D01*
G75*
G02*
X103450000Y-87843750I0J-218750D01*
G01*
G37*
G36*
G01*
X104243750Y-89175000D02*
X104756250Y-89175000D01*
G75*
G02*
X104975000Y-89393750I0J-218750D01*
G01*
X104975000Y-89831250D01*
G75*
G02*
X104756250Y-90050000I-218750J0D01*
G01*
X104243750Y-90050000D01*
G75*
G02*
X104025000Y-89831250I0J218750D01*
G01*
X104025000Y-89393750D01*
G75*
G02*
X104243750Y-89175000I218750J0D01*
G01*
G37*
G36*
G01*
X104243750Y-90750000D02*
X104756250Y-90750000D01*
G75*
G02*
X104975000Y-90968750I0J-218750D01*
G01*
X104975000Y-91406250D01*
G75*
G02*
X104756250Y-91625000I-218750J0D01*
G01*
X104243750Y-91625000D01*
G75*
G02*
X104025000Y-91406250I0J218750D01*
G01*
X104025000Y-90968750D01*
G75*
G02*
X104243750Y-90750000I218750J0D01*
G01*
G37*
D12*
X106600000Y-85800000D03*
X106600000Y-86450000D03*
X106600000Y-87100000D03*
X106600000Y-87750000D03*
X106600000Y-88400000D03*
X106600000Y-89050000D03*
X106600000Y-89700000D03*
X106600000Y-90350000D03*
X112400000Y-90350000D03*
X112400000Y-89700000D03*
X112400000Y-89050000D03*
X112400000Y-88400000D03*
X112400000Y-87750000D03*
X112400000Y-87100000D03*
X112400000Y-86450000D03*
X112400000Y-85800000D03*
D20*
X109500000Y-88075000D03*
G36*
G01*
X111375000Y-77175000D02*
X112625000Y-77175000D01*
G75*
G02*
X112875000Y-77425000I0J-250000D01*
G01*
X112875000Y-78175000D01*
G75*
G02*
X112625000Y-78425000I-250000J0D01*
G01*
X111375000Y-78425000D01*
G75*
G02*
X111125000Y-78175000I0J250000D01*
G01*
X111125000Y-77425000D01*
G75*
G02*
X111375000Y-77175000I250000J0D01*
G01*
G37*
G36*
G01*
X111375000Y-79975000D02*
X112625000Y-79975000D01*
G75*
G02*
X112875000Y-80225000I0J-250000D01*
G01*
X112875000Y-80975000D01*
G75*
G02*
X112625000Y-81225000I-250000J0D01*
G01*
X111375000Y-81225000D01*
G75*
G02*
X111125000Y-80975000I0J250000D01*
G01*
X111125000Y-80225000D01*
G75*
G02*
X111375000Y-79975000I250000J0D01*
G01*
G37*
D10*
X99170000Y-98500000D03*
X99170000Y-95500000D03*
D21*
X93700000Y-102385000D03*
X93700000Y-91615000D03*
D11*
X104300000Y-94900000D03*
X104300000Y-101700000D03*
D22*
X94800000Y-69000000D03*
X94800000Y-69650000D03*
X94800000Y-70300000D03*
X94800000Y-70950000D03*
X94800000Y-71600000D03*
G36*
G01*
X91275000Y-116986249D02*
X91275000Y-116473749D01*
G75*
G02*
X91493750Y-116254999I218750J0D01*
G01*
X91931250Y-116254999D01*
G75*
G02*
X92150000Y-116473749I0J-218750D01*
G01*
X92150000Y-116986249D01*
G75*
G02*
X91931250Y-117204999I-218750J0D01*
G01*
X91493750Y-117204999D01*
G75*
G02*
X91275000Y-116986249I0J218750D01*
G01*
G37*
G36*
G01*
X92850000Y-116986249D02*
X92850000Y-116473749D01*
G75*
G02*
X93068750Y-116254999I218750J0D01*
G01*
X93506250Y-116254999D01*
G75*
G02*
X93725000Y-116473749I0J-218750D01*
G01*
X93725000Y-116986249D01*
G75*
G02*
X93506250Y-117204999I-218750J0D01*
G01*
X93068750Y-117204999D01*
G75*
G02*
X92850000Y-116986249I0J218750D01*
G01*
G37*
D23*
X90900000Y-113954999D03*
X91700000Y-113954999D03*
X92500000Y-113954999D03*
X93300000Y-113954999D03*
X93300000Y-111004999D03*
X92500000Y-111004999D03*
X91700000Y-111004999D03*
X90900000Y-111004999D03*
D24*
X92100000Y-113029999D03*
X92100000Y-111929999D03*
G36*
G01*
X95875000Y-114754999D02*
X94625000Y-114754999D01*
G75*
G02*
X94375000Y-114504999I0J250000D01*
G01*
X94375000Y-113754999D01*
G75*
G02*
X94625000Y-113504999I250000J0D01*
G01*
X95875000Y-113504999D01*
G75*
G02*
X96125000Y-113754999I0J-250000D01*
G01*
X96125000Y-114504999D01*
G75*
G02*
X95875000Y-114754999I-250000J0D01*
G01*
G37*
G36*
G01*
X95875000Y-111954999D02*
X94625000Y-111954999D01*
G75*
G02*
X94375000Y-111704999I0J250000D01*
G01*
X94375000Y-110954999D01*
G75*
G02*
X94625000Y-110704999I250000J0D01*
G01*
X95875000Y-110704999D01*
G75*
G02*
X96125000Y-110954999I0J-250000D01*
G01*
X96125000Y-111704999D01*
G75*
G02*
X95875000Y-111954999I-250000J0D01*
G01*
G37*
G36*
G01*
X93955000Y-108674999D02*
X93955000Y-109924999D01*
G75*
G02*
X93705000Y-110174999I-250000J0D01*
G01*
X92955000Y-110174999D01*
G75*
G02*
X92705000Y-109924999I0J250000D01*
G01*
X92705000Y-108674999D01*
G75*
G02*
X92955000Y-108424999I250000J0D01*
G01*
X93705000Y-108424999D01*
G75*
G02*
X93955000Y-108674999I0J-250000D01*
G01*
G37*
G36*
G01*
X91155000Y-108674999D02*
X91155000Y-109924999D01*
G75*
G02*
X90905000Y-110174999I-250000J0D01*
G01*
X90155000Y-110174999D01*
G75*
G02*
X89905000Y-109924999I0J250000D01*
G01*
X89905000Y-108674999D01*
G75*
G02*
X90155000Y-108424999I250000J0D01*
G01*
X90905000Y-108424999D01*
G75*
G02*
X91155000Y-108674999I0J-250000D01*
G01*
G37*
G36*
G01*
X90506250Y-117204999D02*
X89993750Y-117204999D01*
G75*
G02*
X89775000Y-116986249I0J218750D01*
G01*
X89775000Y-116548749D01*
G75*
G02*
X89993750Y-116329999I218750J0D01*
G01*
X90506250Y-116329999D01*
G75*
G02*
X90725000Y-116548749I0J-218750D01*
G01*
X90725000Y-116986249D01*
G75*
G02*
X90506250Y-117204999I-218750J0D01*
G01*
G37*
G36*
G01*
X90506250Y-115629999D02*
X89993750Y-115629999D01*
G75*
G02*
X89775000Y-115411249I0J218750D01*
G01*
X89775000Y-114973749D01*
G75*
G02*
X89993750Y-114754999I218750J0D01*
G01*
X90506250Y-114754999D01*
G75*
G02*
X90725000Y-114973749I0J-218750D01*
G01*
X90725000Y-115411249D01*
G75*
G02*
X90506250Y-115629999I-218750J0D01*
G01*
G37*
G36*
G01*
X93787500Y-85275000D02*
X94300000Y-85275000D01*
G75*
G02*
X94518750Y-85493750I0J-218750D01*
G01*
X94518750Y-85931250D01*
G75*
G02*
X94300000Y-86150000I-218750J0D01*
G01*
X93787500Y-86150000D01*
G75*
G02*
X93568750Y-85931250I0J218750D01*
G01*
X93568750Y-85493750D01*
G75*
G02*
X93787500Y-85275000I218750J0D01*
G01*
G37*
G36*
G01*
X93787500Y-86850000D02*
X94300000Y-86850000D01*
G75*
G02*
X94518750Y-87068750I0J-218750D01*
G01*
X94518750Y-87506250D01*
G75*
G02*
X94300000Y-87725000I-218750J0D01*
G01*
X93787500Y-87725000D01*
G75*
G02*
X93568750Y-87506250I0J218750D01*
G01*
X93568750Y-87068750D01*
G75*
G02*
X93787500Y-86850000I218750J0D01*
G01*
G37*
D17*
X97143750Y-88750000D03*
X97143750Y-90050000D03*
X99143750Y-89400000D03*
G36*
G01*
X95287500Y-85275000D02*
X95800000Y-85275000D01*
G75*
G02*
X96018750Y-85493750I0J-218750D01*
G01*
X96018750Y-85931250D01*
G75*
G02*
X95800000Y-86150000I-218750J0D01*
G01*
X95287500Y-86150000D01*
G75*
G02*
X95068750Y-85931250I0J218750D01*
G01*
X95068750Y-85493750D01*
G75*
G02*
X95287500Y-85275000I218750J0D01*
G01*
G37*
G36*
G01*
X95287500Y-86850000D02*
X95800000Y-86850000D01*
G75*
G02*
X96018750Y-87068750I0J-218750D01*
G01*
X96018750Y-87506250D01*
G75*
G02*
X95800000Y-87725000I-218750J0D01*
G01*
X95287500Y-87725000D01*
G75*
G02*
X95068750Y-87506250I0J218750D01*
G01*
X95068750Y-87068750D01*
G75*
G02*
X95287500Y-86850000I218750J0D01*
G01*
G37*
G36*
G01*
X96068750Y-88543750D02*
X96068750Y-89056250D01*
G75*
G02*
X95850000Y-89275000I-218750J0D01*
G01*
X95412500Y-89275000D01*
G75*
G02*
X95193750Y-89056250I0J218750D01*
G01*
X95193750Y-88543750D01*
G75*
G02*
X95412500Y-88325000I218750J0D01*
G01*
X95850000Y-88325000D01*
G75*
G02*
X96068750Y-88543750I0J-218750D01*
G01*
G37*
G36*
G01*
X94493750Y-88543750D02*
X94493750Y-89056250D01*
G75*
G02*
X94275000Y-89275000I-218750J0D01*
G01*
X93837500Y-89275000D01*
G75*
G02*
X93618750Y-89056250I0J218750D01*
G01*
X93618750Y-88543750D01*
G75*
G02*
X93837500Y-88325000I218750J0D01*
G01*
X94275000Y-88325000D01*
G75*
G02*
X94493750Y-88543750I0J-218750D01*
G01*
G37*
D25*
X151900000Y-81500000D03*
X150600000Y-81500000D03*
X151250000Y-83500000D03*
G36*
G01*
X97300000Y-87725000D02*
X96787500Y-87725000D01*
G75*
G02*
X96568750Y-87506250I0J218750D01*
G01*
X96568750Y-87068750D01*
G75*
G02*
X96787500Y-86850000I218750J0D01*
G01*
X97300000Y-86850000D01*
G75*
G02*
X97518750Y-87068750I0J-218750D01*
G01*
X97518750Y-87506250D01*
G75*
G02*
X97300000Y-87725000I-218750J0D01*
G01*
G37*
G36*
G01*
X97300000Y-86150000D02*
X96787500Y-86150000D01*
G75*
G02*
X96568750Y-85931250I0J218750D01*
G01*
X96568750Y-85493750D01*
G75*
G02*
X96787500Y-85275000I218750J0D01*
G01*
X97300000Y-85275000D01*
G75*
G02*
X97518750Y-85493750I0J-218750D01*
G01*
X97518750Y-85931250D01*
G75*
G02*
X97300000Y-86150000I-218750J0D01*
G01*
G37*
G36*
G01*
X143575000Y-88006250D02*
X143575000Y-87493750D01*
G75*
G02*
X143793750Y-87275000I218750J0D01*
G01*
X144231250Y-87275000D01*
G75*
G02*
X144450000Y-87493750I0J-218750D01*
G01*
X144450000Y-88006250D01*
G75*
G02*
X144231250Y-88225000I-218750J0D01*
G01*
X143793750Y-88225000D01*
G75*
G02*
X143575000Y-88006250I0J218750D01*
G01*
G37*
G36*
G01*
X145150000Y-88006250D02*
X145150000Y-87493750D01*
G75*
G02*
X145368750Y-87275000I218750J0D01*
G01*
X145806250Y-87275000D01*
G75*
G02*
X146025000Y-87493750I0J-218750D01*
G01*
X146025000Y-88006250D01*
G75*
G02*
X145806250Y-88225000I-218750J0D01*
G01*
X145368750Y-88225000D01*
G75*
G02*
X145150000Y-88006250I0J218750D01*
G01*
G37*
G36*
G01*
X93725000Y-114973749D02*
X93725000Y-115486249D01*
G75*
G02*
X93506250Y-115704999I-218750J0D01*
G01*
X93068750Y-115704999D01*
G75*
G02*
X92850000Y-115486249I0J218750D01*
G01*
X92850000Y-114973749D01*
G75*
G02*
X93068750Y-114754999I218750J0D01*
G01*
X93506250Y-114754999D01*
G75*
G02*
X93725000Y-114973749I0J-218750D01*
G01*
G37*
G36*
G01*
X92150000Y-114973749D02*
X92150000Y-115486249D01*
G75*
G02*
X91931250Y-115704999I-218750J0D01*
G01*
X91493750Y-115704999D01*
G75*
G02*
X91275000Y-115486249I0J218750D01*
G01*
X91275000Y-114973749D01*
G75*
G02*
X91493750Y-114754999I218750J0D01*
G01*
X91931250Y-114754999D01*
G75*
G02*
X92150000Y-114973749I0J-218750D01*
G01*
G37*
D26*
X102100000Y-112525000D03*
X102100000Y-110625000D03*
X100100000Y-111575000D03*
G36*
G01*
X124243750Y-125275000D02*
X124756250Y-125275000D01*
G75*
G02*
X124975000Y-125493750I0J-218750D01*
G01*
X124975000Y-125931250D01*
G75*
G02*
X124756250Y-126150000I-218750J0D01*
G01*
X124243750Y-126150000D01*
G75*
G02*
X124025000Y-125931250I0J218750D01*
G01*
X124025000Y-125493750D01*
G75*
G02*
X124243750Y-125275000I218750J0D01*
G01*
G37*
G36*
G01*
X124243750Y-126850000D02*
X124756250Y-126850000D01*
G75*
G02*
X124975000Y-127068750I0J-218750D01*
G01*
X124975000Y-127506250D01*
G75*
G02*
X124756250Y-127725000I-218750J0D01*
G01*
X124243750Y-127725000D01*
G75*
G02*
X124025000Y-127506250I0J218750D01*
G01*
X124025000Y-127068750D01*
G75*
G02*
X124243750Y-126850000I218750J0D01*
G01*
G37*
G36*
G01*
X140975000Y-128056250D02*
X140975000Y-127543750D01*
G75*
G02*
X141193750Y-127325000I218750J0D01*
G01*
X141631250Y-127325000D01*
G75*
G02*
X141850000Y-127543750I0J-218750D01*
G01*
X141850000Y-128056250D01*
G75*
G02*
X141631250Y-128275000I-218750J0D01*
G01*
X141193750Y-128275000D01*
G75*
G02*
X140975000Y-128056250I0J218750D01*
G01*
G37*
G36*
G01*
X142550000Y-128056250D02*
X142550000Y-127543750D01*
G75*
G02*
X142768750Y-127325000I218750J0D01*
G01*
X143206250Y-127325000D01*
G75*
G02*
X143425000Y-127543750I0J-218750D01*
G01*
X143425000Y-128056250D01*
G75*
G02*
X143206250Y-128275000I-218750J0D01*
G01*
X142768750Y-128275000D01*
G75*
G02*
X142550000Y-128056250I0J218750D01*
G01*
G37*
D27*
X139550000Y-125400000D03*
X138600000Y-125400000D03*
X137650000Y-125400000D03*
X137650000Y-127600000D03*
X139550000Y-127600000D03*
G36*
G01*
X126275000Y-114256250D02*
X126275000Y-113743750D01*
G75*
G02*
X126493750Y-113525000I218750J0D01*
G01*
X126931250Y-113525000D01*
G75*
G02*
X127150000Y-113743750I0J-218750D01*
G01*
X127150000Y-114256250D01*
G75*
G02*
X126931250Y-114475000I-218750J0D01*
G01*
X126493750Y-114475000D01*
G75*
G02*
X126275000Y-114256250I0J218750D01*
G01*
G37*
G36*
G01*
X127850000Y-114256250D02*
X127850000Y-113743750D01*
G75*
G02*
X128068750Y-113525000I218750J0D01*
G01*
X128506250Y-113525000D01*
G75*
G02*
X128725000Y-113743750I0J-218750D01*
G01*
X128725000Y-114256250D01*
G75*
G02*
X128506250Y-114475000I-218750J0D01*
G01*
X128068750Y-114475000D01*
G75*
G02*
X127850000Y-114256250I0J218750D01*
G01*
G37*
G36*
G01*
X131725000Y-113743750D02*
X131725000Y-114256250D01*
G75*
G02*
X131506250Y-114475000I-218750J0D01*
G01*
X131068750Y-114475000D01*
G75*
G02*
X130850000Y-114256250I0J218750D01*
G01*
X130850000Y-113743750D01*
G75*
G02*
X131068750Y-113525000I218750J0D01*
G01*
X131506250Y-113525000D01*
G75*
G02*
X131725000Y-113743750I0J-218750D01*
G01*
G37*
G36*
G01*
X130150000Y-113743750D02*
X130150000Y-114256250D01*
G75*
G02*
X129931250Y-114475000I-218750J0D01*
G01*
X129493750Y-114475000D01*
G75*
G02*
X129275000Y-114256250I0J218750D01*
G01*
X129275000Y-113743750D01*
G75*
G02*
X129493750Y-113525000I218750J0D01*
G01*
X129931250Y-113525000D01*
G75*
G02*
X130150000Y-113743750I0J-218750D01*
G01*
G37*
G36*
G01*
X115725000Y-88325000D02*
X114475000Y-88325000D01*
G75*
G02*
X114225000Y-88075000I0J250000D01*
G01*
X114225000Y-87325000D01*
G75*
G02*
X114475000Y-87075000I250000J0D01*
G01*
X115725000Y-87075000D01*
G75*
G02*
X115975000Y-87325000I0J-250000D01*
G01*
X115975000Y-88075000D01*
G75*
G02*
X115725000Y-88325000I-250000J0D01*
G01*
G37*
G36*
G01*
X115725000Y-85525000D02*
X114475000Y-85525000D01*
G75*
G02*
X114225000Y-85275000I0J250000D01*
G01*
X114225000Y-84525000D01*
G75*
G02*
X114475000Y-84275000I250000J0D01*
G01*
X115725000Y-84275000D01*
G75*
G02*
X115975000Y-84525000I0J-250000D01*
G01*
X115975000Y-85275000D01*
G75*
G02*
X115725000Y-85525000I-250000J0D01*
G01*
G37*
G36*
G01*
X116356250Y-92925000D02*
X115843750Y-92925000D01*
G75*
G02*
X115625000Y-92706250I0J218750D01*
G01*
X115625000Y-92268750D01*
G75*
G02*
X115843750Y-92050000I218750J0D01*
G01*
X116356250Y-92050000D01*
G75*
G02*
X116575000Y-92268750I0J-218750D01*
G01*
X116575000Y-92706250D01*
G75*
G02*
X116356250Y-92925000I-218750J0D01*
G01*
G37*
G36*
G01*
X116356250Y-91350000D02*
X115843750Y-91350000D01*
G75*
G02*
X115625000Y-91131250I0J218750D01*
G01*
X115625000Y-90693750D01*
G75*
G02*
X115843750Y-90475000I218750J0D01*
G01*
X116356250Y-90475000D01*
G75*
G02*
X116575000Y-90693750I0J-218750D01*
G01*
X116575000Y-91131250D01*
G75*
G02*
X116356250Y-91350000I-218750J0D01*
G01*
G37*
G36*
G01*
X114856250Y-92925000D02*
X114343750Y-92925000D01*
G75*
G02*
X114125000Y-92706250I0J218750D01*
G01*
X114125000Y-92268750D01*
G75*
G02*
X114343750Y-92050000I218750J0D01*
G01*
X114856250Y-92050000D01*
G75*
G02*
X115075000Y-92268750I0J-218750D01*
G01*
X115075000Y-92706250D01*
G75*
G02*
X114856250Y-92925000I-218750J0D01*
G01*
G37*
G36*
G01*
X114856250Y-91350000D02*
X114343750Y-91350000D01*
G75*
G02*
X114125000Y-91131250I0J218750D01*
G01*
X114125000Y-90693750D01*
G75*
G02*
X114343750Y-90475000I218750J0D01*
G01*
X114856250Y-90475000D01*
G75*
G02*
X115075000Y-90693750I0J-218750D01*
G01*
X115075000Y-91131250D01*
G75*
G02*
X114856250Y-91350000I-218750J0D01*
G01*
G37*
G36*
G01*
X126806250Y-65825000D02*
X126293750Y-65825000D01*
G75*
G02*
X126075000Y-65606250I0J218750D01*
G01*
X126075000Y-65168750D01*
G75*
G02*
X126293750Y-64950000I218750J0D01*
G01*
X126806250Y-64950000D01*
G75*
G02*
X127025000Y-65168750I0J-218750D01*
G01*
X127025000Y-65606250D01*
G75*
G02*
X126806250Y-65825000I-218750J0D01*
G01*
G37*
G36*
G01*
X126806250Y-64250000D02*
X126293750Y-64250000D01*
G75*
G02*
X126075000Y-64031250I0J218750D01*
G01*
X126075000Y-63593750D01*
G75*
G02*
X126293750Y-63375000I218750J0D01*
G01*
X126806250Y-63375000D01*
G75*
G02*
X127025000Y-63593750I0J-218750D01*
G01*
X127025000Y-64031250D01*
G75*
G02*
X126806250Y-64250000I-218750J0D01*
G01*
G37*
D28*
X123525000Y-66300000D03*
X123525000Y-65500000D03*
X123525000Y-64700000D03*
X123525000Y-63900000D03*
X120575000Y-63900000D03*
X120575000Y-64700000D03*
X120575000Y-65500000D03*
X120575000Y-66300000D03*
D29*
X122600000Y-65100000D03*
X121500000Y-65100000D03*
G36*
G01*
X126975000Y-66843750D02*
X126975000Y-67356250D01*
G75*
G02*
X126756250Y-67575000I-218750J0D01*
G01*
X126318750Y-67575000D01*
G75*
G02*
X126100000Y-67356250I0J218750D01*
G01*
X126100000Y-66843750D01*
G75*
G02*
X126318750Y-66625000I218750J0D01*
G01*
X126756250Y-66625000D01*
G75*
G02*
X126975000Y-66843750I0J-218750D01*
G01*
G37*
G36*
G01*
X125400000Y-66843750D02*
X125400000Y-67356250D01*
G75*
G02*
X125181250Y-67575000I-218750J0D01*
G01*
X124743750Y-67575000D01*
G75*
G02*
X124525000Y-67356250I0J218750D01*
G01*
X124525000Y-66843750D01*
G75*
G02*
X124743750Y-66625000I218750J0D01*
G01*
X125181250Y-66625000D01*
G75*
G02*
X125400000Y-66843750I0J-218750D01*
G01*
G37*
G36*
G01*
X124793750Y-63375000D02*
X125306250Y-63375000D01*
G75*
G02*
X125525000Y-63593750I0J-218750D01*
G01*
X125525000Y-64031250D01*
G75*
G02*
X125306250Y-64250000I-218750J0D01*
G01*
X124793750Y-64250000D01*
G75*
G02*
X124575000Y-64031250I0J218750D01*
G01*
X124575000Y-63593750D01*
G75*
G02*
X124793750Y-63375000I218750J0D01*
G01*
G37*
G36*
G01*
X124793750Y-64950000D02*
X125306250Y-64950000D01*
G75*
G02*
X125525000Y-65168750I0J-218750D01*
G01*
X125525000Y-65606250D01*
G75*
G02*
X125306250Y-65825000I-218750J0D01*
G01*
X124793750Y-65825000D01*
G75*
G02*
X124575000Y-65606250I0J218750D01*
G01*
X124575000Y-65168750D01*
G75*
G02*
X124793750Y-64950000I218750J0D01*
G01*
G37*
G36*
G01*
X124575000Y-61275000D02*
X124575000Y-62525000D01*
G75*
G02*
X124325000Y-62775000I-250000J0D01*
G01*
X123575000Y-62775000D01*
G75*
G02*
X123325000Y-62525000I0J250000D01*
G01*
X123325000Y-61275000D01*
G75*
G02*
X123575000Y-61025000I250000J0D01*
G01*
X124325000Y-61025000D01*
G75*
G02*
X124575000Y-61275000I0J-250000D01*
G01*
G37*
G36*
G01*
X121775000Y-61275000D02*
X121775000Y-62525000D01*
G75*
G02*
X121525000Y-62775000I-250000J0D01*
G01*
X120775000Y-62775000D01*
G75*
G02*
X120525000Y-62525000I0J250000D01*
G01*
X120525000Y-61275000D01*
G75*
G02*
X120775000Y-61025000I250000J0D01*
G01*
X121525000Y-61025000D01*
G75*
G02*
X121775000Y-61275000I0J-250000D01*
G01*
G37*
G36*
G01*
X118225000Y-63075000D02*
X119475000Y-63075000D01*
G75*
G02*
X119725000Y-63325000I0J-250000D01*
G01*
X119725000Y-64075000D01*
G75*
G02*
X119475000Y-64325000I-250000J0D01*
G01*
X118225000Y-64325000D01*
G75*
G02*
X117975000Y-64075000I0J250000D01*
G01*
X117975000Y-63325000D01*
G75*
G02*
X118225000Y-63075000I250000J0D01*
G01*
G37*
G36*
G01*
X118225000Y-65875000D02*
X119475000Y-65875000D01*
G75*
G02*
X119725000Y-66125000I0J-250000D01*
G01*
X119725000Y-66875000D01*
G75*
G02*
X119475000Y-67125000I-250000J0D01*
G01*
X118225000Y-67125000D01*
G75*
G02*
X117975000Y-66875000I0J250000D01*
G01*
X117975000Y-66125000D01*
G75*
G02*
X118225000Y-65875000I250000J0D01*
G01*
G37*
G36*
G01*
X124956250Y-117325000D02*
X124443750Y-117325000D01*
G75*
G02*
X124225000Y-117106250I0J218750D01*
G01*
X124225000Y-116668750D01*
G75*
G02*
X124443750Y-116450000I218750J0D01*
G01*
X124956250Y-116450000D01*
G75*
G02*
X125175000Y-116668750I0J-218750D01*
G01*
X125175000Y-117106250D01*
G75*
G02*
X124956250Y-117325000I-218750J0D01*
G01*
G37*
G36*
G01*
X124956250Y-115750000D02*
X124443750Y-115750000D01*
G75*
G02*
X124225000Y-115531250I0J218750D01*
G01*
X124225000Y-115093750D01*
G75*
G02*
X124443750Y-114875000I218750J0D01*
G01*
X124956250Y-114875000D01*
G75*
G02*
X125175000Y-115093750I0J-218750D01*
G01*
X125175000Y-115531250D01*
G75*
G02*
X124956250Y-115750000I-218750J0D01*
G01*
G37*
M02*
