%TF.GenerationSoftware,KiCad,Pcbnew,5.99.0-unknown-dd374e12a~102~ubuntu20.04.1*%
%TF.CreationDate,2020-12-04T16:52:22-08:00*%
%TF.ProjectId,blue_interface_board,626c7565-5f69-46e7-9465-72666163655f,rev?*%
%TF.SameCoordinates,Original*%
%TF.FileFunction,Copper,L1,Top*%
%TF.FilePolarity,Positive*%
%FSLAX46Y46*%
G04 Gerber Fmt 4.6, Leading zero omitted, Abs format (unit mm)*
G04 Created by KiCad (PCBNEW 5.99.0-unknown-dd374e12a~102~ubuntu20.04.1) date 2020-12-04 16:52:22*
%MOMM*%
%LPD*%
G01*
G04 APERTURE LIST*
%TA.AperFunction,SMDPad,CuDef*%
%ADD10R,2.920000X1.270000*%
%TD*%
%TA.AperFunction,ComponentPad*%
%ADD11C,3.000000*%
%TD*%
%TA.AperFunction,SMDPad,CuDef*%
%ADD12R,3.300000X2.500000*%
%TD*%
%TA.AperFunction,SMDPad,CuDef*%
%ADD13R,1.500000X0.450000*%
%TD*%
%TA.AperFunction,ComponentPad*%
%ADD14C,0.762000*%
%TD*%
%TA.AperFunction,SMDPad,CuDef*%
%ADD15R,3.400000X9.700000*%
%TD*%
%TA.AperFunction,SMDPad,CuDef*%
%ADD16R,1.200000X0.900000*%
%TD*%
%TA.AperFunction,SMDPad,CuDef*%
%ADD17R,0.800000X0.900000*%
%TD*%
%TA.AperFunction,SMDPad,CuDef*%
%ADD18R,1.100000X4.600000*%
%TD*%
%TA.AperFunction,SMDPad,CuDef*%
%ADD19R,10.800000X9.400000*%
%TD*%
%TA.AperFunction,ComponentPad*%
%ADD20O,4.500000X2.500000*%
%TD*%
%TA.AperFunction,ComponentPad*%
%ADD21C,5.000000*%
%TD*%
%TA.AperFunction,SMDPad,CuDef*%
%ADD22R,0.700000X0.450000*%
%TD*%
%TA.AperFunction,ComponentPad*%
%ADD23C,1.000000*%
%TD*%
%TA.AperFunction,ComponentPad*%
%ADD24O,1.000000X1.000000*%
%TD*%
%TA.AperFunction,SMDPad,CuDef*%
%ADD25R,2.200000X1.500000*%
%TD*%
%TA.AperFunction,SMDPad,CuDef*%
%ADD26R,2.400000X2.000000*%
%TD*%
%TA.AperFunction,SMDPad,CuDef*%
%ADD27R,3.400000X5.000000*%
%TD*%
%TA.AperFunction,SMDPad,CuDef*%
%ADD28R,1.650000X3.430000*%
%TD*%
%TA.AperFunction,SMDPad,CuDef*%
%ADD29R,1.300000X0.450000*%
%TD*%
%TA.AperFunction,ComponentPad*%
%ADD30C,2.000000*%
%TD*%
%TA.AperFunction,ComponentPad*%
%ADD31C,1.800000*%
%TD*%
%TA.AperFunction,ComponentPad*%
%ADD32C,1.700000*%
%TD*%
%TA.AperFunction,ComponentPad*%
%ADD33O,1.700000X1.700000*%
%TD*%
%TA.AperFunction,ComponentPad*%
%ADD34O,2.200000X1.740000*%
%TD*%
%TA.AperFunction,SMDPad,CuDef*%
%ADD35R,0.400000X0.450000*%
%TD*%
%TA.AperFunction,SMDPad,CuDef*%
%ADD36R,1.900000X0.800000*%
%TD*%
%TA.AperFunction,ComponentPad*%
%ADD37O,2.200000X1.700000*%
%TD*%
%TA.AperFunction,SMDPad,CuDef*%
%ADD38R,0.450000X0.700000*%
%TD*%
%TA.AperFunction,SMDPad,CuDef*%
%ADD39R,0.900000X0.800000*%
%TD*%
%TA.AperFunction,SMDPad,CuDef*%
%ADD40R,0.650000X1.060000*%
%TD*%
%TA.AperFunction,SMDPad,CuDef*%
%ADD41R,0.450000X0.400000*%
%TD*%
%TA.AperFunction,SMDPad,CuDef*%
%ADD42R,0.800000X1.900000*%
%TD*%
%TA.AperFunction,ViaPad*%
%ADD43C,0.762000*%
%TD*%
%TA.AperFunction,Conductor*%
%ADD44C,0.304800*%
%TD*%
%TA.AperFunction,Conductor*%
%ADD45C,0.254000*%
%TD*%
%TA.AperFunction,Conductor*%
%ADD46C,0.508000*%
%TD*%
%TA.AperFunction,Conductor*%
%ADD47C,1.270000*%
%TD*%
%TA.AperFunction,Conductor*%
%ADD48C,0.203200*%
%TD*%
%TA.AperFunction,Conductor*%
%ADD49C,0.177800*%
%TD*%
%TA.AperFunction,Conductor*%
%ADD50C,0.450000*%
%TD*%
G04 APERTURE END LIST*
D10*
X148820000Y-89970000D03*
X148820000Y-92970000D03*
X148820000Y-95970000D03*
X148820000Y-98970000D03*
X148820000Y-101970000D03*
D11*
X154290000Y-104120000D03*
X154290000Y-87820000D03*
%TA.AperFunction,SMDPad,CuDef*%
G36*
G01*
X135843750Y-110275000D02*
X136356250Y-110275000D01*
G75*
G02*
X136575000Y-110493750I0J-218750D01*
G01*
X136575000Y-110931250D01*
G75*
G02*
X136356250Y-111150000I-218750J0D01*
G01*
X135843750Y-111150000D01*
G75*
G02*
X135625000Y-110931250I0J218750D01*
G01*
X135625000Y-110493750D01*
G75*
G02*
X135843750Y-110275000I218750J0D01*
G01*
G37*
%TD.AperFunction*%
%TA.AperFunction,SMDPad,CuDef*%
G36*
G01*
X135843750Y-111850000D02*
X136356250Y-111850000D01*
G75*
G02*
X136575000Y-112068750I0J-218750D01*
G01*
X136575000Y-112506250D01*
G75*
G02*
X136356250Y-112725000I-218750J0D01*
G01*
X135843750Y-112725000D01*
G75*
G02*
X135625000Y-112506250I0J218750D01*
G01*
X135625000Y-112068750D01*
G75*
G02*
X135843750Y-111850000I218750J0D01*
G01*
G37*
%TD.AperFunction*%
D12*
X143500000Y-103600000D03*
X143500000Y-96800000D03*
%TA.AperFunction,SMDPad,CuDef*%
G36*
G01*
X99935000Y-116675000D02*
X101185000Y-116675000D01*
G75*
G02*
X101435000Y-116925000I0J-250000D01*
G01*
X101435000Y-117675000D01*
G75*
G02*
X101185000Y-117925000I-250000J0D01*
G01*
X99935000Y-117925000D01*
G75*
G02*
X99685000Y-117675000I0J250000D01*
G01*
X99685000Y-116925000D01*
G75*
G02*
X99935000Y-116675000I250000J0D01*
G01*
G37*
%TD.AperFunction*%
%TA.AperFunction,SMDPad,CuDef*%
G36*
G01*
X99935000Y-119475000D02*
X101185000Y-119475000D01*
G75*
G02*
X101435000Y-119725000I0J-250000D01*
G01*
X101435000Y-120475000D01*
G75*
G02*
X101185000Y-120725000I-250000J0D01*
G01*
X99935000Y-120725000D01*
G75*
G02*
X99685000Y-120475000I0J250000D01*
G01*
X99685000Y-119725000D01*
G75*
G02*
X99935000Y-119475000I250000J0D01*
G01*
G37*
%TD.AperFunction*%
%TA.AperFunction,SMDPad,CuDef*%
G36*
G01*
X117625000Y-113468750D02*
X117625000Y-113981250D01*
G75*
G02*
X117406250Y-114200000I-218750J0D01*
G01*
X116968750Y-114200000D01*
G75*
G02*
X116750000Y-113981250I0J218750D01*
G01*
X116750000Y-113468750D01*
G75*
G02*
X116968750Y-113250000I218750J0D01*
G01*
X117406250Y-113250000D01*
G75*
G02*
X117625000Y-113468750I0J-218750D01*
G01*
G37*
%TD.AperFunction*%
%TA.AperFunction,SMDPad,CuDef*%
G36*
G01*
X116050000Y-113468750D02*
X116050000Y-113981250D01*
G75*
G02*
X115831250Y-114200000I-218750J0D01*
G01*
X115393750Y-114200000D01*
G75*
G02*
X115175000Y-113981250I0J218750D01*
G01*
X115175000Y-113468750D01*
G75*
G02*
X115393750Y-113250000I218750J0D01*
G01*
X115831250Y-113250000D01*
G75*
G02*
X116050000Y-113468750I0J-218750D01*
G01*
G37*
%TD.AperFunction*%
%TA.AperFunction,SMDPad,CuDef*%
G36*
G01*
X111803750Y-118775000D02*
X112316250Y-118775000D01*
G75*
G02*
X112535000Y-118993750I0J-218750D01*
G01*
X112535000Y-119431250D01*
G75*
G02*
X112316250Y-119650000I-218750J0D01*
G01*
X111803750Y-119650000D01*
G75*
G02*
X111585000Y-119431250I0J218750D01*
G01*
X111585000Y-118993750D01*
G75*
G02*
X111803750Y-118775000I218750J0D01*
G01*
G37*
%TD.AperFunction*%
%TA.AperFunction,SMDPad,CuDef*%
G36*
G01*
X111803750Y-120350000D02*
X112316250Y-120350000D01*
G75*
G02*
X112535000Y-120568750I0J-218750D01*
G01*
X112535000Y-121006250D01*
G75*
G02*
X112316250Y-121225000I-218750J0D01*
G01*
X111803750Y-121225000D01*
G75*
G02*
X111585000Y-121006250I0J218750D01*
G01*
X111585000Y-120568750D01*
G75*
G02*
X111803750Y-120350000I218750J0D01*
G01*
G37*
%TD.AperFunction*%
D13*
X104130000Y-114610000D03*
X104130000Y-115260000D03*
X104130000Y-115910000D03*
X104130000Y-116560000D03*
X104130000Y-117210000D03*
X104130000Y-117860000D03*
X104130000Y-118510000D03*
X104130000Y-119160000D03*
X104130000Y-119810000D03*
X104130000Y-120460000D03*
X104130000Y-121110000D03*
X104130000Y-121760000D03*
X104130000Y-122410000D03*
X104130000Y-123060000D03*
X109930000Y-123060000D03*
X109930000Y-122410000D03*
X109930000Y-121760000D03*
X109930000Y-121110000D03*
X109930000Y-120460000D03*
X109930000Y-119810000D03*
X109930000Y-119160000D03*
X109930000Y-118510000D03*
X109930000Y-117860000D03*
X109930000Y-117210000D03*
X109930000Y-116560000D03*
X109930000Y-115910000D03*
X109930000Y-115260000D03*
X109930000Y-114610000D03*
D14*
X108330000Y-114935000D03*
X105730000Y-114935000D03*
X107030000Y-118835000D03*
X105730000Y-120135000D03*
X107030000Y-116235000D03*
D15*
X107030000Y-118835000D03*
D14*
X108330000Y-118835000D03*
X108330000Y-121435000D03*
X105730000Y-118835000D03*
X108330000Y-122735000D03*
X105730000Y-122735000D03*
X107030000Y-114935000D03*
X108330000Y-120135000D03*
X107030000Y-122735000D03*
X107030000Y-117535000D03*
X105730000Y-117535000D03*
X108330000Y-117535000D03*
X107030000Y-121435000D03*
X105730000Y-121435000D03*
X108330000Y-116235000D03*
X105730000Y-116235000D03*
X107030000Y-120135000D03*
%TA.AperFunction,SMDPad,CuDef*%
G36*
G01*
X112075000Y-114956250D02*
X112075000Y-114443750D01*
G75*
G02*
X112293750Y-114225000I218750J0D01*
G01*
X112731250Y-114225000D01*
G75*
G02*
X112950000Y-114443750I0J-218750D01*
G01*
X112950000Y-114956250D01*
G75*
G02*
X112731250Y-115175000I-218750J0D01*
G01*
X112293750Y-115175000D01*
G75*
G02*
X112075000Y-114956250I0J218750D01*
G01*
G37*
%TD.AperFunction*%
%TA.AperFunction,SMDPad,CuDef*%
G36*
G01*
X113650000Y-114956250D02*
X113650000Y-114443750D01*
G75*
G02*
X113868750Y-114225000I218750J0D01*
G01*
X114306250Y-114225000D01*
G75*
G02*
X114525000Y-114443750I0J-218750D01*
G01*
X114525000Y-114956250D01*
G75*
G02*
X114306250Y-115175000I-218750J0D01*
G01*
X113868750Y-115175000D01*
G75*
G02*
X113650000Y-114956250I0J218750D01*
G01*
G37*
%TD.AperFunction*%
%TA.AperFunction,SMDPad,CuDef*%
G36*
G01*
X112075000Y-116456250D02*
X112075000Y-115943750D01*
G75*
G02*
X112293750Y-115725000I218750J0D01*
G01*
X112731250Y-115725000D01*
G75*
G02*
X112950000Y-115943750I0J-218750D01*
G01*
X112950000Y-116456250D01*
G75*
G02*
X112731250Y-116675000I-218750J0D01*
G01*
X112293750Y-116675000D01*
G75*
G02*
X112075000Y-116456250I0J218750D01*
G01*
G37*
%TD.AperFunction*%
%TA.AperFunction,SMDPad,CuDef*%
G36*
G01*
X113650000Y-116456250D02*
X113650000Y-115943750D01*
G75*
G02*
X113868750Y-115725000I218750J0D01*
G01*
X114306250Y-115725000D01*
G75*
G02*
X114525000Y-115943750I0J-218750D01*
G01*
X114525000Y-116456250D01*
G75*
G02*
X114306250Y-116675000I-218750J0D01*
G01*
X113868750Y-116675000D01*
G75*
G02*
X113650000Y-116456250I0J218750D01*
G01*
G37*
%TD.AperFunction*%
D16*
X107100000Y-108250000D03*
X107100000Y-111550000D03*
%TA.AperFunction,SMDPad,CuDef*%
G36*
G01*
X111535000Y-123481250D02*
X111535000Y-122968750D01*
G75*
G02*
X111753750Y-122750000I218750J0D01*
G01*
X112191250Y-122750000D01*
G75*
G02*
X112410000Y-122968750I0J-218750D01*
G01*
X112410000Y-123481250D01*
G75*
G02*
X112191250Y-123700000I-218750J0D01*
G01*
X111753750Y-123700000D01*
G75*
G02*
X111535000Y-123481250I0J218750D01*
G01*
G37*
%TD.AperFunction*%
%TA.AperFunction,SMDPad,CuDef*%
G36*
G01*
X113110000Y-123481250D02*
X113110000Y-122968750D01*
G75*
G02*
X113328750Y-122750000I218750J0D01*
G01*
X113766250Y-122750000D01*
G75*
G02*
X113985000Y-122968750I0J-218750D01*
G01*
X113985000Y-123481250D01*
G75*
G02*
X113766250Y-123700000I-218750J0D01*
G01*
X113328750Y-123700000D01*
G75*
G02*
X113110000Y-123481250I0J218750D01*
G01*
G37*
%TD.AperFunction*%
%TA.AperFunction,SMDPad,CuDef*%
G36*
G01*
X134482719Y-108600000D02*
X125382717Y-108600000D01*
G75*
G02*
X125132718Y-108350001I0J249999D01*
G01*
X125132718Y-100049999D01*
G75*
G02*
X125382717Y-99800000I249999J0D01*
G01*
X134482719Y-99800000D01*
G75*
G02*
X134732718Y-100049999I0J-249999D01*
G01*
X134732718Y-108350001D01*
G75*
G02*
X134482719Y-108600000I-249999J0D01*
G01*
G37*
%TD.AperFunction*%
%TA.AperFunction,SMDPad,CuDef*%
G36*
G01*
X134482719Y-95100000D02*
X125382717Y-95100000D01*
G75*
G02*
X125132718Y-94850001I0J249999D01*
G01*
X125132718Y-86549999D01*
G75*
G02*
X125382717Y-86300000I249999J0D01*
G01*
X134482719Y-86300000D01*
G75*
G02*
X134732718Y-86549999I0J-249999D01*
G01*
X134732718Y-94850001D01*
G75*
G02*
X134482719Y-95100000I-249999J0D01*
G01*
G37*
%TD.AperFunction*%
D17*
X118850000Y-115300000D03*
X120750000Y-115300000D03*
X119800000Y-113300000D03*
%TA.AperFunction,SMDPad,CuDef*%
G36*
G01*
X122093750Y-113075000D02*
X122606250Y-113075000D01*
G75*
G02*
X122825000Y-113293750I0J-218750D01*
G01*
X122825000Y-113731250D01*
G75*
G02*
X122606250Y-113950000I-218750J0D01*
G01*
X122093750Y-113950000D01*
G75*
G02*
X121875000Y-113731250I0J218750D01*
G01*
X121875000Y-113293750D01*
G75*
G02*
X122093750Y-113075000I218750J0D01*
G01*
G37*
%TD.AperFunction*%
%TA.AperFunction,SMDPad,CuDef*%
G36*
G01*
X122093750Y-114650000D02*
X122606250Y-114650000D01*
G75*
G02*
X122825000Y-114868750I0J-218750D01*
G01*
X122825000Y-115306250D01*
G75*
G02*
X122606250Y-115525000I-218750J0D01*
G01*
X122093750Y-115525000D01*
G75*
G02*
X121875000Y-115306250I0J218750D01*
G01*
X121875000Y-114868750D01*
G75*
G02*
X122093750Y-114650000I218750J0D01*
G01*
G37*
%TD.AperFunction*%
D18*
X143560000Y-124445841D03*
D19*
X146100000Y-115295841D03*
D18*
X148640000Y-124445841D03*
D20*
X155600000Y-109200000D03*
X155600000Y-120100000D03*
%TA.AperFunction,SMDPad,CuDef*%
G36*
G01*
X135425000Y-123675000D02*
X135425000Y-123925000D01*
G75*
G02*
X135300000Y-124050000I-125000J0D01*
G01*
X134050000Y-124050000D01*
G75*
G02*
X133925000Y-123925000I0J125000D01*
G01*
X133925000Y-123675000D01*
G75*
G02*
X134050000Y-123550000I125000J0D01*
G01*
X135300000Y-123550000D01*
G75*
G02*
X135425000Y-123675000I0J-125000D01*
G01*
G37*
%TD.AperFunction*%
%TA.AperFunction,SMDPad,CuDef*%
G36*
G01*
X135425000Y-122875000D02*
X135425000Y-123125000D01*
G75*
G02*
X135300000Y-123250000I-125000J0D01*
G01*
X134050000Y-123250000D01*
G75*
G02*
X133925000Y-123125000I0J125000D01*
G01*
X133925000Y-122875000D01*
G75*
G02*
X134050000Y-122750000I125000J0D01*
G01*
X135300000Y-122750000D01*
G75*
G02*
X135425000Y-122875000I0J-125000D01*
G01*
G37*
%TD.AperFunction*%
%TA.AperFunction,SMDPad,CuDef*%
G36*
G01*
X135425000Y-122075000D02*
X135425000Y-122325000D01*
G75*
G02*
X135300000Y-122450000I-125000J0D01*
G01*
X134050000Y-122450000D01*
G75*
G02*
X133925000Y-122325000I0J125000D01*
G01*
X133925000Y-122075000D01*
G75*
G02*
X134050000Y-121950000I125000J0D01*
G01*
X135300000Y-121950000D01*
G75*
G02*
X135425000Y-122075000I0J-125000D01*
G01*
G37*
%TD.AperFunction*%
%TA.AperFunction,SMDPad,CuDef*%
G36*
G01*
X135425000Y-121275000D02*
X135425000Y-121525000D01*
G75*
G02*
X135300000Y-121650000I-125000J0D01*
G01*
X134050000Y-121650000D01*
G75*
G02*
X133925000Y-121525000I0J125000D01*
G01*
X133925000Y-121275000D01*
G75*
G02*
X134050000Y-121150000I125000J0D01*
G01*
X135300000Y-121150000D01*
G75*
G02*
X135425000Y-121275000I0J-125000D01*
G01*
G37*
%TD.AperFunction*%
%TA.AperFunction,SMDPad,CuDef*%
G36*
G01*
X135425000Y-120475000D02*
X135425000Y-120725000D01*
G75*
G02*
X135300000Y-120850000I-125000J0D01*
G01*
X134050000Y-120850000D01*
G75*
G02*
X133925000Y-120725000I0J125000D01*
G01*
X133925000Y-120475000D01*
G75*
G02*
X134050000Y-120350000I125000J0D01*
G01*
X135300000Y-120350000D01*
G75*
G02*
X135425000Y-120475000I0J-125000D01*
G01*
G37*
%TD.AperFunction*%
%TA.AperFunction,SMDPad,CuDef*%
G36*
G01*
X135425000Y-119675000D02*
X135425000Y-119925000D01*
G75*
G02*
X135300000Y-120050000I-125000J0D01*
G01*
X134050000Y-120050000D01*
G75*
G02*
X133925000Y-119925000I0J125000D01*
G01*
X133925000Y-119675000D01*
G75*
G02*
X134050000Y-119550000I125000J0D01*
G01*
X135300000Y-119550000D01*
G75*
G02*
X135425000Y-119675000I0J-125000D01*
G01*
G37*
%TD.AperFunction*%
%TA.AperFunction,SMDPad,CuDef*%
G36*
G01*
X135425000Y-118875000D02*
X135425000Y-119125000D01*
G75*
G02*
X135300000Y-119250000I-125000J0D01*
G01*
X134050000Y-119250000D01*
G75*
G02*
X133925000Y-119125000I0J125000D01*
G01*
X133925000Y-118875000D01*
G75*
G02*
X134050000Y-118750000I125000J0D01*
G01*
X135300000Y-118750000D01*
G75*
G02*
X135425000Y-118875000I0J-125000D01*
G01*
G37*
%TD.AperFunction*%
%TA.AperFunction,SMDPad,CuDef*%
G36*
G01*
X135425000Y-118075000D02*
X135425000Y-118325000D01*
G75*
G02*
X135300000Y-118450000I-125000J0D01*
G01*
X134050000Y-118450000D01*
G75*
G02*
X133925000Y-118325000I0J125000D01*
G01*
X133925000Y-118075000D01*
G75*
G02*
X134050000Y-117950000I125000J0D01*
G01*
X135300000Y-117950000D01*
G75*
G02*
X135425000Y-118075000I0J-125000D01*
G01*
G37*
%TD.AperFunction*%
%TA.AperFunction,SMDPad,CuDef*%
G36*
G01*
X133550000Y-116200000D02*
X133550000Y-117450000D01*
G75*
G02*
X133425000Y-117575000I-125000J0D01*
G01*
X133175000Y-117575000D01*
G75*
G02*
X133050000Y-117450000I0J125000D01*
G01*
X133050000Y-116200000D01*
G75*
G02*
X133175000Y-116075000I125000J0D01*
G01*
X133425000Y-116075000D01*
G75*
G02*
X133550000Y-116200000I0J-125000D01*
G01*
G37*
%TD.AperFunction*%
%TA.AperFunction,SMDPad,CuDef*%
G36*
G01*
X132750000Y-116200000D02*
X132750000Y-117450000D01*
G75*
G02*
X132625000Y-117575000I-125000J0D01*
G01*
X132375000Y-117575000D01*
G75*
G02*
X132250000Y-117450000I0J125000D01*
G01*
X132250000Y-116200000D01*
G75*
G02*
X132375000Y-116075000I125000J0D01*
G01*
X132625000Y-116075000D01*
G75*
G02*
X132750000Y-116200000I0J-125000D01*
G01*
G37*
%TD.AperFunction*%
%TA.AperFunction,SMDPad,CuDef*%
G36*
G01*
X131950000Y-116200000D02*
X131950000Y-117450000D01*
G75*
G02*
X131825000Y-117575000I-125000J0D01*
G01*
X131575000Y-117575000D01*
G75*
G02*
X131450000Y-117450000I0J125000D01*
G01*
X131450000Y-116200000D01*
G75*
G02*
X131575000Y-116075000I125000J0D01*
G01*
X131825000Y-116075000D01*
G75*
G02*
X131950000Y-116200000I0J-125000D01*
G01*
G37*
%TD.AperFunction*%
%TA.AperFunction,SMDPad,CuDef*%
G36*
G01*
X131150000Y-116200000D02*
X131150000Y-117450000D01*
G75*
G02*
X131025000Y-117575000I-125000J0D01*
G01*
X130775000Y-117575000D01*
G75*
G02*
X130650000Y-117450000I0J125000D01*
G01*
X130650000Y-116200000D01*
G75*
G02*
X130775000Y-116075000I125000J0D01*
G01*
X131025000Y-116075000D01*
G75*
G02*
X131150000Y-116200000I0J-125000D01*
G01*
G37*
%TD.AperFunction*%
%TA.AperFunction,SMDPad,CuDef*%
G36*
G01*
X130350000Y-116200000D02*
X130350000Y-117450000D01*
G75*
G02*
X130225000Y-117575000I-125000J0D01*
G01*
X129975000Y-117575000D01*
G75*
G02*
X129850000Y-117450000I0J125000D01*
G01*
X129850000Y-116200000D01*
G75*
G02*
X129975000Y-116075000I125000J0D01*
G01*
X130225000Y-116075000D01*
G75*
G02*
X130350000Y-116200000I0J-125000D01*
G01*
G37*
%TD.AperFunction*%
%TA.AperFunction,SMDPad,CuDef*%
G36*
G01*
X129550000Y-116200000D02*
X129550000Y-117450000D01*
G75*
G02*
X129425000Y-117575000I-125000J0D01*
G01*
X129175000Y-117575000D01*
G75*
G02*
X129050000Y-117450000I0J125000D01*
G01*
X129050000Y-116200000D01*
G75*
G02*
X129175000Y-116075000I125000J0D01*
G01*
X129425000Y-116075000D01*
G75*
G02*
X129550000Y-116200000I0J-125000D01*
G01*
G37*
%TD.AperFunction*%
%TA.AperFunction,SMDPad,CuDef*%
G36*
G01*
X128750000Y-116200000D02*
X128750000Y-117450000D01*
G75*
G02*
X128625000Y-117575000I-125000J0D01*
G01*
X128375000Y-117575000D01*
G75*
G02*
X128250000Y-117450000I0J125000D01*
G01*
X128250000Y-116200000D01*
G75*
G02*
X128375000Y-116075000I125000J0D01*
G01*
X128625000Y-116075000D01*
G75*
G02*
X128750000Y-116200000I0J-125000D01*
G01*
G37*
%TD.AperFunction*%
%TA.AperFunction,SMDPad,CuDef*%
G36*
G01*
X127950000Y-116200000D02*
X127950000Y-117450000D01*
G75*
G02*
X127825000Y-117575000I-125000J0D01*
G01*
X127575000Y-117575000D01*
G75*
G02*
X127450000Y-117450000I0J125000D01*
G01*
X127450000Y-116200000D01*
G75*
G02*
X127575000Y-116075000I125000J0D01*
G01*
X127825000Y-116075000D01*
G75*
G02*
X127950000Y-116200000I0J-125000D01*
G01*
G37*
%TD.AperFunction*%
%TA.AperFunction,SMDPad,CuDef*%
G36*
G01*
X127075000Y-118075000D02*
X127075000Y-118325000D01*
G75*
G02*
X126950000Y-118450000I-125000J0D01*
G01*
X125700000Y-118450000D01*
G75*
G02*
X125575000Y-118325000I0J125000D01*
G01*
X125575000Y-118075000D01*
G75*
G02*
X125700000Y-117950000I125000J0D01*
G01*
X126950000Y-117950000D01*
G75*
G02*
X127075000Y-118075000I0J-125000D01*
G01*
G37*
%TD.AperFunction*%
%TA.AperFunction,SMDPad,CuDef*%
G36*
G01*
X127075000Y-118875000D02*
X127075000Y-119125000D01*
G75*
G02*
X126950000Y-119250000I-125000J0D01*
G01*
X125700000Y-119250000D01*
G75*
G02*
X125575000Y-119125000I0J125000D01*
G01*
X125575000Y-118875000D01*
G75*
G02*
X125700000Y-118750000I125000J0D01*
G01*
X126950000Y-118750000D01*
G75*
G02*
X127075000Y-118875000I0J-125000D01*
G01*
G37*
%TD.AperFunction*%
%TA.AperFunction,SMDPad,CuDef*%
G36*
G01*
X127075000Y-119675000D02*
X127075000Y-119925000D01*
G75*
G02*
X126950000Y-120050000I-125000J0D01*
G01*
X125700000Y-120050000D01*
G75*
G02*
X125575000Y-119925000I0J125000D01*
G01*
X125575000Y-119675000D01*
G75*
G02*
X125700000Y-119550000I125000J0D01*
G01*
X126950000Y-119550000D01*
G75*
G02*
X127075000Y-119675000I0J-125000D01*
G01*
G37*
%TD.AperFunction*%
%TA.AperFunction,SMDPad,CuDef*%
G36*
G01*
X127075000Y-120475000D02*
X127075000Y-120725000D01*
G75*
G02*
X126950000Y-120850000I-125000J0D01*
G01*
X125700000Y-120850000D01*
G75*
G02*
X125575000Y-120725000I0J125000D01*
G01*
X125575000Y-120475000D01*
G75*
G02*
X125700000Y-120350000I125000J0D01*
G01*
X126950000Y-120350000D01*
G75*
G02*
X127075000Y-120475000I0J-125000D01*
G01*
G37*
%TD.AperFunction*%
%TA.AperFunction,SMDPad,CuDef*%
G36*
G01*
X127075000Y-121275000D02*
X127075000Y-121525000D01*
G75*
G02*
X126950000Y-121650000I-125000J0D01*
G01*
X125700000Y-121650000D01*
G75*
G02*
X125575000Y-121525000I0J125000D01*
G01*
X125575000Y-121275000D01*
G75*
G02*
X125700000Y-121150000I125000J0D01*
G01*
X126950000Y-121150000D01*
G75*
G02*
X127075000Y-121275000I0J-125000D01*
G01*
G37*
%TD.AperFunction*%
%TA.AperFunction,SMDPad,CuDef*%
G36*
G01*
X127075000Y-122075000D02*
X127075000Y-122325000D01*
G75*
G02*
X126950000Y-122450000I-125000J0D01*
G01*
X125700000Y-122450000D01*
G75*
G02*
X125575000Y-122325000I0J125000D01*
G01*
X125575000Y-122075000D01*
G75*
G02*
X125700000Y-121950000I125000J0D01*
G01*
X126950000Y-121950000D01*
G75*
G02*
X127075000Y-122075000I0J-125000D01*
G01*
G37*
%TD.AperFunction*%
%TA.AperFunction,SMDPad,CuDef*%
G36*
G01*
X127075000Y-122875000D02*
X127075000Y-123125000D01*
G75*
G02*
X126950000Y-123250000I-125000J0D01*
G01*
X125700000Y-123250000D01*
G75*
G02*
X125575000Y-123125000I0J125000D01*
G01*
X125575000Y-122875000D01*
G75*
G02*
X125700000Y-122750000I125000J0D01*
G01*
X126950000Y-122750000D01*
G75*
G02*
X127075000Y-122875000I0J-125000D01*
G01*
G37*
%TD.AperFunction*%
%TA.AperFunction,SMDPad,CuDef*%
G36*
G01*
X127075000Y-123675000D02*
X127075000Y-123925000D01*
G75*
G02*
X126950000Y-124050000I-125000J0D01*
G01*
X125700000Y-124050000D01*
G75*
G02*
X125575000Y-123925000I0J125000D01*
G01*
X125575000Y-123675000D01*
G75*
G02*
X125700000Y-123550000I125000J0D01*
G01*
X126950000Y-123550000D01*
G75*
G02*
X127075000Y-123675000I0J-125000D01*
G01*
G37*
%TD.AperFunction*%
%TA.AperFunction,SMDPad,CuDef*%
G36*
G01*
X127950000Y-124550000D02*
X127950000Y-125800000D01*
G75*
G02*
X127825000Y-125925000I-125000J0D01*
G01*
X127575000Y-125925000D01*
G75*
G02*
X127450000Y-125800000I0J125000D01*
G01*
X127450000Y-124550000D01*
G75*
G02*
X127575000Y-124425000I125000J0D01*
G01*
X127825000Y-124425000D01*
G75*
G02*
X127950000Y-124550000I0J-125000D01*
G01*
G37*
%TD.AperFunction*%
%TA.AperFunction,SMDPad,CuDef*%
G36*
G01*
X128750000Y-124550000D02*
X128750000Y-125800000D01*
G75*
G02*
X128625000Y-125925000I-125000J0D01*
G01*
X128375000Y-125925000D01*
G75*
G02*
X128250000Y-125800000I0J125000D01*
G01*
X128250000Y-124550000D01*
G75*
G02*
X128375000Y-124425000I125000J0D01*
G01*
X128625000Y-124425000D01*
G75*
G02*
X128750000Y-124550000I0J-125000D01*
G01*
G37*
%TD.AperFunction*%
%TA.AperFunction,SMDPad,CuDef*%
G36*
G01*
X129550000Y-124550000D02*
X129550000Y-125800000D01*
G75*
G02*
X129425000Y-125925000I-125000J0D01*
G01*
X129175000Y-125925000D01*
G75*
G02*
X129050000Y-125800000I0J125000D01*
G01*
X129050000Y-124550000D01*
G75*
G02*
X129175000Y-124425000I125000J0D01*
G01*
X129425000Y-124425000D01*
G75*
G02*
X129550000Y-124550000I0J-125000D01*
G01*
G37*
%TD.AperFunction*%
%TA.AperFunction,SMDPad,CuDef*%
G36*
G01*
X130350000Y-124550000D02*
X130350000Y-125800000D01*
G75*
G02*
X130225000Y-125925000I-125000J0D01*
G01*
X129975000Y-125925000D01*
G75*
G02*
X129850000Y-125800000I0J125000D01*
G01*
X129850000Y-124550000D01*
G75*
G02*
X129975000Y-124425000I125000J0D01*
G01*
X130225000Y-124425000D01*
G75*
G02*
X130350000Y-124550000I0J-125000D01*
G01*
G37*
%TD.AperFunction*%
%TA.AperFunction,SMDPad,CuDef*%
G36*
G01*
X131150000Y-124550000D02*
X131150000Y-125800000D01*
G75*
G02*
X131025000Y-125925000I-125000J0D01*
G01*
X130775000Y-125925000D01*
G75*
G02*
X130650000Y-125800000I0J125000D01*
G01*
X130650000Y-124550000D01*
G75*
G02*
X130775000Y-124425000I125000J0D01*
G01*
X131025000Y-124425000D01*
G75*
G02*
X131150000Y-124550000I0J-125000D01*
G01*
G37*
%TD.AperFunction*%
%TA.AperFunction,SMDPad,CuDef*%
G36*
G01*
X131950000Y-124550000D02*
X131950000Y-125800000D01*
G75*
G02*
X131825000Y-125925000I-125000J0D01*
G01*
X131575000Y-125925000D01*
G75*
G02*
X131450000Y-125800000I0J125000D01*
G01*
X131450000Y-124550000D01*
G75*
G02*
X131575000Y-124425000I125000J0D01*
G01*
X131825000Y-124425000D01*
G75*
G02*
X131950000Y-124550000I0J-125000D01*
G01*
G37*
%TD.AperFunction*%
%TA.AperFunction,SMDPad,CuDef*%
G36*
G01*
X132750000Y-124550000D02*
X132750000Y-125800000D01*
G75*
G02*
X132625000Y-125925000I-125000J0D01*
G01*
X132375000Y-125925000D01*
G75*
G02*
X132250000Y-125800000I0J125000D01*
G01*
X132250000Y-124550000D01*
G75*
G02*
X132375000Y-124425000I125000J0D01*
G01*
X132625000Y-124425000D01*
G75*
G02*
X132750000Y-124550000I0J-125000D01*
G01*
G37*
%TD.AperFunction*%
%TA.AperFunction,SMDPad,CuDef*%
G36*
G01*
X133550000Y-124550000D02*
X133550000Y-125800000D01*
G75*
G02*
X133425000Y-125925000I-125000J0D01*
G01*
X133175000Y-125925000D01*
G75*
G02*
X133050000Y-125800000I0J125000D01*
G01*
X133050000Y-124550000D01*
G75*
G02*
X133175000Y-124425000I125000J0D01*
G01*
X133425000Y-124425000D01*
G75*
G02*
X133550000Y-124550000I0J-125000D01*
G01*
G37*
%TD.AperFunction*%
%TA.AperFunction,SMDPad,CuDef*%
G36*
G01*
X136756250Y-120725000D02*
X136243750Y-120725000D01*
G75*
G02*
X136025000Y-120506250I0J218750D01*
G01*
X136025000Y-120068750D01*
G75*
G02*
X136243750Y-119850000I218750J0D01*
G01*
X136756250Y-119850000D01*
G75*
G02*
X136975000Y-120068750I0J-218750D01*
G01*
X136975000Y-120506250D01*
G75*
G02*
X136756250Y-120725000I-218750J0D01*
G01*
G37*
%TD.AperFunction*%
%TA.AperFunction,SMDPad,CuDef*%
G36*
G01*
X136756250Y-119150000D02*
X136243750Y-119150000D01*
G75*
G02*
X136025000Y-118931250I0J218750D01*
G01*
X136025000Y-118493750D01*
G75*
G02*
X136243750Y-118275000I218750J0D01*
G01*
X136756250Y-118275000D01*
G75*
G02*
X136975000Y-118493750I0J-218750D01*
G01*
X136975000Y-118931250D01*
G75*
G02*
X136756250Y-119150000I-218750J0D01*
G01*
G37*
%TD.AperFunction*%
%TA.AperFunction,SMDPad,CuDef*%
G36*
G01*
X136756250Y-124125000D02*
X136243750Y-124125000D01*
G75*
G02*
X136025000Y-123906250I0J218750D01*
G01*
X136025000Y-123468750D01*
G75*
G02*
X136243750Y-123250000I218750J0D01*
G01*
X136756250Y-123250000D01*
G75*
G02*
X136975000Y-123468750I0J-218750D01*
G01*
X136975000Y-123906250D01*
G75*
G02*
X136756250Y-124125000I-218750J0D01*
G01*
G37*
%TD.AperFunction*%
%TA.AperFunction,SMDPad,CuDef*%
G36*
G01*
X136756250Y-122550000D02*
X136243750Y-122550000D01*
G75*
G02*
X136025000Y-122331250I0J218750D01*
G01*
X136025000Y-121893750D01*
G75*
G02*
X136243750Y-121675000I218750J0D01*
G01*
X136756250Y-121675000D01*
G75*
G02*
X136975000Y-121893750I0J-218750D01*
G01*
X136975000Y-122331250D01*
G75*
G02*
X136756250Y-122550000I-218750J0D01*
G01*
G37*
%TD.AperFunction*%
%TA.AperFunction,SMDPad,CuDef*%
G36*
G01*
X124943750Y-72175000D02*
X125456250Y-72175000D01*
G75*
G02*
X125675000Y-72393750I0J-218750D01*
G01*
X125675000Y-72831250D01*
G75*
G02*
X125456250Y-73050000I-218750J0D01*
G01*
X124943750Y-73050000D01*
G75*
G02*
X124725000Y-72831250I0J218750D01*
G01*
X124725000Y-72393750D01*
G75*
G02*
X124943750Y-72175000I218750J0D01*
G01*
G37*
%TD.AperFunction*%
%TA.AperFunction,SMDPad,CuDef*%
G36*
G01*
X124943750Y-73750000D02*
X125456250Y-73750000D01*
G75*
G02*
X125675000Y-73968750I0J-218750D01*
G01*
X125675000Y-74406250D01*
G75*
G02*
X125456250Y-74625000I-218750J0D01*
G01*
X124943750Y-74625000D01*
G75*
G02*
X124725000Y-74406250I0J218750D01*
G01*
X124725000Y-73968750D01*
G75*
G02*
X124943750Y-73750000I218750J0D01*
G01*
G37*
%TD.AperFunction*%
%TA.AperFunction,SMDPad,CuDef*%
G36*
G01*
X149675000Y-65843750D02*
X149675000Y-66356250D01*
G75*
G02*
X149456250Y-66575000I-218750J0D01*
G01*
X149018750Y-66575000D01*
G75*
G02*
X148800000Y-66356250I0J218750D01*
G01*
X148800000Y-65843750D01*
G75*
G02*
X149018750Y-65625000I218750J0D01*
G01*
X149456250Y-65625000D01*
G75*
G02*
X149675000Y-65843750I0J-218750D01*
G01*
G37*
%TD.AperFunction*%
%TA.AperFunction,SMDPad,CuDef*%
G36*
G01*
X148100000Y-65843750D02*
X148100000Y-66356250D01*
G75*
G02*
X147881250Y-66575000I-218750J0D01*
G01*
X147443750Y-66575000D01*
G75*
G02*
X147225000Y-66356250I0J218750D01*
G01*
X147225000Y-65843750D01*
G75*
G02*
X147443750Y-65625000I218750J0D01*
G01*
X147881250Y-65625000D01*
G75*
G02*
X148100000Y-65843750I0J-218750D01*
G01*
G37*
%TD.AperFunction*%
%TA.AperFunction,SMDPad,CuDef*%
G36*
G01*
X154725000Y-81606250D02*
X154725000Y-81093750D01*
G75*
G02*
X154943750Y-80875000I218750J0D01*
G01*
X155381250Y-80875000D01*
G75*
G02*
X155600000Y-81093750I0J-218750D01*
G01*
X155600000Y-81606250D01*
G75*
G02*
X155381250Y-81825000I-218750J0D01*
G01*
X154943750Y-81825000D01*
G75*
G02*
X154725000Y-81606250I0J218750D01*
G01*
G37*
%TD.AperFunction*%
%TA.AperFunction,SMDPad,CuDef*%
G36*
G01*
X156300000Y-81606250D02*
X156300000Y-81093750D01*
G75*
G02*
X156518750Y-80875000I218750J0D01*
G01*
X156956250Y-80875000D01*
G75*
G02*
X157175000Y-81093750I0J-218750D01*
G01*
X157175000Y-81606250D01*
G75*
G02*
X156956250Y-81825000I-218750J0D01*
G01*
X156518750Y-81825000D01*
G75*
G02*
X156300000Y-81606250I0J218750D01*
G01*
G37*
%TD.AperFunction*%
%TA.AperFunction,SMDPad,CuDef*%
G36*
G01*
X154915000Y-67856250D02*
X154915000Y-67343750D01*
G75*
G02*
X155133750Y-67125000I218750J0D01*
G01*
X155571250Y-67125000D01*
G75*
G02*
X155790000Y-67343750I0J-218750D01*
G01*
X155790000Y-67856250D01*
G75*
G02*
X155571250Y-68075000I-218750J0D01*
G01*
X155133750Y-68075000D01*
G75*
G02*
X154915000Y-67856250I0J218750D01*
G01*
G37*
%TD.AperFunction*%
%TA.AperFunction,SMDPad,CuDef*%
G36*
G01*
X156490000Y-67856250D02*
X156490000Y-67343750D01*
G75*
G02*
X156708750Y-67125000I218750J0D01*
G01*
X157146250Y-67125000D01*
G75*
G02*
X157365000Y-67343750I0J-218750D01*
G01*
X157365000Y-67856250D01*
G75*
G02*
X157146250Y-68075000I-218750J0D01*
G01*
X156708750Y-68075000D01*
G75*
G02*
X156490000Y-67856250I0J218750D01*
G01*
G37*
%TD.AperFunction*%
%TA.AperFunction,SMDPad,CuDef*%
G36*
G01*
X154725000Y-83106250D02*
X154725000Y-82593750D01*
G75*
G02*
X154943750Y-82375000I218750J0D01*
G01*
X155381250Y-82375000D01*
G75*
G02*
X155600000Y-82593750I0J-218750D01*
G01*
X155600000Y-83106250D01*
G75*
G02*
X155381250Y-83325000I-218750J0D01*
G01*
X154943750Y-83325000D01*
G75*
G02*
X154725000Y-83106250I0J218750D01*
G01*
G37*
%TD.AperFunction*%
%TA.AperFunction,SMDPad,CuDef*%
G36*
G01*
X156300000Y-83106250D02*
X156300000Y-82593750D01*
G75*
G02*
X156518750Y-82375000I218750J0D01*
G01*
X156956250Y-82375000D01*
G75*
G02*
X157175000Y-82593750I0J-218750D01*
G01*
X157175000Y-83106250D01*
G75*
G02*
X156956250Y-83325000I-218750J0D01*
G01*
X156518750Y-83325000D01*
G75*
G02*
X156300000Y-83106250I0J218750D01*
G01*
G37*
%TD.AperFunction*%
%TA.AperFunction,SMDPad,CuDef*%
G36*
G01*
X156495000Y-68925000D02*
X156795000Y-68925000D01*
G75*
G02*
X156945000Y-69075000I0J-150000D01*
G01*
X156945000Y-70825000D01*
G75*
G02*
X156795000Y-70975000I-150000J0D01*
G01*
X156495000Y-70975000D01*
G75*
G02*
X156345000Y-70825000I0J150000D01*
G01*
X156345000Y-69075000D01*
G75*
G02*
X156495000Y-68925000I150000J0D01*
G01*
G37*
%TD.AperFunction*%
%TA.AperFunction,SMDPad,CuDef*%
G36*
G01*
X155225000Y-68925000D02*
X155525000Y-68925000D01*
G75*
G02*
X155675000Y-69075000I0J-150000D01*
G01*
X155675000Y-70825000D01*
G75*
G02*
X155525000Y-70975000I-150000J0D01*
G01*
X155225000Y-70975000D01*
G75*
G02*
X155075000Y-70825000I0J150000D01*
G01*
X155075000Y-69075000D01*
G75*
G02*
X155225000Y-68925000I150000J0D01*
G01*
G37*
%TD.AperFunction*%
%TA.AperFunction,SMDPad,CuDef*%
G36*
G01*
X153955000Y-68925000D02*
X154255000Y-68925000D01*
G75*
G02*
X154405000Y-69075000I0J-150000D01*
G01*
X154405000Y-70825000D01*
G75*
G02*
X154255000Y-70975000I-150000J0D01*
G01*
X153955000Y-70975000D01*
G75*
G02*
X153805000Y-70825000I0J150000D01*
G01*
X153805000Y-69075000D01*
G75*
G02*
X153955000Y-68925000I150000J0D01*
G01*
G37*
%TD.AperFunction*%
%TA.AperFunction,SMDPad,CuDef*%
G36*
G01*
X152685000Y-68925000D02*
X152985000Y-68925000D01*
G75*
G02*
X153135000Y-69075000I0J-150000D01*
G01*
X153135000Y-70825000D01*
G75*
G02*
X152985000Y-70975000I-150000J0D01*
G01*
X152685000Y-70975000D01*
G75*
G02*
X152535000Y-70825000I0J150000D01*
G01*
X152535000Y-69075000D01*
G75*
G02*
X152685000Y-68925000I150000J0D01*
G01*
G37*
%TD.AperFunction*%
%TA.AperFunction,SMDPad,CuDef*%
G36*
G01*
X151415000Y-68925000D02*
X151715000Y-68925000D01*
G75*
G02*
X151865000Y-69075000I0J-150000D01*
G01*
X151865000Y-70825000D01*
G75*
G02*
X151715000Y-70975000I-150000J0D01*
G01*
X151415000Y-70975000D01*
G75*
G02*
X151265000Y-70825000I0J150000D01*
G01*
X151265000Y-69075000D01*
G75*
G02*
X151415000Y-68925000I150000J0D01*
G01*
G37*
%TD.AperFunction*%
%TA.AperFunction,SMDPad,CuDef*%
G36*
G01*
X150145000Y-68925000D02*
X150445000Y-68925000D01*
G75*
G02*
X150595000Y-69075000I0J-150000D01*
G01*
X150595000Y-70825000D01*
G75*
G02*
X150445000Y-70975000I-150000J0D01*
G01*
X150145000Y-70975000D01*
G75*
G02*
X149995000Y-70825000I0J150000D01*
G01*
X149995000Y-69075000D01*
G75*
G02*
X150145000Y-68925000I150000J0D01*
G01*
G37*
%TD.AperFunction*%
%TA.AperFunction,SMDPad,CuDef*%
G36*
G01*
X148875000Y-68925000D02*
X149175000Y-68925000D01*
G75*
G02*
X149325000Y-69075000I0J-150000D01*
G01*
X149325000Y-70825000D01*
G75*
G02*
X149175000Y-70975000I-150000J0D01*
G01*
X148875000Y-70975000D01*
G75*
G02*
X148725000Y-70825000I0J150000D01*
G01*
X148725000Y-69075000D01*
G75*
G02*
X148875000Y-68925000I150000J0D01*
G01*
G37*
%TD.AperFunction*%
%TA.AperFunction,SMDPad,CuDef*%
G36*
G01*
X147605000Y-68925000D02*
X147905000Y-68925000D01*
G75*
G02*
X148055000Y-69075000I0J-150000D01*
G01*
X148055000Y-70825000D01*
G75*
G02*
X147905000Y-70975000I-150000J0D01*
G01*
X147605000Y-70975000D01*
G75*
G02*
X147455000Y-70825000I0J150000D01*
G01*
X147455000Y-69075000D01*
G75*
G02*
X147605000Y-68925000I150000J0D01*
G01*
G37*
%TD.AperFunction*%
%TA.AperFunction,SMDPad,CuDef*%
G36*
G01*
X147605000Y-78225000D02*
X147905000Y-78225000D01*
G75*
G02*
X148055000Y-78375000I0J-150000D01*
G01*
X148055000Y-80125000D01*
G75*
G02*
X147905000Y-80275000I-150000J0D01*
G01*
X147605000Y-80275000D01*
G75*
G02*
X147455000Y-80125000I0J150000D01*
G01*
X147455000Y-78375000D01*
G75*
G02*
X147605000Y-78225000I150000J0D01*
G01*
G37*
%TD.AperFunction*%
%TA.AperFunction,SMDPad,CuDef*%
G36*
G01*
X148875000Y-78225000D02*
X149175000Y-78225000D01*
G75*
G02*
X149325000Y-78375000I0J-150000D01*
G01*
X149325000Y-80125000D01*
G75*
G02*
X149175000Y-80275000I-150000J0D01*
G01*
X148875000Y-80275000D01*
G75*
G02*
X148725000Y-80125000I0J150000D01*
G01*
X148725000Y-78375000D01*
G75*
G02*
X148875000Y-78225000I150000J0D01*
G01*
G37*
%TD.AperFunction*%
%TA.AperFunction,SMDPad,CuDef*%
G36*
G01*
X150145000Y-78225000D02*
X150445000Y-78225000D01*
G75*
G02*
X150595000Y-78375000I0J-150000D01*
G01*
X150595000Y-80125000D01*
G75*
G02*
X150445000Y-80275000I-150000J0D01*
G01*
X150145000Y-80275000D01*
G75*
G02*
X149995000Y-80125000I0J150000D01*
G01*
X149995000Y-78375000D01*
G75*
G02*
X150145000Y-78225000I150000J0D01*
G01*
G37*
%TD.AperFunction*%
%TA.AperFunction,SMDPad,CuDef*%
G36*
G01*
X151415000Y-78225000D02*
X151715000Y-78225000D01*
G75*
G02*
X151865000Y-78375000I0J-150000D01*
G01*
X151865000Y-80125000D01*
G75*
G02*
X151715000Y-80275000I-150000J0D01*
G01*
X151415000Y-80275000D01*
G75*
G02*
X151265000Y-80125000I0J150000D01*
G01*
X151265000Y-78375000D01*
G75*
G02*
X151415000Y-78225000I150000J0D01*
G01*
G37*
%TD.AperFunction*%
%TA.AperFunction,SMDPad,CuDef*%
G36*
G01*
X152685000Y-78225000D02*
X152985000Y-78225000D01*
G75*
G02*
X153135000Y-78375000I0J-150000D01*
G01*
X153135000Y-80125000D01*
G75*
G02*
X152985000Y-80275000I-150000J0D01*
G01*
X152685000Y-80275000D01*
G75*
G02*
X152535000Y-80125000I0J150000D01*
G01*
X152535000Y-78375000D01*
G75*
G02*
X152685000Y-78225000I150000J0D01*
G01*
G37*
%TD.AperFunction*%
%TA.AperFunction,SMDPad,CuDef*%
G36*
G01*
X153955000Y-78225000D02*
X154255000Y-78225000D01*
G75*
G02*
X154405000Y-78375000I0J-150000D01*
G01*
X154405000Y-80125000D01*
G75*
G02*
X154255000Y-80275000I-150000J0D01*
G01*
X153955000Y-80275000D01*
G75*
G02*
X153805000Y-80125000I0J150000D01*
G01*
X153805000Y-78375000D01*
G75*
G02*
X153955000Y-78225000I150000J0D01*
G01*
G37*
%TD.AperFunction*%
%TA.AperFunction,SMDPad,CuDef*%
G36*
G01*
X155225000Y-78225000D02*
X155525000Y-78225000D01*
G75*
G02*
X155675000Y-78375000I0J-150000D01*
G01*
X155675000Y-80125000D01*
G75*
G02*
X155525000Y-80275000I-150000J0D01*
G01*
X155225000Y-80275000D01*
G75*
G02*
X155075000Y-80125000I0J150000D01*
G01*
X155075000Y-78375000D01*
G75*
G02*
X155225000Y-78225000I150000J0D01*
G01*
G37*
%TD.AperFunction*%
%TA.AperFunction,SMDPad,CuDef*%
G36*
G01*
X156495000Y-78225000D02*
X156795000Y-78225000D01*
G75*
G02*
X156945000Y-78375000I0J-150000D01*
G01*
X156945000Y-80125000D01*
G75*
G02*
X156795000Y-80275000I-150000J0D01*
G01*
X156495000Y-80275000D01*
G75*
G02*
X156345000Y-80125000I0J150000D01*
G01*
X156345000Y-78375000D01*
G75*
G02*
X156495000Y-78225000I150000J0D01*
G01*
G37*
%TD.AperFunction*%
%TA.AperFunction,SMDPad,CuDef*%
G36*
G01*
X149675000Y-82593750D02*
X149675000Y-83106250D01*
G75*
G02*
X149456250Y-83325000I-218750J0D01*
G01*
X149018750Y-83325000D01*
G75*
G02*
X148800000Y-83106250I0J218750D01*
G01*
X148800000Y-82593750D01*
G75*
G02*
X149018750Y-82375000I218750J0D01*
G01*
X149456250Y-82375000D01*
G75*
G02*
X149675000Y-82593750I0J-218750D01*
G01*
G37*
%TD.AperFunction*%
%TA.AperFunction,SMDPad,CuDef*%
G36*
G01*
X148100000Y-82593750D02*
X148100000Y-83106250D01*
G75*
G02*
X147881250Y-83325000I-218750J0D01*
G01*
X147443750Y-83325000D01*
G75*
G02*
X147225000Y-83106250I0J218750D01*
G01*
X147225000Y-82593750D01*
G75*
G02*
X147443750Y-82375000I218750J0D01*
G01*
X147881250Y-82375000D01*
G75*
G02*
X148100000Y-82593750I0J-218750D01*
G01*
G37*
%TD.AperFunction*%
%TA.AperFunction,SMDPad,CuDef*%
G36*
G01*
X154915000Y-66356250D02*
X154915000Y-65843750D01*
G75*
G02*
X155133750Y-65625000I218750J0D01*
G01*
X155571250Y-65625000D01*
G75*
G02*
X155790000Y-65843750I0J-218750D01*
G01*
X155790000Y-66356250D01*
G75*
G02*
X155571250Y-66575000I-218750J0D01*
G01*
X155133750Y-66575000D01*
G75*
G02*
X154915000Y-66356250I0J218750D01*
G01*
G37*
%TD.AperFunction*%
%TA.AperFunction,SMDPad,CuDef*%
G36*
G01*
X156490000Y-66356250D02*
X156490000Y-65843750D01*
G75*
G02*
X156708750Y-65625000I218750J0D01*
G01*
X157146250Y-65625000D01*
G75*
G02*
X157365000Y-65843750I0J-218750D01*
G01*
X157365000Y-66356250D01*
G75*
G02*
X157146250Y-66575000I-218750J0D01*
G01*
X156708750Y-66575000D01*
G75*
G02*
X156490000Y-66356250I0J218750D01*
G01*
G37*
%TD.AperFunction*%
%TA.AperFunction,SMDPad,CuDef*%
G36*
G01*
X149675000Y-67343750D02*
X149675000Y-67856250D01*
G75*
G02*
X149456250Y-68075000I-218750J0D01*
G01*
X149018750Y-68075000D01*
G75*
G02*
X148800000Y-67856250I0J218750D01*
G01*
X148800000Y-67343750D01*
G75*
G02*
X149018750Y-67125000I218750J0D01*
G01*
X149456250Y-67125000D01*
G75*
G02*
X149675000Y-67343750I0J-218750D01*
G01*
G37*
%TD.AperFunction*%
%TA.AperFunction,SMDPad,CuDef*%
G36*
G01*
X148100000Y-67343750D02*
X148100000Y-67856250D01*
G75*
G02*
X147881250Y-68075000I-218750J0D01*
G01*
X147443750Y-68075000D01*
G75*
G02*
X147225000Y-67856250I0J218750D01*
G01*
X147225000Y-67343750D01*
G75*
G02*
X147443750Y-67125000I218750J0D01*
G01*
X147881250Y-67125000D01*
G75*
G02*
X148100000Y-67343750I0J-218750D01*
G01*
G37*
%TD.AperFunction*%
D21*
X156000000Y-62000000D03*
%TA.AperFunction,SMDPad,CuDef*%
G36*
G01*
X135843750Y-113275000D02*
X136356250Y-113275000D01*
G75*
G02*
X136575000Y-113493750I0J-218750D01*
G01*
X136575000Y-113931250D01*
G75*
G02*
X136356250Y-114150000I-218750J0D01*
G01*
X135843750Y-114150000D01*
G75*
G02*
X135625000Y-113931250I0J218750D01*
G01*
X135625000Y-113493750D01*
G75*
G02*
X135843750Y-113275000I218750J0D01*
G01*
G37*
%TD.AperFunction*%
%TA.AperFunction,SMDPad,CuDef*%
G36*
G01*
X135843750Y-114850000D02*
X136356250Y-114850000D01*
G75*
G02*
X136575000Y-115068750I0J-218750D01*
G01*
X136575000Y-115506250D01*
G75*
G02*
X136356250Y-115725000I-218750J0D01*
G01*
X135843750Y-115725000D01*
G75*
G02*
X135625000Y-115506250I0J218750D01*
G01*
X135625000Y-115068750D01*
G75*
G02*
X135843750Y-114850000I218750J0D01*
G01*
G37*
%TD.AperFunction*%
%TA.AperFunction,SMDPad,CuDef*%
G36*
G01*
X142575000Y-74406250D02*
X142575000Y-73893750D01*
G75*
G02*
X142793750Y-73675000I218750J0D01*
G01*
X143231250Y-73675000D01*
G75*
G02*
X143450000Y-73893750I0J-218750D01*
G01*
X143450000Y-74406250D01*
G75*
G02*
X143231250Y-74625000I-218750J0D01*
G01*
X142793750Y-74625000D01*
G75*
G02*
X142575000Y-74406250I0J218750D01*
G01*
G37*
%TD.AperFunction*%
%TA.AperFunction,SMDPad,CuDef*%
G36*
G01*
X144150000Y-74406250D02*
X144150000Y-73893750D01*
G75*
G02*
X144368750Y-73675000I218750J0D01*
G01*
X144806250Y-73675000D01*
G75*
G02*
X145025000Y-73893750I0J-218750D01*
G01*
X145025000Y-74406250D01*
G75*
G02*
X144806250Y-74625000I-218750J0D01*
G01*
X144368750Y-74625000D01*
G75*
G02*
X144150000Y-74406250I0J218750D01*
G01*
G37*
%TD.AperFunction*%
%TA.AperFunction,SMDPad,CuDef*%
G36*
G01*
X131775000Y-63756250D02*
X131775000Y-63243750D01*
G75*
G02*
X131993750Y-63025000I218750J0D01*
G01*
X132431250Y-63025000D01*
G75*
G02*
X132650000Y-63243750I0J-218750D01*
G01*
X132650000Y-63756250D01*
G75*
G02*
X132431250Y-63975000I-218750J0D01*
G01*
X131993750Y-63975000D01*
G75*
G02*
X131775000Y-63756250I0J218750D01*
G01*
G37*
%TD.AperFunction*%
%TA.AperFunction,SMDPad,CuDef*%
G36*
G01*
X133350000Y-63756250D02*
X133350000Y-63243750D01*
G75*
G02*
X133568750Y-63025000I218750J0D01*
G01*
X134006250Y-63025000D01*
G75*
G02*
X134225000Y-63243750I0J-218750D01*
G01*
X134225000Y-63756250D01*
G75*
G02*
X134006250Y-63975000I-218750J0D01*
G01*
X133568750Y-63975000D01*
G75*
G02*
X133350000Y-63756250I0J218750D01*
G01*
G37*
%TD.AperFunction*%
%TA.AperFunction,SMDPad,CuDef*%
G36*
G01*
X134775000Y-60406250D02*
X134775000Y-59893750D01*
G75*
G02*
X134993750Y-59675000I218750J0D01*
G01*
X135431250Y-59675000D01*
G75*
G02*
X135650000Y-59893750I0J-218750D01*
G01*
X135650000Y-60406250D01*
G75*
G02*
X135431250Y-60625000I-218750J0D01*
G01*
X134993750Y-60625000D01*
G75*
G02*
X134775000Y-60406250I0J218750D01*
G01*
G37*
%TD.AperFunction*%
%TA.AperFunction,SMDPad,CuDef*%
G36*
G01*
X136350000Y-60406250D02*
X136350000Y-59893750D01*
G75*
G02*
X136568750Y-59675000I218750J0D01*
G01*
X137006250Y-59675000D01*
G75*
G02*
X137225000Y-59893750I0J-218750D01*
G01*
X137225000Y-60406250D01*
G75*
G02*
X137006250Y-60625000I-218750J0D01*
G01*
X136568750Y-60625000D01*
G75*
G02*
X136350000Y-60406250I0J218750D01*
G01*
G37*
%TD.AperFunction*%
%TA.AperFunction,SMDPad,CuDef*%
G36*
G01*
X130793750Y-78425000D02*
X131306250Y-78425000D01*
G75*
G02*
X131525000Y-78643750I0J-218750D01*
G01*
X131525000Y-79081250D01*
G75*
G02*
X131306250Y-79300000I-218750J0D01*
G01*
X130793750Y-79300000D01*
G75*
G02*
X130575000Y-79081250I0J218750D01*
G01*
X130575000Y-78643750D01*
G75*
G02*
X130793750Y-78425000I218750J0D01*
G01*
G37*
%TD.AperFunction*%
%TA.AperFunction,SMDPad,CuDef*%
G36*
G01*
X130793750Y-80000000D02*
X131306250Y-80000000D01*
G75*
G02*
X131525000Y-80218750I0J-218750D01*
G01*
X131525000Y-80656250D01*
G75*
G02*
X131306250Y-80875000I-218750J0D01*
G01*
X130793750Y-80875000D01*
G75*
G02*
X130575000Y-80656250I0J218750D01*
G01*
X130575000Y-80218750D01*
G75*
G02*
X130793750Y-80000000I218750J0D01*
G01*
G37*
%TD.AperFunction*%
%TA.AperFunction,SMDPad,CuDef*%
G36*
G01*
X140825000Y-72906250D02*
X140825000Y-72393750D01*
G75*
G02*
X141043750Y-72175000I218750J0D01*
G01*
X141481250Y-72175000D01*
G75*
G02*
X141700000Y-72393750I0J-218750D01*
G01*
X141700000Y-72906250D01*
G75*
G02*
X141481250Y-73125000I-218750J0D01*
G01*
X141043750Y-73125000D01*
G75*
G02*
X140825000Y-72906250I0J218750D01*
G01*
G37*
%TD.AperFunction*%
%TA.AperFunction,SMDPad,CuDef*%
G36*
G01*
X142400000Y-72906250D02*
X142400000Y-72393750D01*
G75*
G02*
X142618750Y-72175000I218750J0D01*
G01*
X143056250Y-72175000D01*
G75*
G02*
X143275000Y-72393750I0J-218750D01*
G01*
X143275000Y-72906250D01*
G75*
G02*
X143056250Y-73125000I-218750J0D01*
G01*
X142618750Y-73125000D01*
G75*
G02*
X142400000Y-72906250I0J218750D01*
G01*
G37*
%TD.AperFunction*%
%TA.AperFunction,SMDPad,CuDef*%
G36*
G01*
X129293750Y-78425000D02*
X129806250Y-78425000D01*
G75*
G02*
X130025000Y-78643750I0J-218750D01*
G01*
X130025000Y-79081250D01*
G75*
G02*
X129806250Y-79300000I-218750J0D01*
G01*
X129293750Y-79300000D01*
G75*
G02*
X129075000Y-79081250I0J218750D01*
G01*
X129075000Y-78643750D01*
G75*
G02*
X129293750Y-78425000I218750J0D01*
G01*
G37*
%TD.AperFunction*%
%TA.AperFunction,SMDPad,CuDef*%
G36*
G01*
X129293750Y-80000000D02*
X129806250Y-80000000D01*
G75*
G02*
X130025000Y-80218750I0J-218750D01*
G01*
X130025000Y-80656250D01*
G75*
G02*
X129806250Y-80875000I-218750J0D01*
G01*
X129293750Y-80875000D01*
G75*
G02*
X129075000Y-80656250I0J218750D01*
G01*
X129075000Y-80218750D01*
G75*
G02*
X129293750Y-80000000I218750J0D01*
G01*
G37*
%TD.AperFunction*%
%TA.AperFunction,SMDPad,CuDef*%
G36*
G01*
X142575000Y-77443750D02*
X142575000Y-76931250D01*
G75*
G02*
X142793750Y-76712500I218750J0D01*
G01*
X143231250Y-76712500D01*
G75*
G02*
X143450000Y-76931250I0J-218750D01*
G01*
X143450000Y-77443750D01*
G75*
G02*
X143231250Y-77662500I-218750J0D01*
G01*
X142793750Y-77662500D01*
G75*
G02*
X142575000Y-77443750I0J218750D01*
G01*
G37*
%TD.AperFunction*%
%TA.AperFunction,SMDPad,CuDef*%
G36*
G01*
X144150000Y-77443750D02*
X144150000Y-76931250D01*
G75*
G02*
X144368750Y-76712500I218750J0D01*
G01*
X144806250Y-76712500D01*
G75*
G02*
X145025000Y-76931250I0J-218750D01*
G01*
X145025000Y-77443750D01*
G75*
G02*
X144806250Y-77662500I-218750J0D01*
G01*
X144368750Y-77662500D01*
G75*
G02*
X144150000Y-77443750I0J218750D01*
G01*
G37*
%TD.AperFunction*%
%TA.AperFunction,SMDPad,CuDef*%
G36*
G01*
X142810000Y-66793750D02*
X142810000Y-67306250D01*
G75*
G02*
X142591250Y-67525000I-218750J0D01*
G01*
X142153750Y-67525000D01*
G75*
G02*
X141935000Y-67306250I0J218750D01*
G01*
X141935000Y-66793750D01*
G75*
G02*
X142153750Y-66575000I218750J0D01*
G01*
X142591250Y-66575000D01*
G75*
G02*
X142810000Y-66793750I0J-218750D01*
G01*
G37*
%TD.AperFunction*%
%TA.AperFunction,SMDPad,CuDef*%
G36*
G01*
X141235000Y-66793750D02*
X141235000Y-67306250D01*
G75*
G02*
X141016250Y-67525000I-218750J0D01*
G01*
X140578750Y-67525000D01*
G75*
G02*
X140360000Y-67306250I0J218750D01*
G01*
X140360000Y-66793750D01*
G75*
G02*
X140578750Y-66575000I218750J0D01*
G01*
X141016250Y-66575000D01*
G75*
G02*
X141235000Y-66793750I0J-218750D01*
G01*
G37*
%TD.AperFunction*%
%TA.AperFunction,SMDPad,CuDef*%
G36*
G01*
X140325000Y-71406250D02*
X140325000Y-70893750D01*
G75*
G02*
X140543750Y-70675000I218750J0D01*
G01*
X140981250Y-70675000D01*
G75*
G02*
X141200000Y-70893750I0J-218750D01*
G01*
X141200000Y-71406250D01*
G75*
G02*
X140981250Y-71625000I-218750J0D01*
G01*
X140543750Y-71625000D01*
G75*
G02*
X140325000Y-71406250I0J218750D01*
G01*
G37*
%TD.AperFunction*%
%TA.AperFunction,SMDPad,CuDef*%
G36*
G01*
X141900000Y-71406250D02*
X141900000Y-70893750D01*
G75*
G02*
X142118750Y-70675000I218750J0D01*
G01*
X142556250Y-70675000D01*
G75*
G02*
X142775000Y-70893750I0J-218750D01*
G01*
X142775000Y-71406250D01*
G75*
G02*
X142556250Y-71625000I-218750J0D01*
G01*
X142118750Y-71625000D01*
G75*
G02*
X141900000Y-71406250I0J218750D01*
G01*
G37*
%TD.AperFunction*%
%TA.AperFunction,SMDPad,CuDef*%
G36*
G01*
X133306250Y-84175000D02*
X132793750Y-84175000D01*
G75*
G02*
X132575000Y-83956250I0J218750D01*
G01*
X132575000Y-83518750D01*
G75*
G02*
X132793750Y-83300000I218750J0D01*
G01*
X133306250Y-83300000D01*
G75*
G02*
X133525000Y-83518750I0J-218750D01*
G01*
X133525000Y-83956250D01*
G75*
G02*
X133306250Y-84175000I-218750J0D01*
G01*
G37*
%TD.AperFunction*%
%TA.AperFunction,SMDPad,CuDef*%
G36*
G01*
X133306250Y-82600000D02*
X132793750Y-82600000D01*
G75*
G02*
X132575000Y-82381250I0J218750D01*
G01*
X132575000Y-81943750D01*
G75*
G02*
X132793750Y-81725000I218750J0D01*
G01*
X133306250Y-81725000D01*
G75*
G02*
X133525000Y-81943750I0J-218750D01*
G01*
X133525000Y-82381250D01*
G75*
G02*
X133306250Y-82600000I-218750J0D01*
G01*
G37*
%TD.AperFunction*%
%TA.AperFunction,SMDPad,CuDef*%
G36*
G01*
X139775000Y-71093750D02*
X139775000Y-71606250D01*
G75*
G02*
X139556250Y-71825000I-218750J0D01*
G01*
X139118750Y-71825000D01*
G75*
G02*
X138900000Y-71606250I0J218750D01*
G01*
X138900000Y-71093750D01*
G75*
G02*
X139118750Y-70875000I218750J0D01*
G01*
X139556250Y-70875000D01*
G75*
G02*
X139775000Y-71093750I0J-218750D01*
G01*
G37*
%TD.AperFunction*%
%TA.AperFunction,SMDPad,CuDef*%
G36*
G01*
X138200000Y-71093750D02*
X138200000Y-71606250D01*
G75*
G02*
X137981250Y-71825000I-218750J0D01*
G01*
X137543750Y-71825000D01*
G75*
G02*
X137325000Y-71606250I0J218750D01*
G01*
X137325000Y-71093750D01*
G75*
G02*
X137543750Y-70875000I218750J0D01*
G01*
X137981250Y-70875000D01*
G75*
G02*
X138200000Y-71093750I0J-218750D01*
G01*
G37*
%TD.AperFunction*%
%TA.AperFunction,SMDPad,CuDef*%
G36*
G01*
X140775000Y-83343750D02*
X140775000Y-83856250D01*
G75*
G02*
X140556250Y-84075000I-218750J0D01*
G01*
X140118750Y-84075000D01*
G75*
G02*
X139900000Y-83856250I0J218750D01*
G01*
X139900000Y-83343750D01*
G75*
G02*
X140118750Y-83125000I218750J0D01*
G01*
X140556250Y-83125000D01*
G75*
G02*
X140775000Y-83343750I0J-218750D01*
G01*
G37*
%TD.AperFunction*%
%TA.AperFunction,SMDPad,CuDef*%
G36*
G01*
X139200000Y-83343750D02*
X139200000Y-83856250D01*
G75*
G02*
X138981250Y-84075000I-218750J0D01*
G01*
X138543750Y-84075000D01*
G75*
G02*
X138325000Y-83856250I0J218750D01*
G01*
X138325000Y-83343750D01*
G75*
G02*
X138543750Y-83125000I218750J0D01*
G01*
X138981250Y-83125000D01*
G75*
G02*
X139200000Y-83343750I0J-218750D01*
G01*
G37*
%TD.AperFunction*%
%TA.AperFunction,SMDPad,CuDef*%
G36*
G01*
X145025000Y-78456250D02*
X145025000Y-78968750D01*
G75*
G02*
X144806250Y-79187500I-218750J0D01*
G01*
X144368750Y-79187500D01*
G75*
G02*
X144150000Y-78968750I0J218750D01*
G01*
X144150000Y-78456250D01*
G75*
G02*
X144368750Y-78237500I218750J0D01*
G01*
X144806250Y-78237500D01*
G75*
G02*
X145025000Y-78456250I0J-218750D01*
G01*
G37*
%TD.AperFunction*%
%TA.AperFunction,SMDPad,CuDef*%
G36*
G01*
X143450000Y-78456250D02*
X143450000Y-78968750D01*
G75*
G02*
X143231250Y-79187500I-218750J0D01*
G01*
X142793750Y-79187500D01*
G75*
G02*
X142575000Y-78968750I0J218750D01*
G01*
X142575000Y-78456250D01*
G75*
G02*
X142793750Y-78237500I218750J0D01*
G01*
X143231250Y-78237500D01*
G75*
G02*
X143450000Y-78456250I0J-218750D01*
G01*
G37*
%TD.AperFunction*%
%TA.AperFunction,SMDPad,CuDef*%
G36*
G01*
X131975000Y-81693750D02*
X131975000Y-82206250D01*
G75*
G02*
X131756250Y-82425000I-218750J0D01*
G01*
X131318750Y-82425000D01*
G75*
G02*
X131100000Y-82206250I0J218750D01*
G01*
X131100000Y-81693750D01*
G75*
G02*
X131318750Y-81475000I218750J0D01*
G01*
X131756250Y-81475000D01*
G75*
G02*
X131975000Y-81693750I0J-218750D01*
G01*
G37*
%TD.AperFunction*%
%TA.AperFunction,SMDPad,CuDef*%
G36*
G01*
X130400000Y-81693750D02*
X130400000Y-82206250D01*
G75*
G02*
X130181250Y-82425000I-218750J0D01*
G01*
X129743750Y-82425000D01*
G75*
G02*
X129525000Y-82206250I0J218750D01*
G01*
X129525000Y-81693750D01*
G75*
G02*
X129743750Y-81475000I218750J0D01*
G01*
X130181250Y-81475000D01*
G75*
G02*
X130400000Y-81693750I0J-218750D01*
G01*
G37*
%TD.AperFunction*%
%TA.AperFunction,SMDPad,CuDef*%
G36*
G01*
X132925000Y-71693750D02*
X132925000Y-72206250D01*
G75*
G02*
X132706250Y-72425000I-218750J0D01*
G01*
X132268750Y-72425000D01*
G75*
G02*
X132050000Y-72206250I0J218750D01*
G01*
X132050000Y-71693750D01*
G75*
G02*
X132268750Y-71475000I218750J0D01*
G01*
X132706250Y-71475000D01*
G75*
G02*
X132925000Y-71693750I0J-218750D01*
G01*
G37*
%TD.AperFunction*%
%TA.AperFunction,SMDPad,CuDef*%
G36*
G01*
X131350000Y-71693750D02*
X131350000Y-72206250D01*
G75*
G02*
X131131250Y-72425000I-218750J0D01*
G01*
X130693750Y-72425000D01*
G75*
G02*
X130475000Y-72206250I0J218750D01*
G01*
X130475000Y-71693750D01*
G75*
G02*
X130693750Y-71475000I218750J0D01*
G01*
X131131250Y-71475000D01*
G75*
G02*
X131350000Y-71693750I0J-218750D01*
G01*
G37*
%TD.AperFunction*%
%TA.AperFunction,SMDPad,CuDef*%
G36*
G01*
X143306250Y-82212500D02*
X142793750Y-82212500D01*
G75*
G02*
X142575000Y-81993750I0J218750D01*
G01*
X142575000Y-81556250D01*
G75*
G02*
X142793750Y-81337500I218750J0D01*
G01*
X143306250Y-81337500D01*
G75*
G02*
X143525000Y-81556250I0J-218750D01*
G01*
X143525000Y-81993750D01*
G75*
G02*
X143306250Y-82212500I-218750J0D01*
G01*
G37*
%TD.AperFunction*%
%TA.AperFunction,SMDPad,CuDef*%
G36*
G01*
X143306250Y-80637500D02*
X142793750Y-80637500D01*
G75*
G02*
X142575000Y-80418750I0J218750D01*
G01*
X142575000Y-79981250D01*
G75*
G02*
X142793750Y-79762500I218750J0D01*
G01*
X143306250Y-79762500D01*
G75*
G02*
X143525000Y-79981250I0J-218750D01*
G01*
X143525000Y-80418750D01*
G75*
G02*
X143306250Y-80637500I-218750J0D01*
G01*
G37*
%TD.AperFunction*%
%TA.AperFunction,SMDPad,CuDef*%
G36*
G01*
X144443750Y-79812500D02*
X144956250Y-79812500D01*
G75*
G02*
X145175000Y-80031250I0J-218750D01*
G01*
X145175000Y-80468750D01*
G75*
G02*
X144956250Y-80687500I-218750J0D01*
G01*
X144443750Y-80687500D01*
G75*
G02*
X144225000Y-80468750I0J218750D01*
G01*
X144225000Y-80031250D01*
G75*
G02*
X144443750Y-79812500I218750J0D01*
G01*
G37*
%TD.AperFunction*%
%TA.AperFunction,SMDPad,CuDef*%
G36*
G01*
X144443750Y-81387500D02*
X144956250Y-81387500D01*
G75*
G02*
X145175000Y-81606250I0J-218750D01*
G01*
X145175000Y-82043750D01*
G75*
G02*
X144956250Y-82262500I-218750J0D01*
G01*
X144443750Y-82262500D01*
G75*
G02*
X144225000Y-82043750I0J218750D01*
G01*
X144225000Y-81606250D01*
G75*
G02*
X144443750Y-81387500I218750J0D01*
G01*
G37*
%TD.AperFunction*%
D22*
X97400000Y-69350000D03*
X97400000Y-70650000D03*
X99400000Y-70000000D03*
%TA.AperFunction,SMDPad,CuDef*%
G36*
G01*
X132150000Y-74975000D02*
X132150000Y-74825000D01*
G75*
G02*
X132225000Y-74750000I75000J0D01*
G01*
X133550000Y-74750000D01*
G75*
G02*
X133625000Y-74825000I0J-75000D01*
G01*
X133625000Y-74975000D01*
G75*
G02*
X133550000Y-75050000I-75000J0D01*
G01*
X132225000Y-75050000D01*
G75*
G02*
X132150000Y-74975000I0J75000D01*
G01*
G37*
%TD.AperFunction*%
%TA.AperFunction,SMDPad,CuDef*%
G36*
G01*
X132150000Y-75475000D02*
X132150000Y-75325000D01*
G75*
G02*
X132225000Y-75250000I75000J0D01*
G01*
X133550000Y-75250000D01*
G75*
G02*
X133625000Y-75325000I0J-75000D01*
G01*
X133625000Y-75475000D01*
G75*
G02*
X133550000Y-75550000I-75000J0D01*
G01*
X132225000Y-75550000D01*
G75*
G02*
X132150000Y-75475000I0J75000D01*
G01*
G37*
%TD.AperFunction*%
%TA.AperFunction,SMDPad,CuDef*%
G36*
G01*
X132150000Y-75975000D02*
X132150000Y-75825000D01*
G75*
G02*
X132225000Y-75750000I75000J0D01*
G01*
X133550000Y-75750000D01*
G75*
G02*
X133625000Y-75825000I0J-75000D01*
G01*
X133625000Y-75975000D01*
G75*
G02*
X133550000Y-76050000I-75000J0D01*
G01*
X132225000Y-76050000D01*
G75*
G02*
X132150000Y-75975000I0J75000D01*
G01*
G37*
%TD.AperFunction*%
%TA.AperFunction,SMDPad,CuDef*%
G36*
G01*
X132150000Y-76475000D02*
X132150000Y-76325000D01*
G75*
G02*
X132225000Y-76250000I75000J0D01*
G01*
X133550000Y-76250000D01*
G75*
G02*
X133625000Y-76325000I0J-75000D01*
G01*
X133625000Y-76475000D01*
G75*
G02*
X133550000Y-76550000I-75000J0D01*
G01*
X132225000Y-76550000D01*
G75*
G02*
X132150000Y-76475000I0J75000D01*
G01*
G37*
%TD.AperFunction*%
%TA.AperFunction,SMDPad,CuDef*%
G36*
G01*
X132150000Y-76975000D02*
X132150000Y-76825000D01*
G75*
G02*
X132225000Y-76750000I75000J0D01*
G01*
X133550000Y-76750000D01*
G75*
G02*
X133625000Y-76825000I0J-75000D01*
G01*
X133625000Y-76975000D01*
G75*
G02*
X133550000Y-77050000I-75000J0D01*
G01*
X132225000Y-77050000D01*
G75*
G02*
X132150000Y-76975000I0J75000D01*
G01*
G37*
%TD.AperFunction*%
%TA.AperFunction,SMDPad,CuDef*%
G36*
G01*
X132150000Y-77475000D02*
X132150000Y-77325000D01*
G75*
G02*
X132225000Y-77250000I75000J0D01*
G01*
X133550000Y-77250000D01*
G75*
G02*
X133625000Y-77325000I0J-75000D01*
G01*
X133625000Y-77475000D01*
G75*
G02*
X133550000Y-77550000I-75000J0D01*
G01*
X132225000Y-77550000D01*
G75*
G02*
X132150000Y-77475000I0J75000D01*
G01*
G37*
%TD.AperFunction*%
%TA.AperFunction,SMDPad,CuDef*%
G36*
G01*
X132150000Y-77975000D02*
X132150000Y-77825000D01*
G75*
G02*
X132225000Y-77750000I75000J0D01*
G01*
X133550000Y-77750000D01*
G75*
G02*
X133625000Y-77825000I0J-75000D01*
G01*
X133625000Y-77975000D01*
G75*
G02*
X133550000Y-78050000I-75000J0D01*
G01*
X132225000Y-78050000D01*
G75*
G02*
X132150000Y-77975000I0J75000D01*
G01*
G37*
%TD.AperFunction*%
%TA.AperFunction,SMDPad,CuDef*%
G36*
G01*
X132150000Y-78475000D02*
X132150000Y-78325000D01*
G75*
G02*
X132225000Y-78250000I75000J0D01*
G01*
X133550000Y-78250000D01*
G75*
G02*
X133625000Y-78325000I0J-75000D01*
G01*
X133625000Y-78475000D01*
G75*
G02*
X133550000Y-78550000I-75000J0D01*
G01*
X132225000Y-78550000D01*
G75*
G02*
X132150000Y-78475000I0J75000D01*
G01*
G37*
%TD.AperFunction*%
%TA.AperFunction,SMDPad,CuDef*%
G36*
G01*
X132150000Y-78975000D02*
X132150000Y-78825000D01*
G75*
G02*
X132225000Y-78750000I75000J0D01*
G01*
X133550000Y-78750000D01*
G75*
G02*
X133625000Y-78825000I0J-75000D01*
G01*
X133625000Y-78975000D01*
G75*
G02*
X133550000Y-79050000I-75000J0D01*
G01*
X132225000Y-79050000D01*
G75*
G02*
X132150000Y-78975000I0J75000D01*
G01*
G37*
%TD.AperFunction*%
%TA.AperFunction,SMDPad,CuDef*%
G36*
G01*
X132150000Y-79475000D02*
X132150000Y-79325000D01*
G75*
G02*
X132225000Y-79250000I75000J0D01*
G01*
X133550000Y-79250000D01*
G75*
G02*
X133625000Y-79325000I0J-75000D01*
G01*
X133625000Y-79475000D01*
G75*
G02*
X133550000Y-79550000I-75000J0D01*
G01*
X132225000Y-79550000D01*
G75*
G02*
X132150000Y-79475000I0J75000D01*
G01*
G37*
%TD.AperFunction*%
%TA.AperFunction,SMDPad,CuDef*%
G36*
G01*
X132150000Y-79975000D02*
X132150000Y-79825000D01*
G75*
G02*
X132225000Y-79750000I75000J0D01*
G01*
X133550000Y-79750000D01*
G75*
G02*
X133625000Y-79825000I0J-75000D01*
G01*
X133625000Y-79975000D01*
G75*
G02*
X133550000Y-80050000I-75000J0D01*
G01*
X132225000Y-80050000D01*
G75*
G02*
X132150000Y-79975000I0J75000D01*
G01*
G37*
%TD.AperFunction*%
%TA.AperFunction,SMDPad,CuDef*%
G36*
G01*
X132150000Y-80475000D02*
X132150000Y-80325000D01*
G75*
G02*
X132225000Y-80250000I75000J0D01*
G01*
X133550000Y-80250000D01*
G75*
G02*
X133625000Y-80325000I0J-75000D01*
G01*
X133625000Y-80475000D01*
G75*
G02*
X133550000Y-80550000I-75000J0D01*
G01*
X132225000Y-80550000D01*
G75*
G02*
X132150000Y-80475000I0J75000D01*
G01*
G37*
%TD.AperFunction*%
%TA.AperFunction,SMDPad,CuDef*%
G36*
G01*
X134150000Y-82475000D02*
X134150000Y-81150000D01*
G75*
G02*
X134225000Y-81075000I75000J0D01*
G01*
X134375000Y-81075000D01*
G75*
G02*
X134450000Y-81150000I0J-75000D01*
G01*
X134450000Y-82475000D01*
G75*
G02*
X134375000Y-82550000I-75000J0D01*
G01*
X134225000Y-82550000D01*
G75*
G02*
X134150000Y-82475000I0J75000D01*
G01*
G37*
%TD.AperFunction*%
%TA.AperFunction,SMDPad,CuDef*%
G36*
G01*
X134650000Y-82475000D02*
X134650000Y-81150000D01*
G75*
G02*
X134725000Y-81075000I75000J0D01*
G01*
X134875000Y-81075000D01*
G75*
G02*
X134950000Y-81150000I0J-75000D01*
G01*
X134950000Y-82475000D01*
G75*
G02*
X134875000Y-82550000I-75000J0D01*
G01*
X134725000Y-82550000D01*
G75*
G02*
X134650000Y-82475000I0J75000D01*
G01*
G37*
%TD.AperFunction*%
%TA.AperFunction,SMDPad,CuDef*%
G36*
G01*
X135150000Y-82475000D02*
X135150000Y-81150000D01*
G75*
G02*
X135225000Y-81075000I75000J0D01*
G01*
X135375000Y-81075000D01*
G75*
G02*
X135450000Y-81150000I0J-75000D01*
G01*
X135450000Y-82475000D01*
G75*
G02*
X135375000Y-82550000I-75000J0D01*
G01*
X135225000Y-82550000D01*
G75*
G02*
X135150000Y-82475000I0J75000D01*
G01*
G37*
%TD.AperFunction*%
%TA.AperFunction,SMDPad,CuDef*%
G36*
G01*
X135650000Y-82475000D02*
X135650000Y-81150000D01*
G75*
G02*
X135725000Y-81075000I75000J0D01*
G01*
X135875000Y-81075000D01*
G75*
G02*
X135950000Y-81150000I0J-75000D01*
G01*
X135950000Y-82475000D01*
G75*
G02*
X135875000Y-82550000I-75000J0D01*
G01*
X135725000Y-82550000D01*
G75*
G02*
X135650000Y-82475000I0J75000D01*
G01*
G37*
%TD.AperFunction*%
%TA.AperFunction,SMDPad,CuDef*%
G36*
G01*
X136150000Y-82475000D02*
X136150000Y-81150000D01*
G75*
G02*
X136225000Y-81075000I75000J0D01*
G01*
X136375000Y-81075000D01*
G75*
G02*
X136450000Y-81150000I0J-75000D01*
G01*
X136450000Y-82475000D01*
G75*
G02*
X136375000Y-82550000I-75000J0D01*
G01*
X136225000Y-82550000D01*
G75*
G02*
X136150000Y-82475000I0J75000D01*
G01*
G37*
%TD.AperFunction*%
%TA.AperFunction,SMDPad,CuDef*%
G36*
G01*
X136650000Y-82475000D02*
X136650000Y-81150000D01*
G75*
G02*
X136725000Y-81075000I75000J0D01*
G01*
X136875000Y-81075000D01*
G75*
G02*
X136950000Y-81150000I0J-75000D01*
G01*
X136950000Y-82475000D01*
G75*
G02*
X136875000Y-82550000I-75000J0D01*
G01*
X136725000Y-82550000D01*
G75*
G02*
X136650000Y-82475000I0J75000D01*
G01*
G37*
%TD.AperFunction*%
%TA.AperFunction,SMDPad,CuDef*%
G36*
G01*
X137150000Y-82475000D02*
X137150000Y-81150000D01*
G75*
G02*
X137225000Y-81075000I75000J0D01*
G01*
X137375000Y-81075000D01*
G75*
G02*
X137450000Y-81150000I0J-75000D01*
G01*
X137450000Y-82475000D01*
G75*
G02*
X137375000Y-82550000I-75000J0D01*
G01*
X137225000Y-82550000D01*
G75*
G02*
X137150000Y-82475000I0J75000D01*
G01*
G37*
%TD.AperFunction*%
%TA.AperFunction,SMDPad,CuDef*%
G36*
G01*
X137650000Y-82475000D02*
X137650000Y-81150000D01*
G75*
G02*
X137725000Y-81075000I75000J0D01*
G01*
X137875000Y-81075000D01*
G75*
G02*
X137950000Y-81150000I0J-75000D01*
G01*
X137950000Y-82475000D01*
G75*
G02*
X137875000Y-82550000I-75000J0D01*
G01*
X137725000Y-82550000D01*
G75*
G02*
X137650000Y-82475000I0J75000D01*
G01*
G37*
%TD.AperFunction*%
%TA.AperFunction,SMDPad,CuDef*%
G36*
G01*
X138150000Y-82475000D02*
X138150000Y-81150000D01*
G75*
G02*
X138225000Y-81075000I75000J0D01*
G01*
X138375000Y-81075000D01*
G75*
G02*
X138450000Y-81150000I0J-75000D01*
G01*
X138450000Y-82475000D01*
G75*
G02*
X138375000Y-82550000I-75000J0D01*
G01*
X138225000Y-82550000D01*
G75*
G02*
X138150000Y-82475000I0J75000D01*
G01*
G37*
%TD.AperFunction*%
%TA.AperFunction,SMDPad,CuDef*%
G36*
G01*
X138650000Y-82475000D02*
X138650000Y-81150000D01*
G75*
G02*
X138725000Y-81075000I75000J0D01*
G01*
X138875000Y-81075000D01*
G75*
G02*
X138950000Y-81150000I0J-75000D01*
G01*
X138950000Y-82475000D01*
G75*
G02*
X138875000Y-82550000I-75000J0D01*
G01*
X138725000Y-82550000D01*
G75*
G02*
X138650000Y-82475000I0J75000D01*
G01*
G37*
%TD.AperFunction*%
%TA.AperFunction,SMDPad,CuDef*%
G36*
G01*
X139150000Y-82475000D02*
X139150000Y-81150000D01*
G75*
G02*
X139225000Y-81075000I75000J0D01*
G01*
X139375000Y-81075000D01*
G75*
G02*
X139450000Y-81150000I0J-75000D01*
G01*
X139450000Y-82475000D01*
G75*
G02*
X139375000Y-82550000I-75000J0D01*
G01*
X139225000Y-82550000D01*
G75*
G02*
X139150000Y-82475000I0J75000D01*
G01*
G37*
%TD.AperFunction*%
%TA.AperFunction,SMDPad,CuDef*%
G36*
G01*
X139650000Y-82475000D02*
X139650000Y-81150000D01*
G75*
G02*
X139725000Y-81075000I75000J0D01*
G01*
X139875000Y-81075000D01*
G75*
G02*
X139950000Y-81150000I0J-75000D01*
G01*
X139950000Y-82475000D01*
G75*
G02*
X139875000Y-82550000I-75000J0D01*
G01*
X139725000Y-82550000D01*
G75*
G02*
X139650000Y-82475000I0J75000D01*
G01*
G37*
%TD.AperFunction*%
%TA.AperFunction,SMDPad,CuDef*%
G36*
G01*
X140475000Y-80475000D02*
X140475000Y-80325000D01*
G75*
G02*
X140550000Y-80250000I75000J0D01*
G01*
X141875000Y-80250000D01*
G75*
G02*
X141950000Y-80325000I0J-75000D01*
G01*
X141950000Y-80475000D01*
G75*
G02*
X141875000Y-80550000I-75000J0D01*
G01*
X140550000Y-80550000D01*
G75*
G02*
X140475000Y-80475000I0J75000D01*
G01*
G37*
%TD.AperFunction*%
%TA.AperFunction,SMDPad,CuDef*%
G36*
G01*
X140475000Y-79975000D02*
X140475000Y-79825000D01*
G75*
G02*
X140550000Y-79750000I75000J0D01*
G01*
X141875000Y-79750000D01*
G75*
G02*
X141950000Y-79825000I0J-75000D01*
G01*
X141950000Y-79975000D01*
G75*
G02*
X141875000Y-80050000I-75000J0D01*
G01*
X140550000Y-80050000D01*
G75*
G02*
X140475000Y-79975000I0J75000D01*
G01*
G37*
%TD.AperFunction*%
%TA.AperFunction,SMDPad,CuDef*%
G36*
G01*
X140475000Y-79475000D02*
X140475000Y-79325000D01*
G75*
G02*
X140550000Y-79250000I75000J0D01*
G01*
X141875000Y-79250000D01*
G75*
G02*
X141950000Y-79325000I0J-75000D01*
G01*
X141950000Y-79475000D01*
G75*
G02*
X141875000Y-79550000I-75000J0D01*
G01*
X140550000Y-79550000D01*
G75*
G02*
X140475000Y-79475000I0J75000D01*
G01*
G37*
%TD.AperFunction*%
%TA.AperFunction,SMDPad,CuDef*%
G36*
G01*
X140475000Y-78975000D02*
X140475000Y-78825000D01*
G75*
G02*
X140550000Y-78750000I75000J0D01*
G01*
X141875000Y-78750000D01*
G75*
G02*
X141950000Y-78825000I0J-75000D01*
G01*
X141950000Y-78975000D01*
G75*
G02*
X141875000Y-79050000I-75000J0D01*
G01*
X140550000Y-79050000D01*
G75*
G02*
X140475000Y-78975000I0J75000D01*
G01*
G37*
%TD.AperFunction*%
%TA.AperFunction,SMDPad,CuDef*%
G36*
G01*
X140475000Y-78475000D02*
X140475000Y-78325000D01*
G75*
G02*
X140550000Y-78250000I75000J0D01*
G01*
X141875000Y-78250000D01*
G75*
G02*
X141950000Y-78325000I0J-75000D01*
G01*
X141950000Y-78475000D01*
G75*
G02*
X141875000Y-78550000I-75000J0D01*
G01*
X140550000Y-78550000D01*
G75*
G02*
X140475000Y-78475000I0J75000D01*
G01*
G37*
%TD.AperFunction*%
%TA.AperFunction,SMDPad,CuDef*%
G36*
G01*
X140475000Y-77975000D02*
X140475000Y-77825000D01*
G75*
G02*
X140550000Y-77750000I75000J0D01*
G01*
X141875000Y-77750000D01*
G75*
G02*
X141950000Y-77825000I0J-75000D01*
G01*
X141950000Y-77975000D01*
G75*
G02*
X141875000Y-78050000I-75000J0D01*
G01*
X140550000Y-78050000D01*
G75*
G02*
X140475000Y-77975000I0J75000D01*
G01*
G37*
%TD.AperFunction*%
%TA.AperFunction,SMDPad,CuDef*%
G36*
G01*
X140475000Y-77475000D02*
X140475000Y-77325000D01*
G75*
G02*
X140550000Y-77250000I75000J0D01*
G01*
X141875000Y-77250000D01*
G75*
G02*
X141950000Y-77325000I0J-75000D01*
G01*
X141950000Y-77475000D01*
G75*
G02*
X141875000Y-77550000I-75000J0D01*
G01*
X140550000Y-77550000D01*
G75*
G02*
X140475000Y-77475000I0J75000D01*
G01*
G37*
%TD.AperFunction*%
%TA.AperFunction,SMDPad,CuDef*%
G36*
G01*
X140475000Y-76975000D02*
X140475000Y-76825000D01*
G75*
G02*
X140550000Y-76750000I75000J0D01*
G01*
X141875000Y-76750000D01*
G75*
G02*
X141950000Y-76825000I0J-75000D01*
G01*
X141950000Y-76975000D01*
G75*
G02*
X141875000Y-77050000I-75000J0D01*
G01*
X140550000Y-77050000D01*
G75*
G02*
X140475000Y-76975000I0J75000D01*
G01*
G37*
%TD.AperFunction*%
%TA.AperFunction,SMDPad,CuDef*%
G36*
G01*
X140475000Y-76475000D02*
X140475000Y-76325000D01*
G75*
G02*
X140550000Y-76250000I75000J0D01*
G01*
X141875000Y-76250000D01*
G75*
G02*
X141950000Y-76325000I0J-75000D01*
G01*
X141950000Y-76475000D01*
G75*
G02*
X141875000Y-76550000I-75000J0D01*
G01*
X140550000Y-76550000D01*
G75*
G02*
X140475000Y-76475000I0J75000D01*
G01*
G37*
%TD.AperFunction*%
%TA.AperFunction,SMDPad,CuDef*%
G36*
G01*
X140475000Y-75975000D02*
X140475000Y-75825000D01*
G75*
G02*
X140550000Y-75750000I75000J0D01*
G01*
X141875000Y-75750000D01*
G75*
G02*
X141950000Y-75825000I0J-75000D01*
G01*
X141950000Y-75975000D01*
G75*
G02*
X141875000Y-76050000I-75000J0D01*
G01*
X140550000Y-76050000D01*
G75*
G02*
X140475000Y-75975000I0J75000D01*
G01*
G37*
%TD.AperFunction*%
%TA.AperFunction,SMDPad,CuDef*%
G36*
G01*
X140475000Y-75475000D02*
X140475000Y-75325000D01*
G75*
G02*
X140550000Y-75250000I75000J0D01*
G01*
X141875000Y-75250000D01*
G75*
G02*
X141950000Y-75325000I0J-75000D01*
G01*
X141950000Y-75475000D01*
G75*
G02*
X141875000Y-75550000I-75000J0D01*
G01*
X140550000Y-75550000D01*
G75*
G02*
X140475000Y-75475000I0J75000D01*
G01*
G37*
%TD.AperFunction*%
%TA.AperFunction,SMDPad,CuDef*%
G36*
G01*
X140475000Y-74975000D02*
X140475000Y-74825000D01*
G75*
G02*
X140550000Y-74750000I75000J0D01*
G01*
X141875000Y-74750000D01*
G75*
G02*
X141950000Y-74825000I0J-75000D01*
G01*
X141950000Y-74975000D01*
G75*
G02*
X141875000Y-75050000I-75000J0D01*
G01*
X140550000Y-75050000D01*
G75*
G02*
X140475000Y-74975000I0J75000D01*
G01*
G37*
%TD.AperFunction*%
%TA.AperFunction,SMDPad,CuDef*%
G36*
G01*
X139650000Y-74150000D02*
X139650000Y-72825000D01*
G75*
G02*
X139725000Y-72750000I75000J0D01*
G01*
X139875000Y-72750000D01*
G75*
G02*
X139950000Y-72825000I0J-75000D01*
G01*
X139950000Y-74150000D01*
G75*
G02*
X139875000Y-74225000I-75000J0D01*
G01*
X139725000Y-74225000D01*
G75*
G02*
X139650000Y-74150000I0J75000D01*
G01*
G37*
%TD.AperFunction*%
%TA.AperFunction,SMDPad,CuDef*%
G36*
G01*
X139150000Y-74150000D02*
X139150000Y-72825000D01*
G75*
G02*
X139225000Y-72750000I75000J0D01*
G01*
X139375000Y-72750000D01*
G75*
G02*
X139450000Y-72825000I0J-75000D01*
G01*
X139450000Y-74150000D01*
G75*
G02*
X139375000Y-74225000I-75000J0D01*
G01*
X139225000Y-74225000D01*
G75*
G02*
X139150000Y-74150000I0J75000D01*
G01*
G37*
%TD.AperFunction*%
%TA.AperFunction,SMDPad,CuDef*%
G36*
G01*
X138650000Y-74150000D02*
X138650000Y-72825000D01*
G75*
G02*
X138725000Y-72750000I75000J0D01*
G01*
X138875000Y-72750000D01*
G75*
G02*
X138950000Y-72825000I0J-75000D01*
G01*
X138950000Y-74150000D01*
G75*
G02*
X138875000Y-74225000I-75000J0D01*
G01*
X138725000Y-74225000D01*
G75*
G02*
X138650000Y-74150000I0J75000D01*
G01*
G37*
%TD.AperFunction*%
%TA.AperFunction,SMDPad,CuDef*%
G36*
G01*
X138150000Y-74150000D02*
X138150000Y-72825000D01*
G75*
G02*
X138225000Y-72750000I75000J0D01*
G01*
X138375000Y-72750000D01*
G75*
G02*
X138450000Y-72825000I0J-75000D01*
G01*
X138450000Y-74150000D01*
G75*
G02*
X138375000Y-74225000I-75000J0D01*
G01*
X138225000Y-74225000D01*
G75*
G02*
X138150000Y-74150000I0J75000D01*
G01*
G37*
%TD.AperFunction*%
%TA.AperFunction,SMDPad,CuDef*%
G36*
G01*
X137650000Y-74150000D02*
X137650000Y-72825000D01*
G75*
G02*
X137725000Y-72750000I75000J0D01*
G01*
X137875000Y-72750000D01*
G75*
G02*
X137950000Y-72825000I0J-75000D01*
G01*
X137950000Y-74150000D01*
G75*
G02*
X137875000Y-74225000I-75000J0D01*
G01*
X137725000Y-74225000D01*
G75*
G02*
X137650000Y-74150000I0J75000D01*
G01*
G37*
%TD.AperFunction*%
%TA.AperFunction,SMDPad,CuDef*%
G36*
G01*
X137150000Y-74150000D02*
X137150000Y-72825000D01*
G75*
G02*
X137225000Y-72750000I75000J0D01*
G01*
X137375000Y-72750000D01*
G75*
G02*
X137450000Y-72825000I0J-75000D01*
G01*
X137450000Y-74150000D01*
G75*
G02*
X137375000Y-74225000I-75000J0D01*
G01*
X137225000Y-74225000D01*
G75*
G02*
X137150000Y-74150000I0J75000D01*
G01*
G37*
%TD.AperFunction*%
%TA.AperFunction,SMDPad,CuDef*%
G36*
G01*
X136650000Y-74150000D02*
X136650000Y-72825000D01*
G75*
G02*
X136725000Y-72750000I75000J0D01*
G01*
X136875000Y-72750000D01*
G75*
G02*
X136950000Y-72825000I0J-75000D01*
G01*
X136950000Y-74150000D01*
G75*
G02*
X136875000Y-74225000I-75000J0D01*
G01*
X136725000Y-74225000D01*
G75*
G02*
X136650000Y-74150000I0J75000D01*
G01*
G37*
%TD.AperFunction*%
%TA.AperFunction,SMDPad,CuDef*%
G36*
G01*
X136150000Y-74150000D02*
X136150000Y-72825000D01*
G75*
G02*
X136225000Y-72750000I75000J0D01*
G01*
X136375000Y-72750000D01*
G75*
G02*
X136450000Y-72825000I0J-75000D01*
G01*
X136450000Y-74150000D01*
G75*
G02*
X136375000Y-74225000I-75000J0D01*
G01*
X136225000Y-74225000D01*
G75*
G02*
X136150000Y-74150000I0J75000D01*
G01*
G37*
%TD.AperFunction*%
%TA.AperFunction,SMDPad,CuDef*%
G36*
G01*
X135650000Y-74150000D02*
X135650000Y-72825000D01*
G75*
G02*
X135725000Y-72750000I75000J0D01*
G01*
X135875000Y-72750000D01*
G75*
G02*
X135950000Y-72825000I0J-75000D01*
G01*
X135950000Y-74150000D01*
G75*
G02*
X135875000Y-74225000I-75000J0D01*
G01*
X135725000Y-74225000D01*
G75*
G02*
X135650000Y-74150000I0J75000D01*
G01*
G37*
%TD.AperFunction*%
%TA.AperFunction,SMDPad,CuDef*%
G36*
G01*
X135150000Y-74150000D02*
X135150000Y-72825000D01*
G75*
G02*
X135225000Y-72750000I75000J0D01*
G01*
X135375000Y-72750000D01*
G75*
G02*
X135450000Y-72825000I0J-75000D01*
G01*
X135450000Y-74150000D01*
G75*
G02*
X135375000Y-74225000I-75000J0D01*
G01*
X135225000Y-74225000D01*
G75*
G02*
X135150000Y-74150000I0J75000D01*
G01*
G37*
%TD.AperFunction*%
%TA.AperFunction,SMDPad,CuDef*%
G36*
G01*
X134650000Y-74150000D02*
X134650000Y-72825000D01*
G75*
G02*
X134725000Y-72750000I75000J0D01*
G01*
X134875000Y-72750000D01*
G75*
G02*
X134950000Y-72825000I0J-75000D01*
G01*
X134950000Y-74150000D01*
G75*
G02*
X134875000Y-74225000I-75000J0D01*
G01*
X134725000Y-74225000D01*
G75*
G02*
X134650000Y-74150000I0J75000D01*
G01*
G37*
%TD.AperFunction*%
%TA.AperFunction,SMDPad,CuDef*%
G36*
G01*
X134150000Y-74150000D02*
X134150000Y-72825000D01*
G75*
G02*
X134225000Y-72750000I75000J0D01*
G01*
X134375000Y-72750000D01*
G75*
G02*
X134450000Y-72825000I0J-75000D01*
G01*
X134450000Y-74150000D01*
G75*
G02*
X134375000Y-74225000I-75000J0D01*
G01*
X134225000Y-74225000D01*
G75*
G02*
X134150000Y-74150000I0J75000D01*
G01*
G37*
%TD.AperFunction*%
%TA.AperFunction,SMDPad,CuDef*%
G36*
G01*
X142700000Y-83593750D02*
X142700000Y-83081250D01*
G75*
G02*
X142918750Y-82862500I218750J0D01*
G01*
X143356250Y-82862500D01*
G75*
G02*
X143575000Y-83081250I0J-218750D01*
G01*
X143575000Y-83593750D01*
G75*
G02*
X143356250Y-83812500I-218750J0D01*
G01*
X142918750Y-83812500D01*
G75*
G02*
X142700000Y-83593750I0J218750D01*
G01*
G37*
%TD.AperFunction*%
%TA.AperFunction,SMDPad,CuDef*%
G36*
G01*
X144275000Y-83593750D02*
X144275000Y-83081250D01*
G75*
G02*
X144493750Y-82862500I218750J0D01*
G01*
X144931250Y-82862500D01*
G75*
G02*
X145150000Y-83081250I0J-218750D01*
G01*
X145150000Y-83593750D01*
G75*
G02*
X144931250Y-83812500I-218750J0D01*
G01*
X144493750Y-83812500D01*
G75*
G02*
X144275000Y-83593750I0J218750D01*
G01*
G37*
%TD.AperFunction*%
%TA.AperFunction,SMDPad,CuDef*%
G36*
G01*
X132925000Y-70193750D02*
X132925000Y-70706250D01*
G75*
G02*
X132706250Y-70925000I-218750J0D01*
G01*
X132268750Y-70925000D01*
G75*
G02*
X132050000Y-70706250I0J218750D01*
G01*
X132050000Y-70193750D01*
G75*
G02*
X132268750Y-69975000I218750J0D01*
G01*
X132706250Y-69975000D01*
G75*
G02*
X132925000Y-70193750I0J-218750D01*
G01*
G37*
%TD.AperFunction*%
%TA.AperFunction,SMDPad,CuDef*%
G36*
G01*
X131350000Y-70193750D02*
X131350000Y-70706250D01*
G75*
G02*
X131131250Y-70925000I-218750J0D01*
G01*
X130693750Y-70925000D01*
G75*
G02*
X130475000Y-70706250I0J218750D01*
G01*
X130475000Y-70193750D01*
G75*
G02*
X130693750Y-69975000I218750J0D01*
G01*
X131131250Y-69975000D01*
G75*
G02*
X131350000Y-70193750I0J-218750D01*
G01*
G37*
%TD.AperFunction*%
%TA.AperFunction,SMDPad,CuDef*%
G36*
G01*
X128306250Y-80875000D02*
X127793750Y-80875000D01*
G75*
G02*
X127575000Y-80656250I0J218750D01*
G01*
X127575000Y-80218750D01*
G75*
G02*
X127793750Y-80000000I218750J0D01*
G01*
X128306250Y-80000000D01*
G75*
G02*
X128525000Y-80218750I0J-218750D01*
G01*
X128525000Y-80656250D01*
G75*
G02*
X128306250Y-80875000I-218750J0D01*
G01*
G37*
%TD.AperFunction*%
%TA.AperFunction,SMDPad,CuDef*%
G36*
G01*
X128306250Y-79300000D02*
X127793750Y-79300000D01*
G75*
G02*
X127575000Y-79081250I0J218750D01*
G01*
X127575000Y-78643750D01*
G75*
G02*
X127793750Y-78425000I218750J0D01*
G01*
X128306250Y-78425000D01*
G75*
G02*
X128525000Y-78643750I0J-218750D01*
G01*
X128525000Y-79081250D01*
G75*
G02*
X128306250Y-79300000I-218750J0D01*
G01*
G37*
%TD.AperFunction*%
%TA.AperFunction,SMDPad,CuDef*%
G36*
G01*
X139775000Y-69593750D02*
X139775000Y-70106250D01*
G75*
G02*
X139556250Y-70325000I-218750J0D01*
G01*
X139118750Y-70325000D01*
G75*
G02*
X138900000Y-70106250I0J218750D01*
G01*
X138900000Y-69593750D01*
G75*
G02*
X139118750Y-69375000I218750J0D01*
G01*
X139556250Y-69375000D01*
G75*
G02*
X139775000Y-69593750I0J-218750D01*
G01*
G37*
%TD.AperFunction*%
%TA.AperFunction,SMDPad,CuDef*%
G36*
G01*
X138200000Y-69593750D02*
X138200000Y-70106250D01*
G75*
G02*
X137981250Y-70325000I-218750J0D01*
G01*
X137543750Y-70325000D01*
G75*
G02*
X137325000Y-70106250I0J218750D01*
G01*
X137325000Y-69593750D01*
G75*
G02*
X137543750Y-69375000I218750J0D01*
G01*
X137981250Y-69375000D01*
G75*
G02*
X138200000Y-69593750I0J-218750D01*
G01*
G37*
%TD.AperFunction*%
%TA.AperFunction,SMDPad,CuDef*%
G36*
G01*
X131775000Y-65256250D02*
X131775000Y-64743750D01*
G75*
G02*
X131993750Y-64525000I218750J0D01*
G01*
X132431250Y-64525000D01*
G75*
G02*
X132650000Y-64743750I0J-218750D01*
G01*
X132650000Y-65256250D01*
G75*
G02*
X132431250Y-65475000I-218750J0D01*
G01*
X131993750Y-65475000D01*
G75*
G02*
X131775000Y-65256250I0J218750D01*
G01*
G37*
%TD.AperFunction*%
%TA.AperFunction,SMDPad,CuDef*%
G36*
G01*
X133350000Y-65256250D02*
X133350000Y-64743750D01*
G75*
G02*
X133568750Y-64525000I218750J0D01*
G01*
X134006250Y-64525000D01*
G75*
G02*
X134225000Y-64743750I0J-218750D01*
G01*
X134225000Y-65256250D01*
G75*
G02*
X134006250Y-65475000I-218750J0D01*
G01*
X133568750Y-65475000D01*
G75*
G02*
X133350000Y-65256250I0J218750D01*
G01*
G37*
%TD.AperFunction*%
%TA.AperFunction,SMDPad,CuDef*%
G36*
G01*
X140528750Y-63525000D02*
X141041250Y-63525000D01*
G75*
G02*
X141260000Y-63743750I0J-218750D01*
G01*
X141260000Y-64181250D01*
G75*
G02*
X141041250Y-64400000I-218750J0D01*
G01*
X140528750Y-64400000D01*
G75*
G02*
X140310000Y-64181250I0J218750D01*
G01*
X140310000Y-63743750D01*
G75*
G02*
X140528750Y-63525000I218750J0D01*
G01*
G37*
%TD.AperFunction*%
%TA.AperFunction,SMDPad,CuDef*%
G36*
G01*
X140528750Y-65100000D02*
X141041250Y-65100000D01*
G75*
G02*
X141260000Y-65318750I0J-218750D01*
G01*
X141260000Y-65756250D01*
G75*
G02*
X141041250Y-65975000I-218750J0D01*
G01*
X140528750Y-65975000D01*
G75*
G02*
X140310000Y-65756250I0J218750D01*
G01*
X140310000Y-65318750D01*
G75*
G02*
X140528750Y-65100000I218750J0D01*
G01*
G37*
%TD.AperFunction*%
%TA.AperFunction,SMDPad,CuDef*%
G36*
G01*
X97075000Y-68056250D02*
X97075000Y-67543750D01*
G75*
G02*
X97293750Y-67325000I218750J0D01*
G01*
X97731250Y-67325000D01*
G75*
G02*
X97950000Y-67543750I0J-218750D01*
G01*
X97950000Y-68056250D01*
G75*
G02*
X97731250Y-68275000I-218750J0D01*
G01*
X97293750Y-68275000D01*
G75*
G02*
X97075000Y-68056250I0J218750D01*
G01*
G37*
%TD.AperFunction*%
%TA.AperFunction,SMDPad,CuDef*%
G36*
G01*
X98650000Y-68056250D02*
X98650000Y-67543750D01*
G75*
G02*
X98868750Y-67325000I218750J0D01*
G01*
X99306250Y-67325000D01*
G75*
G02*
X99525000Y-67543750I0J-218750D01*
G01*
X99525000Y-68056250D01*
G75*
G02*
X99306250Y-68275000I-218750J0D01*
G01*
X98868750Y-68275000D01*
G75*
G02*
X98650000Y-68056250I0J218750D01*
G01*
G37*
%TD.AperFunction*%
%TA.AperFunction,SMDPad,CuDef*%
G36*
G01*
X135530000Y-68100000D02*
X135230000Y-68100000D01*
G75*
G02*
X135080000Y-67950000I0J150000D01*
G01*
X135080000Y-66300000D01*
G75*
G02*
X135230000Y-66150000I150000J0D01*
G01*
X135530000Y-66150000D01*
G75*
G02*
X135680000Y-66300000I0J-150000D01*
G01*
X135680000Y-67950000D01*
G75*
G02*
X135530000Y-68100000I-150000J0D01*
G01*
G37*
%TD.AperFunction*%
%TA.AperFunction,SMDPad,CuDef*%
G36*
G01*
X136800000Y-68100000D02*
X136500000Y-68100000D01*
G75*
G02*
X136350000Y-67950000I0J150000D01*
G01*
X136350000Y-66300000D01*
G75*
G02*
X136500000Y-66150000I150000J0D01*
G01*
X136800000Y-66150000D01*
G75*
G02*
X136950000Y-66300000I0J-150000D01*
G01*
X136950000Y-67950000D01*
G75*
G02*
X136800000Y-68100000I-150000J0D01*
G01*
G37*
%TD.AperFunction*%
%TA.AperFunction,SMDPad,CuDef*%
G36*
G01*
X138070000Y-68100000D02*
X137770000Y-68100000D01*
G75*
G02*
X137620000Y-67950000I0J150000D01*
G01*
X137620000Y-66300000D01*
G75*
G02*
X137770000Y-66150000I150000J0D01*
G01*
X138070000Y-66150000D01*
G75*
G02*
X138220000Y-66300000I0J-150000D01*
G01*
X138220000Y-67950000D01*
G75*
G02*
X138070000Y-68100000I-150000J0D01*
G01*
G37*
%TD.AperFunction*%
%TA.AperFunction,SMDPad,CuDef*%
G36*
G01*
X139340000Y-68100000D02*
X139040000Y-68100000D01*
G75*
G02*
X138890000Y-67950000I0J150000D01*
G01*
X138890000Y-66300000D01*
G75*
G02*
X139040000Y-66150000I150000J0D01*
G01*
X139340000Y-66150000D01*
G75*
G02*
X139490000Y-66300000I0J-150000D01*
G01*
X139490000Y-67950000D01*
G75*
G02*
X139340000Y-68100000I-150000J0D01*
G01*
G37*
%TD.AperFunction*%
%TA.AperFunction,SMDPad,CuDef*%
G36*
G01*
X139340000Y-63150000D02*
X139040000Y-63150000D01*
G75*
G02*
X138890000Y-63000000I0J150000D01*
G01*
X138890000Y-61350000D01*
G75*
G02*
X139040000Y-61200000I150000J0D01*
G01*
X139340000Y-61200000D01*
G75*
G02*
X139490000Y-61350000I0J-150000D01*
G01*
X139490000Y-63000000D01*
G75*
G02*
X139340000Y-63150000I-150000J0D01*
G01*
G37*
%TD.AperFunction*%
%TA.AperFunction,SMDPad,CuDef*%
G36*
G01*
X138070000Y-63150000D02*
X137770000Y-63150000D01*
G75*
G02*
X137620000Y-63000000I0J150000D01*
G01*
X137620000Y-61350000D01*
G75*
G02*
X137770000Y-61200000I150000J0D01*
G01*
X138070000Y-61200000D01*
G75*
G02*
X138220000Y-61350000I0J-150000D01*
G01*
X138220000Y-63000000D01*
G75*
G02*
X138070000Y-63150000I-150000J0D01*
G01*
G37*
%TD.AperFunction*%
%TA.AperFunction,SMDPad,CuDef*%
G36*
G01*
X136800000Y-63150000D02*
X136500000Y-63150000D01*
G75*
G02*
X136350000Y-63000000I0J150000D01*
G01*
X136350000Y-61350000D01*
G75*
G02*
X136500000Y-61200000I150000J0D01*
G01*
X136800000Y-61200000D01*
G75*
G02*
X136950000Y-61350000I0J-150000D01*
G01*
X136950000Y-63000000D01*
G75*
G02*
X136800000Y-63150000I-150000J0D01*
G01*
G37*
%TD.AperFunction*%
%TA.AperFunction,SMDPad,CuDef*%
G36*
G01*
X135530000Y-63150000D02*
X135230000Y-63150000D01*
G75*
G02*
X135080000Y-63000000I0J150000D01*
G01*
X135080000Y-61350000D01*
G75*
G02*
X135230000Y-61200000I150000J0D01*
G01*
X135530000Y-61200000D01*
G75*
G02*
X135680000Y-61350000I0J-150000D01*
G01*
X135680000Y-63000000D01*
G75*
G02*
X135530000Y-63150000I-150000J0D01*
G01*
G37*
%TD.AperFunction*%
%TA.AperFunction,SMDPad,CuDef*%
G36*
G01*
X135106250Y-72125000D02*
X134593750Y-72125000D01*
G75*
G02*
X134375000Y-71906250I0J218750D01*
G01*
X134375000Y-71468750D01*
G75*
G02*
X134593750Y-71250000I218750J0D01*
G01*
X135106250Y-71250000D01*
G75*
G02*
X135325000Y-71468750I0J-218750D01*
G01*
X135325000Y-71906250D01*
G75*
G02*
X135106250Y-72125000I-218750J0D01*
G01*
G37*
%TD.AperFunction*%
%TA.AperFunction,SMDPad,CuDef*%
G36*
G01*
X135106250Y-70550000D02*
X134593750Y-70550000D01*
G75*
G02*
X134375000Y-70331250I0J218750D01*
G01*
X134375000Y-69893750D01*
G75*
G02*
X134593750Y-69675000I218750J0D01*
G01*
X135106250Y-69675000D01*
G75*
G02*
X135325000Y-69893750I0J-218750D01*
G01*
X135325000Y-70331250D01*
G75*
G02*
X135106250Y-70550000I-218750J0D01*
G01*
G37*
%TD.AperFunction*%
%TA.AperFunction,SMDPad,CuDef*%
G36*
G01*
X97075000Y-66556250D02*
X97075000Y-66043750D01*
G75*
G02*
X97293750Y-65825000I218750J0D01*
G01*
X97731250Y-65825000D01*
G75*
G02*
X97950000Y-66043750I0J-218750D01*
G01*
X97950000Y-66556250D01*
G75*
G02*
X97731250Y-66775000I-218750J0D01*
G01*
X97293750Y-66775000D01*
G75*
G02*
X97075000Y-66556250I0J218750D01*
G01*
G37*
%TD.AperFunction*%
%TA.AperFunction,SMDPad,CuDef*%
G36*
G01*
X98650000Y-66556250D02*
X98650000Y-66043750D01*
G75*
G02*
X98868750Y-65825000I218750J0D01*
G01*
X99306250Y-65825000D01*
G75*
G02*
X99525000Y-66043750I0J-218750D01*
G01*
X99525000Y-66556250D01*
G75*
G02*
X99306250Y-66775000I-218750J0D01*
G01*
X98868750Y-66775000D01*
G75*
G02*
X98650000Y-66556250I0J218750D01*
G01*
G37*
%TD.AperFunction*%
%TA.AperFunction,SMDPad,CuDef*%
G36*
G01*
X142575000Y-75943750D02*
X142575000Y-75431250D01*
G75*
G02*
X142793750Y-75212500I218750J0D01*
G01*
X143231250Y-75212500D01*
G75*
G02*
X143450000Y-75431250I0J-218750D01*
G01*
X143450000Y-75943750D01*
G75*
G02*
X143231250Y-76162500I-218750J0D01*
G01*
X142793750Y-76162500D01*
G75*
G02*
X142575000Y-75943750I0J218750D01*
G01*
G37*
%TD.AperFunction*%
%TA.AperFunction,SMDPad,CuDef*%
G36*
G01*
X144150000Y-75943750D02*
X144150000Y-75431250D01*
G75*
G02*
X144368750Y-75212500I218750J0D01*
G01*
X144806250Y-75212500D01*
G75*
G02*
X145025000Y-75431250I0J-218750D01*
G01*
X145025000Y-75943750D01*
G75*
G02*
X144806250Y-76162500I-218750J0D01*
G01*
X144368750Y-76162500D01*
G75*
G02*
X144150000Y-75943750I0J218750D01*
G01*
G37*
%TD.AperFunction*%
%TA.AperFunction,SMDPad,CuDef*%
G36*
G01*
X140325000Y-69906250D02*
X140325000Y-69393750D01*
G75*
G02*
X140543750Y-69175000I218750J0D01*
G01*
X140981250Y-69175000D01*
G75*
G02*
X141200000Y-69393750I0J-218750D01*
G01*
X141200000Y-69906250D01*
G75*
G02*
X140981250Y-70125000I-218750J0D01*
G01*
X140543750Y-70125000D01*
G75*
G02*
X140325000Y-69906250I0J218750D01*
G01*
G37*
%TD.AperFunction*%
%TA.AperFunction,SMDPad,CuDef*%
G36*
G01*
X141900000Y-69906250D02*
X141900000Y-69393750D01*
G75*
G02*
X142118750Y-69175000I218750J0D01*
G01*
X142556250Y-69175000D01*
G75*
G02*
X142775000Y-69393750I0J-218750D01*
G01*
X142775000Y-69906250D01*
G75*
G02*
X142556250Y-70125000I-218750J0D01*
G01*
X142118750Y-70125000D01*
G75*
G02*
X141900000Y-69906250I0J218750D01*
G01*
G37*
%TD.AperFunction*%
%TA.AperFunction,SMDPad,CuDef*%
G36*
G01*
X125456250Y-77625000D02*
X124943750Y-77625000D01*
G75*
G02*
X124725000Y-77406250I0J218750D01*
G01*
X124725000Y-76968750D01*
G75*
G02*
X124943750Y-76750000I218750J0D01*
G01*
X125456250Y-76750000D01*
G75*
G02*
X125675000Y-76968750I0J-218750D01*
G01*
X125675000Y-77406250D01*
G75*
G02*
X125456250Y-77625000I-218750J0D01*
G01*
G37*
%TD.AperFunction*%
%TA.AperFunction,SMDPad,CuDef*%
G36*
G01*
X125456250Y-76050000D02*
X124943750Y-76050000D01*
G75*
G02*
X124725000Y-75831250I0J218750D01*
G01*
X124725000Y-75393750D01*
G75*
G02*
X124943750Y-75175000I218750J0D01*
G01*
X125456250Y-75175000D01*
G75*
G02*
X125675000Y-75393750I0J-218750D01*
G01*
X125675000Y-75831250D01*
G75*
G02*
X125456250Y-76050000I-218750J0D01*
G01*
G37*
%TD.AperFunction*%
D21*
X92000000Y-62000000D03*
%TA.AperFunction,SMDPad,CuDef*%
G36*
G01*
X107475000Y-103775000D02*
X107475000Y-106625000D01*
G75*
G02*
X107225000Y-106875000I-250000J0D01*
G01*
X106375000Y-106875000D01*
G75*
G02*
X106125000Y-106625000I0J250000D01*
G01*
X106125000Y-103775000D01*
G75*
G02*
X106375000Y-103525000I250000J0D01*
G01*
X107225000Y-103525000D01*
G75*
G02*
X107475000Y-103775000I0J-250000D01*
G01*
G37*
%TD.AperFunction*%
%TA.AperFunction,SMDPad,CuDef*%
G36*
G01*
X101675000Y-103775000D02*
X101675000Y-106625000D01*
G75*
G02*
X101425000Y-106875000I-250000J0D01*
G01*
X100575000Y-106875000D01*
G75*
G02*
X100325000Y-106625000I0J250000D01*
G01*
X100325000Y-103775000D01*
G75*
G02*
X100575000Y-103525000I250000J0D01*
G01*
X101425000Y-103525000D01*
G75*
G02*
X101675000Y-103775000I0J-250000D01*
G01*
G37*
%TD.AperFunction*%
D18*
X111460000Y-108875000D03*
D19*
X114000000Y-99725000D03*
D18*
X116540000Y-108875000D03*
%TA.AperFunction,SMDPad,CuDef*%
G36*
G01*
X96225000Y-104743750D02*
X96225000Y-105256250D01*
G75*
G02*
X96006250Y-105475000I-218750J0D01*
G01*
X95568750Y-105475000D01*
G75*
G02*
X95350000Y-105256250I0J218750D01*
G01*
X95350000Y-104743750D01*
G75*
G02*
X95568750Y-104525000I218750J0D01*
G01*
X96006250Y-104525000D01*
G75*
G02*
X96225000Y-104743750I0J-218750D01*
G01*
G37*
%TD.AperFunction*%
%TA.AperFunction,SMDPad,CuDef*%
G36*
G01*
X94650000Y-104743750D02*
X94650000Y-105256250D01*
G75*
G02*
X94431250Y-105475000I-218750J0D01*
G01*
X93993750Y-105475000D01*
G75*
G02*
X93775000Y-105256250I0J218750D01*
G01*
X93775000Y-104743750D01*
G75*
G02*
X93993750Y-104525000I218750J0D01*
G01*
X94431250Y-104525000D01*
G75*
G02*
X94650000Y-104743750I0J-218750D01*
G01*
G37*
%TD.AperFunction*%
%TA.AperFunction,SMDPad,CuDef*%
G36*
G01*
X99225000Y-104743750D02*
X99225000Y-105256250D01*
G75*
G02*
X99006250Y-105475000I-218750J0D01*
G01*
X98568750Y-105475000D01*
G75*
G02*
X98350000Y-105256250I0J218750D01*
G01*
X98350000Y-104743750D01*
G75*
G02*
X98568750Y-104525000I218750J0D01*
G01*
X99006250Y-104525000D01*
G75*
G02*
X99225000Y-104743750I0J-218750D01*
G01*
G37*
%TD.AperFunction*%
%TA.AperFunction,SMDPad,CuDef*%
G36*
G01*
X97650000Y-104743750D02*
X97650000Y-105256250D01*
G75*
G02*
X97431250Y-105475000I-218750J0D01*
G01*
X96993750Y-105475000D01*
G75*
G02*
X96775000Y-105256250I0J218750D01*
G01*
X96775000Y-104743750D01*
G75*
G02*
X96993750Y-104525000I218750J0D01*
G01*
X97431250Y-104525000D01*
G75*
G02*
X97650000Y-104743750I0J-218750D01*
G01*
G37*
%TD.AperFunction*%
%TA.AperFunction,SMDPad,CuDef*%
G36*
G01*
X102775000Y-86256250D02*
X102775000Y-85743750D01*
G75*
G02*
X102993750Y-85525000I218750J0D01*
G01*
X103431250Y-85525000D01*
G75*
G02*
X103650000Y-85743750I0J-218750D01*
G01*
X103650000Y-86256250D01*
G75*
G02*
X103431250Y-86475000I-218750J0D01*
G01*
X102993750Y-86475000D01*
G75*
G02*
X102775000Y-86256250I0J218750D01*
G01*
G37*
%TD.AperFunction*%
%TA.AperFunction,SMDPad,CuDef*%
G36*
G01*
X104350000Y-86256250D02*
X104350000Y-85743750D01*
G75*
G02*
X104568750Y-85525000I218750J0D01*
G01*
X105006250Y-85525000D01*
G75*
G02*
X105225000Y-85743750I0J-218750D01*
G01*
X105225000Y-86256250D01*
G75*
G02*
X105006250Y-86475000I-218750J0D01*
G01*
X104568750Y-86475000D01*
G75*
G02*
X104350000Y-86256250I0J218750D01*
G01*
G37*
%TD.AperFunction*%
%TA.AperFunction,SMDPad,CuDef*%
G36*
G01*
X116525000Y-89143750D02*
X116525000Y-89656250D01*
G75*
G02*
X116306250Y-89875000I-218750J0D01*
G01*
X115868750Y-89875000D01*
G75*
G02*
X115650000Y-89656250I0J218750D01*
G01*
X115650000Y-89143750D01*
G75*
G02*
X115868750Y-88925000I218750J0D01*
G01*
X116306250Y-88925000D01*
G75*
G02*
X116525000Y-89143750I0J-218750D01*
G01*
G37*
%TD.AperFunction*%
%TA.AperFunction,SMDPad,CuDef*%
G36*
G01*
X114950000Y-89143750D02*
X114950000Y-89656250D01*
G75*
G02*
X114731250Y-89875000I-218750J0D01*
G01*
X114293750Y-89875000D01*
G75*
G02*
X114075000Y-89656250I0J218750D01*
G01*
X114075000Y-89143750D01*
G75*
G02*
X114293750Y-88925000I218750J0D01*
G01*
X114731250Y-88925000D01*
G75*
G02*
X114950000Y-89143750I0J-218750D01*
G01*
G37*
%TD.AperFunction*%
D23*
X117500000Y-127200000D03*
D24*
X117500000Y-125930000D03*
X118770000Y-127200000D03*
X118770000Y-125930000D03*
X120040000Y-127200000D03*
X120040000Y-125930000D03*
X121310000Y-127200000D03*
X121310000Y-125930000D03*
X122580000Y-127200000D03*
X122580000Y-125930000D03*
%TA.AperFunction,SMDPad,CuDef*%
G36*
G01*
X105625000Y-111243750D02*
X105625000Y-111756250D01*
G75*
G02*
X105406250Y-111975000I-218750J0D01*
G01*
X104968750Y-111975000D01*
G75*
G02*
X104750000Y-111756250I0J218750D01*
G01*
X104750000Y-111243750D01*
G75*
G02*
X104968750Y-111025000I218750J0D01*
G01*
X105406250Y-111025000D01*
G75*
G02*
X105625000Y-111243750I0J-218750D01*
G01*
G37*
%TD.AperFunction*%
%TA.AperFunction,SMDPad,CuDef*%
G36*
G01*
X104050000Y-111243750D02*
X104050000Y-111756250D01*
G75*
G02*
X103831250Y-111975000I-218750J0D01*
G01*
X103393750Y-111975000D01*
G75*
G02*
X103175000Y-111756250I0J218750D01*
G01*
X103175000Y-111243750D01*
G75*
G02*
X103393750Y-111025000I218750J0D01*
G01*
X103831250Y-111025000D01*
G75*
G02*
X104050000Y-111243750I0J-218750D01*
G01*
G37*
%TD.AperFunction*%
%TA.AperFunction,SMDPad,CuDef*%
G36*
G01*
X96225000Y-106243750D02*
X96225000Y-106756250D01*
G75*
G02*
X96006250Y-106975000I-218750J0D01*
G01*
X95568750Y-106975000D01*
G75*
G02*
X95350000Y-106756250I0J218750D01*
G01*
X95350000Y-106243750D01*
G75*
G02*
X95568750Y-106025000I218750J0D01*
G01*
X96006250Y-106025000D01*
G75*
G02*
X96225000Y-106243750I0J-218750D01*
G01*
G37*
%TD.AperFunction*%
%TA.AperFunction,SMDPad,CuDef*%
G36*
G01*
X94650000Y-106243750D02*
X94650000Y-106756250D01*
G75*
G02*
X94431250Y-106975000I-218750J0D01*
G01*
X93993750Y-106975000D01*
G75*
G02*
X93775000Y-106756250I0J218750D01*
G01*
X93775000Y-106243750D01*
G75*
G02*
X93993750Y-106025000I218750J0D01*
G01*
X94431250Y-106025000D01*
G75*
G02*
X94650000Y-106243750I0J-218750D01*
G01*
G37*
%TD.AperFunction*%
%TA.AperFunction,SMDPad,CuDef*%
G36*
G01*
X99225000Y-106243750D02*
X99225000Y-106756250D01*
G75*
G02*
X99006250Y-106975000I-218750J0D01*
G01*
X98568750Y-106975000D01*
G75*
G02*
X98350000Y-106756250I0J218750D01*
G01*
X98350000Y-106243750D01*
G75*
G02*
X98568750Y-106025000I218750J0D01*
G01*
X99006250Y-106025000D01*
G75*
G02*
X99225000Y-106243750I0J-218750D01*
G01*
G37*
%TD.AperFunction*%
%TA.AperFunction,SMDPad,CuDef*%
G36*
G01*
X97650000Y-106243750D02*
X97650000Y-106756250D01*
G75*
G02*
X97431250Y-106975000I-218750J0D01*
G01*
X96993750Y-106975000D01*
G75*
G02*
X96775000Y-106756250I0J218750D01*
G01*
X96775000Y-106243750D01*
G75*
G02*
X96993750Y-106025000I218750J0D01*
G01*
X97431250Y-106025000D01*
G75*
G02*
X97650000Y-106243750I0J-218750D01*
G01*
G37*
%TD.AperFunction*%
%TA.AperFunction,SMDPad,CuDef*%
G36*
G01*
X104025000Y-108050000D02*
X104025000Y-109300000D01*
G75*
G02*
X103775000Y-109550000I-250000J0D01*
G01*
X103025000Y-109550000D01*
G75*
G02*
X102775000Y-109300000I0J250000D01*
G01*
X102775000Y-108050000D01*
G75*
G02*
X103025000Y-107800000I250000J0D01*
G01*
X103775000Y-107800000D01*
G75*
G02*
X104025000Y-108050000I0J-250000D01*
G01*
G37*
%TD.AperFunction*%
%TA.AperFunction,SMDPad,CuDef*%
G36*
G01*
X101225000Y-108050000D02*
X101225000Y-109300000D01*
G75*
G02*
X100975000Y-109550000I-250000J0D01*
G01*
X100225000Y-109550000D01*
G75*
G02*
X99975000Y-109300000I0J250000D01*
G01*
X99975000Y-108050000D01*
G75*
G02*
X100225000Y-107800000I250000J0D01*
G01*
X100975000Y-107800000D01*
G75*
G02*
X101225000Y-108050000I0J-250000D01*
G01*
G37*
%TD.AperFunction*%
D25*
X106500000Y-84200000D03*
X106500000Y-77800000D03*
D26*
X128250000Y-76500000D03*
X128250000Y-72800000D03*
%TA.AperFunction,SMDPad,CuDef*%
G36*
G01*
X132925000Y-73193750D02*
X132925000Y-73706250D01*
G75*
G02*
X132706250Y-73925000I-218750J0D01*
G01*
X132268750Y-73925000D01*
G75*
G02*
X132050000Y-73706250I0J218750D01*
G01*
X132050000Y-73193750D01*
G75*
G02*
X132268750Y-72975000I218750J0D01*
G01*
X132706250Y-72975000D01*
G75*
G02*
X132925000Y-73193750I0J-218750D01*
G01*
G37*
%TD.AperFunction*%
%TA.AperFunction,SMDPad,CuDef*%
G36*
G01*
X131350000Y-73193750D02*
X131350000Y-73706250D01*
G75*
G02*
X131131250Y-73925000I-218750J0D01*
G01*
X130693750Y-73925000D01*
G75*
G02*
X130475000Y-73706250I0J218750D01*
G01*
X130475000Y-73193750D01*
G75*
G02*
X130693750Y-72975000I218750J0D01*
G01*
X131131250Y-72975000D01*
G75*
G02*
X131350000Y-73193750I0J-218750D01*
G01*
G37*
%TD.AperFunction*%
%TA.AperFunction,SMDPad,CuDef*%
G36*
G01*
X149675000Y-81093750D02*
X149675000Y-81606250D01*
G75*
G02*
X149456250Y-81825000I-218750J0D01*
G01*
X149018750Y-81825000D01*
G75*
G02*
X148800000Y-81606250I0J218750D01*
G01*
X148800000Y-81093750D01*
G75*
G02*
X149018750Y-80875000I218750J0D01*
G01*
X149456250Y-80875000D01*
G75*
G02*
X149675000Y-81093750I0J-218750D01*
G01*
G37*
%TD.AperFunction*%
%TA.AperFunction,SMDPad,CuDef*%
G36*
G01*
X148100000Y-81093750D02*
X148100000Y-81606250D01*
G75*
G02*
X147881250Y-81825000I-218750J0D01*
G01*
X147443750Y-81825000D01*
G75*
G02*
X147225000Y-81606250I0J218750D01*
G01*
X147225000Y-81093750D01*
G75*
G02*
X147443750Y-80875000I218750J0D01*
G01*
X147881250Y-80875000D01*
G75*
G02*
X148100000Y-81093750I0J-218750D01*
G01*
G37*
%TD.AperFunction*%
%TA.AperFunction,SMDPad,CuDef*%
G36*
G01*
X117625000Y-114968750D02*
X117625000Y-115481250D01*
G75*
G02*
X117406250Y-115700000I-218750J0D01*
G01*
X116968750Y-115700000D01*
G75*
G02*
X116750000Y-115481250I0J218750D01*
G01*
X116750000Y-114968750D01*
G75*
G02*
X116968750Y-114750000I218750J0D01*
G01*
X117406250Y-114750000D01*
G75*
G02*
X117625000Y-114968750I0J-218750D01*
G01*
G37*
%TD.AperFunction*%
%TA.AperFunction,SMDPad,CuDef*%
G36*
G01*
X116050000Y-114968750D02*
X116050000Y-115481250D01*
G75*
G02*
X115831250Y-115700000I-218750J0D01*
G01*
X115393750Y-115700000D01*
G75*
G02*
X115175000Y-115481250I0J218750D01*
G01*
X115175000Y-114968750D01*
G75*
G02*
X115393750Y-114750000I218750J0D01*
G01*
X115831250Y-114750000D01*
G75*
G02*
X116050000Y-114968750I0J-218750D01*
G01*
G37*
%TD.AperFunction*%
%TA.AperFunction,SMDPad,CuDef*%
G36*
G01*
X134343750Y-113275000D02*
X134856250Y-113275000D01*
G75*
G02*
X135075000Y-113493750I0J-218750D01*
G01*
X135075000Y-113931250D01*
G75*
G02*
X134856250Y-114150000I-218750J0D01*
G01*
X134343750Y-114150000D01*
G75*
G02*
X134125000Y-113931250I0J218750D01*
G01*
X134125000Y-113493750D01*
G75*
G02*
X134343750Y-113275000I218750J0D01*
G01*
G37*
%TD.AperFunction*%
%TA.AperFunction,SMDPad,CuDef*%
G36*
G01*
X134343750Y-114850000D02*
X134856250Y-114850000D01*
G75*
G02*
X135075000Y-115068750I0J-218750D01*
G01*
X135075000Y-115506250D01*
G75*
G02*
X134856250Y-115725000I-218750J0D01*
G01*
X134343750Y-115725000D01*
G75*
G02*
X134125000Y-115506250I0J218750D01*
G01*
X134125000Y-115068750D01*
G75*
G02*
X134343750Y-114850000I218750J0D01*
G01*
G37*
%TD.AperFunction*%
%TA.AperFunction,SMDPad,CuDef*%
G36*
G01*
X134343750Y-110275000D02*
X134856250Y-110275000D01*
G75*
G02*
X135075000Y-110493750I0J-218750D01*
G01*
X135075000Y-110931250D01*
G75*
G02*
X134856250Y-111150000I-218750J0D01*
G01*
X134343750Y-111150000D01*
G75*
G02*
X134125000Y-110931250I0J218750D01*
G01*
X134125000Y-110493750D01*
G75*
G02*
X134343750Y-110275000I218750J0D01*
G01*
G37*
%TD.AperFunction*%
%TA.AperFunction,SMDPad,CuDef*%
G36*
G01*
X134343750Y-111850000D02*
X134856250Y-111850000D01*
G75*
G02*
X135075000Y-112068750I0J-218750D01*
G01*
X135075000Y-112506250D01*
G75*
G02*
X134856250Y-112725000I-218750J0D01*
G01*
X134343750Y-112725000D01*
G75*
G02*
X134125000Y-112506250I0J218750D01*
G01*
X134125000Y-112068750D01*
G75*
G02*
X134343750Y-111850000I218750J0D01*
G01*
G37*
%TD.AperFunction*%
%TA.AperFunction,SMDPad,CuDef*%
G36*
G01*
X116643750Y-118375000D02*
X117156250Y-118375000D01*
G75*
G02*
X117375000Y-118593750I0J-218750D01*
G01*
X117375000Y-119031250D01*
G75*
G02*
X117156250Y-119250000I-218750J0D01*
G01*
X116643750Y-119250000D01*
G75*
G02*
X116425000Y-119031250I0J218750D01*
G01*
X116425000Y-118593750D01*
G75*
G02*
X116643750Y-118375000I218750J0D01*
G01*
G37*
%TD.AperFunction*%
%TA.AperFunction,SMDPad,CuDef*%
G36*
G01*
X116643750Y-119950000D02*
X117156250Y-119950000D01*
G75*
G02*
X117375000Y-120168750I0J-218750D01*
G01*
X117375000Y-120606250D01*
G75*
G02*
X117156250Y-120825000I-218750J0D01*
G01*
X116643750Y-120825000D01*
G75*
G02*
X116425000Y-120606250I0J218750D01*
G01*
X116425000Y-120168750D01*
G75*
G02*
X116643750Y-119950000I218750J0D01*
G01*
G37*
%TD.AperFunction*%
%TA.AperFunction,SMDPad,CuDef*%
G36*
G01*
X117156250Y-123825000D02*
X116643750Y-123825000D01*
G75*
G02*
X116425000Y-123606250I0J218750D01*
G01*
X116425000Y-123168750D01*
G75*
G02*
X116643750Y-122950000I218750J0D01*
G01*
X117156250Y-122950000D01*
G75*
G02*
X117375000Y-123168750I0J-218750D01*
G01*
X117375000Y-123606250D01*
G75*
G02*
X117156250Y-123825000I-218750J0D01*
G01*
G37*
%TD.AperFunction*%
%TA.AperFunction,SMDPad,CuDef*%
G36*
G01*
X117156250Y-122250000D02*
X116643750Y-122250000D01*
G75*
G02*
X116425000Y-122031250I0J218750D01*
G01*
X116425000Y-121593750D01*
G75*
G02*
X116643750Y-121375000I218750J0D01*
G01*
X117156250Y-121375000D01*
G75*
G02*
X117375000Y-121593750I0J-218750D01*
G01*
X117375000Y-122031250D01*
G75*
G02*
X117156250Y-122250000I-218750J0D01*
G01*
G37*
%TD.AperFunction*%
%TA.AperFunction,SMDPad,CuDef*%
G36*
G01*
X126275000Y-112756250D02*
X126275000Y-112243750D01*
G75*
G02*
X126493750Y-112025000I218750J0D01*
G01*
X126931250Y-112025000D01*
G75*
G02*
X127150000Y-112243750I0J-218750D01*
G01*
X127150000Y-112756250D01*
G75*
G02*
X126931250Y-112975000I-218750J0D01*
G01*
X126493750Y-112975000D01*
G75*
G02*
X126275000Y-112756250I0J218750D01*
G01*
G37*
%TD.AperFunction*%
%TA.AperFunction,SMDPad,CuDef*%
G36*
G01*
X127850000Y-112756250D02*
X127850000Y-112243750D01*
G75*
G02*
X128068750Y-112025000I218750J0D01*
G01*
X128506250Y-112025000D01*
G75*
G02*
X128725000Y-112243750I0J-218750D01*
G01*
X128725000Y-112756250D01*
G75*
G02*
X128506250Y-112975000I-218750J0D01*
G01*
X128068750Y-112975000D01*
G75*
G02*
X127850000Y-112756250I0J218750D01*
G01*
G37*
%TD.AperFunction*%
%TA.AperFunction,SMDPad,CuDef*%
G36*
G01*
X131725000Y-112243750D02*
X131725000Y-112756250D01*
G75*
G02*
X131506250Y-112975000I-218750J0D01*
G01*
X131068750Y-112975000D01*
G75*
G02*
X130850000Y-112756250I0J218750D01*
G01*
X130850000Y-112243750D01*
G75*
G02*
X131068750Y-112025000I218750J0D01*
G01*
X131506250Y-112025000D01*
G75*
G02*
X131725000Y-112243750I0J-218750D01*
G01*
G37*
%TD.AperFunction*%
%TA.AperFunction,SMDPad,CuDef*%
G36*
G01*
X130150000Y-112243750D02*
X130150000Y-112756250D01*
G75*
G02*
X129931250Y-112975000I-218750J0D01*
G01*
X129493750Y-112975000D01*
G75*
G02*
X129275000Y-112756250I0J218750D01*
G01*
X129275000Y-112243750D01*
G75*
G02*
X129493750Y-112025000I218750J0D01*
G01*
X129931250Y-112025000D01*
G75*
G02*
X130150000Y-112243750I0J-218750D01*
G01*
G37*
%TD.AperFunction*%
%TA.AperFunction,SMDPad,CuDef*%
G36*
G01*
X140025000Y-123543750D02*
X140025000Y-124056250D01*
G75*
G02*
X139806250Y-124275000I-218750J0D01*
G01*
X139368750Y-124275000D01*
G75*
G02*
X139150000Y-124056250I0J218750D01*
G01*
X139150000Y-123543750D01*
G75*
G02*
X139368750Y-123325000I218750J0D01*
G01*
X139806250Y-123325000D01*
G75*
G02*
X140025000Y-123543750I0J-218750D01*
G01*
G37*
%TD.AperFunction*%
%TA.AperFunction,SMDPad,CuDef*%
G36*
G01*
X138450000Y-123543750D02*
X138450000Y-124056250D01*
G75*
G02*
X138231250Y-124275000I-218750J0D01*
G01*
X137793750Y-124275000D01*
G75*
G02*
X137575000Y-124056250I0J218750D01*
G01*
X137575000Y-123543750D01*
G75*
G02*
X137793750Y-123325000I218750J0D01*
G01*
X138231250Y-123325000D01*
G75*
G02*
X138450000Y-123543750I0J-218750D01*
G01*
G37*
%TD.AperFunction*%
%TA.AperFunction,SMDPad,CuDef*%
G36*
G01*
X105025000Y-87843750D02*
X105025000Y-88356250D01*
G75*
G02*
X104806250Y-88575000I-218750J0D01*
G01*
X104368750Y-88575000D01*
G75*
G02*
X104150000Y-88356250I0J218750D01*
G01*
X104150000Y-87843750D01*
G75*
G02*
X104368750Y-87625000I218750J0D01*
G01*
X104806250Y-87625000D01*
G75*
G02*
X105025000Y-87843750I0J-218750D01*
G01*
G37*
%TD.AperFunction*%
%TA.AperFunction,SMDPad,CuDef*%
G36*
G01*
X103450000Y-87843750D02*
X103450000Y-88356250D01*
G75*
G02*
X103231250Y-88575000I-218750J0D01*
G01*
X102793750Y-88575000D01*
G75*
G02*
X102575000Y-88356250I0J218750D01*
G01*
X102575000Y-87843750D01*
G75*
G02*
X102793750Y-87625000I218750J0D01*
G01*
X103231250Y-87625000D01*
G75*
G02*
X103450000Y-87843750I0J-218750D01*
G01*
G37*
%TD.AperFunction*%
%TA.AperFunction,SMDPad,CuDef*%
G36*
G01*
X104243750Y-89175000D02*
X104756250Y-89175000D01*
G75*
G02*
X104975000Y-89393750I0J-218750D01*
G01*
X104975000Y-89831250D01*
G75*
G02*
X104756250Y-90050000I-218750J0D01*
G01*
X104243750Y-90050000D01*
G75*
G02*
X104025000Y-89831250I0J218750D01*
G01*
X104025000Y-89393750D01*
G75*
G02*
X104243750Y-89175000I218750J0D01*
G01*
G37*
%TD.AperFunction*%
%TA.AperFunction,SMDPad,CuDef*%
G36*
G01*
X104243750Y-90750000D02*
X104756250Y-90750000D01*
G75*
G02*
X104975000Y-90968750I0J-218750D01*
G01*
X104975000Y-91406250D01*
G75*
G02*
X104756250Y-91625000I-218750J0D01*
G01*
X104243750Y-91625000D01*
G75*
G02*
X104025000Y-91406250I0J218750D01*
G01*
X104025000Y-90968750D01*
G75*
G02*
X104243750Y-90750000I218750J0D01*
G01*
G37*
%TD.AperFunction*%
D13*
X106600000Y-85800000D03*
X106600000Y-86450000D03*
X106600000Y-87100000D03*
X106600000Y-87750000D03*
X106600000Y-88400000D03*
X106600000Y-89050000D03*
X106600000Y-89700000D03*
X106600000Y-90350000D03*
X112400000Y-90350000D03*
X112400000Y-89700000D03*
X112400000Y-89050000D03*
X112400000Y-88400000D03*
X112400000Y-87750000D03*
X112400000Y-87100000D03*
X112400000Y-86450000D03*
X112400000Y-85800000D03*
D27*
X109500000Y-88075000D03*
%TA.AperFunction,SMDPad,CuDef*%
G36*
G01*
X111375000Y-77175000D02*
X112625000Y-77175000D01*
G75*
G02*
X112875000Y-77425000I0J-250000D01*
G01*
X112875000Y-78175000D01*
G75*
G02*
X112625000Y-78425000I-250000J0D01*
G01*
X111375000Y-78425000D01*
G75*
G02*
X111125000Y-78175000I0J250000D01*
G01*
X111125000Y-77425000D01*
G75*
G02*
X111375000Y-77175000I250000J0D01*
G01*
G37*
%TD.AperFunction*%
%TA.AperFunction,SMDPad,CuDef*%
G36*
G01*
X111375000Y-79975000D02*
X112625000Y-79975000D01*
G75*
G02*
X112875000Y-80225000I0J-250000D01*
G01*
X112875000Y-80975000D01*
G75*
G02*
X112625000Y-81225000I-250000J0D01*
G01*
X111375000Y-81225000D01*
G75*
G02*
X111125000Y-80975000I0J250000D01*
G01*
X111125000Y-80225000D01*
G75*
G02*
X111375000Y-79975000I250000J0D01*
G01*
G37*
%TD.AperFunction*%
D10*
X99170000Y-98500000D03*
X99170000Y-95500000D03*
D28*
X93700000Y-102385000D03*
X93700000Y-91615000D03*
D12*
X104300000Y-94900000D03*
X104300000Y-101700000D03*
D29*
X94800000Y-69000000D03*
X94800000Y-69650000D03*
X94800000Y-70300000D03*
X94800000Y-70950000D03*
X94800000Y-71600000D03*
D30*
X94750000Y-74025000D03*
D31*
X90950000Y-74175000D03*
X90950000Y-66425000D03*
D30*
X94750000Y-66575000D03*
D32*
X144500000Y-63000000D03*
D33*
X144500000Y-65540000D03*
X144500000Y-68080000D03*
X144500000Y-70620000D03*
%TA.AperFunction,ComponentPad*%
G36*
G01*
X119650000Y-77630000D02*
X121350000Y-77630000D01*
G75*
G02*
X121600000Y-77880000I0J-250000D01*
G01*
X121600000Y-79120000D01*
G75*
G02*
X121350000Y-79370000I-250000J0D01*
G01*
X119650000Y-79370000D01*
G75*
G02*
X119400000Y-79120000I0J250000D01*
G01*
X119400000Y-77880000D01*
G75*
G02*
X119650000Y-77630000I250000J0D01*
G01*
G37*
%TD.AperFunction*%
D34*
X120500000Y-81040000D03*
X120500000Y-83580000D03*
D21*
X92000000Y-126000000D03*
%TA.AperFunction,SMDPad,CuDef*%
G36*
G01*
X91275000Y-116986249D02*
X91275000Y-116473749D01*
G75*
G02*
X91493750Y-116254999I218750J0D01*
G01*
X91931250Y-116254999D01*
G75*
G02*
X92150000Y-116473749I0J-218750D01*
G01*
X92150000Y-116986249D01*
G75*
G02*
X91931250Y-117204999I-218750J0D01*
G01*
X91493750Y-117204999D01*
G75*
G02*
X91275000Y-116986249I0J218750D01*
G01*
G37*
%TD.AperFunction*%
%TA.AperFunction,SMDPad,CuDef*%
G36*
G01*
X92850000Y-116986249D02*
X92850000Y-116473749D01*
G75*
G02*
X93068750Y-116254999I218750J0D01*
G01*
X93506250Y-116254999D01*
G75*
G02*
X93725000Y-116473749I0J-218750D01*
G01*
X93725000Y-116986249D01*
G75*
G02*
X93506250Y-117204999I-218750J0D01*
G01*
X93068750Y-117204999D01*
G75*
G02*
X92850000Y-116986249I0J218750D01*
G01*
G37*
%TD.AperFunction*%
D35*
X90900000Y-113954999D03*
X91700000Y-113954999D03*
X92500000Y-113954999D03*
X93300000Y-113954999D03*
X93300000Y-111004999D03*
X92500000Y-111004999D03*
X91700000Y-111004999D03*
X90900000Y-111004999D03*
D14*
X92100000Y-111929999D03*
D36*
X92100000Y-113029999D03*
X92100000Y-111929999D03*
D14*
X92100000Y-113029999D03*
%TA.AperFunction,SMDPad,CuDef*%
G36*
G01*
X95875000Y-114754999D02*
X94625000Y-114754999D01*
G75*
G02*
X94375000Y-114504999I0J250000D01*
G01*
X94375000Y-113754999D01*
G75*
G02*
X94625000Y-113504999I250000J0D01*
G01*
X95875000Y-113504999D01*
G75*
G02*
X96125000Y-113754999I0J-250000D01*
G01*
X96125000Y-114504999D01*
G75*
G02*
X95875000Y-114754999I-250000J0D01*
G01*
G37*
%TD.AperFunction*%
%TA.AperFunction,SMDPad,CuDef*%
G36*
G01*
X95875000Y-111954999D02*
X94625000Y-111954999D01*
G75*
G02*
X94375000Y-111704999I0J250000D01*
G01*
X94375000Y-110954999D01*
G75*
G02*
X94625000Y-110704999I250000J0D01*
G01*
X95875000Y-110704999D01*
G75*
G02*
X96125000Y-110954999I0J-250000D01*
G01*
X96125000Y-111704999D01*
G75*
G02*
X95875000Y-111954999I-250000J0D01*
G01*
G37*
%TD.AperFunction*%
%TA.AperFunction,SMDPad,CuDef*%
G36*
G01*
X93955000Y-108674999D02*
X93955000Y-109924999D01*
G75*
G02*
X93705000Y-110174999I-250000J0D01*
G01*
X92955000Y-110174999D01*
G75*
G02*
X92705000Y-109924999I0J250000D01*
G01*
X92705000Y-108674999D01*
G75*
G02*
X92955000Y-108424999I250000J0D01*
G01*
X93705000Y-108424999D01*
G75*
G02*
X93955000Y-108674999I0J-250000D01*
G01*
G37*
%TD.AperFunction*%
%TA.AperFunction,SMDPad,CuDef*%
G36*
G01*
X91155000Y-108674999D02*
X91155000Y-109924999D01*
G75*
G02*
X90905000Y-110174999I-250000J0D01*
G01*
X90155000Y-110174999D01*
G75*
G02*
X89905000Y-109924999I0J250000D01*
G01*
X89905000Y-108674999D01*
G75*
G02*
X90155000Y-108424999I250000J0D01*
G01*
X90905000Y-108424999D01*
G75*
G02*
X91155000Y-108674999I0J-250000D01*
G01*
G37*
%TD.AperFunction*%
%TA.AperFunction,SMDPad,CuDef*%
G36*
G01*
X90506250Y-117204999D02*
X89993750Y-117204999D01*
G75*
G02*
X89775000Y-116986249I0J218750D01*
G01*
X89775000Y-116548749D01*
G75*
G02*
X89993750Y-116329999I218750J0D01*
G01*
X90506250Y-116329999D01*
G75*
G02*
X90725000Y-116548749I0J-218750D01*
G01*
X90725000Y-116986249D01*
G75*
G02*
X90506250Y-117204999I-218750J0D01*
G01*
G37*
%TD.AperFunction*%
%TA.AperFunction,SMDPad,CuDef*%
G36*
G01*
X90506250Y-115629999D02*
X89993750Y-115629999D01*
G75*
G02*
X89775000Y-115411249I0J218750D01*
G01*
X89775000Y-114973749D01*
G75*
G02*
X89993750Y-114754999I218750J0D01*
G01*
X90506250Y-114754999D01*
G75*
G02*
X90725000Y-114973749I0J-218750D01*
G01*
X90725000Y-115411249D01*
G75*
G02*
X90506250Y-115629999I-218750J0D01*
G01*
G37*
%TD.AperFunction*%
%TA.AperFunction,ComponentPad*%
G36*
G01*
X101100000Y-82100000D02*
X101100000Y-83300000D01*
G75*
G02*
X100850000Y-83550000I-250000J0D01*
G01*
X99150000Y-83550000D01*
G75*
G02*
X98900000Y-83300000I0J250000D01*
G01*
X98900000Y-82100000D01*
G75*
G02*
X99150000Y-81850000I250000J0D01*
G01*
X100850000Y-81850000D01*
G75*
G02*
X101100000Y-82100000I0J-250000D01*
G01*
G37*
%TD.AperFunction*%
D37*
X100000000Y-80200000D03*
%TA.AperFunction,SMDPad,CuDef*%
G36*
G01*
X93787500Y-85275000D02*
X94300000Y-85275000D01*
G75*
G02*
X94518750Y-85493750I0J-218750D01*
G01*
X94518750Y-85931250D01*
G75*
G02*
X94300000Y-86150000I-218750J0D01*
G01*
X93787500Y-86150000D01*
G75*
G02*
X93568750Y-85931250I0J218750D01*
G01*
X93568750Y-85493750D01*
G75*
G02*
X93787500Y-85275000I218750J0D01*
G01*
G37*
%TD.AperFunction*%
%TA.AperFunction,SMDPad,CuDef*%
G36*
G01*
X93787500Y-86850000D02*
X94300000Y-86850000D01*
G75*
G02*
X94518750Y-87068750I0J-218750D01*
G01*
X94518750Y-87506250D01*
G75*
G02*
X94300000Y-87725000I-218750J0D01*
G01*
X93787500Y-87725000D01*
G75*
G02*
X93568750Y-87506250I0J218750D01*
G01*
X93568750Y-87068750D01*
G75*
G02*
X93787500Y-86850000I218750J0D01*
G01*
G37*
%TD.AperFunction*%
D22*
X97143750Y-88750000D03*
X97143750Y-90050000D03*
X99143750Y-89400000D03*
%TA.AperFunction,SMDPad,CuDef*%
G36*
G01*
X95287500Y-85275000D02*
X95800000Y-85275000D01*
G75*
G02*
X96018750Y-85493750I0J-218750D01*
G01*
X96018750Y-85931250D01*
G75*
G02*
X95800000Y-86150000I-218750J0D01*
G01*
X95287500Y-86150000D01*
G75*
G02*
X95068750Y-85931250I0J218750D01*
G01*
X95068750Y-85493750D01*
G75*
G02*
X95287500Y-85275000I218750J0D01*
G01*
G37*
%TD.AperFunction*%
%TA.AperFunction,SMDPad,CuDef*%
G36*
G01*
X95287500Y-86850000D02*
X95800000Y-86850000D01*
G75*
G02*
X96018750Y-87068750I0J-218750D01*
G01*
X96018750Y-87506250D01*
G75*
G02*
X95800000Y-87725000I-218750J0D01*
G01*
X95287500Y-87725000D01*
G75*
G02*
X95068750Y-87506250I0J218750D01*
G01*
X95068750Y-87068750D01*
G75*
G02*
X95287500Y-86850000I218750J0D01*
G01*
G37*
%TD.AperFunction*%
%TA.AperFunction,SMDPad,CuDef*%
G36*
G01*
X96068750Y-88543750D02*
X96068750Y-89056250D01*
G75*
G02*
X95850000Y-89275000I-218750J0D01*
G01*
X95412500Y-89275000D01*
G75*
G02*
X95193750Y-89056250I0J218750D01*
G01*
X95193750Y-88543750D01*
G75*
G02*
X95412500Y-88325000I218750J0D01*
G01*
X95850000Y-88325000D01*
G75*
G02*
X96068750Y-88543750I0J-218750D01*
G01*
G37*
%TD.AperFunction*%
%TA.AperFunction,SMDPad,CuDef*%
G36*
G01*
X94493750Y-88543750D02*
X94493750Y-89056250D01*
G75*
G02*
X94275000Y-89275000I-218750J0D01*
G01*
X93837500Y-89275000D01*
G75*
G02*
X93618750Y-89056250I0J218750D01*
G01*
X93618750Y-88543750D01*
G75*
G02*
X93837500Y-88325000I218750J0D01*
G01*
X94275000Y-88325000D01*
G75*
G02*
X94493750Y-88543750I0J-218750D01*
G01*
G37*
%TD.AperFunction*%
D38*
X151900000Y-81500000D03*
X150600000Y-81500000D03*
X151250000Y-83500000D03*
%TA.AperFunction,SMDPad,CuDef*%
G36*
G01*
X97300000Y-87725000D02*
X96787500Y-87725000D01*
G75*
G02*
X96568750Y-87506250I0J218750D01*
G01*
X96568750Y-87068750D01*
G75*
G02*
X96787500Y-86850000I218750J0D01*
G01*
X97300000Y-86850000D01*
G75*
G02*
X97518750Y-87068750I0J-218750D01*
G01*
X97518750Y-87506250D01*
G75*
G02*
X97300000Y-87725000I-218750J0D01*
G01*
G37*
%TD.AperFunction*%
%TA.AperFunction,SMDPad,CuDef*%
G36*
G01*
X97300000Y-86150000D02*
X96787500Y-86150000D01*
G75*
G02*
X96568750Y-85931250I0J218750D01*
G01*
X96568750Y-85493750D01*
G75*
G02*
X96787500Y-85275000I218750J0D01*
G01*
X97300000Y-85275000D01*
G75*
G02*
X97518750Y-85493750I0J-218750D01*
G01*
X97518750Y-85931250D01*
G75*
G02*
X97300000Y-86150000I-218750J0D01*
G01*
G37*
%TD.AperFunction*%
%TA.AperFunction,SMDPad,CuDef*%
G36*
G01*
X143575000Y-88006250D02*
X143575000Y-87493750D01*
G75*
G02*
X143793750Y-87275000I218750J0D01*
G01*
X144231250Y-87275000D01*
G75*
G02*
X144450000Y-87493750I0J-218750D01*
G01*
X144450000Y-88006250D01*
G75*
G02*
X144231250Y-88225000I-218750J0D01*
G01*
X143793750Y-88225000D01*
G75*
G02*
X143575000Y-88006250I0J218750D01*
G01*
G37*
%TD.AperFunction*%
%TA.AperFunction,SMDPad,CuDef*%
G36*
G01*
X145150000Y-88006250D02*
X145150000Y-87493750D01*
G75*
G02*
X145368750Y-87275000I218750J0D01*
G01*
X145806250Y-87275000D01*
G75*
G02*
X146025000Y-87493750I0J-218750D01*
G01*
X146025000Y-88006250D01*
G75*
G02*
X145806250Y-88225000I-218750J0D01*
G01*
X145368750Y-88225000D01*
G75*
G02*
X145150000Y-88006250I0J218750D01*
G01*
G37*
%TD.AperFunction*%
D21*
X156000000Y-126000000D03*
%TA.AperFunction,SMDPad,CuDef*%
G36*
G01*
X93725000Y-114973749D02*
X93725000Y-115486249D01*
G75*
G02*
X93506250Y-115704999I-218750J0D01*
G01*
X93068750Y-115704999D01*
G75*
G02*
X92850000Y-115486249I0J218750D01*
G01*
X92850000Y-114973749D01*
G75*
G02*
X93068750Y-114754999I218750J0D01*
G01*
X93506250Y-114754999D01*
G75*
G02*
X93725000Y-114973749I0J-218750D01*
G01*
G37*
%TD.AperFunction*%
%TA.AperFunction,SMDPad,CuDef*%
G36*
G01*
X92150000Y-114973749D02*
X92150000Y-115486249D01*
G75*
G02*
X91931250Y-115704999I-218750J0D01*
G01*
X91493750Y-115704999D01*
G75*
G02*
X91275000Y-115486249I0J218750D01*
G01*
X91275000Y-114973749D01*
G75*
G02*
X91493750Y-114754999I218750J0D01*
G01*
X91931250Y-114754999D01*
G75*
G02*
X92150000Y-114973749I0J-218750D01*
G01*
G37*
%TD.AperFunction*%
D32*
X146000000Y-90500000D03*
D33*
X143460000Y-90500000D03*
X140920000Y-90500000D03*
D39*
X102100000Y-112525000D03*
X102100000Y-110625000D03*
X100100000Y-111575000D03*
%TA.AperFunction,SMDPad,CuDef*%
G36*
G01*
X124243750Y-125275000D02*
X124756250Y-125275000D01*
G75*
G02*
X124975000Y-125493750I0J-218750D01*
G01*
X124975000Y-125931250D01*
G75*
G02*
X124756250Y-126150000I-218750J0D01*
G01*
X124243750Y-126150000D01*
G75*
G02*
X124025000Y-125931250I0J218750D01*
G01*
X124025000Y-125493750D01*
G75*
G02*
X124243750Y-125275000I218750J0D01*
G01*
G37*
%TD.AperFunction*%
%TA.AperFunction,SMDPad,CuDef*%
G36*
G01*
X124243750Y-126850000D02*
X124756250Y-126850000D01*
G75*
G02*
X124975000Y-127068750I0J-218750D01*
G01*
X124975000Y-127506250D01*
G75*
G02*
X124756250Y-127725000I-218750J0D01*
G01*
X124243750Y-127725000D01*
G75*
G02*
X124025000Y-127506250I0J218750D01*
G01*
X124025000Y-127068750D01*
G75*
G02*
X124243750Y-126850000I218750J0D01*
G01*
G37*
%TD.AperFunction*%
D32*
X127200000Y-127500000D03*
D33*
X129740000Y-127500000D03*
X132280000Y-127500000D03*
X134820000Y-127500000D03*
%TA.AperFunction,SMDPad,CuDef*%
G36*
G01*
X140975000Y-128056250D02*
X140975000Y-127543750D01*
G75*
G02*
X141193750Y-127325000I218750J0D01*
G01*
X141631250Y-127325000D01*
G75*
G02*
X141850000Y-127543750I0J-218750D01*
G01*
X141850000Y-128056250D01*
G75*
G02*
X141631250Y-128275000I-218750J0D01*
G01*
X141193750Y-128275000D01*
G75*
G02*
X140975000Y-128056250I0J218750D01*
G01*
G37*
%TD.AperFunction*%
%TA.AperFunction,SMDPad,CuDef*%
G36*
G01*
X142550000Y-128056250D02*
X142550000Y-127543750D01*
G75*
G02*
X142768750Y-127325000I218750J0D01*
G01*
X143206250Y-127325000D01*
G75*
G02*
X143425000Y-127543750I0J-218750D01*
G01*
X143425000Y-128056250D01*
G75*
G02*
X143206250Y-128275000I-218750J0D01*
G01*
X142768750Y-128275000D01*
G75*
G02*
X142550000Y-128056250I0J218750D01*
G01*
G37*
%TD.AperFunction*%
D40*
X139550000Y-125400000D03*
X138600000Y-125400000D03*
X137650000Y-125400000D03*
X137650000Y-127600000D03*
X139550000Y-127600000D03*
%TA.AperFunction,SMDPad,CuDef*%
G36*
G01*
X126275000Y-114256250D02*
X126275000Y-113743750D01*
G75*
G02*
X126493750Y-113525000I218750J0D01*
G01*
X126931250Y-113525000D01*
G75*
G02*
X127150000Y-113743750I0J-218750D01*
G01*
X127150000Y-114256250D01*
G75*
G02*
X126931250Y-114475000I-218750J0D01*
G01*
X126493750Y-114475000D01*
G75*
G02*
X126275000Y-114256250I0J218750D01*
G01*
G37*
%TD.AperFunction*%
%TA.AperFunction,SMDPad,CuDef*%
G36*
G01*
X127850000Y-114256250D02*
X127850000Y-113743750D01*
G75*
G02*
X128068750Y-113525000I218750J0D01*
G01*
X128506250Y-113525000D01*
G75*
G02*
X128725000Y-113743750I0J-218750D01*
G01*
X128725000Y-114256250D01*
G75*
G02*
X128506250Y-114475000I-218750J0D01*
G01*
X128068750Y-114475000D01*
G75*
G02*
X127850000Y-114256250I0J218750D01*
G01*
G37*
%TD.AperFunction*%
%TA.AperFunction,SMDPad,CuDef*%
G36*
G01*
X131725000Y-113743750D02*
X131725000Y-114256250D01*
G75*
G02*
X131506250Y-114475000I-218750J0D01*
G01*
X131068750Y-114475000D01*
G75*
G02*
X130850000Y-114256250I0J218750D01*
G01*
X130850000Y-113743750D01*
G75*
G02*
X131068750Y-113525000I218750J0D01*
G01*
X131506250Y-113525000D01*
G75*
G02*
X131725000Y-113743750I0J-218750D01*
G01*
G37*
%TD.AperFunction*%
%TA.AperFunction,SMDPad,CuDef*%
G36*
G01*
X130150000Y-113743750D02*
X130150000Y-114256250D01*
G75*
G02*
X129931250Y-114475000I-218750J0D01*
G01*
X129493750Y-114475000D01*
G75*
G02*
X129275000Y-114256250I0J218750D01*
G01*
X129275000Y-113743750D01*
G75*
G02*
X129493750Y-113525000I218750J0D01*
G01*
X129931250Y-113525000D01*
G75*
G02*
X130150000Y-113743750I0J-218750D01*
G01*
G37*
%TD.AperFunction*%
D32*
X119500000Y-118600000D03*
D33*
X122040000Y-118600000D03*
X119500000Y-121140000D03*
X122040000Y-121140000D03*
%TA.AperFunction,SMDPad,CuDef*%
G36*
G01*
X115725000Y-88325000D02*
X114475000Y-88325000D01*
G75*
G02*
X114225000Y-88075000I0J250000D01*
G01*
X114225000Y-87325000D01*
G75*
G02*
X114475000Y-87075000I250000J0D01*
G01*
X115725000Y-87075000D01*
G75*
G02*
X115975000Y-87325000I0J-250000D01*
G01*
X115975000Y-88075000D01*
G75*
G02*
X115725000Y-88325000I-250000J0D01*
G01*
G37*
%TD.AperFunction*%
%TA.AperFunction,SMDPad,CuDef*%
G36*
G01*
X115725000Y-85525000D02*
X114475000Y-85525000D01*
G75*
G02*
X114225000Y-85275000I0J250000D01*
G01*
X114225000Y-84525000D01*
G75*
G02*
X114475000Y-84275000I250000J0D01*
G01*
X115725000Y-84275000D01*
G75*
G02*
X115975000Y-84525000I0J-250000D01*
G01*
X115975000Y-85275000D01*
G75*
G02*
X115725000Y-85525000I-250000J0D01*
G01*
G37*
%TD.AperFunction*%
%TA.AperFunction,SMDPad,CuDef*%
G36*
G01*
X116356250Y-92925000D02*
X115843750Y-92925000D01*
G75*
G02*
X115625000Y-92706250I0J218750D01*
G01*
X115625000Y-92268750D01*
G75*
G02*
X115843750Y-92050000I218750J0D01*
G01*
X116356250Y-92050000D01*
G75*
G02*
X116575000Y-92268750I0J-218750D01*
G01*
X116575000Y-92706250D01*
G75*
G02*
X116356250Y-92925000I-218750J0D01*
G01*
G37*
%TD.AperFunction*%
%TA.AperFunction,SMDPad,CuDef*%
G36*
G01*
X116356250Y-91350000D02*
X115843750Y-91350000D01*
G75*
G02*
X115625000Y-91131250I0J218750D01*
G01*
X115625000Y-90693750D01*
G75*
G02*
X115843750Y-90475000I218750J0D01*
G01*
X116356250Y-90475000D01*
G75*
G02*
X116575000Y-90693750I0J-218750D01*
G01*
X116575000Y-91131250D01*
G75*
G02*
X116356250Y-91350000I-218750J0D01*
G01*
G37*
%TD.AperFunction*%
%TA.AperFunction,SMDPad,CuDef*%
G36*
G01*
X114856250Y-92925000D02*
X114343750Y-92925000D01*
G75*
G02*
X114125000Y-92706250I0J218750D01*
G01*
X114125000Y-92268750D01*
G75*
G02*
X114343750Y-92050000I218750J0D01*
G01*
X114856250Y-92050000D01*
G75*
G02*
X115075000Y-92268750I0J-218750D01*
G01*
X115075000Y-92706250D01*
G75*
G02*
X114856250Y-92925000I-218750J0D01*
G01*
G37*
%TD.AperFunction*%
%TA.AperFunction,SMDPad,CuDef*%
G36*
G01*
X114856250Y-91350000D02*
X114343750Y-91350000D01*
G75*
G02*
X114125000Y-91131250I0J218750D01*
G01*
X114125000Y-90693750D01*
G75*
G02*
X114343750Y-90475000I218750J0D01*
G01*
X114856250Y-90475000D01*
G75*
G02*
X115075000Y-90693750I0J-218750D01*
G01*
X115075000Y-91131250D01*
G75*
G02*
X114856250Y-91350000I-218750J0D01*
G01*
G37*
%TD.AperFunction*%
%TA.AperFunction,SMDPad,CuDef*%
G36*
G01*
X126806250Y-65825000D02*
X126293750Y-65825000D01*
G75*
G02*
X126075000Y-65606250I0J218750D01*
G01*
X126075000Y-65168750D01*
G75*
G02*
X126293750Y-64950000I218750J0D01*
G01*
X126806250Y-64950000D01*
G75*
G02*
X127025000Y-65168750I0J-218750D01*
G01*
X127025000Y-65606250D01*
G75*
G02*
X126806250Y-65825000I-218750J0D01*
G01*
G37*
%TD.AperFunction*%
%TA.AperFunction,SMDPad,CuDef*%
G36*
G01*
X126806250Y-64250000D02*
X126293750Y-64250000D01*
G75*
G02*
X126075000Y-64031250I0J218750D01*
G01*
X126075000Y-63593750D01*
G75*
G02*
X126293750Y-63375000I218750J0D01*
G01*
X126806250Y-63375000D01*
G75*
G02*
X127025000Y-63593750I0J-218750D01*
G01*
X127025000Y-64031250D01*
G75*
G02*
X126806250Y-64250000I-218750J0D01*
G01*
G37*
%TD.AperFunction*%
D41*
X123525000Y-66300000D03*
X123525000Y-65500000D03*
X123525000Y-64700000D03*
X123525000Y-63900000D03*
X120575000Y-63900000D03*
X120575000Y-64700000D03*
X120575000Y-65500000D03*
X120575000Y-66300000D03*
D14*
X121500000Y-65100000D03*
D42*
X122600000Y-65100000D03*
X121500000Y-65100000D03*
D14*
X122600000Y-65100000D03*
%TA.AperFunction,SMDPad,CuDef*%
G36*
G01*
X126975000Y-66843750D02*
X126975000Y-67356250D01*
G75*
G02*
X126756250Y-67575000I-218750J0D01*
G01*
X126318750Y-67575000D01*
G75*
G02*
X126100000Y-67356250I0J218750D01*
G01*
X126100000Y-66843750D01*
G75*
G02*
X126318750Y-66625000I218750J0D01*
G01*
X126756250Y-66625000D01*
G75*
G02*
X126975000Y-66843750I0J-218750D01*
G01*
G37*
%TD.AperFunction*%
%TA.AperFunction,SMDPad,CuDef*%
G36*
G01*
X125400000Y-66843750D02*
X125400000Y-67356250D01*
G75*
G02*
X125181250Y-67575000I-218750J0D01*
G01*
X124743750Y-67575000D01*
G75*
G02*
X124525000Y-67356250I0J218750D01*
G01*
X124525000Y-66843750D01*
G75*
G02*
X124743750Y-66625000I218750J0D01*
G01*
X125181250Y-66625000D01*
G75*
G02*
X125400000Y-66843750I0J-218750D01*
G01*
G37*
%TD.AperFunction*%
%TA.AperFunction,SMDPad,CuDef*%
G36*
G01*
X124793750Y-63375000D02*
X125306250Y-63375000D01*
G75*
G02*
X125525000Y-63593750I0J-218750D01*
G01*
X125525000Y-64031250D01*
G75*
G02*
X125306250Y-64250000I-218750J0D01*
G01*
X124793750Y-64250000D01*
G75*
G02*
X124575000Y-64031250I0J218750D01*
G01*
X124575000Y-63593750D01*
G75*
G02*
X124793750Y-63375000I218750J0D01*
G01*
G37*
%TD.AperFunction*%
%TA.AperFunction,SMDPad,CuDef*%
G36*
G01*
X124793750Y-64950000D02*
X125306250Y-64950000D01*
G75*
G02*
X125525000Y-65168750I0J-218750D01*
G01*
X125525000Y-65606250D01*
G75*
G02*
X125306250Y-65825000I-218750J0D01*
G01*
X124793750Y-65825000D01*
G75*
G02*
X124575000Y-65606250I0J218750D01*
G01*
X124575000Y-65168750D01*
G75*
G02*
X124793750Y-64950000I218750J0D01*
G01*
G37*
%TD.AperFunction*%
%TA.AperFunction,SMDPad,CuDef*%
G36*
G01*
X124575000Y-61275000D02*
X124575000Y-62525000D01*
G75*
G02*
X124325000Y-62775000I-250000J0D01*
G01*
X123575000Y-62775000D01*
G75*
G02*
X123325000Y-62525000I0J250000D01*
G01*
X123325000Y-61275000D01*
G75*
G02*
X123575000Y-61025000I250000J0D01*
G01*
X124325000Y-61025000D01*
G75*
G02*
X124575000Y-61275000I0J-250000D01*
G01*
G37*
%TD.AperFunction*%
%TA.AperFunction,SMDPad,CuDef*%
G36*
G01*
X121775000Y-61275000D02*
X121775000Y-62525000D01*
G75*
G02*
X121525000Y-62775000I-250000J0D01*
G01*
X120775000Y-62775000D01*
G75*
G02*
X120525000Y-62525000I0J250000D01*
G01*
X120525000Y-61275000D01*
G75*
G02*
X120775000Y-61025000I250000J0D01*
G01*
X121525000Y-61025000D01*
G75*
G02*
X121775000Y-61275000I0J-250000D01*
G01*
G37*
%TD.AperFunction*%
%TA.AperFunction,SMDPad,CuDef*%
G36*
G01*
X118225000Y-63075000D02*
X119475000Y-63075000D01*
G75*
G02*
X119725000Y-63325000I0J-250000D01*
G01*
X119725000Y-64075000D01*
G75*
G02*
X119475000Y-64325000I-250000J0D01*
G01*
X118225000Y-64325000D01*
G75*
G02*
X117975000Y-64075000I0J250000D01*
G01*
X117975000Y-63325000D01*
G75*
G02*
X118225000Y-63075000I250000J0D01*
G01*
G37*
%TD.AperFunction*%
%TA.AperFunction,SMDPad,CuDef*%
G36*
G01*
X118225000Y-65875000D02*
X119475000Y-65875000D01*
G75*
G02*
X119725000Y-66125000I0J-250000D01*
G01*
X119725000Y-66875000D01*
G75*
G02*
X119475000Y-67125000I-250000J0D01*
G01*
X118225000Y-67125000D01*
G75*
G02*
X117975000Y-66875000I0J250000D01*
G01*
X117975000Y-66125000D01*
G75*
G02*
X118225000Y-65875000I250000J0D01*
G01*
G37*
%TD.AperFunction*%
%TA.AperFunction,SMDPad,CuDef*%
G36*
G01*
X124956250Y-117325000D02*
X124443750Y-117325000D01*
G75*
G02*
X124225000Y-117106250I0J218750D01*
G01*
X124225000Y-116668750D01*
G75*
G02*
X124443750Y-116450000I218750J0D01*
G01*
X124956250Y-116450000D01*
G75*
G02*
X125175000Y-116668750I0J-218750D01*
G01*
X125175000Y-117106250D01*
G75*
G02*
X124956250Y-117325000I-218750J0D01*
G01*
G37*
%TD.AperFunction*%
%TA.AperFunction,SMDPad,CuDef*%
G36*
G01*
X124956250Y-115750000D02*
X124443750Y-115750000D01*
G75*
G02*
X124225000Y-115531250I0J218750D01*
G01*
X124225000Y-115093750D01*
G75*
G02*
X124443750Y-114875000I218750J0D01*
G01*
X124956250Y-114875000D01*
G75*
G02*
X125175000Y-115093750I0J-218750D01*
G01*
X125175000Y-115531250D01*
G75*
G02*
X124956250Y-115750000I-218750J0D01*
G01*
G37*
%TD.AperFunction*%
D43*
X133650000Y-69450000D03*
X134950000Y-74950000D03*
X134650000Y-76450000D03*
X128850000Y-81650000D03*
X145775000Y-74087500D03*
X144050000Y-72650000D03*
X129668750Y-71068750D03*
X138000000Y-60100000D03*
X158100000Y-66100000D03*
X122000000Y-67500000D03*
X146400000Y-66100000D03*
X137587500Y-83600000D03*
X127800000Y-67100000D03*
X139750000Y-75500000D03*
X96600000Y-71900000D03*
X118900000Y-62200000D03*
X138087500Y-68750000D03*
X121100000Y-60200000D03*
X126600000Y-62500000D03*
X126500000Y-74900000D03*
X141900000Y-68400000D03*
X100400000Y-67800000D03*
X131887500Y-83800000D03*
X98500000Y-70000000D03*
X149200000Y-64750000D03*
X119500000Y-65100000D03*
X154200000Y-66100000D03*
X124000000Y-60200000D03*
X125100000Y-60600000D03*
X122700000Y-62900000D03*
X139350000Y-68750000D03*
X100400000Y-66300000D03*
X116900000Y-66400000D03*
X99100000Y-65000000D03*
X116900000Y-65000000D03*
X100400000Y-65000000D03*
X155117500Y-84190000D03*
X149217500Y-84190000D03*
X103000000Y-105000000D03*
X100700000Y-115500000D03*
X124258750Y-71241250D03*
X130558750Y-77541250D03*
X131241250Y-76858750D03*
X124941250Y-70558750D03*
X101900000Y-115500000D03*
X105000000Y-105000000D03*
X111300000Y-114600000D03*
X128500000Y-115400000D03*
X151500000Y-68000000D03*
X139000000Y-78000000D03*
X136500000Y-80000000D03*
X154000000Y-68000000D03*
X135500000Y-79000000D03*
X94750000Y-112979999D03*
X137700000Y-120300000D03*
X133300000Y-120600000D03*
X116085000Y-126585000D03*
X92000000Y-109979999D03*
X117800000Y-117700000D03*
X135700000Y-124600000D03*
X124800000Y-118100000D03*
X136700000Y-127600000D03*
X103300000Y-89600000D03*
X90530000Y-107699999D03*
X117300000Y-92500000D03*
X117000000Y-80000000D03*
X140600000Y-125400000D03*
X98343750Y-87300000D03*
X116000000Y-79000000D03*
X90000000Y-111500000D03*
X115000000Y-78000000D03*
X113600000Y-119300000D03*
X112100000Y-117400000D03*
X148000000Y-128100000D03*
X146700000Y-125100000D03*
X146700000Y-122100000D03*
X146700000Y-128100000D03*
X146700000Y-123600000D03*
X146700000Y-126600000D03*
X98000000Y-94000000D03*
X99500000Y-94000000D03*
X101500000Y-94000000D03*
X101500000Y-96000000D03*
X110500000Y-82600000D03*
X110500000Y-84300000D03*
X110500000Y-91750000D03*
X151250000Y-82500000D03*
X151000000Y-97500000D03*
X102760000Y-120225000D03*
X114500000Y-122500000D03*
X105700000Y-91300000D03*
X108500000Y-88200000D03*
X138600000Y-126600000D03*
X108500000Y-86500000D03*
X137700000Y-122600000D03*
X149300000Y-128100000D03*
X92900000Y-88800000D03*
X127000000Y-115437500D03*
X115300000Y-116400000D03*
X113400000Y-120800000D03*
X148600000Y-97500000D03*
X100100000Y-112700000D03*
X90250000Y-117979999D03*
X113000000Y-82600000D03*
X149800000Y-97500000D03*
X151000000Y-99500000D03*
X110500000Y-90000000D03*
X135000000Y-116500000D03*
X93000000Y-106500000D03*
X115100000Y-82600000D03*
X147662500Y-84162500D03*
X123500000Y-115300000D03*
X101900000Y-88100000D03*
X136500000Y-117500000D03*
X93000000Y-107729999D03*
X151000000Y-98500000D03*
X108500000Y-90000000D03*
X95030001Y-110000000D03*
X108500000Y-91750000D03*
X113000000Y-84300000D03*
X110500000Y-88200000D03*
X156700000Y-84100000D03*
X93500000Y-118000000D03*
X110500000Y-86500000D03*
X147400000Y-97500000D03*
X99043750Y-90700000D03*
X97000000Y-103500000D03*
X97500000Y-108000000D03*
X145725000Y-77137500D03*
X130950000Y-69150000D03*
X126850000Y-80450000D03*
X133750000Y-71650000D03*
X131087500Y-83100000D03*
X145950000Y-81800000D03*
X140800000Y-68400000D03*
X131000000Y-65000000D03*
X142300000Y-65700000D03*
X141487500Y-83600000D03*
D44*
X156927500Y-67600000D02*
X156927500Y-66100000D01*
X156645000Y-69950000D02*
X156645000Y-67882500D01*
X156645000Y-67882500D02*
X156927500Y-67600000D01*
D45*
X129668750Y-71143750D02*
X129668750Y-71068750D01*
D44*
X144587500Y-75687500D02*
X144587500Y-74150000D01*
D45*
X134550000Y-70112500D02*
X134312500Y-70112500D01*
X137300000Y-73487500D02*
X137800000Y-73487500D01*
X134030999Y-69830999D02*
X133650000Y-69450000D01*
X129150000Y-81950000D02*
X128850000Y-81650000D01*
X137762500Y-71350000D02*
X137762500Y-73450000D01*
X134300000Y-73487500D02*
X134800000Y-73487500D01*
X137762500Y-69850000D02*
X137762500Y-71350000D01*
X134312500Y-70112500D02*
X134030999Y-69830999D01*
X129550000Y-80950000D02*
X128850000Y-81650000D01*
D44*
X144587500Y-74150000D02*
X145712500Y-74150000D01*
D45*
X134600000Y-76400000D02*
X134650000Y-76450000D01*
X137762500Y-73450000D02*
X137800000Y-73487500D01*
X130912500Y-71950000D02*
X130912500Y-73450000D01*
X132887500Y-79900000D02*
X132887500Y-79400000D01*
X129550000Y-80437500D02*
X131050000Y-80437500D01*
D44*
X141212500Y-74900000D02*
X141212500Y-75394390D01*
D45*
X129550000Y-80437500D02*
X129550000Y-80950000D01*
X131587500Y-79900000D02*
X132887500Y-79900000D01*
X130912500Y-71950000D02*
X130475000Y-71950000D01*
X134800000Y-74800000D02*
X134950000Y-74950000D01*
D44*
X145712500Y-74150000D02*
X145775000Y-74087500D01*
D45*
X130475000Y-71950000D02*
X129668750Y-71143750D01*
X144587500Y-74150000D02*
X144587500Y-73187500D01*
X144587500Y-73187500D02*
X144050000Y-72650000D01*
X132887500Y-76400000D02*
X134600000Y-76400000D01*
X142837500Y-72650000D02*
X144050000Y-72650000D01*
X131050000Y-80437500D02*
X131587500Y-79900000D01*
X134800000Y-73487500D02*
X134800000Y-74800000D01*
X132887500Y-78900000D02*
X132887500Y-79400000D01*
X129962500Y-81950000D02*
X129150000Y-81950000D01*
D44*
X147662500Y-67600000D02*
X147662500Y-66100000D01*
X147755000Y-69950000D02*
X147755000Y-67692500D01*
X147755000Y-67692500D02*
X147662500Y-67600000D01*
X136837500Y-60100000D02*
X136787500Y-60150000D01*
D45*
X142337500Y-69650000D02*
X142337500Y-68837500D01*
D44*
X126537500Y-67100000D02*
X127800000Y-67100000D01*
D45*
X125200000Y-75612500D02*
X125787500Y-75612500D01*
D44*
X139190000Y-62175000D02*
X139190000Y-61290000D01*
D45*
X138800000Y-81812500D02*
X138800000Y-83562500D01*
X141212500Y-75400000D02*
X139850000Y-75400000D01*
X131950000Y-83737500D02*
X131887500Y-83800000D01*
X125787500Y-74187500D02*
X126500000Y-74900000D01*
X125787500Y-75612500D02*
X126500000Y-74900000D01*
D46*
X96300000Y-71600000D02*
X96600000Y-71900000D01*
D44*
X118850000Y-62250000D02*
X118900000Y-62200000D01*
D45*
X139850000Y-75400000D02*
X139750000Y-75500000D01*
D46*
X99400000Y-70000000D02*
X98500000Y-70000000D01*
D44*
X121150000Y-60250000D02*
X121100000Y-60200000D01*
X118850000Y-63700000D02*
X118850000Y-62250000D01*
D45*
X137762500Y-69075000D02*
X138087500Y-68750000D01*
X137762500Y-69850000D02*
X137762500Y-69075000D01*
D46*
X121500000Y-65100000D02*
X121500000Y-67000000D01*
X121500000Y-67000000D02*
X122000000Y-67500000D01*
D45*
X142337500Y-69650000D02*
X142337500Y-71150000D01*
X139300000Y-81812500D02*
X138800000Y-81812500D01*
D44*
X94800000Y-71600000D02*
X94800000Y-73975000D01*
X126550000Y-63812500D02*
X126550000Y-62550000D01*
D45*
X142337500Y-68837500D02*
X141900000Y-68400000D01*
D44*
X126550000Y-62550000D02*
X126600000Y-62500000D01*
X138000000Y-60100000D02*
X136837500Y-60100000D01*
X156927500Y-66100000D02*
X158100000Y-66100000D01*
X139190000Y-61290000D02*
X138000000Y-60100000D01*
D46*
X94800000Y-71600000D02*
X96300000Y-71600000D01*
D44*
X121150000Y-61900000D02*
X121150000Y-60250000D01*
D45*
X125200000Y-74187500D02*
X125787500Y-74187500D01*
X138762500Y-83600000D02*
X137587500Y-83600000D01*
X133050000Y-83737500D02*
X131950000Y-83737500D01*
D46*
X100400000Y-67800000D02*
X99087500Y-67800000D01*
D44*
X147662500Y-66100000D02*
X146400000Y-66100000D01*
X94800000Y-73975000D02*
X94750000Y-74025000D01*
D45*
X138800000Y-83562500D02*
X138762500Y-83600000D01*
D44*
X155200000Y-69950000D02*
X155352500Y-69797500D01*
X155352500Y-69797500D02*
X155352500Y-67600000D01*
X155352500Y-67600000D02*
X155352500Y-66100000D01*
X149237500Y-64787500D02*
X149200000Y-64750000D01*
X149237500Y-66100000D02*
X149237500Y-64787500D01*
X149237500Y-67600000D02*
X149237500Y-66100000D01*
X149025000Y-69950000D02*
X149025000Y-67812500D01*
X149025000Y-67812500D02*
X149237500Y-67600000D01*
X123950000Y-61900000D02*
X123950000Y-60250000D01*
X120575000Y-64700000D02*
X119900000Y-64700000D01*
X124962500Y-63900000D02*
X125050000Y-63812500D01*
X123000000Y-63200000D02*
X123500000Y-63200000D01*
X119900000Y-64700000D02*
X119500000Y-65100000D01*
X123525000Y-63900000D02*
X124962500Y-63900000D01*
X123525000Y-62325000D02*
X123950000Y-61900000D01*
X125050000Y-60650000D02*
X125100000Y-60600000D01*
X125050000Y-63812500D02*
X125050000Y-60650000D01*
X123525000Y-63225000D02*
X123525000Y-62325000D01*
X123950000Y-60250000D02*
X124000000Y-60200000D01*
X123525000Y-63900000D02*
X123525000Y-63225000D01*
X122700000Y-62900000D02*
X123000000Y-63200000D01*
X123500000Y-63200000D02*
X123525000Y-63225000D01*
X155352500Y-66100000D02*
X154200000Y-66100000D01*
D45*
X139337500Y-71150000D02*
X138300000Y-72187500D01*
X139350000Y-69288815D02*
X139350000Y-68750000D01*
X139350000Y-69637500D02*
X139350000Y-69288815D01*
D44*
X139337500Y-69650000D02*
X139337500Y-71150000D01*
D45*
X139337500Y-69650000D02*
X139350000Y-69637500D01*
X138300000Y-72187500D02*
X138300000Y-73487500D01*
D46*
X118850000Y-66500000D02*
X117975000Y-66500000D01*
X117000000Y-66500000D02*
X116900000Y-66400000D01*
D44*
X119050000Y-66300000D02*
X118850000Y-66500000D01*
D46*
X116900000Y-66400000D02*
X116900000Y-65000000D01*
X117975000Y-66500000D02*
X116900000Y-65425000D01*
X99087500Y-66300000D02*
X100400000Y-66300000D01*
D44*
X100400000Y-66300000D02*
X99100000Y-65000000D01*
X120575000Y-65500000D02*
X120300000Y-65500000D01*
X120300000Y-65500000D02*
X119300000Y-66500000D01*
X120575000Y-66300000D02*
X119050000Y-66300000D01*
D46*
X118850000Y-66500000D02*
X117000000Y-66500000D01*
D44*
X119300000Y-66500000D02*
X118850000Y-66500000D01*
D46*
X116900000Y-65425000D02*
X116900000Y-65000000D01*
D45*
X139300000Y-73487500D02*
X139300000Y-74325000D01*
X140652804Y-74150000D02*
X142475000Y-74150000D01*
X139530210Y-74555210D02*
X140247594Y-74555210D01*
X139300000Y-74325000D02*
X139530210Y-74555210D01*
X142475000Y-74150000D02*
X143012500Y-74150000D01*
X140247594Y-74555210D02*
X140652804Y-74150000D01*
D44*
X141212500Y-75900000D02*
X142800000Y-75900000D01*
X142800000Y-75900000D02*
X143012500Y-75687500D01*
X143012500Y-75687500D02*
X143012500Y-77187500D01*
D45*
X140512500Y-73400000D02*
X141262500Y-72650000D01*
X139800000Y-73400000D02*
X140512500Y-73400000D01*
X132887500Y-74900000D02*
X130300000Y-74900000D01*
X127800000Y-72900000D02*
X127550000Y-72650000D01*
X130300000Y-74900000D02*
X128250000Y-72850000D01*
X127812500Y-72362500D02*
X128250000Y-72800000D01*
X128250000Y-72850000D02*
X128250000Y-72800000D01*
X128062500Y-72612500D02*
X128250000Y-72800000D01*
X125200000Y-72612500D02*
X128062500Y-72612500D01*
X130300000Y-75400000D02*
X129200000Y-76500000D01*
X129200000Y-76500000D02*
X128250000Y-76500000D01*
X132800000Y-75400000D02*
X130300000Y-75400000D01*
X127812500Y-76937500D02*
X128250000Y-76500000D01*
X127562500Y-77187500D02*
X128250000Y-76500000D01*
X125200000Y-77187500D02*
X127562500Y-77187500D01*
X132800000Y-75900000D02*
X133900000Y-75900000D01*
X133282904Y-74245404D02*
X132487500Y-73450000D01*
X133545404Y-74245404D02*
X133282904Y-74245404D01*
X133900000Y-75900000D02*
X134050000Y-75750000D01*
X132487500Y-71950000D02*
X132487500Y-70450000D01*
X134050000Y-74750000D02*
X133545404Y-74245404D01*
X134050000Y-75750000D02*
X134050000Y-74750000D01*
X132487500Y-73450000D02*
X132487500Y-71950000D01*
X129550000Y-78862500D02*
X128050000Y-78862500D01*
X132800000Y-78400000D02*
X131512500Y-78400000D01*
X131050000Y-78862500D02*
X129550000Y-78862500D01*
X131512500Y-78400000D02*
X131050000Y-78862500D01*
D46*
X149217500Y-82870000D02*
X149237500Y-82850000D01*
X155162500Y-84145000D02*
X155117500Y-84190000D01*
D44*
X149025000Y-81137500D02*
X149237500Y-81350000D01*
X155375000Y-79250000D02*
X155375000Y-81137500D01*
D46*
X155162500Y-82850000D02*
X155162500Y-84145000D01*
X149217500Y-84190000D02*
X149217500Y-82870000D01*
D44*
X155375000Y-81137500D02*
X155162500Y-81350000D01*
X149025000Y-79250000D02*
X149025000Y-81137500D01*
X149237500Y-82850000D02*
X149237500Y-81350000D01*
X155162500Y-81350000D02*
X155162500Y-82850000D01*
D46*
X97512500Y-67800000D02*
X97512500Y-66300000D01*
X95600000Y-69000000D02*
X96800000Y-67800000D01*
X94800000Y-69000000D02*
X95600000Y-69000000D01*
X96800000Y-67800000D02*
X97512500Y-67800000D01*
D44*
X106675000Y-108300000D02*
X103775000Y-108300000D01*
X102400000Y-110625000D02*
X102400000Y-109875000D01*
X103400000Y-108875000D02*
X103400000Y-108675000D01*
X102400000Y-109875000D02*
X103400000Y-108875000D01*
X103775000Y-108300000D02*
X103400000Y-108675000D01*
D46*
X115300000Y-87675000D02*
X116225000Y-87675000D01*
D47*
X116025000Y-87675000D02*
X115300000Y-87675000D01*
D46*
X114725000Y-87100000D02*
X115300000Y-87675000D01*
X112400000Y-87100000D02*
X114725000Y-87100000D01*
D47*
X115300000Y-87675000D02*
X112475000Y-87675000D01*
D46*
X114575000Y-88400000D02*
X115300000Y-87675000D01*
X112400000Y-88400000D02*
X114575000Y-88400000D01*
D47*
X107465800Y-98534200D02*
X104300000Y-101700000D01*
D45*
X101000000Y-105200000D02*
X102800000Y-105200000D01*
D47*
X117600000Y-87700000D02*
X118468401Y-88568401D01*
D46*
X98787500Y-115527500D02*
X98787500Y-106500000D01*
X100560000Y-117300000D02*
X98787500Y-115527500D01*
D47*
X112475000Y-87675000D02*
X112400000Y-87750000D01*
X107465800Y-94741878D02*
X107465800Y-98534200D01*
D44*
X104130000Y-117210000D02*
X100650000Y-117210000D01*
D47*
X118468401Y-88568401D02*
X118468401Y-93060833D01*
D44*
X100650000Y-117210000D02*
X100560000Y-117300000D01*
D45*
X101760000Y-116560000D02*
X100700000Y-115500000D01*
X104130000Y-116560000D02*
X101760000Y-116560000D01*
D47*
X118468401Y-93060833D02*
X117759034Y-93770200D01*
X117759034Y-93770200D02*
X108437478Y-93770200D01*
X108437478Y-93770200D02*
X107465800Y-94741878D01*
X117600000Y-87700000D02*
X115300000Y-87700000D01*
D45*
X102800000Y-105200000D02*
X103000000Y-105000000D01*
D44*
X109930000Y-123060000D02*
X111807500Y-123060000D01*
X111807500Y-123060000D02*
X111972500Y-123225000D01*
X109930000Y-116560000D02*
X112152500Y-116560000D01*
X112152500Y-116560000D02*
X112512500Y-116200000D01*
X104910200Y-113300000D02*
X115500000Y-113300000D01*
X104130000Y-114610000D02*
X104130000Y-114080200D01*
X115500000Y-113250000D02*
X116540000Y-112210000D01*
X116540000Y-112210000D02*
X116540000Y-110375000D01*
D45*
X115972500Y-113725000D02*
X115925000Y-113725000D01*
D44*
X115500000Y-113300000D02*
X115500000Y-113250000D01*
D45*
X115925000Y-113725000D02*
X115500000Y-113300000D01*
D44*
X104130000Y-114080200D02*
X104910200Y-113300000D01*
D45*
X116540000Y-110375000D02*
X116540000Y-112160000D01*
X143050000Y-83250000D02*
X143137500Y-83337500D01*
X143050000Y-81775000D02*
X143050000Y-83250000D01*
X144587500Y-78712500D02*
X144587500Y-80137500D01*
X144587500Y-80137500D02*
X144700000Y-80250000D01*
D44*
X107100000Y-111550000D02*
X107150000Y-111500000D01*
X107150000Y-111500000D02*
X110700000Y-111500000D01*
X102974986Y-115260000D02*
X102700000Y-114985014D01*
X104130000Y-115260000D02*
X102974986Y-115260000D01*
X107050000Y-111500000D02*
X107100000Y-111550000D01*
X105287500Y-111612500D02*
X105287500Y-111500000D01*
X102700000Y-114200000D02*
X105287500Y-111612500D01*
X105287500Y-111500000D02*
X107050000Y-111500000D01*
X111460000Y-110740000D02*
X111460000Y-108875000D01*
X110700000Y-111500000D02*
X111460000Y-110740000D01*
X102700000Y-114985014D02*
X102700000Y-114200000D01*
X128287500Y-114000000D02*
X129712500Y-114000000D01*
D45*
X143460000Y-90500000D02*
X143460000Y-91030000D01*
D48*
X150295000Y-78125000D02*
X150295000Y-79250000D01*
D45*
X143800000Y-90500000D02*
X143460000Y-90500000D01*
X150500000Y-80250000D02*
X150500000Y-81400000D01*
X150295000Y-79250000D02*
X150295000Y-80045000D01*
D48*
X154105000Y-78125000D02*
X153680000Y-77700000D01*
D45*
X148070000Y-95970000D02*
X146600000Y-94500000D01*
X149750000Y-85250000D02*
X146250000Y-85250000D01*
X150295000Y-80045000D02*
X150500000Y-80250000D01*
X144012500Y-87750000D02*
X144012500Y-89947500D01*
X150500000Y-84500000D02*
X149750000Y-85250000D01*
D48*
X150720000Y-77700000D02*
X150295000Y-78125000D01*
D45*
X150500000Y-81400000D02*
X150600000Y-81500000D01*
X154105000Y-80095000D02*
X154105000Y-79250000D01*
X148400000Y-95970000D02*
X148820000Y-95970000D01*
X144012500Y-89947500D02*
X143460000Y-90500000D01*
X146250000Y-85250000D02*
X144212500Y-87287500D01*
X146600000Y-94500000D02*
X146600000Y-93300000D01*
D48*
X154105000Y-79250000D02*
X154105000Y-78125000D01*
D45*
X150500000Y-81600000D02*
X150500000Y-84500000D01*
X146600000Y-93300000D02*
X143800000Y-90500000D01*
X144212500Y-87287500D02*
X144212500Y-87750000D01*
X148820000Y-95970000D02*
X148070000Y-95970000D01*
X150600000Y-81500000D02*
X150500000Y-81600000D01*
X150034000Y-96070000D02*
X148320000Y-96070000D01*
D48*
X153680000Y-77700000D02*
X150720000Y-77700000D01*
X152700000Y-79350000D02*
X152600000Y-79250000D01*
X152600000Y-79250000D02*
X151565000Y-79250000D01*
D45*
X151900000Y-80400000D02*
X151565000Y-80065000D01*
X145587500Y-86837500D02*
X145587500Y-87550000D01*
X146000000Y-90500000D02*
X146000000Y-91000000D01*
X150034000Y-93070000D02*
X148320000Y-93070000D01*
X145587500Y-87750000D02*
X145587500Y-90087500D01*
X152835000Y-80065000D02*
X152835000Y-79250000D01*
X151900000Y-81500000D02*
X151900000Y-80400000D01*
X150100000Y-85900000D02*
X146525000Y-85900000D01*
X145587500Y-87550000D02*
X145787500Y-87750000D01*
X146000000Y-91000000D02*
X147970000Y-92970000D01*
X146525000Y-85900000D02*
X145587500Y-86837500D01*
X152000000Y-84000000D02*
X150100000Y-85900000D01*
X152000000Y-81600000D02*
X152000000Y-84000000D01*
X145587500Y-90087500D02*
X146000000Y-90500000D01*
X151900000Y-81500000D02*
X152000000Y-81600000D01*
X147970000Y-92970000D02*
X148820000Y-92970000D01*
X151565000Y-80065000D02*
X151565000Y-79250000D01*
D49*
X130971842Y-77541250D02*
X131271092Y-77840500D01*
X131271092Y-77840500D02*
X132828000Y-77840500D01*
X130558750Y-77541250D02*
X130971842Y-77541250D01*
X132828000Y-77840500D02*
X132887500Y-77900000D01*
X97400000Y-70650000D02*
X100050000Y-70650000D01*
X94800000Y-70300000D02*
X96900000Y-70300000D01*
X96900000Y-70300000D02*
X97250000Y-70650000D01*
X124258750Y-70828158D02*
X124258750Y-71241250D01*
X100050000Y-70650000D02*
X100534500Y-70165500D01*
X123596092Y-70165500D02*
X124258750Y-70828158D01*
X97250000Y-70650000D02*
X97400000Y-70650000D01*
X100534500Y-70165500D02*
X123596092Y-70165500D01*
X124528158Y-70558750D02*
X124941250Y-70558750D01*
X96850000Y-69650000D02*
X97150000Y-69350000D01*
X131241250Y-77271842D02*
X131428908Y-77459500D01*
X123753908Y-69784500D02*
X124528158Y-70558750D01*
X94800000Y-69650000D02*
X96850000Y-69650000D01*
X131241250Y-76858750D02*
X131241250Y-77271842D01*
X97150000Y-69350000D02*
X97400000Y-69350000D01*
X132828000Y-77459500D02*
X132887500Y-77400000D01*
X131428908Y-77459500D02*
X132828000Y-77459500D01*
X97400000Y-69350000D02*
X100104671Y-69350000D01*
X100539171Y-69784500D02*
X123753908Y-69784500D01*
X100104671Y-69350000D02*
X100539171Y-69784500D01*
D44*
X102687500Y-112525000D02*
X103712500Y-111500000D01*
X102100000Y-112525000D02*
X102687500Y-112525000D01*
X113400000Y-101225000D02*
X109425000Y-105200000D01*
D45*
X105200000Y-105200000D02*
X105000000Y-105000000D01*
X106800000Y-105200000D02*
X105200000Y-105200000D01*
D44*
X102325000Y-115925000D02*
X101900000Y-115500000D01*
X104160000Y-115925000D02*
X102325000Y-115925000D01*
X109425000Y-105200000D02*
X106800000Y-105200000D01*
D48*
X128500000Y-116825000D02*
X128500000Y-115400000D01*
D44*
X109930000Y-114610000D02*
X111290000Y-114610000D01*
X111290000Y-114610000D02*
X111300000Y-114600000D01*
D46*
X143560000Y-124445841D02*
X143560000Y-127227500D01*
D44*
X143314159Y-124200000D02*
X143560000Y-124445841D01*
D46*
X143560000Y-127227500D02*
X142987500Y-127800000D01*
D45*
X135380000Y-67125000D02*
X135400000Y-67105000D01*
X135380000Y-67125000D02*
X135380000Y-67980000D01*
X134400000Y-65000000D02*
X133787500Y-65000000D01*
X135400000Y-67105000D02*
X135400000Y-66000000D01*
X135380000Y-67980000D02*
X135800000Y-68400000D01*
X135400000Y-66000000D02*
X134400000Y-65000000D01*
X135800000Y-68400000D02*
X135800000Y-73487500D01*
X135205000Y-66950000D02*
X135380000Y-67125000D01*
X140785000Y-67037500D02*
X140797500Y-67050000D01*
X140797500Y-67050000D02*
X139265000Y-67050000D01*
X140785000Y-65537500D02*
X140785000Y-67037500D01*
X139265000Y-67050000D02*
X139190000Y-67125000D01*
X136800000Y-73487500D02*
X136800000Y-69100000D01*
X137920000Y-66150000D02*
X140107500Y-63962500D01*
X137920000Y-67980000D02*
X137920000Y-67125000D01*
X137920000Y-67125000D02*
X137920000Y-66150000D01*
X140310000Y-63962500D02*
X140785000Y-63962500D01*
X140107500Y-63962500D02*
X140310000Y-63962500D01*
X136800000Y-69100000D02*
X137920000Y-67980000D01*
X133787500Y-63500000D02*
X134400000Y-63500000D01*
X136650000Y-67125000D02*
X136700000Y-67175000D01*
X136300000Y-68500000D02*
X136300000Y-73487500D01*
X136700000Y-67175000D02*
X136700000Y-68100000D01*
X136700000Y-68100000D02*
X136300000Y-68500000D01*
X134400000Y-63500000D02*
X136650000Y-65750000D01*
X136650000Y-65750000D02*
X136650000Y-66150000D01*
X136650000Y-66150000D02*
X136650000Y-67125000D01*
X133050000Y-81547196D02*
X134050000Y-80547196D01*
X133050000Y-82162500D02*
X133050000Y-81547196D01*
X134050000Y-80547196D02*
X134050000Y-77050000D01*
X134050000Y-77050000D02*
X133900000Y-76900000D01*
X133900000Y-76900000D02*
X132887500Y-76900000D01*
X102660000Y-119160000D02*
X104130000Y-119160000D01*
X98000000Y-119000000D02*
X102500000Y-119000000D01*
X96750000Y-108750000D02*
X96750000Y-117750000D01*
D44*
X95787500Y-106500000D02*
X97212500Y-106500000D01*
D45*
X95787500Y-106500000D02*
X95787500Y-107787500D01*
X96750000Y-117750000D02*
X98000000Y-119000000D01*
X102500000Y-119000000D02*
X102660000Y-119160000D01*
X95787500Y-107787500D02*
X96750000Y-108750000D01*
D44*
X112450000Y-114700000D02*
X112512500Y-114700000D01*
X109930000Y-115910000D02*
X111240000Y-115910000D01*
X111240000Y-115910000D02*
X112450000Y-114700000D01*
D45*
X152835000Y-68435000D02*
X152400000Y-68000000D01*
X152835000Y-69950000D02*
X152835000Y-68435000D01*
X151500000Y-69885000D02*
X151565000Y-69950000D01*
D48*
X138300000Y-81812500D02*
X138300000Y-78700000D01*
X138300000Y-78700000D02*
X139000000Y-78000000D01*
D45*
X151500000Y-68000000D02*
X151500000Y-69885000D01*
X152400000Y-68000000D02*
X151500000Y-68000000D01*
X154000000Y-69845000D02*
X154105000Y-69950000D01*
X154000000Y-68000000D02*
X154000000Y-69845000D01*
D48*
X134800000Y-81812500D02*
X134800000Y-81075000D01*
X135875000Y-80000000D02*
X136500000Y-80000000D01*
X134800000Y-81075000D02*
X135875000Y-80000000D01*
D45*
X149500000Y-63400000D02*
X150295000Y-64195000D01*
X150295000Y-64195000D02*
X150295000Y-69950000D01*
D48*
X134300000Y-81812500D02*
X134300000Y-80900000D01*
D45*
X144500000Y-65540000D02*
X146640000Y-63400000D01*
D48*
X134300000Y-80900000D02*
X135500000Y-79700000D01*
D45*
X146640000Y-63400000D02*
X149500000Y-63400000D01*
D48*
X135500000Y-79700000D02*
X135500000Y-79000000D01*
D44*
X137100000Y-115800000D02*
X137100000Y-114500000D01*
X134675000Y-119000000D02*
X134675000Y-118200000D01*
X137100000Y-114500000D02*
X136312500Y-113712500D01*
X134775000Y-118200000D02*
X134775000Y-118125000D01*
X136100000Y-113712500D02*
X136100000Y-112287500D01*
X134775000Y-118125000D02*
X137100000Y-115800000D01*
X136312500Y-113712500D02*
X136100000Y-113712500D01*
X111400000Y-118200000D02*
X114873750Y-118200000D01*
X110050199Y-117980199D02*
X111180199Y-117980199D01*
X117187500Y-115886250D02*
X117187500Y-115225000D01*
X117187500Y-114865000D02*
X117187500Y-114085000D01*
X111180199Y-117980199D02*
X111400000Y-118200000D01*
X109930000Y-117860000D02*
X110050199Y-117980199D01*
X114873750Y-118200000D02*
X117187500Y-115886250D01*
X113290000Y-122410000D02*
X114900000Y-120800000D01*
X118850000Y-114250000D02*
X119800000Y-113300000D01*
X114900000Y-120800000D02*
X114900000Y-119100000D01*
X114900000Y-119100000D02*
X118700000Y-115300000D01*
X109930000Y-122410000D02*
X113290000Y-122410000D01*
X118700000Y-115300000D02*
X118850000Y-115300000D01*
X118850000Y-115300000D02*
X118850000Y-114250000D01*
X119800000Y-113300000D02*
X122137500Y-113300000D01*
X122137500Y-113300000D02*
X122350000Y-113512500D01*
D46*
X94750000Y-112979999D02*
X94750000Y-113629999D01*
D44*
X116700000Y-123587500D02*
X116700000Y-124600000D01*
D45*
X93325000Y-113954999D02*
X94800000Y-113954999D01*
D44*
X126225000Y-118100000D02*
X126325000Y-118200000D01*
X117000000Y-123287500D02*
X116700000Y-123587500D01*
D47*
X95250000Y-119250000D02*
X102585000Y-126585000D01*
D44*
X116700000Y-124600000D02*
X116085000Y-125215000D01*
X137687500Y-120287500D02*
X137700000Y-120300000D01*
D48*
X94825000Y-113979999D02*
X95030000Y-114184999D01*
D44*
X124800000Y-118100000D02*
X126225000Y-118100000D01*
X93300000Y-113954999D02*
X93300000Y-115217499D01*
X136187500Y-120600000D02*
X136500000Y-120287500D01*
D47*
X102585000Y-126585000D02*
X116085000Y-126585000D01*
D44*
X134575000Y-120737500D02*
X134712500Y-120600000D01*
D47*
X116085000Y-126585000D02*
X116100000Y-126600000D01*
D46*
X94750000Y-113629999D02*
X95250000Y-114129999D01*
D47*
X95250000Y-114129999D02*
X95250000Y-119250000D01*
D44*
X124700000Y-118000000D02*
X124800000Y-118100000D01*
D45*
X92500000Y-110479999D02*
X92000000Y-109979999D01*
D46*
X117500000Y-127400000D02*
X117500000Y-127200000D01*
D44*
X134675000Y-120600000D02*
X133300000Y-120600000D01*
D48*
X134675000Y-123800000D02*
X135700000Y-123800000D01*
D45*
X92500000Y-111029999D02*
X92500000Y-110479999D01*
X93300000Y-113979999D02*
X93325000Y-113954999D01*
X135700000Y-123800000D02*
X135700000Y-124600000D01*
D44*
X134675000Y-120600000D02*
X136187500Y-120600000D01*
D45*
X94800000Y-113954999D02*
X94825000Y-113979999D01*
D46*
X116700000Y-127200000D02*
X116085000Y-126585000D01*
D44*
X124500000Y-116750000D02*
X124550000Y-116700000D01*
X117800000Y-117912500D02*
X117800000Y-117700000D01*
X116085000Y-125215000D02*
X116085000Y-126585000D01*
D45*
X137650000Y-127600000D02*
X136700000Y-127600000D01*
D44*
X136387500Y-123800000D02*
X136500000Y-123687500D01*
X134675000Y-123800000D02*
X136387500Y-123800000D01*
X93300000Y-115217499D02*
X93287500Y-115229999D01*
X136500000Y-120287500D02*
X137687500Y-120287500D01*
X117000000Y-118712500D02*
X117800000Y-117912500D01*
D46*
X117500000Y-127200000D02*
X116700000Y-127200000D01*
D44*
X124700000Y-116887500D02*
X124700000Y-118000000D01*
D48*
X124500000Y-125712500D02*
X125787500Y-125712500D01*
D44*
X124282500Y-125930000D02*
X124500000Y-125712500D01*
X122580000Y-125930000D02*
X124282500Y-125930000D01*
D48*
X130100000Y-121400000D02*
X134675000Y-121400000D01*
X122580000Y-126130000D02*
X122810000Y-125900000D01*
X125787500Y-125712500D02*
X130100000Y-121400000D01*
X119870000Y-125780000D02*
X119870000Y-126130000D01*
D45*
X126325000Y-123800000D02*
X120900000Y-123800000D01*
D48*
X118770000Y-125830000D02*
X118770000Y-126130000D01*
X118600000Y-126130000D02*
X118600000Y-126100000D01*
D45*
X120900000Y-123800000D02*
X118770000Y-125930000D01*
X120430000Y-123000000D02*
X117500000Y-125930000D01*
D48*
X117500000Y-125900000D02*
X117500000Y-126130000D01*
D45*
X126325000Y-123000000D02*
X120430000Y-123000000D01*
D44*
X104987500Y-85800000D02*
X104787500Y-86000000D01*
D50*
X106600000Y-86450000D02*
X106600000Y-84300000D01*
D44*
X106600000Y-85800000D02*
X104987500Y-85800000D01*
D46*
X106600000Y-84300000D02*
X106500000Y-84200000D01*
D44*
X106600000Y-87100000D02*
X106550000Y-87050000D01*
X106550000Y-87050000D02*
X104356250Y-87050000D01*
X103306250Y-86000000D02*
X103212500Y-86000000D01*
X104356250Y-87050000D02*
X103306250Y-86000000D01*
X91700000Y-111029999D02*
X90900000Y-111029999D01*
D46*
X90900000Y-109669999D02*
X90530000Y-109299999D01*
X90900000Y-111029999D02*
X90900000Y-109669999D01*
X139550000Y-125400000D02*
X140600000Y-125400000D01*
X112000000Y-77800000D02*
X106500000Y-77800000D01*
D45*
X117300000Y-92500000D02*
X116112500Y-92500000D01*
D44*
X105700000Y-88400000D02*
X104500000Y-89600000D01*
D46*
X112000000Y-77800000D02*
X114800000Y-77800000D01*
D45*
X116050000Y-92487500D02*
X114650000Y-92487500D01*
D44*
X90495001Y-111004999D02*
X90000000Y-111500000D01*
D46*
X112060000Y-77740000D02*
X112000000Y-77800000D01*
D45*
X114650000Y-92487500D02*
X114600000Y-92437500D01*
D44*
X139550000Y-125400000D02*
X139550000Y-123937500D01*
X104500000Y-89612500D02*
X103312500Y-89612500D01*
D45*
X103312500Y-89612500D02*
X103300000Y-89600000D01*
D44*
X106600000Y-88400000D02*
X105700000Y-88400000D01*
D46*
X115000000Y-78000000D02*
X116000000Y-79000000D01*
X114800000Y-77800000D02*
X115000000Y-78000000D01*
D47*
X90530000Y-109299999D02*
X90530000Y-107699999D01*
D44*
X104787500Y-89612500D02*
X104500000Y-89612500D01*
D45*
X116112500Y-92500000D02*
X116100000Y-92487500D01*
D46*
X116000000Y-79000000D02*
X117000000Y-80000000D01*
D44*
X98331250Y-87287500D02*
X98343750Y-87300000D01*
X97043750Y-87287500D02*
X97043750Y-87300000D01*
D45*
X116100000Y-92437500D02*
X116050000Y-92487500D01*
D44*
X97043750Y-87287500D02*
X98331250Y-87287500D01*
X139450000Y-123937500D02*
X139587500Y-123800000D01*
X104500000Y-89600000D02*
X104500000Y-89712500D01*
X90900000Y-111004999D02*
X90495001Y-111004999D01*
D48*
X134900000Y-125400000D02*
X137650000Y-125400000D01*
X128586902Y-123800000D02*
X127700000Y-124686902D01*
X133300000Y-123800000D02*
X128586902Y-123800000D01*
X127700000Y-124686902D02*
X127700000Y-125175000D01*
X133300000Y-123800000D02*
X134900000Y-125400000D01*
D44*
X90900000Y-113954999D02*
X90900000Y-114329999D01*
X90900000Y-114329999D02*
X90250000Y-114979999D01*
X90250000Y-114979999D02*
X90250000Y-115192499D01*
X91712500Y-115229999D02*
X91712500Y-116729999D01*
X91700000Y-115217499D02*
X91712500Y-115229999D01*
X91700000Y-113954999D02*
X91700000Y-115217499D01*
X133300000Y-115012500D02*
X133400000Y-114912500D01*
X133300000Y-117062500D02*
X133300000Y-119412500D01*
X133400000Y-114912500D02*
X134600000Y-113712500D01*
X134437500Y-119800000D02*
X134575000Y-119937500D01*
X133200000Y-116962500D02*
X133300000Y-117062500D01*
X134600000Y-113712500D02*
X134600000Y-112287500D01*
X133300000Y-116825000D02*
X133300000Y-115012500D01*
X133687500Y-119800000D02*
X134437500Y-119800000D01*
X133300000Y-119412500D02*
X133687500Y-119800000D01*
D48*
X125825000Y-119800000D02*
X121200000Y-119800000D01*
X120000000Y-118600000D02*
X119500000Y-118600000D01*
X121200000Y-119800000D02*
X120000000Y-118600000D01*
X115400000Y-123100000D02*
X115400000Y-121800000D01*
X114400000Y-124100000D02*
X115400000Y-123100000D01*
X115400000Y-121800000D02*
X116912500Y-120287500D01*
D45*
X118700000Y-118600000D02*
X117012500Y-120287500D01*
X117012500Y-120287500D02*
X117000000Y-120287500D01*
D48*
X104130000Y-122410000D02*
X103176800Y-122410000D01*
X116912500Y-120287500D02*
X117000000Y-120287500D01*
D45*
X119000000Y-118600000D02*
X118700000Y-118600000D01*
D48*
X102900000Y-123500000D02*
X103500000Y-124100000D01*
X103500000Y-124100000D02*
X114400000Y-124100000D01*
X102900000Y-122686800D02*
X102900000Y-123500000D01*
X103176800Y-122410000D02*
X102900000Y-122686800D01*
X122580000Y-120600000D02*
X122040000Y-121140000D01*
X125825000Y-120600000D02*
X122580000Y-120600000D01*
X121540000Y-121140000D02*
X122040000Y-121140000D01*
X118800000Y-119900000D02*
X120300000Y-119900000D01*
D45*
X117012500Y-121700000D02*
X117000000Y-121712500D01*
D48*
X104130000Y-121760000D02*
X103176800Y-121760000D01*
X103300000Y-124600000D02*
X115000000Y-124600000D01*
X120300000Y-119900000D02*
X121540000Y-121140000D01*
X104130000Y-121760000D02*
X104130000Y-121110000D01*
X102336800Y-122600000D02*
X102336800Y-123636800D01*
X115900000Y-123700000D02*
X115900000Y-122600000D01*
X116787500Y-121712500D02*
X117000000Y-121712500D01*
X102336800Y-123636800D02*
X103300000Y-124600000D01*
X103176800Y-121760000D02*
X102336800Y-122600000D01*
X115000000Y-124600000D02*
X115900000Y-123700000D01*
X116887500Y-121712500D02*
X116987500Y-121712500D01*
X115900000Y-122600000D02*
X116787500Y-121712500D01*
X116987500Y-121712500D02*
X118800000Y-119900000D01*
D44*
X128287500Y-112500000D02*
X129712500Y-112500000D01*
X105037500Y-87750000D02*
X104587500Y-88200000D01*
X106600000Y-87750000D02*
X105037500Y-87750000D01*
X104637500Y-88250000D02*
X104587500Y-88200000D01*
D45*
X116100000Y-89412500D02*
X116087500Y-89400000D01*
X116100000Y-90912500D02*
X116100000Y-90987500D01*
X114037500Y-90350000D02*
X114600000Y-90912500D01*
D44*
X114650000Y-90912500D02*
X114600000Y-90862500D01*
D45*
X116100000Y-90912500D02*
X116100000Y-89412500D01*
D44*
X116100000Y-90862500D02*
X116050000Y-90912500D01*
D45*
X112400000Y-90350000D02*
X114037500Y-90350000D01*
D44*
X116050000Y-90912500D02*
X114650000Y-90912500D01*
X97043750Y-85656250D02*
X100000000Y-82700000D01*
X97043750Y-85712500D02*
X97043750Y-85656250D01*
X112007500Y-119160000D02*
X112060000Y-119212500D01*
X111910000Y-117210000D02*
X112100000Y-117400000D01*
X112147500Y-119300000D02*
X112060000Y-119212500D01*
X109930000Y-117210000D02*
X111910000Y-117210000D01*
X109930000Y-119160000D02*
X112007500Y-119160000D01*
X113600000Y-119300000D02*
X112147500Y-119300000D01*
X122317500Y-115300000D02*
X122530000Y-115087500D01*
X147662500Y-81350000D02*
X147662500Y-82850000D01*
X156645000Y-81257500D02*
X156737500Y-81350000D01*
X147755000Y-81257500D02*
X147662500Y-81350000D01*
X156645000Y-79250000D02*
X156645000Y-81257500D01*
X156737500Y-81350000D02*
X156737500Y-82850000D01*
X147755000Y-79250000D02*
X147755000Y-81257500D01*
D46*
X93300000Y-109329999D02*
X93330000Y-109299999D01*
X93300000Y-111029999D02*
X93300000Y-109329999D01*
D44*
X104500000Y-91287500D02*
X105687500Y-91287500D01*
X109500000Y-89000000D02*
X110812500Y-90312500D01*
D46*
X92100000Y-113029999D02*
X92100000Y-111929999D01*
D44*
X114287500Y-116400000D02*
X115300000Y-116400000D01*
X94056250Y-88800000D02*
X92900000Y-88800000D01*
X94056250Y-88800000D02*
X94056250Y-90143750D01*
X94043750Y-87287500D02*
X94043750Y-88787500D01*
X127600000Y-116962500D02*
X127600000Y-116037500D01*
X136500000Y-118712500D02*
X136500000Y-117500000D01*
X138600000Y-124387500D02*
X138500000Y-124287500D01*
D45*
X112400000Y-89700000D02*
X114212500Y-89700000D01*
D44*
X126712500Y-114000000D02*
X126712500Y-115150000D01*
X156737500Y-84062500D02*
X156700000Y-84100000D01*
X94212500Y-106500000D02*
X94212500Y-105000000D01*
X115612500Y-115225000D02*
X115612500Y-116087500D01*
X114087500Y-114700000D02*
X114087500Y-116200000D01*
X113387500Y-120787500D02*
X113400000Y-120800000D01*
D46*
X93330000Y-108809999D02*
X93000000Y-108479999D01*
D44*
X112400000Y-89700000D02*
X110800000Y-89700000D01*
X97143750Y-90050000D02*
X94150000Y-90050000D01*
X112060000Y-120787500D02*
X113387500Y-120787500D01*
D45*
X151250000Y-83500000D02*
X151250000Y-82500000D01*
D44*
X122562500Y-115300000D02*
X123500000Y-115300000D01*
D46*
X93000000Y-108479999D02*
X93000000Y-107729999D01*
D44*
X124412500Y-127200000D02*
X124500000Y-127287500D01*
X94212500Y-102897500D02*
X93700000Y-102385000D01*
X110812500Y-90312500D02*
X110812500Y-91900000D01*
X133300000Y-125175000D02*
X133300000Y-125980000D01*
X136100000Y-115287500D02*
X136100000Y-115500000D01*
X93700000Y-102385000D02*
X93700000Y-91615000D01*
X110800000Y-89700000D02*
X110500000Y-90000000D01*
X103012500Y-88200000D02*
X102912500Y-88100000D01*
X93287500Y-116729999D02*
X93500000Y-116942499D01*
X100100000Y-109175000D02*
X100100000Y-112700000D01*
X94212500Y-106500000D02*
X93000000Y-106500000D01*
X109500000Y-88075000D02*
X109500000Y-89000000D01*
X94212500Y-105000000D02*
X94212500Y-102897500D01*
X94043750Y-88787500D02*
X94056250Y-88800000D01*
X156737500Y-82850000D02*
X156737500Y-84062500D01*
X107355000Y-118510000D02*
X107030000Y-118835000D01*
X133300000Y-125980000D02*
X134820000Y-127500000D01*
X115612500Y-116087500D02*
X115300000Y-116400000D01*
X102912500Y-88100000D02*
X101900000Y-88100000D01*
X94056250Y-90143750D02*
X94056250Y-92258750D01*
D46*
X93330000Y-109299999D02*
X93330000Y-108809999D01*
D44*
X113775000Y-123225000D02*
X114500000Y-122500000D01*
X136500000Y-122112500D02*
X137212500Y-122112500D01*
X106600000Y-89050000D02*
X108525000Y-89050000D01*
X113547500Y-123225000D02*
X113775000Y-123225000D01*
X134600000Y-116000000D02*
X135100000Y-116500000D01*
X127600000Y-116037500D02*
X127000000Y-115437500D01*
X100560000Y-120100000D02*
X102635000Y-120100000D01*
X103175000Y-119810000D02*
X102760000Y-120225000D01*
X109930000Y-118510000D02*
X107355000Y-118510000D01*
X102635000Y-120100000D02*
X102760000Y-120225000D01*
X138500000Y-124287500D02*
X138012500Y-123800000D01*
X137700000Y-123487500D02*
X138012500Y-123800000D01*
X105687500Y-91287500D02*
X105700000Y-91300000D01*
X123512500Y-115312500D02*
X123500000Y-115300000D01*
X94150000Y-90050000D02*
X94056250Y-90143750D01*
X108525000Y-89050000D02*
X109500000Y-88075000D01*
X102995000Y-120460000D02*
X102760000Y-120225000D01*
D45*
X110812500Y-91900000D02*
X108900000Y-91900000D01*
D46*
X95030001Y-110538815D02*
X95030001Y-110000000D01*
X95030000Y-111384999D02*
X95030001Y-110538815D01*
X92100000Y-111929999D02*
X94485000Y-111929999D01*
D44*
X114087500Y-116200000D02*
X114287500Y-116400000D01*
X126712500Y-115150000D02*
X127000000Y-115437500D01*
X104130000Y-119810000D02*
X103175000Y-119810000D01*
X122137500Y-115300000D02*
X122350000Y-115087500D01*
X122580000Y-127200000D02*
X124412500Y-127200000D01*
X138600000Y-125400000D02*
X138600000Y-124387500D01*
X126712500Y-112500000D02*
X126712500Y-114000000D01*
X138600000Y-125400000D02*
X138600000Y-126600000D01*
X120750000Y-115300000D02*
X122137500Y-115300000D01*
X137212500Y-122112500D02*
X137700000Y-122600000D01*
D45*
X108900000Y-91900000D02*
X108500000Y-91500000D01*
D44*
X104130000Y-120460000D02*
X102995000Y-120460000D01*
X136100000Y-115500000D02*
X135100000Y-116500000D01*
X147662500Y-84162500D02*
X147662500Y-82850000D01*
X124700000Y-115312500D02*
X123512500Y-115312500D01*
D45*
X132500000Y-125175000D02*
X133300000Y-125175000D01*
D44*
X122350000Y-115087500D02*
X122562500Y-115300000D01*
X101000000Y-108275000D02*
X100100000Y-109175000D01*
D45*
X114212500Y-89700000D02*
X114512500Y-89400000D01*
D44*
X134600000Y-115287500D02*
X134600000Y-116000000D01*
X127287500Y-115550000D02*
X127175000Y-115437500D01*
X137700000Y-122600000D02*
X137700000Y-123487500D01*
X90250000Y-116767499D02*
X90250000Y-117979999D01*
D46*
X94485000Y-111929999D02*
X95030000Y-111384999D01*
D44*
X127175000Y-115437500D02*
X127000000Y-115437500D01*
X93500000Y-116942499D02*
X93500000Y-118000000D01*
X99500000Y-80200000D02*
X100000000Y-80200000D01*
X95543750Y-84156250D02*
X99500000Y-80200000D01*
X95543750Y-85712500D02*
X95543750Y-84156250D01*
X94043750Y-85712500D02*
X95543750Y-85712500D01*
X99143750Y-90600000D02*
X99043750Y-90700000D01*
D45*
X104130000Y-118510000D02*
X98510000Y-118510000D01*
X98510000Y-118510000D02*
X97500000Y-117500000D01*
D44*
X97000000Y-104787500D02*
X97212500Y-105000000D01*
X99143750Y-89400000D02*
X99143750Y-90600000D01*
X95787500Y-105000000D02*
X97212500Y-105000000D01*
X97000000Y-103500000D02*
X97000000Y-104787500D01*
D45*
X97500000Y-117500000D02*
X97500000Y-108000000D01*
D44*
X95543750Y-88712500D02*
X95631250Y-88800000D01*
X95543750Y-87287500D02*
X95543750Y-88712500D01*
X95681250Y-88750000D02*
X95631250Y-88800000D01*
X97143750Y-88750000D02*
X95681250Y-88750000D01*
D46*
X139550000Y-127600000D02*
X141312500Y-127600000D01*
X141212500Y-127600000D02*
X141412500Y-127800000D01*
D44*
X131700000Y-116825000D02*
X131700000Y-114412500D01*
X131700000Y-114412500D02*
X131287500Y-114000000D01*
X132500000Y-113712500D02*
X131287500Y-112500000D01*
X132500000Y-116825000D02*
X132500000Y-113712500D01*
X131700000Y-125175000D02*
X131700000Y-126920000D01*
X131700000Y-126920000D02*
X132280000Y-127500000D01*
X130900000Y-126340000D02*
X129740000Y-127500000D01*
X130900000Y-125175000D02*
X130900000Y-126340000D01*
D48*
X129600000Y-126300000D02*
X128400000Y-126300000D01*
X130100000Y-125175000D02*
X130100000Y-125800000D01*
X130100000Y-125800000D02*
X129600000Y-126300000D01*
X128400000Y-126300000D02*
X127200000Y-127500000D01*
X120760000Y-122400000D02*
X123500000Y-122400000D01*
X123500000Y-122400000D02*
X124500000Y-121400000D01*
X119500000Y-121140000D02*
X120760000Y-122400000D01*
X124500000Y-121400000D02*
X126325000Y-121400000D01*
D45*
X135300000Y-73487500D02*
X135300000Y-72437500D01*
D44*
X133787500Y-71687500D02*
X133750000Y-71650000D01*
D45*
X132887500Y-80400000D02*
X132887500Y-80600000D01*
X130912500Y-70450000D02*
X130912500Y-69187500D01*
D44*
X144587500Y-77187500D02*
X145675000Y-77187500D01*
X134850000Y-71687500D02*
X133787500Y-71687500D01*
D45*
X132887500Y-80600000D02*
X131537500Y-81950000D01*
X135300000Y-72437500D02*
X134550000Y-71687500D01*
X128050000Y-80437500D02*
X126862500Y-80437500D01*
D44*
X145675000Y-77187500D02*
X145725000Y-77137500D01*
D45*
X130912500Y-69187500D02*
X130950000Y-69150000D01*
X126862500Y-80437500D02*
X126850000Y-80450000D01*
X140337500Y-83600000D02*
X141487500Y-83600000D01*
X140087500Y-72300000D02*
X140762500Y-71625000D01*
X144712500Y-81837500D02*
X144700000Y-81825000D01*
X144700000Y-81825000D02*
X145925000Y-81825000D01*
X140762500Y-68437500D02*
X140800000Y-68400000D01*
D44*
X133537500Y-62175000D02*
X132212500Y-63500000D01*
D45*
X140762500Y-71150000D02*
X140762500Y-69650000D01*
D44*
X135380000Y-62175000D02*
X135380000Y-60317500D01*
D45*
X140762500Y-71625000D02*
X140762500Y-71150000D01*
X142372500Y-67050000D02*
X142372500Y-65772500D01*
X140762500Y-69650000D02*
X140762500Y-68437500D01*
X131537500Y-82650000D02*
X131087500Y-83100000D01*
X131537500Y-81950000D02*
X131537500Y-82650000D01*
X139800000Y-83062500D02*
X140337500Y-83600000D01*
X139800000Y-81812500D02*
X139800000Y-83062500D01*
X145925000Y-81825000D02*
X145950000Y-81800000D01*
X138800000Y-72574823D02*
X139074823Y-72300000D01*
X144712500Y-83337500D02*
X144712500Y-81837500D01*
X142372500Y-65772500D02*
X142300000Y-65700000D01*
D44*
X135380000Y-60317500D02*
X135212500Y-60150000D01*
D45*
X139074823Y-72300000D02*
X140087500Y-72300000D01*
X138800000Y-73487500D02*
X138800000Y-72574823D01*
D44*
X132212500Y-65000000D02*
X131000000Y-65000000D01*
D45*
X132212500Y-63500000D02*
X132212500Y-65000000D01*
D44*
X135380000Y-62175000D02*
X133537500Y-62175000D01*
X124962500Y-67100000D02*
X124325000Y-67100000D01*
X124325000Y-67100000D02*
X123525000Y-66300000D01*
X125050000Y-65387500D02*
X126550000Y-65387500D01*
X124937500Y-65500000D02*
X125050000Y-65387500D01*
X123525000Y-65500000D02*
X124937500Y-65500000D01*
D45*
X141212500Y-79400000D02*
X142250000Y-79400000D01*
X142250000Y-79400000D02*
X143050000Y-80200000D01*
X142825000Y-78900000D02*
X143012500Y-78712500D01*
X141212500Y-78900000D02*
X142825000Y-78900000D01*
%TA.AperFunction,Conductor*%
G36*
X149742121Y-121520002D02*
G01*
X149788614Y-121573658D01*
X149800000Y-121626000D01*
X149800000Y-128366000D01*
X149779998Y-128434121D01*
X149726342Y-128480614D01*
X149674000Y-128492000D01*
X146226000Y-128492000D01*
X146157879Y-128471998D01*
X146111386Y-128418342D01*
X146100000Y-128366000D01*
X146100000Y-121626000D01*
X146120002Y-121557879D01*
X146173658Y-121511386D01*
X146226000Y-121500000D01*
X149674000Y-121500000D01*
X149742121Y-121520002D01*
G37*
%TD.AperFunction*%
%TA.AperFunction,Conductor*%
G36*
X138536905Y-86036905D02*
G01*
X141963095Y-89463095D01*
X142000000Y-89552190D01*
X142000001Y-93000002D01*
X143000000Y-94000000D01*
X145747001Y-94000000D01*
X145815122Y-94020002D01*
X145861615Y-94073658D01*
X145873001Y-94126000D01*
X145873000Y-94404441D01*
X145869893Y-94432248D01*
X145867891Y-94441098D01*
X145872758Y-94519550D01*
X145873000Y-94527352D01*
X145873001Y-94552209D01*
X145875428Y-94569153D01*
X145876459Y-94579213D01*
X145880785Y-94648944D01*
X145886462Y-94664668D01*
X145892676Y-94689590D01*
X145895046Y-94706139D01*
X145923965Y-94769743D01*
X145927778Y-94779111D01*
X145951496Y-94844813D01*
X145960704Y-94857256D01*
X145974120Y-94880054D01*
X145981241Y-94895714D01*
X146034270Y-94957257D01*
X146040104Y-94964558D01*
X146050569Y-94978700D01*
X146062996Y-94991127D01*
X146069357Y-94997978D01*
X146117175Y-95053474D01*
X146129230Y-95061288D01*
X146149793Y-95077925D01*
X146715616Y-95643748D01*
X146752521Y-95732843D01*
X146752521Y-96604997D01*
X146782254Y-96792723D01*
X146868541Y-96962069D01*
X147002934Y-97096461D01*
X147172277Y-97182746D01*
X147360003Y-97212479D01*
X150279997Y-97212479D01*
X150467723Y-97182746D01*
X150603168Y-97113733D01*
X150660371Y-97100000D01*
X151274000Y-97100000D01*
X151342121Y-97120002D01*
X151388614Y-97173658D01*
X151400000Y-97226000D01*
X151400000Y-99374000D01*
X151379998Y-99442121D01*
X151326342Y-99488614D01*
X151274000Y-99500000D01*
X147538149Y-99500000D01*
X147468257Y-99478838D01*
X144500000Y-97500000D01*
X137052190Y-97500000D01*
X136963095Y-97463095D01*
X135000000Y-95500000D01*
X125126000Y-95500000D01*
X125057879Y-95479998D01*
X125011386Y-95426342D01*
X125000000Y-95374000D01*
X125000000Y-86126000D01*
X125020002Y-86057879D01*
X125073658Y-86011386D01*
X125126000Y-86000000D01*
X138447810Y-86000000D01*
X138536905Y-86036905D01*
G37*
%TD.AperFunction*%
%TA.AperFunction,Conductor*%
G36*
X105942121Y-93520002D02*
G01*
X105988614Y-93573658D01*
X106000000Y-93626000D01*
X106000000Y-96374000D01*
X105979998Y-96442121D01*
X105926342Y-96488614D01*
X105874000Y-96500000D01*
X97626000Y-96500000D01*
X97557879Y-96479998D01*
X97511386Y-96426342D01*
X97500000Y-96374000D01*
X97500000Y-93626000D01*
X97520002Y-93557879D01*
X97573658Y-93511386D01*
X97626000Y-93500000D01*
X105874000Y-93500000D01*
X105942121Y-93520002D01*
G37*
%TD.AperFunction*%
%TA.AperFunction,Conductor*%
G36*
X111142121Y-90320002D02*
G01*
X111188614Y-90373658D01*
X111200000Y-90426000D01*
X111200000Y-92755200D01*
X111179998Y-92823321D01*
X111126342Y-92869814D01*
X111074000Y-92881200D01*
X108503995Y-92881200D01*
X108487549Y-92880122D01*
X108437475Y-92873530D01*
X108205402Y-92904082D01*
X107996992Y-92990409D01*
X107948774Y-93000000D01*
X107926000Y-93000000D01*
X107857879Y-92979998D01*
X107811386Y-92926342D01*
X107800000Y-92874000D01*
X107800000Y-90426000D01*
X107820002Y-90357879D01*
X107873658Y-90311386D01*
X107926000Y-90300000D01*
X111074000Y-90300000D01*
X111142121Y-90320002D01*
G37*
%TD.AperFunction*%
%TA.AperFunction,Conductor*%
G36*
X113236905Y-80036905D02*
G01*
X116663095Y-83463095D01*
X116700000Y-83552190D01*
X116700000Y-86674001D01*
X116679998Y-86742122D01*
X116626342Y-86788615D01*
X116574000Y-86800001D01*
X116197875Y-86800001D01*
X116181429Y-86798923D01*
X116083261Y-86786000D01*
X115183423Y-86786000D01*
X115115302Y-86765998D01*
X115086901Y-86740990D01*
X115056571Y-86704845D01*
X115002960Y-86673893D01*
X114993689Y-86667987D01*
X114943002Y-86632495D01*
X114937104Y-86630915D01*
X114906715Y-86618327D01*
X114901424Y-86615272D01*
X114840466Y-86604524D01*
X114829734Y-86602145D01*
X114769959Y-86586128D01*
X114708312Y-86591521D01*
X114697332Y-86592000D01*
X112355562Y-86592000D01*
X112230170Y-86614110D01*
X112208290Y-86616024D01*
X111649995Y-86616025D01*
X111550894Y-86635737D01*
X111466876Y-86691876D01*
X111410737Y-86775894D01*
X111391024Y-86875001D01*
X111391025Y-87325005D01*
X111406025Y-87400419D01*
X111406025Y-87449581D01*
X111391024Y-87525001D01*
X111391024Y-87774000D01*
X111371022Y-87842121D01*
X111317366Y-87888614D01*
X111265026Y-87899999D01*
X109626000Y-87899999D01*
X109557879Y-87879997D01*
X109511386Y-87826341D01*
X109500000Y-87773999D01*
X109500001Y-80126000D01*
X109520003Y-80057879D01*
X109573659Y-80011386D01*
X109626001Y-80000000D01*
X113147810Y-80000000D01*
X113236905Y-80036905D01*
G37*
%TD.AperFunction*%
%TA.AperFunction,Conductor*%
G36*
X100994697Y-97520002D02*
G01*
X101036199Y-97563880D01*
X102700000Y-100500000D01*
X105874000Y-100500000D01*
X105942121Y-100520002D01*
X105988614Y-100573658D01*
X106000000Y-100626000D01*
X106000000Y-102585971D01*
X105979998Y-102654092D01*
X105926342Y-102700585D01*
X105886537Y-102711346D01*
X103721635Y-102927836D01*
X103000000Y-103000000D01*
X102999999Y-103000001D01*
X102999997Y-103000002D01*
X102000001Y-103999998D01*
X102000000Y-104000000D01*
X102000000Y-106778130D01*
X101979998Y-106846251D01*
X101926342Y-106892744D01*
X101878198Y-106904060D01*
X101250740Y-106924975D01*
X99054636Y-106998179D01*
X98961344Y-106961344D01*
X98536905Y-106536905D01*
X98500000Y-106447810D01*
X98500000Y-103000000D01*
X98499999Y-102999998D01*
X97536905Y-102036905D01*
X97500000Y-101947810D01*
X97500000Y-97626000D01*
X97520002Y-97557879D01*
X97573658Y-97511386D01*
X97626000Y-97500000D01*
X100926576Y-97500000D01*
X100994697Y-97520002D01*
G37*
%TD.AperFunction*%
%TA.AperFunction,Conductor*%
G36*
X117236905Y-64636905D02*
G01*
X118500000Y-65900000D01*
X119574000Y-65900000D01*
X119642121Y-65920002D01*
X119688614Y-65973658D01*
X119700000Y-66026000D01*
X119700000Y-66974000D01*
X119679998Y-67042121D01*
X119626342Y-67088614D01*
X119574000Y-67100000D01*
X116526000Y-67100000D01*
X116457879Y-67079998D01*
X116411386Y-67026342D01*
X116400000Y-66974000D01*
X116400000Y-64726000D01*
X116420002Y-64657879D01*
X116473658Y-64611386D01*
X116526000Y-64600000D01*
X117147810Y-64600000D01*
X117236905Y-64636905D01*
G37*
%TD.AperFunction*%
%TA.AperFunction,Conductor*%
G36*
X100942121Y-64520002D02*
G01*
X100988614Y-64573658D01*
X101000000Y-64626000D01*
X101000000Y-66674000D01*
X100979998Y-66742121D01*
X100926342Y-66788614D01*
X100874000Y-66800000D01*
X98726000Y-66800000D01*
X98657879Y-66779998D01*
X98611386Y-66726342D01*
X98600000Y-66674000D01*
X98600000Y-64626000D01*
X98620002Y-64557879D01*
X98673658Y-64511386D01*
X98726000Y-64500000D01*
X100874000Y-64500000D01*
X100942121Y-64520002D01*
G37*
%TD.AperFunction*%
%TA.AperFunction,Conductor*%
G36*
X115535389Y-77030334D02*
G01*
X117250000Y-78500000D01*
X119000000Y-80000000D01*
X122874000Y-80000000D01*
X122942121Y-80020002D01*
X122988614Y-80073658D01*
X123000000Y-80126000D01*
X123000000Y-81874000D01*
X122979998Y-81942121D01*
X122926342Y-81988614D01*
X122874000Y-82000000D01*
X117547343Y-82000000D01*
X117464371Y-81968825D01*
X113500000Y-78500000D01*
X110626000Y-78500000D01*
X110557879Y-78479998D01*
X110511386Y-78426342D01*
X110500000Y-78374000D01*
X110500000Y-77126000D01*
X110520002Y-77057879D01*
X110573658Y-77011386D01*
X110626000Y-77000000D01*
X115453390Y-77000000D01*
X115535389Y-77030334D01*
G37*
%TD.AperFunction*%
%TA.AperFunction,Conductor*%
G36*
X151523994Y-110523994D02*
G01*
X155499998Y-114499999D01*
X155500000Y-114500000D01*
X157775813Y-114500000D01*
X157843934Y-114520002D01*
X157890427Y-114573658D01*
X157901800Y-114624174D01*
X157998147Y-121272174D01*
X157979134Y-121340578D01*
X157926158Y-121387843D01*
X157872160Y-121400000D01*
X153352190Y-121400000D01*
X153263095Y-121363095D01*
X151800002Y-119900001D01*
X151800000Y-119900000D01*
X141026000Y-119900000D01*
X140957879Y-119879998D01*
X140911386Y-119826342D01*
X140900000Y-119774000D01*
X140900000Y-110625846D01*
X140920002Y-110557725D01*
X140973658Y-110511232D01*
X141025846Y-110499846D01*
X148961927Y-110490120D01*
X151434745Y-110487089D01*
X151523994Y-110523994D01*
G37*
%TD.AperFunction*%
%TA.AperFunction,Conductor*%
G36*
X108850506Y-99492205D02*
G01*
X108912924Y-99567002D01*
X110377690Y-104327493D01*
X110378606Y-104398484D01*
X110346357Y-104453643D01*
X107936905Y-106863095D01*
X107847810Y-106900000D01*
X106426000Y-106900000D01*
X106357879Y-106879998D01*
X106311386Y-106826342D01*
X106300000Y-106774000D01*
X106300000Y-103626000D01*
X106320002Y-103557879D01*
X106373658Y-103511386D01*
X106426000Y-103500000D01*
X107300000Y-103500000D01*
X107300000Y-103499999D01*
X107300001Y-103499999D01*
X108673527Y-99562556D01*
X108714850Y-99504825D01*
X108780825Y-99478599D01*
X108850506Y-99492205D01*
G37*
%TD.AperFunction*%
%TA.AperFunction,Conductor*%
G36*
X125442121Y-59274002D02*
G01*
X125488614Y-59327658D01*
X125500000Y-59380000D01*
X125500000Y-64074000D01*
X125479998Y-64142121D01*
X125426342Y-64188614D01*
X125374000Y-64200000D01*
X124826000Y-64200000D01*
X124757879Y-64179998D01*
X124711386Y-64126342D01*
X124700000Y-64074000D01*
X124700000Y-63200000D01*
X124699999Y-63199998D01*
X124000002Y-62500001D01*
X124000000Y-62500000D01*
X123526000Y-62500000D01*
X123457879Y-62479998D01*
X123411386Y-62426342D01*
X123400000Y-62374000D01*
X123400000Y-59380000D01*
X123420002Y-59311879D01*
X123473658Y-59265386D01*
X123526000Y-59254000D01*
X125374000Y-59254000D01*
X125442121Y-59274002D01*
G37*
%TD.AperFunction*%
%TA.AperFunction,Conductor*%
G36*
X145032249Y-99522171D02*
G01*
X146600000Y-100600000D01*
X158274000Y-100600000D01*
X158342121Y-100620002D01*
X158388614Y-100673658D01*
X158400000Y-100726000D01*
X158400000Y-110975253D01*
X158379998Y-111043374D01*
X158326342Y-111089867D01*
X158275260Y-111101247D01*
X153997772Y-111144015D01*
X153907079Y-111106778D01*
X153901590Y-111101247D01*
X151916054Y-109100588D01*
X140000000Y-109000000D01*
X139999999Y-109000002D01*
X139999997Y-109000002D01*
X138036905Y-110963095D01*
X137947810Y-111000000D01*
X116126000Y-111000000D01*
X116057879Y-110979998D01*
X116011386Y-110926342D01*
X116000000Y-110874000D01*
X116000000Y-106626000D01*
X116020002Y-106557879D01*
X116073658Y-106511386D01*
X116126000Y-106500000D01*
X122000000Y-106500000D01*
X122000002Y-106499999D01*
X123499999Y-105000002D01*
X123500000Y-105000000D01*
X123500000Y-104198717D01*
X152286438Y-104198717D01*
X152286438Y-104198722D01*
X152317518Y-104480234D01*
X152387954Y-104754571D01*
X152496340Y-105016238D01*
X152640518Y-105260030D01*
X152817601Y-105481066D01*
X152817609Y-105481074D01*
X153024065Y-105674949D01*
X153255789Y-105837808D01*
X153508156Y-105966396D01*
X153776111Y-106058138D01*
X154054322Y-106111210D01*
X154337237Y-106124551D01*
X154619210Y-106097898D01*
X154894616Y-106031779D01*
X155157957Y-105927515D01*
X155157962Y-105927512D01*
X155403974Y-105787189D01*
X155627773Y-105613593D01*
X155824879Y-105410197D01*
X155991352Y-105181066D01*
X156123886Y-104930753D01*
X156123889Y-104930744D01*
X156219828Y-104664262D01*
X156277261Y-104386924D01*
X156277262Y-104386917D01*
X156290101Y-103978387D01*
X156250193Y-103697980D01*
X156250191Y-103697975D01*
X156171176Y-103426001D01*
X156054619Y-103167856D01*
X155902867Y-102928733D01*
X155902854Y-102928716D01*
X155718925Y-102713363D01*
X155718910Y-102713348D01*
X155506465Y-102526052D01*
X155269738Y-102370551D01*
X155013466Y-102249958D01*
X154742760Y-102166678D01*
X154742754Y-102166677D01*
X154463012Y-102122370D01*
X154463014Y-102122370D01*
X154179820Y-102117922D01*
X154179809Y-102117923D01*
X153898830Y-102153419D01*
X153898815Y-102153422D01*
X153625645Y-102228152D01*
X153625626Y-102228158D01*
X153365705Y-102340636D01*
X153124202Y-102488629D01*
X152905976Y-102669160D01*
X152905968Y-102669169D01*
X152715357Y-102878648D01*
X152715355Y-102878650D01*
X152556157Y-103112903D01*
X152431553Y-103367250D01*
X152344032Y-103636612D01*
X152344030Y-103636620D01*
X152295334Y-103915630D01*
X152286438Y-104198717D01*
X123500000Y-104198717D01*
X123500000Y-99626000D01*
X123520002Y-99557879D01*
X123573658Y-99511386D01*
X123626000Y-99500000D01*
X144960866Y-99500000D01*
X145032249Y-99522171D01*
G37*
%TD.AperFunction*%
%TA.AperFunction,Conductor*%
G36*
X122242121Y-59274002D02*
G01*
X122288614Y-59327658D01*
X122300000Y-59380000D01*
X122300000Y-62341513D01*
X122279998Y-62409634D01*
X122248061Y-62443449D01*
X122245391Y-62445389D01*
X122127158Y-62608124D01*
X122065000Y-62799427D01*
X122065000Y-63000573D01*
X122127158Y-63191876D01*
X122245390Y-63354610D01*
X122271082Y-63373276D01*
X122286117Y-63386117D01*
X122863096Y-63963096D01*
X122900000Y-64052190D01*
X122900000Y-67874000D01*
X122879998Y-67942121D01*
X122826342Y-67988614D01*
X122774000Y-68000000D01*
X121226000Y-68000000D01*
X121157879Y-67979998D01*
X121111386Y-67926342D01*
X121100000Y-67874000D01*
X121100000Y-64100000D01*
X116826000Y-64100000D01*
X116757879Y-64079998D01*
X116711386Y-64026342D01*
X116700000Y-63974000D01*
X116700000Y-59380000D01*
X116720002Y-59311879D01*
X116773658Y-59265386D01*
X116826000Y-59254000D01*
X122174000Y-59254000D01*
X122242121Y-59274002D01*
G37*
%TD.AperFunction*%
M02*
