M48
; DRILL file {KiCad 5.99.0-unknown-dd374e12a~102~ubuntu20.04.1} date Wed Dec  2 08:27:15 2020
; FORMAT={-:-/ absolute / inch / decimal}
; #@! TF.CreationDate,2020-12-02T08:27:15-08:00
; #@! TF.GenerationSoftware,Kicad,Pcbnew,5.99.0-unknown-dd374e12a~102~ubuntu20.04.1
FMAT,2
INCH
T1C0.0150
T2C0.0256
T3C0.0394
T4C0.0472
T5C0.0551
T6C0.0591
T7C0.0949
T8C0.1260
T9C0.0315
T10C0.0669
%
G90
G05
T1
X3.5433Y-4.3898
X3.5531Y-4.6449
X3.5642Y-4.2402
X3.622Y-4.3299
X3.6575Y-3.4961
X3.6614Y-4.1929
X3.6614Y-4.2413
X3.6811Y-4.6457
X3.7303Y-4.448
X3.7413Y-4.3307
X3.8031Y-2.8307
X3.8189Y-4.0748
X3.8386Y-4.252
X3.8583Y-3.7008
X3.8718Y-3.437
X3.878Y-2.7559
X3.8994Y-3.5709
X3.9016Y-2.5591
X3.9173Y-3.7008
X3.9409Y-4.437
X3.9528Y-2.5591
X3.9528Y-2.6102
X3.9528Y-2.6693
X3.9646Y-4.5472
X3.9961Y-3.7008
X3.9961Y-3.7795
X4.0118Y-3.4685
X4.0118Y-4.5472
X4.0457Y-4.7333
X4.0551Y-4.1339
X4.0669Y-3.5276
X4.1339Y-4.1339
X4.1614Y-3.5945
X4.2717Y-3.4055
X4.2717Y-3.4724
X4.2717Y-3.5433
X4.2717Y-3.6122
X4.3504Y-3.252
X4.3504Y-3.3189
X4.3504Y-3.4055
X4.3504Y-3.4724
X4.3504Y-3.5433
X4.3504Y-3.6122
X4.3819Y-4.5118
X4.4134Y-4.622
X4.4488Y-3.252
X4.4488Y-3.3189
X4.4646Y-4.7559
X4.4724Y-4.6969
X4.5079Y-4.8228
X4.5276Y-3.0709
X4.5315Y-3.252
X4.5394Y-4.5827
X4.5669Y-3.1102
X4.5703Y-4.9837
X4.6024Y-2.5591
X4.6024Y-2.6142
X4.6063Y-3.1496
X4.6181Y-3.6417
X4.6378Y-4.6339
X4.6811Y-2.4488
X4.7047Y-2.563
X4.7677Y-2.3701
X4.8031Y-2.6575
X4.8307Y-2.4764
X4.8622Y-4.5394
X4.8819Y-2.3701
X4.8921Y-2.8048
X4.9134Y-4.6496
X4.9189Y-2.7779
X4.9252Y-2.3858
X4.9803Y-2.9488
X4.9843Y-2.4606
X4.9941Y-3.1673
X5.0Y-4.5448
X5.0315Y-2.6417
X5.0591Y-4.5433
X5.0728Y-3.2146
X5.1051Y-2.798
X5.1401Y-3.0528
X5.1555Y-2.7224
X5.1575Y-2.5591
X5.1609Y-3.2717
X5.167Y-3.0259
X5.1924Y-3.2992
X5.248Y-4.748
X5.2618Y-2.7343
X5.2657Y-2.8209
X5.3012Y-3.0098
X5.313Y-2.9508
X5.315Y-4.5866
X5.3346Y-3.1102
X5.3425Y-4.9055
X5.374Y-3.1496
X5.374Y-4.626
X5.3819Y-5.0236
X5.4168Y-3.2913
X5.4213Y-4.7362
X5.4213Y-4.8268
X5.4331Y-2.3661
X5.4365Y-2.7067
X5.4567Y-4.9843
X5.4724Y-3.0709
X5.4862Y-2.7067
X5.502Y-2.9724
X5.5354Y-4.937
X5.5433Y-2.6929
X5.5704Y-3.2913
X5.5866Y-2.6929
X5.6024Y-2.5866
X5.6713Y-2.8602
X5.7372Y-3.0369
X5.7392Y-2.9168
X5.7461Y-3.2205
X5.7638Y-2.6024
X5.7756Y-4.8071
X5.7756Y-4.8661
X5.7756Y-4.9252
X5.7756Y-4.9843
X5.7756Y-5.0433
X5.8031Y-3.8386
X5.8135Y-3.3135
X5.8268Y-5.0433
X5.8504Y-3.8386
X5.874Y-2.5492
X5.8747Y-3.3146
X5.878Y-5.0433
X5.8976Y-3.8386
X5.9449Y-3.8386
X5.9449Y-3.878
X5.9449Y-3.9173
X5.9547Y-3.248
X5.9646Y-2.6772
X6.063Y-2.6772
X6.0709Y-2.6024
X6.107Y-3.3146
X6.1693Y-3.311
X6.2244Y-2.6024
X4.1626Y-4.525
X4.1626Y-4.5762
X4.1626Y-4.6274
X4.1626Y-4.6785
X4.7835Y-2.563
X4.8268Y-2.563
X4.1626Y-4.7297
X4.1626Y-4.7809
X4.1626Y-4.8321
X4.2138Y-4.525
X4.2138Y-4.5762
X4.2138Y-4.6274
X4.2138Y-4.6785
X4.2138Y-4.7297
X4.2138Y-4.7809
X4.2138Y-4.8321
X4.265Y-4.525
X4.265Y-4.5762
X4.265Y-4.6274
X4.265Y-4.6785
X4.265Y-4.7297
X4.265Y-4.7809
X4.265Y-4.8321
X3.626Y-4.4067
X3.626Y-4.45
T2
X4.626Y-4.9579
X4.626Y-5.0079
X4.676Y-4.9579
X4.676Y-5.0079
X4.726Y-4.9579
X4.726Y-5.0079
X4.776Y-4.9579
X4.776Y-5.0079
X4.826Y-4.9579
X4.826Y-5.0079
T3
X5.548Y-3.563
X5.648Y-3.563
X5.748Y-3.563
X4.7047Y-4.6693
X4.7047Y-4.7693
X4.8047Y-4.6693
X4.8047Y-4.7693
X5.0079Y-5.0197
X5.1079Y-5.0197
X5.2079Y-5.0197
X5.3079Y-5.0197
X5.689Y-2.4803
X5.689Y-2.5803
X5.689Y-2.6803
X5.689Y-2.7803
T4
X4.7441Y-3.0906
X4.7441Y-3.1906
X4.7441Y-3.2906
X3.937Y-3.1575
X3.937Y-3.2559
X3.5807Y-2.6152
X3.5807Y-2.9203
T5
X3.7303Y-2.6211
X3.7303Y-2.9144
T6
X6.126Y-4.2992
X6.126Y-4.7283
T7
X6.0744Y-3.4575
X6.0744Y-4.0992
T8
X6.1417Y-2.4409
X3.622Y-4.9606
X6.1417Y-4.9606
X3.622Y-2.4409
T9
X3.689Y-2.6693
X3.689Y-2.8661
T10
X3.6543Y-3.1575
X3.6543Y-3.2559
T0
M30
